<?xml version="1.0" encoding="utf-8"?>
<!-- Generator: Adobe Illustrator 16.0.0, SVG Export Plug-In . SVG Version: 6.00 Build 0)  -->
<!DOCTYPE svg PUBLIC "-//W3C//DTD SVG 1.1//EN" "http://www.w3.org/Graphics/SVG/1.1/DTD/svg11.dtd">
<svg version="1.1" id="Layer_1" xmlns="http://www.w3.org/2000/svg" xmlns:xlink="http://www.w3.org/1999/xlink" x="0px" y="0px"
	 width="39.182px" height="28.582px" viewBox="0 0 39.182 28.582" enable-background="new 0 0 39.182 28.582" xml:space="preserve">
<path fill="#010101" stroke="#FFFFFF" stroke-miterlimit="10" d="M9.969,19.802c0.233,0.24,0.468,0.487,0.702,0.739
	c0.059,0.063,0.118,0.127,0.177,0.19l0.088,0.096c0.015,0.015,0.017,0.016,0.026,0.023c0.027,0.024,0.056,0.05,0.084,0.074
	c0.054,0.05,0.105,0.099,0.154,0.149l0.073,0.076l0.035,0.04l0.019,0.02l0.009,0.011l0.004,0.005
	c0.001-0.001,0.003-0.004,0.004-0.005c0.106-0.145,0.224-0.281,0.344-0.416c0.584-0.708,1.186-1.414,1.779-2.108
	c1.191-1.39,2.37-2.743,3.429-4.042c3.555-4.417,8.006-8.722,12.526-12.256c0.111,0.144-0.093,0.652,0.336,0.43
	c0.208-0.121,0.392-0.222,0.558-0.304c0.168-0.081,0.314-0.145,0.445-0.194c0.26-0.099,0.451-0.14,0.596-0.144
	c0.291-0.006,0.399,0.141,0.508,0.286c0.108,0.145-1.122,0.848-0.639,0.711c-0.281,0.208-0.598,0.47-0.9,0.723
	c-0.303,0.254-0.593,0.5-0.803,0.705c-0.424,0.405-0.56,0.606,0.039,0.232c0.471-0.158,1.824-1.452,2.365-1.508
	c0.534-0.062-0.039,0.713,0.494,0.652c0.184-0.137,0.455-0.351,0.734-0.552c0.279-0.201,0.559-0.403,0.745-0.537
	c0.476-0.119-0.054,0.711,0.317,0.443c1.216-0.645,2.664-1.737,4.221-2.656c0.045,0.078,0.192,0.097,0.233,0.165
	c0.02,0.034,0.014,0.081-0.044,0.152c-0.057,0.073-0.16,0.17-0.34,0.307c-0.301,0.188-0.603,0.378-0.904,0.567
	c-0.295,0.197-0.593,0.396-0.89,0.594c-0.299,0.194-0.591,0.403-0.883,0.61c-0.292,0.208-0.589,0.408-0.876,0.625
	c-1.162,0.846-2.296,1.743-3.417,2.661c-1.112,0.93-2.213,1.882-3.288,2.868c-1.074,0.988-2.136,1.994-3.174,3.029
	c-1.037,1.034-2.061,2.087-3.064,3.158c-1.004,1.073-1.991,2.162-2.961,3.266c-0.971,1.104-1.923,2.223-2.857,3.354l-0.697,0.85
	l-0.344,0.427l-0.298,0.372l-0.351,0.441l-0.351,0.442l-0.347,0.451l-0.346,0.452l-0.346,0.46c-0.461,0.615-0.922,1.23-1.383,1.845
	c-1.351-1.585-2.701-3.17-4.049-4.752c-0.729-0.863-1.458-1.726-2.185-2.586c-1.452-1.727-2.891-3.453-4.315-5.182
	c-1.138-1.474,0.044-0.647,1.156,0.236c-0.371-0.294-0.163-0.471-0.535-0.767c0.208-0.177,1.157,0.236,2.433,1.593
	c-0.302-0.354-0.603-0.708-0.905-1.062c-0.232-0.412,0.208-0.177,0.346-0.294c0.302,0.354,0.604,0.708,0.672,0.648
	c0.069-0.059,0.208-0.177,0.277-0.235c-0.302-0.354-0.906-1.062-1.207-1.415c0.301,0.354,0.603,0.707,0.672,0.648
	s0.208-0.177,0.277-0.235c0.673,0.648,1.439,1.827,2.112,2.477l0.207-0.178c-0.535-0.767-1.509-1.769-2.112-2.477
	c0.372,0.296,0.44,0.237,0.579,0.119c0.974,1.002,1.672,2.24,2.784,3.124l-0.905-1.061C7.763,16.796,8.994,18.8,9.969,19.802z"/>
</svg>
