<?xml version="1.0" encoding="utf-8"?>
<!-- Generator: Adobe Illustrator 16.0.0, SVG Export Plug-In . SVG Version: 6.00 Build 0)  -->
<!DOCTYPE svg PUBLIC "-//W3C//DTD SVG 1.1//EN" "http://www.w3.org/Graphics/SVG/1.1/DTD/svg11.dtd">
<svg version="1.1" id="Layer_1" xmlns="http://www.w3.org/2000/svg" xmlns:xlink="http://www.w3.org/1999/xlink" x="0px" y="0px"
	 width="20.142px" height="29.922px" viewBox="0 0 20.142 29.922" enable-background="new 0 0 20.142 29.922" xml:space="preserve">
<path fill="#FFFFFF" d="M20.142,10.07C20.142,4.508,15.632,0,10.071,0C4.509,0,0,4.508,0,10.07c0,4.29,2.686,7.942,6.462,9.393
	l3.609,10.459l3.61-10.459C17.457,18.012,20.142,14.359,20.142,10.07z M10.071,6.388c2.034,0,3.686,1.648,3.686,3.684
	c0,2.034-1.652,3.684-3.686,3.684c-2.034,0-3.684-1.65-3.684-3.684C6.388,8.036,8.037,6.388,10.071,6.388z"/>
</svg>
