<?xml version="1.0" encoding="utf-8"?>
<!-- Generator: Adobe Illustrator 16.0.0, SVG Export Plug-In . SVG Version: 6.00 Build 0)  -->
<!DOCTYPE svg PUBLIC "-//W3C//DTD SVG 1.1//EN" "http://www.w3.org/Graphics/SVG/1.1/DTD/svg11.dtd">
<svg version="1.1" id="Layer_1" xmlns="http://www.w3.org/2000/svg" xmlns:xlink="http://www.w3.org/1999/xlink" x="0px" y="0px"
	 width="134.081px" height="36.826px" viewBox="0 0 134.081 36.826" enable-background="new 0 0 134.081 36.826"
	 xml:space="preserve">
<g>
	<path fill="none" stroke="#414042" stroke-width="2" stroke-linecap="round" stroke-linejoin="round" stroke-miterlimit="10" d="
		M102.26,22.183h-3.674c0-5.216-4.229-9.445-9.445-9.445s-9.444,4.229-9.444,9.445h-3.674c-3.768,0-6.821,3.054-6.821,6.821
		s3.054,6.822,6.821,6.822h26.237c3.767,0,6.821-3.055,6.821-6.822S106.026,22.183,102.26,22.183z"/>
</g>
<g>
	<path fill="none" stroke="#414042" stroke-width="2" stroke-linecap="round" stroke-linejoin="round" stroke-miterlimit="10" d="
		M128.996,6.656h-2.199c0-3.124-2.532-5.656-5.656-5.656c-3.123,0-5.655,2.532-5.655,5.656h-2.2c-2.256,0-4.084,1.829-4.084,4.085
		c0,2.255,1.828,4.084,4.084,4.084h15.711c2.256,0,4.085-1.829,4.085-4.084C133.081,8.485,131.252,6.656,128.996,6.656z"/>
</g>
<line fill="none" stroke="#414042" stroke-width="2" stroke-linecap="round" stroke-linejoin="round" stroke-miterlimit="10" x1="12.996" y1="35.826" x2="1" y2="35.826"/>
<line fill="none" stroke="#414042" stroke-width="2" stroke-linecap="round" stroke-linejoin="round" stroke-miterlimit="10" x1="65" y1="35.826" x2="20.996" y2="35.826"/>
</svg>
