<?xml version="1.0" encoding="utf-8"?>
<!-- Generator: Adobe Illustrator 16.0.0, SVG Export Plug-In . SVG Version: 6.00 Build 0)  -->
<!DOCTYPE svg PUBLIC "-//W3C//DTD SVG 1.1//EN" "http://www.w3.org/Graphics/SVG/1.1/DTD/svg11.dtd">
<svg version="1.1" id="Layer_1" xmlns="http://www.w3.org/2000/svg" xmlns:xlink="http://www.w3.org/1999/xlink" x="0px" y="0px"
	 width="126.261px" height="87.503px" viewBox="0 0 126.261 87.503" enable-background="new 0 0 126.261 87.503"
	 xml:space="preserve">
<g>
	<path fill="none" stroke="#414042" stroke-width="2" stroke-linecap="round" stroke-linejoin="round" stroke-miterlimit="10" d="
		M111.052,58.088H103.4c0-10.865-8.805-19.673-19.671-19.673c-10.864,0-19.671,8.808-19.671,19.673h-7.651
		c-7.847,0-14.208,6.36-14.208,14.208c0,7.846,6.36,14.207,14.208,14.207h54.646c7.846,0,14.209-6.361,14.209-14.207
		C125.261,64.449,118.898,58.088,111.052,58.088z"/>
</g>
<g>
	<g>
		<path fill="none" stroke="#414042" stroke-width="2" stroke-linecap="round" stroke-linejoin="round" stroke-miterlimit="10" d="
			M34.058,10.445h-3.674C30.384,5.229,26.157,1,20.939,1c-5.216,0-9.444,4.229-9.444,9.445H7.821C4.054,10.445,1,13.5,1,17.267
			c0,3.767,3.054,6.821,6.821,6.821h26.237c3.767,0,6.822-3.055,6.822-6.821C40.88,13.5,37.825,10.445,34.058,10.445z"/>
	</g>
	
		<line fill="none" stroke="#414042" stroke-width="2" stroke-linecap="round" stroke-linejoin="round" stroke-miterlimit="10" x1="44.376" y1="24.087" x2="71.058" y2="24.087"/>
</g>
</svg>
