<?xml version="1.0" encoding="utf-8"?>
<!-- Generator: Adobe Illustrator 16.0.0, SVG Export Plug-In . SVG Version: 6.00 Build 0)  -->
<!DOCTYPE svg PUBLIC "-//W3C//DTD SVG 1.1//EN" "http://www.w3.org/Graphics/SVG/1.1/DTD/svg11.dtd">
<svg version="1.1" id="Layer_1" xmlns="http://www.w3.org/2000/svg" xmlns:xlink="http://www.w3.org/1999/xlink" x="0px" y="0px"
	 width="500.565px" height="203.574px" viewBox="0 0 500.565 203.574" enable-background="new 0 0 500.565 203.574"
	 xml:space="preserve">
<line fill="none" stroke="#221F1F" stroke-width="2.138" stroke-linecap="round" stroke-linejoin="round" stroke-miterlimit="10" x1="4.711" y1="202.449" x2="488.25" y2="202.449"/>
<g>
	
		<rect x="5.609" y="56.108" fill="#66BF6D" stroke="#221F1F" stroke-width="2" stroke-linecap="round" stroke-miterlimit="10" width="22.498" height="12.335"/>
	<path fill="#F8DAB4" stroke="#221F1F" stroke-width="2" stroke-linecap="round" stroke-miterlimit="10" d="M30.023,66.325
		c-0.93,2.918-3.67,5.049-6.887,5.049H10.579c-3.217,0-5.958-2.131-6.887-5.049H30.023z"/>
	<path fill="#F8DAB4" stroke="#221F1F" stroke-width="2" stroke-linecap="round" stroke-miterlimit="10" d="M30.023,57.865
		c-0.93-2.918-3.67-5.049-6.887-5.049H10.579c-3.217,0-5.958,2.131-6.887,5.049H30.023z"/>
	<path fill="#C16C86" stroke="#221F1F" stroke-width="2" stroke-linecap="round" stroke-miterlimit="10" d="M2.896,63.99H30.82
		c1.042,0,1.895-0.853,1.895-1.895l0,0c0-1.043-0.852-1.896-1.895-1.896H2.896C1.853,60.199,1,61.052,1,62.095l0,0
		C1,63.137,1.853,63.99,2.896,63.99z"/>
	
		<circle fill="#D1937B" stroke="#221F1F" stroke-width="2" stroke-linecap="round" stroke-miterlimit="10" cx="73.401" cy="41.462" r="10.658"/>
	<polygon fill="#F3CDCB" stroke="#221F1F" stroke-width="2" stroke-miterlimit="10" points="73.042,87.527 46.499,87.527 
		46.499,73.313 55.509,73.313 55.509,64.817 64.034,64.817 64.034,73.313 73.042,73.313 	"/>
	<path fill="#F3CDCB" stroke="#221F1F" stroke-width="2" stroke-miterlimit="10" d="M81.84,156.115L81.84,156.115
		c2.288,0,4.161-1.871,4.161-4.159V94.337c0-2.289-1.873-4.161-4.161-4.161l0,0c-2.287,0-4.16,1.872-4.16,4.161v57.619
		C77.68,154.244,79.554,156.115,81.84,156.115z"/>
	<g>
		<path fill="#F3CDCB" stroke="#221F1F" stroke-width="2" stroke-miterlimit="10" d="M15.597,104.281
			c-1.589,1.924-1.317,4.771,0.607,6.359l0,0c1.923,1.59,4.771,1.317,6.359-0.605l22.6-29.232c1.587-1.924,1.317-4.771-0.607-6.359
			l0,0c-1.923-1.588-4.77-1.317-6.36,0.608L15.597,104.281z"/>
	</g>
	<g>
		<path fill="#F3CDCB" stroke="#221F1F" stroke-width="2" stroke-miterlimit="10" d="M14.534,107.162c0,2.495,2.006,4.517,4.5,4.513
			l0,0c2.494-0.001,4.534-2.023,4.533-4.521V65.102c0-2.495-2.037-4.516-4.533-4.514l0,0c-2.495,0-4.503,2.025-4.5,4.521V107.162z"
			/>
	</g>
	<path fill="#9CD2DE" stroke="#221F1F" stroke-width="2" stroke-miterlimit="10" d="M28.633,87.527l9.562-12.476
		c1.589-1.925,4.437-2.196,6.36-0.608c1.924,1.589,2.195,4.435,0.607,6.359L35.4,93.54L28.633,87.527z"/>
	<path fill="#9CD2DE" stroke="#221F1F" stroke-width="2" stroke-miterlimit="10" d="M46.77,73.313l13.061,12.295l13.061-12.295
		h2.139c6.034,0,10.971,4.937,10.971,10.97v14.482H77.68v48.09h-35.7V73.313H46.77z"/>
	
		<line fill="none" stroke="#221F1F" stroke-width="2" stroke-linecap="round" stroke-miterlimit="10" x1="77.68" y1="98.766" x2="77.68" y2="90.814"/>
	
		<line fill="none" stroke="#221F1F" stroke-width="2" stroke-linecap="round" stroke-miterlimit="10" x1="59.77" y1="93.046" x2="59.77" y2="129.292"/>
	
		<line fill="none" stroke="#221F1F" stroke-width="2" stroke-linecap="round" stroke-miterlimit="10" x1="59.77" y1="132.363" x2="59.77" y2="137.995"/>
	
		<rect x="41.98" y="146.795" fill="#F27280" stroke="#221F1F" stroke-width="2" stroke-miterlimit="10" width="35.7" height="55.654"/>
	
		<line fill="none" stroke="#221F1F" stroke-width="2" stroke-linecap="round" stroke-linejoin="round" stroke-miterlimit="10" x1="53.284" y1="169.813" x2="66.376" y2="169.813"/>
	
		<line fill="none" stroke="#221F1F" stroke-width="2" stroke-linecap="round" stroke-linejoin="round" stroke-miterlimit="10" x1="71.974" y1="150.64" x2="47.688" y2="150.64"/>
	
		<line fill="none" stroke="#221F1F" stroke-width="2" stroke-linecap="round" stroke-linejoin="round" stroke-miterlimit="10" x1="59.77" y1="169.813" x2="59.77" y2="202.449"/>
	<g>
		<circle fill="#F3CDCB" stroke="#221F1F" stroke-width="2" stroke-miterlimit="10" cx="79.007" cy="48.07" r="4.291"/>
	</g>
	<circle fill="#F3CDCB" stroke="#221F1F" stroke-width="2" stroke-miterlimit="10" cx="60.175" cy="46.72" r="19.547"/>
	<g>
		<path fill="none" stroke="#221F1F" stroke-width="2" stroke-linecap="round" stroke-linejoin="round" stroke-miterlimit="10" d="
			M57.584,57.56L57.584,57.56c0,0.594,0.482,1.077,1.078,1.077h4.104"/>
		<g>
			
				<line fill="none" stroke="#221F1F" stroke-width="2" stroke-linecap="round" stroke-linejoin="round" stroke-miterlimit="10" x1="67.447" y1="50.294" x2="65.42" y2="50.294"/>
			
				<line fill="none" stroke="#221F1F" stroke-width="2" stroke-linecap="round" stroke-linejoin="round" stroke-miterlimit="10" x1="54.931" y1="50.294" x2="52.903" y2="50.294"/>
		</g>
	</g>
	
		<rect x="41.98" y="73.313" fill="#315778" stroke="#221F1F" stroke-width="2" stroke-miterlimit="10" width="10.187" height="73.482"/>
	
		<rect x="67.494" y="73.313" fill="#315778" stroke="#221F1F" stroke-width="2" stroke-miterlimit="10" width="10.186" height="73.292"/>
	<path fill="#D1937B" stroke="#221F1F" stroke-width="2" stroke-linecap="round" stroke-miterlimit="10" d="M47.784,28.415
		L30.558,45.643c8.404,8.404,20.959,9.598,27.902,2.656l17.227-17.227V31.07C67.283,22.667,54.727,21.473,47.784,28.415z"/>
	<path fill="none" stroke="#221F1F" stroke-width="2" stroke-linecap="round" stroke-miterlimit="10" d="M36.328,45.565
		c5.79,4.03,12.929,4.609,17.932,1.407"/>
</g>
<g>
	<g>
		<path fill="#FFFFFF" stroke="#221F1F" stroke-width="2" stroke-miterlimit="10" d="M248.552,103.589
			c1.588,1.926,1.317,4.771-0.607,6.36l0,0c-1.923,1.589-4.771,1.318-6.359-0.605l-22.6-29.232
			c-1.587-1.925-1.317-4.772,0.607-6.359l0,0c1.923-1.588,4.77-1.318,6.359,0.606L248.552,103.589z"/>
	</g>
	<g>
		<path fill="#FFFFFF" stroke="#221F1F" stroke-width="2" stroke-miterlimit="10" d="M176.684,74.137
			c1.764-1.763,4.611-1.774,6.373-0.008l0,0c1.763,1.763,1.775,4.637,0.009,6.4l-29.736,29.736
			c-1.765,1.765-4.634,1.753-6.396-0.012l0,0c-1.764-1.765-1.753-4.617,0.014-6.38L176.684,74.137z"/>
	</g>
	<path fill="#58595B" stroke="#221F1F" stroke-width="2" stroke-linecap="round" stroke-miterlimit="10" d="M223.609,46.359
		c0.012-0.295,0.022-0.588,0.022-0.886c0-12.496-10.13-22.625-22.625-22.625s-22.624,10.129-22.624,22.625
		c0,0.298,0.011,0.591,0.022,0.886H223.609z"/>
	<g>
		<circle fill="#F3CDCB" stroke="#221F1F" stroke-width="2" stroke-miterlimit="10" cx="220.132" cy="48.07" r="4.291"/>
	</g>
	<polygon fill="#F3CDCB" stroke="#221F1F" stroke-width="2" stroke-miterlimit="10" points="187.688,87.527 214.231,87.527 
		214.231,73.313 205.221,73.313 205.221,64.817 196.696,64.817 196.696,73.313 187.688,73.313 	"/>
	
		<line fill="none" stroke="#221F1F" stroke-width="2" stroke-linecap="round" stroke-miterlimit="10" x1="200.959" y1="93.046" x2="200.959" y2="129.292"/>
	
		<line fill="none" stroke="#221F1F" stroke-width="2" stroke-linecap="round" stroke-miterlimit="10" x1="200.959" y1="132.363" x2="200.959" y2="137.995"/>
	
		<rect x="183.049" y="146.795" fill="#FFFFFF" stroke="#221F1F" stroke-width="2" stroke-miterlimit="10" width="35.7" height="55.654"/>
	
		<line fill="none" stroke="#221F1F" stroke-width="2" stroke-linecap="round" stroke-linejoin="round" stroke-miterlimit="10" x1="207.445" y1="169.813" x2="194.353" y2="169.813"/>
	
		<line fill="none" stroke="#221F1F" stroke-width="2" stroke-linecap="round" stroke-linejoin="round" stroke-miterlimit="10" x1="188.756" y1="150.639" x2="213.042" y2="150.639"/>
	
		<line fill="none" stroke="#221F1F" stroke-width="2" stroke-linecap="round" stroke-linejoin="round" stroke-miterlimit="10" x1="200.959" y1="169.813" x2="200.959" y2="202.449"/>
	<g>
		<circle fill="#F3CDCB" stroke="#221F1F" stroke-width="2" stroke-miterlimit="10" cx="181.722" cy="48.07" r="4.291"/>
	</g>
	<circle fill="#F3CDCB" stroke="#221F1F" stroke-width="2" stroke-miterlimit="10" cx="200.554" cy="46.72" r="19.548"/>
	<g>
		
			<line fill="none" stroke="#221F1F" stroke-width="2" stroke-linecap="round" stroke-linejoin="round" stroke-miterlimit="10" x1="193.283" y1="50.294" x2="195.31" y2="50.294"/>
		
			<line fill="none" stroke="#221F1F" stroke-width="2" stroke-linecap="round" stroke-linejoin="round" stroke-miterlimit="10" x1="205.799" y1="50.294" x2="207.826" y2="50.294"/>
	</g>
	<polygon fill="#58595B" points="189.103,40.589 184.849,40.68 180.505,40.318 182.315,35.068 189.103,28.552 195.62,25.565 
		202.86,25.294 208.471,27.647 209.376,28.823 202.045,36.607 191.818,39.685 	"/>
	<path fill="#58595B" stroke="#221F1F" stroke-width="2" stroke-linecap="round" stroke-miterlimit="10" d="M181.267,40.783
		c2.708,1.42,5.79,2.224,9.06,2.224c8.802,0,16.241-5.82,18.69-13.821"/>
	
		<circle fill="none" stroke="#221F1F" stroke-width="2" stroke-linecap="round" stroke-linejoin="round" stroke-miterlimit="10" cx="194.081" cy="50.424" r="6.033"/>
	
		<circle fill="none" stroke="#221F1F" stroke-width="2" stroke-linecap="round" stroke-linejoin="round" stroke-miterlimit="10" cx="206.751" cy="50.424" r="6.033"/>
	
		<line fill="none" stroke="#221F1F" stroke-width="2" stroke-linecap="round" stroke-linejoin="round" stroke-miterlimit="10" x1="188.772" y1="47.287" x2="183.099" y2="47.287"/>
	
		<line fill="none" stroke="#221F1F" stroke-width="2" stroke-linecap="round" stroke-linejoin="round" stroke-miterlimit="10" x1="217.492" y1="47.287" x2="211.82" y2="47.287"/>
	<path fill="#9CD2DE" stroke="#221F1F" stroke-width="2" stroke-miterlimit="10" d="M213.968,73.313h-6.438
		c-0.108,3.572-3.03,6.436-6.627,6.436c-3.597,0-6.519-2.864-6.627-6.436h-6.428h-1.481h-3.317v22.215v51.267h35.708V95.528V73.313
		H213.968z"/>
	<g>
		
			<rect x="205.213" y="72.81" fill="#FFFFFF" stroke="#221F1F" stroke-width="2" stroke-miterlimit="10" width="18.101" height="91.955"/>
		
			<rect x="178.604" y="72.81" fill="#FFFFFF" stroke="#221F1F" stroke-width="2" stroke-miterlimit="10" width="18.101" height="91.955"/>
	</g>
	<g>
		<path fill="#FAB294" stroke="#221F1F" stroke-width="2" stroke-linecap="round" stroke-miterlimit="10" d="M207.053,95.497
			l-0.724-2.051h-20.696v23.532h0.022c0.121,1.998,1.763,3.585,3.792,3.585h23.653c-0.274,0-0.541-0.031-0.798-0.085h0.798V96.704
			L207.053,95.497z"/>
		<path fill="#FFFFFF" stroke="#221F1F" stroke-width="2" stroke-miterlimit="10" d="M209.286,92.854
			c0-2.106,1.708-3.814,3.815-3.814h-23.653c-2.106,0-3.814,1.708-3.814,3.814c0,2.107,1.708,3.814,3.814,3.814h23.653
			C210.994,96.669,209.286,94.962,209.286,92.854z"/>
	</g>
	<g>
		<g>
			<path fill="#FFFFFF" stroke="#221F1F" stroke-width="2" stroke-miterlimit="10" d="M150.129,111.583
				c-2.495-0.001-4.515-2.006-4.513-4.501l0,0c0.001-2.493,2.025-4.533,4.52-4.532h42.054c2.496,0.001,4.517,2.037,4.514,4.532l0,0
				c0,2.495-2.025,4.504-4.521,4.501H150.129z"/>
		</g>
		<path fill="#F3CDCB" stroke="#221F1F" stroke-width="2" stroke-miterlimit="10" d="M196.704,107.082
			c0.002-2.495-2.019-4.531-4.514-4.532h-2.908v9.033h2.902C194.679,111.586,196.704,109.577,196.704,107.082z"/>
	</g>
	
		<path fill="#FFFFFF" stroke="#221F1F" stroke-width="2" stroke-linecap="round" stroke-linejoin="round" stroke-miterlimit="10" d="
		M197.43,59.248c0.67,1.41,1.806,2.338,3.094,2.338c1.252,0,2.361-0.995,3.038-2.338H197.43z"/>
	<g>
		
			<rect x="244.026" y="56.081" transform="matrix(0.707 -0.7072 0.7072 0.707 26.421 192.5922)" fill="#9CD2DE" stroke="#221F1F" stroke-width="2" stroke-miterlimit="10" width="3.258" height="16.654"/>
		<path fill="#7B8287" stroke="#221F1F" stroke-width="2" stroke-miterlimit="10" d="M219.885,38.638
			c-5.514,5.514-5.514,14.453,0,19.967c5.514,5.515,14.454,5.515,19.968,0c5.514-5.514,5.514-14.453,0-19.967
			S225.398,33.125,219.885,38.638z M237.165,55.917c-4.03,4.03-10.562,4.03-14.591,0c-4.029-4.029-4.029-10.563,0-14.591
			c4.029-4.03,10.562-4.03,14.591,0C241.194,45.355,241.194,51.888,237.165,55.917z"/>
	</g>
	<g>
		<path fill="#FFFFFF" stroke="#221F1F" stroke-width="2" stroke-miterlimit="10" d="M249.614,106.471
			c-0.001,2.494-2.006,4.517-4.501,4.514l0,0c-2.493-0.001-4.534-2.025-4.532-4.521V64.41c0-2.495,2.037-4.516,4.532-4.513l0,0
			c2.495,0,4.504,2.024,4.501,4.52V106.471z"/>
	</g>
	<path fill="#F3CDCB" stroke="#221F1F" stroke-width="2" stroke-miterlimit="10" d="M245.113,59.897
		c-2.496-0.003-4.532,2.018-4.532,4.513v2.91h9.033v-2.902C249.617,61.921,247.608,59.897,245.113,59.897z"/>
	
		<line fill="none" stroke="#221F1F" stroke-width="2" stroke-miterlimit="10" x1="192.995" y1="115.528" x2="205.847" y2="115.528"/>
	<path fill="none" stroke="#221F1F" stroke-width="2" stroke-miterlimit="10" d="M229.559,41.012c4.199,0,7.603,3.404,7.603,7.603
		c0,2.443-1.152,4.618-2.944,6.008"/>
</g>
<g>
	<path fill="none" stroke="#221F1F" stroke-width="2.25" stroke-miterlimit="10" d="M96.247,23.875v3.09
		c0,3.181,2.579,5.761,5.762,5.761"/>
	<g>
		<g>
			<path fill="#FFFFFF" stroke="#221F1F" stroke-width="2.25" stroke-linecap="round" stroke-miterlimit="10" d="M107.943,45.41
				L107.943,45.41c-1.862,0-3.386-1.523-3.386-3.386v-9.808c0-1.861,1.524-3.386,3.386-3.386l0,0c1.862,0,3.386,1.524,3.386,3.386
				v9.808C111.329,43.887,109.805,45.41,107.943,45.41z"/>
			<path fill="#F27280" stroke="#221F1F" stroke-width="2.25" stroke-linecap="round" stroke-miterlimit="10" d="M145.824,3.192
				c5.804-2.41,12.649-2.054,18.366,1.555c5.941,3.751,9.232,10.112,9.325,16.651l0,43.428c0,0-17.434,0.083-22.312-17.345"/>
			
				<line fill="none" stroke="#221F1F" stroke-width="2.25" stroke-linecap="round" stroke-linejoin="round" stroke-miterlimit="10" x1="167.7" y1="40.77" x2="167.7" y2="37.389"/>
			
				<line fill="none" stroke="#221F1F" stroke-width="2.25" stroke-linecap="round" stroke-linejoin="round" stroke-miterlimit="10" x1="167.7" y1="56.29" x2="167.7" y2="44.551"/>
			<path fill="#66BF6D" stroke="#221F1F" stroke-width="2.25" stroke-miterlimit="10" d="M153.783,14.581
				c1.228,0.115,2.475-0.445,3.179-1.558c0.996-1.578,0.524-3.666-1.055-4.662l-10.931-6.901c-1.579-0.996-3.664-0.525-4.663,1.052
				c-0.52,0.826-0.64,1.792-0.41,2.667C145.589,6.56,150.479,9.963,153.783,14.581z"/>
			<g>
				<path fill="#F3CDCB" stroke="#221F1F" stroke-width="2.25" stroke-miterlimit="10" d="M182.319,115.195
					c1.202,2.667,0.014,5.803-2.652,7.004l0,0c-2.667,1.202-5.804,0.015-7.004-2.653L153.711,73.04
					c-1.201-2.668-0.013-5.804,2.653-7.004l0,0c2.667-1.201,5.803-0.014,7.004,2.654L182.319,115.195z"/>
			</g>
			<path fill="#FAB294" stroke="#221F1F" stroke-width="2.25" stroke-miterlimit="10" d="M159.608,87.51l-5.896-14.47
				c-1.201-2.668-0.013-5.804,2.653-7.003c2.667-1.203,5.803-0.015,7.004,2.653l5.928,14.55L159.608,87.51z"/>
			<path fill="#F1F2F2" stroke="#221F1F" stroke-width="2.25" stroke-miterlimit="10" d="M97.748,67.526H85.71
				c-1.281,0-2.33-1.049-2.33-2.33V43.171c0-1.282,1.049-2.331,2.33-2.331h12.038c1.282,0,2.331,1.049,2.331,2.331v22.024
				C100.079,66.477,99.029,67.526,97.748,67.526z"/>
			<g>
				<path fill="#F3CDCB" stroke="#221F1F" stroke-width="2.25" stroke-miterlimit="10" d="M82.539,112.154
					c-1.499,2.512-0.679,5.763,1.832,7.262l0,0c2.512,1.498,5.764,0.679,7.262-1.834l24.159-44.027
					c1.499-2.512,0.678-5.763-1.833-7.261l0,0c-2.512-1.5-5.763-0.679-7.262,1.833L82.539,112.154z"/>
			</g>
			<g>
				<path fill="#F3CDCB" stroke="#221F1F" stroke-width="2.25" stroke-miterlimit="10" d="M81.684,114.769
					c0,2.925,2.353,5.293,5.278,5.29l0,0c2.924,0,5.315-2.373,5.314-5.299V62.095c-0.001-2.925-2.389-5.295-5.314-5.292l0,0
					c-2.925,0.001-5.28,2.375-5.278,5.3V114.769z"/>
			</g>
			<circle fill="#F1F2F2" stroke="#221F1F" stroke-width="2.25" stroke-miterlimit="10" cx="91.729" cy="48.995" r="3.778"/>
			<path fill="#FAB294" stroke="#221F1F" stroke-width="2.25" stroke-miterlimit="10" d="M108.275,87.254l7.517-13.699
				c1.499-2.512,0.678-5.763-1.833-7.261c-2.512-1.5-5.763-0.679-7.262,1.833L99.139,81.9L108.275,87.254z"/>
			<path fill="#F3CDCB" stroke="#221F1F" stroke-width="2.25" stroke-linecap="round" stroke-miterlimit="10" d="M139.51,53.646
				h-8.871v11.917h-15.178c-0.004,0.185-0.015,0.369-0.015,0.553c0,10.696,8.672,19.368,19.368,19.368
				c10.695,0,19.367-8.672,19.367-19.368c0-0.185-0.01-0.369-0.015-0.553H139.51V53.646z"/>
			<polygon fill="#FAB294" stroke="#221F1F" stroke-width="2.25" stroke-miterlimit="10" points="153.783,159.044 155.797,107.464 
				113.833,107.464 115.846,159.044 			"/>
			<polygon fill="#6E5D7D" stroke="#221F1F" stroke-width="2.25" stroke-miterlimit="10" points="153.783,159.044 162.151,202.449 
				107.479,202.449 115.846,159.044 			"/>
			
				<line fill="none" stroke="#221F1F" stroke-width="2.25" stroke-linecap="round" stroke-linejoin="round" stroke-miterlimit="10" x1="119.29" y1="164.162" x2="150.339" y2="164.162"/>
			<g>
				<path fill="#FAB294" stroke="#221F1F" stroke-width="2.25" stroke-linecap="round" stroke-miterlimit="10" d="M146.815,109.719
					h4.469c3.701,0,6.728-3.027,6.728-6.728V65.567h-10.475c0,7.17-5.813,12.983-12.982,12.983s-12.982-5.813-12.982-12.983h-9.956
					v37.424c0,3.7,3.028,6.728,6.729,6.728h3.833"/>
			</g>
			
				<line fill="none" stroke="#221F1F" stroke-width="2.25" stroke-linecap="round" stroke-linejoin="round" stroke-miterlimit="10" x1="128.533" y1="65.567" x2="133.29" y2="65.567"/>
			<path fill="#F3CDCB" stroke="#221F1F" stroke-width="2.25" stroke-miterlimit="10" d="M177.708,122.668h-49.032
				c-2.794,0-5.08-2.285-5.08-5.079l0,0c0-2.793,2.286-5.079,5.08-5.079h49.032c2.794,0,5.08,2.286,5.08,5.079l0,0
				C182.788,120.383,180.502,122.668,177.708,122.668z"/>
			
				<circle fill="#F3CDCB" stroke="#221F1F" stroke-width="2.25" stroke-linecap="round" stroke-miterlimit="10" cx="134.635" cy="35.393" r="23.453"/>
			
				<path fill="none" stroke="#221F1F" stroke-width="2.25" stroke-linecap="round" stroke-linejoin="round" stroke-miterlimit="10" d="
				M123.913,39.981c0.734,1.434,2.226,2.414,3.947,2.414c1.531,0,2.877-0.775,3.674-1.954"/>
			
				<path fill="none" stroke="#221F1F" stroke-width="2.25" stroke-linecap="round" stroke-linejoin="round" stroke-miterlimit="10" d="
				M138.095,39.981c0.734,1.434,2.225,2.414,3.947,2.414c1.529,0,2.878-0.775,3.675-1.954"/>
			
				<path fill="#FFFFFF" stroke="#221F1F" stroke-width="2.25" stroke-linecap="round" stroke-linejoin="round" stroke-miterlimit="10" d="
				M130.994,49.047c0.796,1.675,2.146,2.777,3.675,2.777c1.488,0,2.805-1.18,3.608-2.777H130.994z"/>
			<path fill="#F27280" stroke="#221F1F" stroke-width="2.25" stroke-linecap="round" stroke-miterlimit="10" d="M134.635,4.434
				c-15.197,0-27.515,12.319-27.515,27.516c0,1.412,0.107,2.8,0.312,4.155c2.65,0.693,5.432,1.064,8.299,1.064
				c12.695,0,23.693-7.231,29.124-17.794c3.72,6.849,9.82,12.208,17.184,15.001c0.071-0.8,0.113-1.608,0.113-2.427
				C162.151,16.752,149.832,4.434,134.635,4.434z"/>
			<path fill="none" stroke="#221F1F" stroke-width="2.25" stroke-linecap="round" stroke-miterlimit="10" d="M139.846,19.207
				c-4.775,8.146-13.621,13.617-23.745,13.617"/>
			<path fill="#FFFFFF" stroke="#221F1F" stroke-width="2.25" stroke-linecap="round" stroke-miterlimit="10" d="M160.404,45.41
				L160.404,45.41c-1.862,0-3.386-1.523-3.386-3.386v-9.808c0-1.861,1.523-3.386,3.386-3.386l0,0c1.862,0,3.387,1.524,3.387,3.386
				v9.808C163.792,43.887,162.267,45.41,160.404,45.41z"/>
			<g>
				
					<line fill="none" stroke="#221F1F" stroke-width="2.25" stroke-miterlimit="10" x1="137.662" y1="120.512" x2="137.662" y2="122.246"/>
				
					<line fill="none" stroke="#221F1F" stroke-width="2.25" stroke-miterlimit="10" x1="137.662" y1="112.931" x2="137.662" y2="114.664"/>
				<circle fill="none" stroke="#221F1F" stroke-width="2.25" stroke-miterlimit="10" cx="137.662" cy="117.588" r="2.922"/>
			</g>
		</g>
		<path fill="#F27280" stroke="#221F1F" stroke-width="2.25" stroke-linecap="round" stroke-miterlimit="10" d="M104.557,170.664
			L104.557,170.664c-3.613,0-6.569-2.955-6.569-6.569v-24.271c0-3.614,2.956-6.569,6.569-6.569l0,0c3.613,0,6.569,2.955,6.569,6.569
			v24.271C111.125,167.709,108.17,170.664,104.557,170.664z"/>
		<g>
			<path fill="#F27280" stroke="#221F1F" stroke-width="2.25" stroke-linecap="round" stroke-miterlimit="10" d="M106.343,142.928
				c-0.356,0.019-0.72-0.044-1.067-0.198c-1.187-0.523-1.724-1.91-1.199-3.098l36.284-75.259c0.525-1.187,1.912-1.724,3.098-1.199
				c1.187,0.524,1.723,1.911,1.199,3.096l-36.284,75.261C108.001,142.37,107.199,142.884,106.343,142.928z"/>
		</g>
	</g>
	<path fill="none" stroke="#221F1F" stroke-width="2.25" stroke-miterlimit="10" d="M83.763,38.28V20.211
		c0-3.182,2.58-5.761,5.761-5.761h0.961c3.181,0,5.761,2.579,5.761,5.761v7.532"/>
</g>
<g>
	<g>
		<circle fill="#F3CDCB" stroke="#221F1F" stroke-width="2" stroke-miterlimit="10" cx="304.068" cy="52.485" r="4.166"/>
	</g>
	<polygon fill="#F3CDCB" stroke="#221F1F" stroke-width="2" stroke-miterlimit="10" points="272.411,90.798 298.184,90.798 
		298.184,76.996 289.436,76.996 289.436,68.746 281.158,68.746 281.158,76.996 272.411,76.996 	"/>
	<g>
		<path fill="#F3CDCB" stroke="#221F1F" stroke-width="2" stroke-miterlimit="10" d="M328.316,106.98
			c1.543,1.868,1.279,4.632-0.588,6.174l0,0c-1.868,1.543-4.633,1.279-6.175-0.588l-21.944-28.384
			c-1.541-1.869-1.278-4.633,0.59-6.175l0,0c1.867-1.542,4.632-1.28,6.176,0.59L328.316,106.98z"/>
	</g>
	<path fill="#9CD2DE" stroke="#221F1F" stroke-width="2" stroke-miterlimit="10" d="M315.658,90.712l-9.283-12.114
		c-1.544-1.87-4.309-2.132-6.176-0.59c-1.868,1.542-2.131,4.306-0.59,6.175l9.479,12.367L315.658,90.712z"/>
	
		<rect x="267.906" y="148.346" fill="#FAB294" stroke="#221F1F" stroke-width="2" stroke-miterlimit="10" width="34.665" height="54.041"/>
	
		<line fill="none" stroke="#221F1F" stroke-width="2" stroke-linecap="round" stroke-linejoin="round" stroke-miterlimit="10" x1="291.596" y1="170.696" x2="278.883" y2="170.696"/>
	
		<line fill="none" stroke="#221F1F" stroke-width="2" stroke-linecap="round" stroke-linejoin="round" stroke-miterlimit="10" x1="273.448" y1="152.079" x2="297.03" y2="152.079"/>
	
		<line fill="none" stroke="#221F1F" stroke-width="2" stroke-linecap="round" stroke-linejoin="round" stroke-miterlimit="10" x1="285.298" y1="170.696" x2="285.298" y2="202.387"/>
	<g>
		<circle fill="#F3CDCB" stroke="#221F1F" stroke-width="2" stroke-miterlimit="10" cx="266.772" cy="52.485" r="4.167"/>
	</g>
	<circle fill="#F3CDCB" stroke="#221F1F" stroke-width="2" stroke-miterlimit="10" cx="285.059" cy="51.173" r="18.98"/>
	<g>
		
			<line fill="none" stroke="#221F1F" stroke-width="2" stroke-linecap="round" stroke-linejoin="round" stroke-miterlimit="10" x1="277.998" y1="54.645" x2="279.966" y2="54.645"/>
		
			<line fill="none" stroke="#221F1F" stroke-width="2" stroke-linecap="round" stroke-linejoin="round" stroke-miterlimit="10" x1="290.15" y1="54.645" x2="292.119" y2="54.645"/>
	</g>
	<polygon fill="#08AEC5" stroke="#221F1F" stroke-width="2" stroke-miterlimit="10" points="302.571,148.346 302.571,76.995 
		297.92,76.995 285.239,89.348 272.558,76.995 271.119,76.995 267.897,76.995 267.897,148.346 	"/>
	<path fill="#F27280" stroke="#221F1F" stroke-width="2" stroke-linecap="round" stroke-miterlimit="10" d="M303.71,43.983v-1.608
		c0-10.258-8.394-18.652-18.651-18.652l0,0c-10.259,0-18.651,8.394-18.651,18.652v3.717h27.939h9.363h16.301v-2.109H303.71z"/>
	<path fill="#F3CDCB" stroke="#221F1F" stroke-width="2" stroke-miterlimit="10" d="M290.15,42.996v-3.416
		c0-2.801-2.291-5.092-5.092-5.092c-2.802,0-5.093,2.292-5.093,5.092v3.416H290.15z"/>
	
		<path fill="#FFFFFF" stroke="#221F1F" stroke-width="2" stroke-linecap="round" stroke-linejoin="round" stroke-miterlimit="10" d="
		M282.082,62.222c0.65,1.37,1.753,2.271,3.004,2.271c1.216,0,2.293-0.965,2.949-2.271H282.082z"/>
	<path fill="#D1D3D4" stroke="#221F1F" stroke-width="2" stroke-miterlimit="10" d="M289.936,112.728h-7.639
		c-0.66,0-1.199-0.54-1.199-1.2V93.931c0-0.66,0.539-1.2,1.199-1.2h7.639c0.659,0,1.199,0.54,1.199,1.2v17.597
		C291.135,112.188,290.595,112.728,289.936,112.728z"/>
	<path fill="#F3CDCB" stroke="#221F1F" stroke-width="2" stroke-miterlimit="10" d="M325.072,114.16h-41.106
		c-2.337,0-4.251-1.913-4.251-4.25v-0.275c0-2.338,1.914-4.249,4.251-4.249h41.106c2.337,0,4.25,1.911,4.25,4.249v0.275
		C329.322,112.247,327.409,114.16,325.072,114.16z"/>
	<circle fill="#D1D3D4" stroke="#221F1F" stroke-width="2" stroke-miterlimit="10" cx="286.117" cy="96.521" r="1.234"/>
	
		<line fill="none" stroke="#221F1F" stroke-width="2" stroke-linecap="round" stroke-linejoin="round" stroke-miterlimit="10" x1="285.298" y1="121.438" x2="285.298" y2="139.055"/>
	<path fill="#F3CDCB" stroke="#221F1F" stroke-width="2" stroke-miterlimit="10" d="M263.648,81.714h-0.275
		c-2.338,0-4.249,1.913-4.249,4.25v71.493c0,2.337,1.911,4.25,4.249,4.25h0.275c2.338,0,4.249-1.913,4.249-4.25V85.965
		C267.897,83.627,265.986,81.714,263.648,81.714z"/>
	<path fill="#9CD2DE" stroke="#221F1F" stroke-width="2" stroke-miterlimit="10" d="M267.897,77.012h-1.646
		c-3.92,0-7.127,3.207-7.127,7.128v1.178v7.08v7.128h7.127h1.646V77.012z"/>
	<g>
		
			<line fill="none" stroke="#221F1F" stroke-width="2" stroke-miterlimit="10" x1="265.899" y1="149.738" x2="267.318" y2="149.739"/>
		
			<line fill="none" stroke="#221F1F" stroke-width="2" stroke-miterlimit="10" x1="259.703" y1="149.738" x2="261.12" y2="149.739"/>
		<circle fill="none" stroke="#221F1F" stroke-width="2" stroke-miterlimit="10" cx="263.51" cy="149.737" r="2.389"/>
	</g>
</g>
<g>
	<g>
		
			<path fill="#FFFFFF" stroke="#221F1F" stroke-width="2" stroke-linecap="round" stroke-linejoin="round" stroke-miterlimit="10" d="
			M476.007,112.646c1.271,2.129,0.576,4.886-1.554,6.156l0,0c-2.128,1.271-4.885,0.575-6.156-1.554l-20.481-37.326
			c-1.271-2.13-0.574-4.886,1.554-6.157l0,0c2.128-1.271,4.886-0.576,6.157,1.555L476.007,112.646z"/>
	</g>
	<g>
		
			<path fill="#FFFFFF" stroke="#221F1F" stroke-width="2" stroke-linecap="round" stroke-linejoin="round" stroke-miterlimit="10" d="
			M394.829,115.213c-1.02,2.262-0.012,4.92,2.249,5.938l0,0c2.261,1.019,4.919,0.012,5.938-2.25l16.067-39.428
			c1.018-2.262,0.011-4.919-2.25-5.938l0,0c-2.26-1.018-4.919-0.011-5.938,2.25L394.829,115.213z"/>
	</g>
	
		<rect x="419.985" y="73.138" fill="#9CD2DE" stroke="#221F1F" stroke-width="2" stroke-linecap="round" stroke-linejoin="round" stroke-miterlimit="10" width="26.648" height="29.684"/>
	
		<rect x="415.508" y="182.72" fill="#6E5D7D" stroke="#221F1F" stroke-width="2" stroke-linecap="round" stroke-linejoin="round" stroke-miterlimit="10" width="35.95" height="19.729"/>
	
		<polygon fill="#FFFFFF" stroke="#221F1F" stroke-width="2" stroke-linecap="round" stroke-linejoin="round" stroke-miterlimit="10" points="
		415.508,182.895 415.508,73.138 420.331,73.138 433.481,100.544 446.634,73.138 448.125,73.138 451.466,73.138 451.466,182.895 	
		"/>
	
		<line fill="none" stroke="#221F1F" stroke-width="2" stroke-linecap="round" stroke-linejoin="round" stroke-miterlimit="10" x1="433.421" y1="100.544" x2="433.421" y2="176.963"/>
	
		<path fill="#F3CDCB" stroke="#221F1F" stroke-width="2" stroke-linecap="round" stroke-linejoin="round" stroke-miterlimit="10" d="
		M430.077,73.138v-7.585l6.818-0.046v7.631h5.471c-0.859,4.214-4.588,7.385-9.056,7.385c-4.47,0-8.196-3.171-9.058-7.385H430.077z"
		/>
	
		<path fill="#D1937B" stroke="#221F1F" stroke-width="2" stroke-linecap="round" stroke-linejoin="round" stroke-miterlimit="10" d="
		M431.405,14.731h4.164c2.964,0,5.392,2.426,5.392,5.392v1.357c0,2.965-2.428,5.392-5.392,5.392h-4.164
		c-2.966,0-5.392-2.426-5.392-5.392v-1.357C426.014,17.157,428.439,14.731,431.405,14.731z"/>
	
		<path fill="#9CD2DE" stroke="#221F1F" stroke-width="2" stroke-linecap="round" stroke-linejoin="round" stroke-miterlimit="10" d="
		M430.2,30.19h6.572c1.851,0,3.363-1.513,3.363-3.362v-0.847c0-1.849-1.513-3.363-3.363-3.363H430.2
		c-1.849,0-3.363,1.514-3.363,3.363v0.847C426.837,28.678,428.352,30.19,430.2,30.19z"/>
	<g>
		
			<circle fill="#F3CDCB" stroke="#221F1F" stroke-width="2" stroke-linecap="round" stroke-linejoin="round" stroke-miterlimit="10" cx="433.486" cy="45.991" r="19.833"/>
		
			<path fill="#D1937B" stroke="#221F1F" stroke-width="2" stroke-linecap="round" stroke-linejoin="round" stroke-miterlimit="10" d="
			M433.486,26.158c9.132,0,16.817,6.173,19.122,14.573c-3.016,1.853-6.564,2.921-10.363,2.921c-7.196,0-13.498-3.833-16.974-9.568
			c-2.313,4.748-6.468,8.436-11.534,10.133C414.636,34.096,423.132,26.158,433.486,26.158z"/>
	</g>
	<path fill="none" stroke="#221F1F" stroke-width="2" stroke-linecap="round" stroke-linejoin="round" stroke-miterlimit="10" d="
		M446.345,39.694c-1.448,0.536-3.015,0.829-4.65,0.829c-4.864,0-9.125-2.591-11.476-6.47"/>
	<path fill="none" stroke="#221F1F" stroke-width="2" stroke-linecap="round" stroke-linejoin="round" stroke-miterlimit="10" d="
		M435.788,59.648c-0.455,0.644-1.314,1.079-2.302,1.079c-0.986,0-1.846-0.436-2.302-1.079"/>
	
		<line fill="none" stroke="#221F1F" stroke-width="2" stroke-linecap="round" stroke-linejoin="round" stroke-miterlimit="10" x1="441.351" y1="51.777" x2="440.432" y2="51.777"/>
	
		<line fill="none" stroke="#221F1F" stroke-width="2" stroke-linecap="round" stroke-linejoin="round" stroke-miterlimit="10" x1="426.294" y1="51.777" x2="425.375" y2="51.777"/>
	
		<circle fill="none" stroke="#221F1F" stroke-width="2" stroke-linecap="round" stroke-linejoin="round" stroke-miterlimit="10" cx="440.891" cy="51.777" r="5.849"/>
	
		<circle fill="none" stroke="#221F1F" stroke-width="2" stroke-linecap="round" stroke-linejoin="round" stroke-miterlimit="10" cx="425.834" cy="51.777" r="5.849"/>
	<path fill="none" stroke="#221F1F" stroke-width="2" stroke-linecap="round" stroke-linejoin="round" stroke-miterlimit="10" d="
		M435.773,48.955c-0.702-0.299-1.476-0.464-2.287-0.464c-0.886,0-1.726,0.197-2.479,0.55"/>
	
		<line fill="none" stroke="#221F1F" stroke-width="2" stroke-linecap="round" stroke-linejoin="round" stroke-miterlimit="10" x1="420.823" y1="48.766" x2="413.849" y2="48.766"/>
	
		<line fill="none" stroke="#221F1F" stroke-width="2" stroke-linecap="round" stroke-linejoin="round" stroke-miterlimit="10" x1="453.127" y1="48.766" x2="445.904" y2="48.766"/>
	
		<line fill="none" stroke="#221F1F" stroke-width="2" stroke-linecap="round" stroke-linejoin="round" stroke-miterlimit="10" x1="425.322" y1="145.755" x2="415.575" y2="145.755"/>
	
		<polyline fill="none" stroke="#221F1F" stroke-width="2" stroke-linecap="round" stroke-linejoin="round" stroke-miterlimit="10" points="
		415.508,159.16 425.424,159.16 425.424,141.654 415.575,141.654 	"/>
	
		<rect x="419.68" y="103.523" fill="#C16C86" stroke="#221F1F" stroke-width="2" stroke-linecap="round" stroke-linejoin="round" stroke-miterlimit="10" width="19.652" height="25.542"/>
	
		<path fill="#F3CDCB" stroke="#221F1F" stroke-width="2" stroke-linecap="round" stroke-linejoin="round" stroke-miterlimit="10" d="
		M398.738,121.549h41.569c2.368,0,4.307-1.938,4.307-4.307l0,0c0-2.369-1.938-4.307-4.307-4.307h-41.569
		c-2.369,0-4.306,1.938-4.306,4.307l0,0C394.433,119.61,396.369,121.549,398.738,121.549z"/>
	
		<path fill="#FFFFFF" stroke="#221F1F" stroke-width="2" stroke-linecap="round" stroke-linejoin="round" stroke-miterlimit="10" d="
		M398.738,112.936h37.298v8.613h-37.298c-2.369,0-4.306-1.938-4.306-4.307C394.433,114.873,396.369,112.936,398.738,112.936z"/>
	
		<line fill="none" stroke="#221F1F" stroke-width="2" stroke-linecap="round" stroke-linejoin="round" stroke-miterlimit="10" x1="435.105" y1="107.808" x2="423.466" y2="107.808"/>
	<g>
		
			<path fill="#FFFFFF" stroke="#221F1F" stroke-width="2" stroke-linecap="round" stroke-linejoin="round" stroke-miterlimit="10" d="
			M476.731,114.863c0,2.48-1.994,4.488-4.474,4.485l0,0c-2.479-0.001-4.507-2.013-4.505-4.493V70.207
			c0-2.48,2.024-4.489,4.505-4.487l0,0c2.479,0.001,4.476,2.013,4.474,4.494V114.863z"/>
	</g>
	
		<path fill="#F3CDCB" stroke="#221F1F" stroke-width="2" stroke-linecap="round" stroke-linejoin="round" stroke-miterlimit="10" d="
		M476.731,75.104v-4.891c0.002-2.48-1.994-4.492-4.474-4.494c-2.48-0.002-4.505,2.007-4.505,4.487v4.898H476.731z"/>
	
		<path fill="#E6E7E8" stroke="#221F1F" stroke-width="2" stroke-linecap="round" stroke-linejoin="round" stroke-miterlimit="10" d="
		M471.104,62.176v2.859c0,3.839,3.142,6.981,6.981,6.981s6.981-3.142,6.981-6.981v-2.859H471.104z"/>
	<path fill="none" stroke="#221F1F" stroke-width="2" stroke-linecap="round" stroke-linejoin="round" stroke-miterlimit="10" d="
		M475.207,58.562c0-1.792,2.918-1.792,2.918-3.583c0-1.793-2.918-1.793-2.918-3.586s2.918-1.793,2.918-3.586"/>
	<path fill="none" stroke="#221F1F" stroke-width="2" stroke-linecap="round" stroke-linejoin="round" stroke-miterlimit="10" d="
		M479.974,58.562c0-1.792,2.917-1.792,2.917-3.583c0-1.793-2.917-1.793-2.917-3.586s2.917-1.793,2.917-3.586"/>
	
		<line fill="none" stroke="#221F1F" stroke-width="2" stroke-linecap="round" stroke-linejoin="round" stroke-miterlimit="10" x1="441.424" y1="145.755" x2="451.172" y2="145.755"/>
	
		<polyline fill="none" stroke="#221F1F" stroke-width="2" stroke-linecap="round" stroke-linejoin="round" stroke-miterlimit="10" points="
		451.24,159.16 441.323,159.16 441.323,141.654 451.172,141.654 	"/>
</g>
<line fill="none" stroke="#221F1F" stroke-width="2" stroke-linecap="round" stroke-linejoin="round" stroke-miterlimit="10" x1="436.271" y1="187.57" x2="436.271" y2="202.449"/>
<g>
	<path fill="#706773" stroke="#221F1F" stroke-width="2.25" stroke-linecap="round" stroke-miterlimit="10" d="M349.644,86.157
		L349.644,86.157c-13.913,0-25.297-11.384-25.297-25.296v-26.05c0-13.913,11.384-25.296,25.297-25.296l0,0
		c13.913,0,25.296,11.383,25.296,25.296v26.05C374.939,74.773,363.557,86.157,349.644,86.157z"/>
	<path fill="#F3CDCB" stroke="#221F1F" stroke-width="2.25" stroke-miterlimit="10" d="M326.8,171.795L326.8,171.795
		c-2.73,0-4.965-2.232-4.965-4.963V74.019c0-2.729,2.234-4.963,4.965-4.963l0,0c2.729,0,4.963,2.234,4.963,4.963v92.813
		C331.763,169.563,329.529,171.795,326.8,171.795z"/>
	
		<line fill="none" stroke="#221F1F" stroke-width="2.25" stroke-miterlimit="10" x1="410.43" y1="87.329" x2="401.271" y2="66.681"/>
	<g>
		<path fill="#F3CDCB" stroke="#221F1F" stroke-width="2.25" stroke-miterlimit="10" d="M400.438,114.564
			c1.46,2.446,0.662,5.613-1.784,7.073l0,0c-2.446,1.46-5.613,0.661-7.073-1.785l-23.53-42.884
			c-1.461-2.447-0.661-5.612,1.784-7.073l0,0c2.446-1.46,5.613-0.662,7.073,1.786L400.438,114.564z"/>
	</g>
	<g>
		<path fill="#F3CDCB" stroke="#221F1F" stroke-width="2.25" stroke-miterlimit="10" d="M401.271,117.111
			c-0.001,2.85-2.292,5.156-5.141,5.153l0,0c-2.849,0-5.178-2.313-5.177-5.162V65.807c0.002-2.85,2.327-5.158,5.177-5.155l0,0
			c2.849,0.001,5.142,2.313,5.141,5.162V117.111z"/>
	</g>
	<path fill="#F3CDCB" stroke="#221F1F" stroke-width="2.25" stroke-linecap="round" stroke-miterlimit="10" d="M354.392,57.448
		h-8.64v11.607h-14.784c-0.003,0.18-0.015,0.359-0.015,0.54c0,10.417,8.446,18.864,18.865,18.864
		c10.417,0,18.864-8.447,18.864-18.864c0-0.181-0.01-0.36-0.015-0.54h-14.276V57.448z"/>
	<polygon fill="#F27280" stroke="#221F1F" stroke-width="2.25" stroke-miterlimit="10" points="368.294,160.108 370.255,109.867 
		329.38,109.867 331.343,160.108 	"/>
	<polygon fill="#9CD2DE" stroke="#221F1F" stroke-width="2.25" stroke-miterlimit="10" points="368.294,160.108 376.444,202.387 
		323.191,202.387 331.343,160.108 	"/>
	
		<line fill="none" stroke="#221F1F" stroke-width="2.25" stroke-linecap="round" stroke-linejoin="round" stroke-miterlimit="10" x1="334.696" y1="165.094" x2="364.938" y2="165.094"/>
	<g>
		<path fill="#F27280" stroke="#221F1F" stroke-width="2.25" stroke-linecap="round" stroke-miterlimit="10" d="M361.507,112.063
			h4.353c3.605,0,6.554-2.947,6.554-6.552V69.06h-10.204c0,6.984-5.66,12.645-12.644,12.645c-6.984,0-12.646-5.661-12.646-12.645
			h-9.696v36.452c0,3.604,2.948,6.552,6.553,6.552h3.732"/>
	</g>
	
		<path fill="#FFFFFF" stroke="#221F1F" stroke-width="2.25" stroke-linecap="round" stroke-linejoin="round" stroke-miterlimit="10" d="
		M346.096,52.969c0.776,1.631,2.09,2.704,3.58,2.704c1.449,0,2.731-1.149,3.514-2.704H346.096z"/>
	<path fill="#F3CDCB" stroke="#221F1F" stroke-width="2.25" stroke-linecap="round" stroke-miterlimit="10" d="M372.06,35.271
		h-13.92l-4.949-10.936v10.936h-25.965c-0.277,1.424-0.426,2.893-0.426,4.398c0,12.615,10.227,22.844,22.844,22.844
		c12.616,0,22.844-10.229,22.844-22.844C372.487,38.165,372.338,36.695,372.06,35.271z"/>
	
		<path fill="#FFFFFF" stroke="#221F1F" stroke-width="2.25" stroke-linecap="round" stroke-linejoin="round" stroke-miterlimit="10" d="
		M346.271,53.657c0.775,1.632,2.089,2.705,3.579,2.705c1.449,0,2.731-1.149,3.514-2.705H346.271z"/>
	<g>
		
			<line fill="none" stroke="#221F1F" stroke-width="2.25" stroke-linecap="round" stroke-linejoin="round" stroke-miterlimit="10" x1="356.897" y1="45.454" x2="354.924" y2="45.454"/>
		
			<line fill="none" stroke="#221F1F" stroke-width="2.25" stroke-linecap="round" stroke-linejoin="round" stroke-miterlimit="10" x1="344.707" y1="45.454" x2="342.732" y2="45.454"/>
	</g>
	
		<line fill="none" stroke="#221F1F" stroke-width="2.25" stroke-linecap="round" stroke-linejoin="round" stroke-miterlimit="10" x1="345.752" y1="69.055" x2="348.737" y2="69.055"/>
	
		<line fill="none" stroke="#221F1F" stroke-width="2.25" stroke-linecap="round" stroke-miterlimit="10" x1="349.644" y1="119.938" x2="349.644" y2="141.964"/>
	
		<line fill="none" stroke="#221F1F" stroke-width="2.25" stroke-linecap="round" stroke-miterlimit="10" x1="349.644" y1="144.955" x2="349.644" y2="150.44"/>
	
		<line fill="none" stroke="#221F1F" stroke-width="2.25" stroke-miterlimit="10" x1="401.271" y1="66.681" x2="404.267" y2="80.868"/>
	<g>
		<polygon fill="#98D098" stroke="#221F1F" stroke-width="2.25" stroke-miterlimit="10" points="392.46,87.66 401.953,89.666 
			395.585,134.988 379.955,131.686 		"/>
		
			<line fill="none" stroke="#221F1F" stroke-width="2.25" stroke-linecap="round" stroke-miterlimit="10" x1="394.104" y1="103.354" x2="389.756" y2="123.937"/>
		
			<line fill="none" stroke="#221F1F" stroke-width="2.25" stroke-linecap="round" stroke-miterlimit="10" x1="393.69" y1="131.86" x2="389.756" y2="123.937"/>
		
			<line fill="none" stroke="#221F1F" stroke-width="2.25" stroke-linecap="round" stroke-miterlimit="10" x1="387.369" y1="125.965" x2="383.059" y2="129.632"/>
	</g>
	<g>
		<polygon fill="#FAB294" stroke="#221F1F" stroke-width="2.25" stroke-miterlimit="10" points="415.378,86.204 405.886,88.209 
			412.255,133.532 427.885,130.229 		"/>
		
			<line fill="none" stroke="#221F1F" stroke-width="2.25" stroke-linecap="round" stroke-miterlimit="10" x1="413.736" y1="101.897" x2="418.084" y2="122.479"/>
		
			<line fill="none" stroke="#221F1F" stroke-width="2.25" stroke-linecap="round" stroke-miterlimit="10" x1="414.148" y1="130.404" x2="418.084" y2="122.479"/>
		
			<line fill="none" stroke="#221F1F" stroke-width="2.25" stroke-linecap="round" stroke-miterlimit="10" x1="420.47" y1="124.509" x2="424.779" y2="128.176"/>
	</g>
	<g>
		<polygon fill="#08AEC5" stroke="#221F1F" stroke-width="2.25" stroke-miterlimit="10" points="410.43,80.868 398.104,80.868 
			394.121,138.867 414.413,138.867 		"/>
		
			<line fill="none" stroke="#221F1F" stroke-width="2.25" stroke-linecap="round" stroke-miterlimit="10" x1="404.267" y1="88.792" x2="404.267" y2="126.663"/>
		
			<line fill="none" stroke="#221F1F" stroke-width="2.25" stroke-linecap="round" stroke-miterlimit="10" x1="397.296" y1="135.478" x2="404.267" y2="126.663"/>
		
			<line fill="none" stroke="#221F1F" stroke-width="2.25" stroke-linecap="round" stroke-miterlimit="10" x1="406.699" y1="129.812" x2="411.094" y2="135.499"/>
	</g>
</g>
<g>
	<path fill="none" stroke="#221F1F" stroke-width="2.25" stroke-miterlimit="10" d="M322.861,153.792c1.579,0,1.579,2,3.159,2
		c1.582,0,1.582-2,3.165-2c1.582,0,1.582,2,3.164,2"/>
</g>
<g>
	<path fill="none" stroke="#221F1F" stroke-width="2.25" stroke-miterlimit="10" d="M322.861,149.702c1.579,0,1.579,2,3.159,2
		c1.582,0,1.582-2,3.165-2c1.582,0,1.582,2,3.164,2"/>
</g>
</svg>
