<?xml version="1.0" encoding="utf-8"?>
<!-- Generator: Adobe Illustrator 16.0.0, SVG Export Plug-In . SVG Version: 6.00 Build 0)  -->
<!DOCTYPE svg PUBLIC "-//W3C//DTD SVG 1.1//EN" "http://www.w3.org/Graphics/SVG/1.1/DTD/svg11.dtd">
<svg version="1.1" id="Layer_1" xmlns="http://www.w3.org/2000/svg" xmlns:xlink="http://www.w3.org/1999/xlink" x="0px" y="0px"
	 width="256.799px" height="206.363px" viewBox="0 0 256.799 206.363" enable-background="new 0 0 256.799 206.363"
	 xml:space="preserve">
<g>
	
		<rect x="5.659" y="56.886" fill="#66BF6D" stroke="#221F1F" stroke-width="2" stroke-linecap="round" stroke-miterlimit="10" width="22.737" height="12.468"/>
	<path fill="#F8DAB4" stroke="#221F1F" stroke-width="2" stroke-linecap="round" stroke-miterlimit="10" d="M30.333,67.212
		c-0.939,2.95-3.71,5.103-6.96,5.103H10.682c-3.251,0-6.021-2.153-6.961-5.103H30.333z"/>
	<path fill="#F8DAB4" stroke="#221F1F" stroke-width="2" stroke-linecap="round" stroke-miterlimit="10" d="M30.333,58.661
		c-0.939-2.95-3.71-5.103-6.96-5.103H10.682c-3.251,0-6.021,2.153-6.961,5.103H30.333z"/>
	<path fill="#C16C86" stroke="#221F1F" stroke-width="2" stroke-linecap="round" stroke-miterlimit="10" d="M2.916,64.852h28.223
		c1.054,0,1.916-0.863,1.916-1.916l0,0c0-1.054-0.862-1.916-1.916-1.916H2.916C1.862,61.021,1,61.882,1,62.937l0,0
		C1,63.989,1.862,64.852,2.916,64.852z"/>
	
		<circle fill="#D1937B" stroke="#221F1F" stroke-width="2" stroke-linecap="round" stroke-miterlimit="10" cx="74.175" cy="42.083" r="10.772"/>
	<polygon fill="#F3CDCB" stroke="#221F1F" stroke-width="2" stroke-miterlimit="10" points="73.812,88.642 46.985,88.642 
		46.985,74.274 56.091,74.274 56.091,65.688 64.707,65.688 64.707,74.274 73.812,74.274 	"/>
	<path fill="#F3CDCB" stroke="#221F1F" stroke-width="2" stroke-miterlimit="10" d="M82.705,157.963L82.705,157.963
		c2.313,0,4.205-1.893,4.205-4.204V95.523c0-2.313-1.892-4.205-4.205-4.205l0,0c-2.312,0-4.205,1.892-4.205,4.205v58.236
		C78.5,156.07,80.393,157.963,82.705,157.963z"/>
	<g>
		<path fill="#F3CDCB" stroke="#221F1F" stroke-width="2" stroke-miterlimit="10" d="M15.752,105.574
			c-1.606,1.944-1.331,4.82,0.613,6.427l0,0c1.944,1.607,4.822,1.332,6.427-0.611l22.84-29.544c1.605-1.945,1.332-4.823-0.613-6.428
			l0,0c-1.944-1.605-4.821-1.332-6.428,0.614L15.752,105.574z"/>
	</g>
	<g>
		<path fill="#F3CDCB" stroke="#221F1F" stroke-width="2" stroke-miterlimit="10" d="M14.678,108.486
			c0.001,2.521,2.027,4.563,4.549,4.561l0,0c2.521-0.001,4.583-2.045,4.581-4.568V65.976c0-2.522-2.059-4.565-4.581-4.562l0,0
			c-2.521,0-4.551,2.046-4.549,4.568V108.486z"/>
	</g>
	<path fill="#9CD2DE" stroke="#221F1F" stroke-width="2" stroke-miterlimit="10" d="M28.929,88.642l9.664-12.61
		c1.606-1.945,4.483-2.219,6.428-0.614c1.944,1.604,2.218,4.482,0.613,6.428l-9.865,12.872L28.929,88.642z"/>
	<path fill="#9CD2DE" stroke="#221F1F" stroke-width="2" stroke-miterlimit="10" d="M47.259,74.274l13.2,12.426l13.2-12.426h2.163
		c6.098,0,11.088,4.99,11.088,11.088V100H78.5v48.603H42.418V74.274H47.259z"/>
	
		<line fill="none" stroke="#221F1F" stroke-width="2" stroke-linecap="round" stroke-miterlimit="10" x1="78.5" y1="100" x2="78.5" y2="91.963"/>
	
		<line fill="none" stroke="#221F1F" stroke-width="2" stroke-linecap="round" stroke-miterlimit="10" x1="60.398" y1="94.219" x2="60.398" y2="130.853"/>
	
		<line fill="none" stroke="#221F1F" stroke-width="2" stroke-linecap="round" stroke-miterlimit="10" x1="60.398" y1="133.955" x2="60.398" y2="139.647"/>
	
		<rect x="42.418" y="148.542" fill="#F27280" stroke="#221F1F" stroke-width="2" stroke-miterlimit="10" width="36.083" height="56.25"/>
	
		<line fill="none" stroke="#221F1F" stroke-width="2" stroke-linecap="round" stroke-linejoin="round" stroke-miterlimit="10" x1="53.842" y1="171.805" x2="67.075" y2="171.805"/>
	
		<line fill="none" stroke="#221F1F" stroke-width="2" stroke-linecap="round" stroke-linejoin="round" stroke-miterlimit="10" x1="72.732" y1="152.428" x2="48.186" y2="152.428"/>
	
		<line fill="none" stroke="#221F1F" stroke-width="2" stroke-linecap="round" stroke-linejoin="round" stroke-miterlimit="10" x1="60.398" y1="171.805" x2="60.398" y2="204.792"/>
	<g>
		<circle fill="#F3CDCB" stroke="#221F1F" stroke-width="2" stroke-miterlimit="10" cx="79.841" cy="48.763" r="4.337"/>
	</g>
	<circle fill="#F3CDCB" stroke="#221F1F" stroke-width="2" stroke-miterlimit="10" cx="60.807" cy="47.397" r="19.757"/>
	<g>
		<path fill="none" stroke="#221F1F" stroke-width="2" stroke-linecap="round" stroke-linejoin="round" stroke-miterlimit="10" d="
			M58.189,58.353L58.189,58.353c0,0.601,0.488,1.089,1.09,1.089h4.147"/>
		<g>
			
				<line fill="none" stroke="#221F1F" stroke-width="2" stroke-linecap="round" stroke-linejoin="round" stroke-miterlimit="10" x1="68.157" y1="51.01" x2="66.108" y2="51.01"/>
			
				<line fill="none" stroke="#221F1F" stroke-width="2" stroke-linecap="round" stroke-linejoin="round" stroke-miterlimit="10" x1="55.507" y1="51.01" x2="53.459" y2="51.01"/>
		</g>
	</g>
	
		<rect x="42.418" y="74.274" fill="#315778" stroke="#221F1F" stroke-width="2" stroke-miterlimit="10" width="10.296" height="74.268"/>
	
		<rect x="68.205" y="74.274" fill="#315778" stroke="#221F1F" stroke-width="2" stroke-miterlimit="10" width="10.296" height="74.075"/>
	<path fill="#D1937B" stroke="#221F1F" stroke-width="2" stroke-linecap="round" stroke-miterlimit="10" d="M48.284,28.896
		L30.874,46.308c8.493,8.494,21.183,9.702,28.2,2.685l17.412-17.412l0,0C67.991,23.087,55.301,21.88,48.284,28.896z"/>
	<path fill="none" stroke="#221F1F" stroke-width="2" stroke-linecap="round" stroke-miterlimit="10" d="M36.706,46.23
		c5.851,4.073,13.067,4.659,18.124,1.422"/>
</g>
<g>
	<g>
		<path fill="#FFFFFF" stroke="#221F1F" stroke-width="2" stroke-miterlimit="10" d="M251.197,104.875
			c1.605,1.946,1.332,4.821-0.611,6.427l0,0c-1.945,1.606-4.822,1.332-6.428-0.611l-22.84-29.544
			c-1.605-1.946-1.332-4.822,0.611-6.427l0,0c1.945-1.606,4.822-1.333,6.428,0.613L251.197,104.875z"/>
	</g>
	<g>
		<path fill="#FFFFFF" stroke="#221F1F" stroke-width="2" stroke-miterlimit="10" d="M178.563,75.107
			c1.783-1.782,4.662-1.793,6.441-0.008l0,0c1.781,1.782,1.795,4.687,0.01,6.469l-30.055,30.055
			c-1.785,1.783-4.684,1.771-6.465-0.013l0,0c-1.783-1.783-1.771-4.667,0.014-6.447L178.563,75.107z"/>
	</g>
	<path fill="#58595B" stroke="#221F1F" stroke-width="2" stroke-linecap="round" stroke-miterlimit="10" d="M225.99,47.033
		c0.012-0.298,0.021-0.595,0.021-0.896c0-12.629-10.238-22.868-22.867-22.868c-12.627,0-22.865,10.238-22.865,22.868
		c0,0.301,0.012,0.598,0.023,0.896H225.99z"/>
	<g>
		<circle fill="#F3CDCB" stroke="#221F1F" stroke-width="2" stroke-miterlimit="10" cx="222.476" cy="48.763" r="4.337"/>
	</g>
	<polygon fill="#F3CDCB" stroke="#221F1F" stroke-width="2" stroke-miterlimit="10" points="189.686,88.642 216.51,88.642 
		216.51,74.274 207.402,74.274 207.402,65.688 198.789,65.688 198.789,74.274 189.686,74.274 	"/>
	
		<line fill="none" stroke="#221F1F" stroke-width="2" stroke-linecap="round" stroke-miterlimit="10" x1="203.098" y1="94.219" x2="203.098" y2="130.853"/>
	
		<line fill="none" stroke="#221F1F" stroke-width="2" stroke-linecap="round" stroke-miterlimit="10" x1="203.098" y1="133.955" x2="203.098" y2="139.647"/>
	
		<rect x="184.994" y="148.542" fill="#FFFFFF" stroke="#221F1F" stroke-width="2" stroke-miterlimit="10" width="36.082" height="56.25"/>
	
		<line fill="none" stroke="#221F1F" stroke-width="2" stroke-linecap="round" stroke-linejoin="round" stroke-miterlimit="10" x1="209.652" y1="171.805" x2="196.42" y2="171.805"/>
	
		<line fill="none" stroke="#221F1F" stroke-width="2" stroke-linecap="round" stroke-linejoin="round" stroke-miterlimit="10" x1="190.764" y1="152.427" x2="215.309" y2="152.427"/>
	
		<line fill="none" stroke="#221F1F" stroke-width="2" stroke-linecap="round" stroke-linejoin="round" stroke-miterlimit="10" x1="203.098" y1="171.805" x2="203.098" y2="204.792"/>
	<g>
		<circle fill="#F3CDCB" stroke="#221F1F" stroke-width="2" stroke-miterlimit="10" cx="183.654" cy="48.763" r="4.336"/>
	</g>
	<circle fill="#F3CDCB" stroke="#221F1F" stroke-width="2" stroke-miterlimit="10" cx="202.688" cy="47.397" r="19.758"/>
	<g>
		
			<line fill="none" stroke="#221F1F" stroke-width="2" stroke-linecap="round" stroke-linejoin="round" stroke-miterlimit="10" x1="195.34" y1="51.01" x2="197.387" y2="51.01"/>
		
			<line fill="none" stroke="#221F1F" stroke-width="2" stroke-linecap="round" stroke-linejoin="round" stroke-miterlimit="10" x1="207.988" y1="51.01" x2="210.037" y2="51.01"/>
	</g>
	<polygon fill="#58595B" points="191.115,41.201 186.814,41.292 182.424,40.927 184.254,35.621 191.115,29.035 197.699,26.016 
		205.018,25.742 210.689,28.12 211.604,29.309 204.195,37.176 193.857,40.287 	"/>
	<path fill="#58595B" stroke="#221F1F" stroke-width="2" stroke-linecap="round" stroke-miterlimit="10" d="M183.193,41.396
		c2.738,1.436,5.852,2.249,9.156,2.249c8.898,0,16.416-5.882,18.891-13.969"/>
	<path fill="none" stroke="#221F1F" stroke-width="2" stroke-linecap="round" stroke-linejoin="round" stroke-miterlimit="10" d="
		M190.047,51.141c0-3.368,2.73-6.098,6.1-6.098c3.365,0,6.098,2.73,6.098,6.098s-2.732,6.098-6.098,6.098
		C192.777,57.239,190.047,54.509,190.047,51.141z"/>
	
		<circle fill="none" stroke="#221F1F" stroke-width="2" stroke-linecap="round" stroke-linejoin="round" stroke-miterlimit="10" cx="208.95" cy="51.141" r="6.099"/>
	
		<line fill="none" stroke="#221F1F" stroke-width="2" stroke-linecap="round" stroke-linejoin="round" stroke-miterlimit="10" x1="190.779" y1="47.97" x2="185.045" y2="47.97"/>
	
		<line fill="none" stroke="#221F1F" stroke-width="2" stroke-linecap="round" stroke-linejoin="round" stroke-miterlimit="10" x1="219.807" y1="47.97" x2="214.074" y2="47.97"/>
	<path fill="#9CD2DE" stroke="#221F1F" stroke-width="2" stroke-miterlimit="10" d="M216.244,74.274h-6.506
		c-0.107,3.61-3.063,6.505-6.699,6.505c-3.635,0-6.59-2.895-6.695-6.505h-6.498h-1.498h-3.354v22.453v51.815h36.092V96.727V74.274
		H216.244z"/>
	<g>
		
			<rect x="207.396" y="73.766" fill="#FFFFFF" stroke="#221F1F" stroke-width="2" stroke-miterlimit="10" width="18.295" height="92.938"/>
		
			<rect x="180.504" y="73.766" fill="#FFFFFF" stroke="#221F1F" stroke-width="2" stroke-miterlimit="10" width="18.293" height="92.938"/>
	</g>
	<g>
		<path fill="#FAB294" stroke="#221F1F" stroke-width="2" stroke-linecap="round" stroke-miterlimit="10" d="M209.256,96.696
			l-0.73-2.074h-20.92v23.784h0.025c0.121,2.02,1.783,3.623,3.832,3.623h23.906c-0.277,0-0.547-0.031-0.807-0.087h0.807V97.916
			L209.256,96.696z"/>
		<path fill="#FFFFFF" stroke="#221F1F" stroke-width="2" stroke-miterlimit="10" d="M211.512,94.025
			c0-2.129,1.727-3.855,3.857-3.855h-23.906c-2.131,0-3.857,1.726-3.857,3.855c0,2.13,1.727,3.855,3.857,3.855h23.906
			C213.238,97.881,211.512,96.155,211.512,94.025z"/>
	</g>
	<g>
		<g>
			<path fill="#FFFFFF" stroke="#221F1F" stroke-width="2" stroke-miterlimit="10" d="M151.723,112.953
				c-2.52,0-4.563-2.026-4.561-4.549l0,0c0.002-2.52,2.047-4.581,4.568-4.58h42.504c2.521,0.001,4.564,2.06,4.561,4.58l0,0
				c0,2.522-2.047,4.552-4.568,4.549H151.723z"/>
		</g>
		<path fill="#F3CDCB" stroke="#221F1F" stroke-width="2" stroke-miterlimit="10" d="M198.795,108.404
			c0.004-2.521-2.039-4.579-4.561-4.58h-2.941v9.129h2.934C196.748,112.956,198.795,110.927,198.795,108.404z"/>
	</g>
	
		<path fill="#FFFFFF" stroke="#221F1F" stroke-width="2" stroke-linecap="round" stroke-linejoin="round" stroke-miterlimit="10" d="
		M199.531,60.06c0.676,1.424,1.824,2.362,3.127,2.362c1.266,0,2.387-1.004,3.07-2.362H199.531z"/>
	<g>
		
			<rect x="246.624" y="56.857" transform="matrix(0.7067 -0.7075 0.7075 0.7067 26.6285 194.7877)" fill="#9CD2DE" stroke="#221F1F" stroke-width="2" stroke-miterlimit="10" width="3.291" height="16.834"/>
		<path fill="#7B8287" stroke="#221F1F" stroke-width="2" stroke-miterlimit="10" d="M222.225,39.229
			c-5.572,5.572-5.572,14.607,0,20.18c5.572,5.574,14.609,5.574,20.182,0c5.572-5.572,5.572-14.608,0-20.18
			C236.834,33.656,227.797,33.656,222.225,39.229z M239.691,56.693c-4.074,4.073-10.678,4.073-14.75,0s-4.072-10.676,0-14.748
			c4.072-4.073,10.676-4.073,14.75,0C243.762,46.018,243.762,52.621,239.691,56.693z"/>
	</g>
	<g>
		<path fill="#FFFFFF" stroke="#221F1F" stroke-width="2" stroke-miterlimit="10" d="M252.271,107.788
			c0,2.52-2.027,4.563-4.549,4.561l0,0c-2.52-0.001-4.582-2.047-4.58-4.568V65.276c0.002-2.522,2.059-4.564,4.58-4.562l0,0
			c2.521,0,4.553,2.046,4.549,4.569V107.788z"/>
	</g>
	<path fill="#F3CDCB" stroke="#221F1F" stroke-width="2" stroke-miterlimit="10" d="M247.723,60.715
		c-2.521-0.003-4.578,2.04-4.58,4.562v2.94h9.129v-2.933C252.275,62.761,250.244,60.715,247.723,60.715z"/>
	
		<line fill="none" stroke="#221F1F" stroke-width="2" stroke-miterlimit="10" x1="195.047" y1="116.941" x2="208.037" y2="116.941"/>
	<path fill="none" stroke="#221F1F" stroke-width="2" stroke-miterlimit="10" d="M232.002,41.628c4.242,0,7.686,3.44,7.686,7.684
		c-0.002,2.469-1.166,4.667-2.977,6.072"/>
</g>
<g>
	<path fill="none" stroke="#221F1F" stroke-width="2.25" stroke-miterlimit="10" d="M97.265,24.307v3.123
		c0,3.215,2.607,5.823,5.824,5.823"/>
	<g>
		<g>
			<path fill="#FFFFFF" stroke="#221F1F" stroke-width="2.25" stroke-linecap="round" stroke-miterlimit="10" d="M109.086,46.073
				L109.086,46.073c-1.882,0-3.422-1.54-3.422-3.422v-9.912c0-1.881,1.54-3.422,3.422-3.422l0,0c1.882,0,3.423,1.541,3.423,3.422
				v9.912C112.509,44.534,110.968,46.073,109.086,46.073z"/>
			<path fill="#F27280" stroke="#221F1F" stroke-width="2.25" stroke-linecap="round" stroke-miterlimit="10" d="M147.373,3.404
				c5.865-2.436,12.785-2.076,18.561,1.572c6.006,3.79,9.332,10.22,9.426,16.828v43.892c0,0-17.619,0.085-22.551-17.53"/>
			
				<line fill="none" stroke="#221F1F" stroke-width="2.25" stroke-linecap="round" stroke-linejoin="round" stroke-miterlimit="10" x1="169.482" y1="41.383" x2="169.482" y2="37.966"/>
			
				<line fill="none" stroke="#221F1F" stroke-width="2.25" stroke-linecap="round" stroke-linejoin="round" stroke-miterlimit="10" x1="169.482" y1="57.069" x2="169.482" y2="45.206"/>
			<path fill="#66BF6D" stroke="#221F1F" stroke-width="2.25" stroke-miterlimit="10" d="M155.416,14.914
				c1.242,0.117,2.502-0.449,3.213-1.574c1.006-1.595,0.531-3.705-1.064-4.712l-11.049-6.975c-1.596-1.006-3.703-0.53-4.713,1.063
				c-0.525,0.834-0.646,1.811-0.414,2.695C147.135,6.808,152.076,10.248,155.416,14.914z"/>
			<g>
				<path fill="#F3CDCB" stroke="#221F1F" stroke-width="2.25" stroke-miterlimit="10" d="M184.258,116.605
					c1.215,2.695,0.014,5.864-2.68,7.079l0,0c-2.697,1.213-5.867,0.014-7.08-2.682l-19.154-47.004
					c-1.215-2.697-0.014-5.865,2.682-7.08l0,0c2.695-1.214,5.865-0.013,7.078,2.683L184.258,116.605z"/>
			</g>
			<path fill="#FAB294" stroke="#221F1F" stroke-width="2.25" stroke-miterlimit="10" d="M161.303,88.623l-5.959-14.624
				c-1.215-2.697-0.014-5.865,2.682-7.079c2.695-1.215,5.865-0.014,7.078,2.683l5.994,14.705L161.303,88.623z"/>
			<path fill="#F1F2F2" stroke="#221F1F" stroke-width="2.25" stroke-miterlimit="10" d="M98.782,68.426H86.616
				c-1.295,0-2.355-1.06-2.355-2.355v-22.26c0-1.296,1.06-2.355,2.355-2.355h12.166c1.295,0,2.356,1.059,2.356,2.355v22.26
				C101.138,67.366,100.077,68.426,98.782,68.426z"/>
			<g>
				<path fill="#F3CDCB" stroke="#221F1F" stroke-width="2.25" stroke-miterlimit="10" d="M83.411,113.531
					c-1.515,2.538-0.687,5.823,1.852,7.339l0,0c2.538,1.516,5.825,0.686,7.339-1.853l24.417-44.498
					c1.514-2.539,0.686-5.824-1.853-7.339l0,0c-2.538-1.516-5.825-0.687-7.34,1.853L83.411,113.531z"/>
			</g>
			<g>
				<path fill="#F3CDCB" stroke="#221F1F" stroke-width="2.25" stroke-miterlimit="10" d="M82.546,116.174
					c0.001,2.956,2.378,5.351,5.333,5.347l0,0c2.956,0,5.373-2.399,5.372-5.355V62.938c-0.001-2.957-2.415-5.353-5.372-5.349l0,0
					c-2.955,0.001-5.335,2.399-5.333,5.357V116.174z"/>
			</g>
			<circle fill="#F1F2F2" stroke="#221F1F" stroke-width="2.25" stroke-miterlimit="10" cx="92.699" cy="49.696" r="3.819"/>
			<path fill="#FAB294" stroke="#221F1F" stroke-width="2.25" stroke-miterlimit="10" d="M109.421,88.365l7.598-13.845
				c1.514-2.539,0.686-5.824-1.853-7.339c-2.538-1.516-5.825-0.687-7.34,1.853l-7.638,13.92L109.421,88.365z"/>
			<path fill="#F3CDCB" stroke="#221F1F" stroke-width="2.25" stroke-linecap="round" stroke-miterlimit="10" d="M140.99,54.397
				h-8.966v12.044h-15.339c-0.004,0.186-0.015,0.373-0.015,0.559c0,10.81,8.765,19.575,19.575,19.575S155.82,77.81,155.82,67
				c0-0.186-0.01-0.373-0.016-0.559H140.99V54.397z"/>
			<polygon fill="#FAB294" stroke="#221F1F" stroke-width="2.25" stroke-miterlimit="10" points="155.416,160.922 157.451,108.789 
				115.039,108.789 117.074,160.922 			"/>
			<polygon fill="#6E5D7D" stroke="#221F1F" stroke-width="2.25" stroke-miterlimit="10" points="155.416,160.922 163.875,204.792 
				108.617,204.792 117.074,160.922 			"/>
			
				<line fill="none" stroke="#221F1F" stroke-width="2.25" stroke-linecap="round" stroke-linejoin="round" stroke-miterlimit="10" x1="120.555" y1="166.095" x2="151.936" y2="166.095"/>
			<g>
				<path fill="#FAB294" stroke="#221F1F" stroke-width="2.25" stroke-linecap="round" stroke-miterlimit="10" d="M148.375,111.069
					h4.516c3.74,0,6.801-3.059,6.801-6.799V66.446h-10.588c0,7.247-5.875,13.121-13.12,13.121c-7.247,0-13.121-5.874-13.121-13.121
					H112.8v37.825c0,3.74,3.06,6.799,6.8,6.799h3.873"/>
			</g>
			
				<line fill="none" stroke="#221F1F" stroke-width="2.25" stroke-linecap="round" stroke-linejoin="round" stroke-miterlimit="10" x1="129.896" y1="66.446" x2="134.704" y2="66.446"/>
			<path fill="#F3CDCB" stroke="#221F1F" stroke-width="2.25" stroke-miterlimit="10" d="M179.596,124.157h-49.555
				c-2.824,0-5.134-2.31-5.134-5.134l0,0c0-2.823,2.31-5.134,5.134-5.134h49.555c2.826,0,5.135,2.311,5.135,5.134l0,0
				C184.73,121.848,182.422,124.157,179.596,124.157z"/>
			
				<circle fill="#F3CDCB" stroke="#221F1F" stroke-width="2.25" stroke-linecap="round" stroke-miterlimit="10" cx="136.064" cy="35.949" r="23.704"/>
			
				<path fill="none" stroke="#221F1F" stroke-width="2.25" stroke-linecap="round" stroke-linejoin="round" stroke-miterlimit="10" d="
				M125.228,40.586c0.741,1.45,2.249,2.44,3.989,2.44c1.547,0,2.908-0.784,3.713-1.976"/>
			
				<path fill="none" stroke="#221F1F" stroke-width="2.25" stroke-linecap="round" stroke-linejoin="round" stroke-miterlimit="10" d="
				M139.561,40.586c0.742,1.45,2.25,2.44,3.99,2.44c1.545,0,2.908-0.784,3.713-1.976"/>
			
				<path fill="#FFFFFF" stroke="#221F1F" stroke-width="2.25" stroke-linecap="round" stroke-linejoin="round" stroke-miterlimit="10" d="
				M132.384,49.749c0.805,1.693,2.169,2.807,3.714,2.807c1.504,0,2.836-1.193,3.646-2.807H132.384z"/>
			<path fill="#F27280" stroke="#221F1F" stroke-width="2.25" stroke-linecap="round" stroke-miterlimit="10" d="M136.064,4.659
				c-15.36,0-27.811,12.451-27.811,27.81c0,1.427,0.108,2.831,0.316,4.2c2.678,0.701,5.489,1.076,8.387,1.076
				c12.831,0,23.946-7.309,29.436-17.984c3.76,6.922,9.924,12.339,17.367,15.162c0.072-0.809,0.115-1.625,0.115-2.453
				C163.875,17.109,151.422,4.659,136.064,4.659z"/>
			<path fill="none" stroke="#221F1F" stroke-width="2.25" stroke-linecap="round" stroke-miterlimit="10" d="M141.33,19.59
				c-4.826,8.233-13.766,13.763-23.999,13.763"/>
			<path fill="#FFFFFF" stroke="#221F1F" stroke-width="2.25" stroke-linecap="round" stroke-miterlimit="10" d="M162.109,46.073
				L162.109,46.073c-1.883,0-3.422-1.54-3.422-3.422v-9.912c0-1.881,1.539-3.422,3.422-3.422l0,0c1.883,0,3.422,1.541,3.422,3.422
				v9.912C165.531,44.534,163.992,46.073,162.109,46.073z"/>
			<g>
				
					<line fill="none" stroke="#221F1F" stroke-width="2.25" stroke-miterlimit="10" x1="139.121" y1="121.979" x2="139.121" y2="123.73"/>
				
					<line fill="none" stroke="#221F1F" stroke-width="2.25" stroke-miterlimit="10" x1="139.123" y1="114.316" x2="139.121" y2="116.067"/>
				<path fill="none" stroke="#221F1F" stroke-width="2.25" stroke-miterlimit="10" d="M136.17,119.023
					c-0.001-1.632,1.32-2.953,2.951-2.953c1.633,0.001,2.955,1.32,2.955,2.952c0.002,1.634-1.322,2.954-2.955,2.954
					C137.49,121.979,136.169,120.655,136.17,119.023z"/>
			</g>
		</g>
		<path fill="#F27280" stroke="#221F1F" stroke-width="2.25" stroke-linecap="round" stroke-miterlimit="10" d="M105.664,172.666
			L105.664,172.666c-3.652,0-6.64-2.987-6.64-6.638v-24.533c0-3.652,2.987-6.639,6.64-6.639l0,0c3.651,0,6.639,2.986,6.639,6.639
			v24.533C112.303,169.679,109.315,172.666,105.664,172.666z"/>
		<g>
			<path fill="#F27280" stroke="#221F1F" stroke-width="2.25" stroke-linecap="round" stroke-miterlimit="10" d="M107.469,144.634
				c-0.359,0.019-0.728-0.045-1.078-0.2c-1.2-0.529-1.742-1.932-1.212-3.131l36.671-76.064c0.531-1.2,1.934-1.742,3.131-1.212
				c1.199,0.53,1.742,1.931,1.213,3.13l-36.673,76.066C109.146,144.069,108.335,144.589,107.469,144.634z"/>
		</g>
	</g>
	<path fill="none" stroke="#221F1F" stroke-width="2.25" stroke-miterlimit="10" d="M84.648,38.866V20.605
		c0-3.217,2.607-5.823,5.823-5.823h0.971c3.216,0,5.823,2.606,5.823,5.823v7.612"/>
</g>
<line fill="none" stroke="#221F1F" stroke-width="2.138" stroke-linecap="round" stroke-linejoin="round" stroke-miterlimit="10" x1="18.027" y1="205.294" x2="242.154" y2="205.294"/>
</svg>
