<?xml version="1.0" encoding="utf-8"?>
<!-- Generator: Adobe Illustrator 16.0.0, SVG Export Plug-In . SVG Version: 6.00 Build 0)  -->
<!DOCTYPE svg PUBLIC "-//W3C//DTD SVG 1.1//EN" "http://www.w3.org/Graphics/SVG/1.1/DTD/svg11.dtd">
<svg version="1.1" id="Layer_1" xmlns="http://www.w3.org/2000/svg" xmlns:xlink="http://www.w3.org/1999/xlink" x="0px" y="0px"
	 width="374.456px" height="298.13px" viewBox="0 0 374.456 298.13" enable-background="new 0 0 374.456 298.13"
	 xml:space="preserve">
<g>
	
		<rect x="7.768" y="82.132" fill="#66BF6D" stroke="#221F1F" stroke-width="2" stroke-linecap="round" stroke-miterlimit="10" width="33.033" height="18.112"/>
	<path fill="#F8DAB4" stroke="#221F1F" stroke-width="2" stroke-linecap="round" stroke-miterlimit="10" d="M43.615,97.133
		c-1.365,4.285-5.39,7.413-10.112,7.413H15.065c-4.723,0-8.748-3.128-10.112-7.413H43.615z"/>
	<path fill="#F8DAB4" stroke="#221F1F" stroke-width="2" stroke-linecap="round" stroke-miterlimit="10" d="M43.615,84.711
		c-1.365-4.285-5.39-7.414-10.112-7.414H15.065c-4.723,0-8.748,3.128-10.112,7.414H43.615z"/>
	<path fill="#C16C86" stroke="#221F1F" stroke-width="2" stroke-linecap="round" stroke-miterlimit="10" d="M3.783,93.705h41.002
		c1.531,0,2.783-1.252,2.783-2.782l0,0c0-1.531-1.252-2.783-2.783-2.783H3.783C2.253,88.139,1,89.391,1,90.922l0,0
		C1,92.453,2.253,93.705,3.783,93.705z"/>
	
		<circle fill="#D1937B" stroke="#221F1F" stroke-width="2" stroke-linecap="round" stroke-miterlimit="10" cx="107.306" cy="60.627" r="15.65"/>
	<polygon fill="#F3CDCB" stroke="#221F1F" stroke-width="2" stroke-miterlimit="10" points="106.778,128.265 67.806,128.265 
		67.806,107.394 81.035,107.394 81.035,94.919 93.551,94.919 93.551,107.394 106.778,107.394 	"/>
	<path fill="#F3CDCB" stroke="#221F1F" stroke-width="2" stroke-miterlimit="10" d="M119.698,228.973L119.698,228.973
		c3.359,0,6.108-2.749,6.108-6.107v-84.603c0-3.36-2.749-6.109-6.108-6.109l0,0c-3.359,0-6.108,2.749-6.108,6.109v84.603
		C113.59,226.224,116.339,228.973,119.698,228.973z"/>
	<g>
		<path fill="#F3CDCB" stroke="#221F1F" stroke-width="2" stroke-miterlimit="10" d="M22.432,152.865
			c-2.333,2.825-1.935,7.005,0.891,9.337l0,0c2.825,2.334,7.005,1.935,9.337-0.889l33.182-42.921
			c2.332-2.826,1.934-7.005-0.891-9.338l0,0c-2.824-2.332-7.004-1.934-9.338,0.893L22.432,152.865z"/>
	</g>
	<g>
		<path fill="#F3CDCB" stroke="#221F1F" stroke-width="2" stroke-miterlimit="10" d="M20.872,157.095
			c0.001,3.663,2.945,6.631,6.609,6.626l0,0c3.661-0.001,6.657-2.972,6.655-6.637V95.337c-0.001-3.664-2.991-6.631-6.655-6.627l0,0
			c-3.663,0-6.612,2.973-6.609,6.637V157.095z"/>
	</g>
	<path fill="#9CD2DE" stroke="#221F1F" stroke-width="2" stroke-miterlimit="10" d="M41.574,128.265l14.04-18.319
		c2.333-2.827,6.514-3.224,9.338-0.893c2.825,2.333,3.223,6.512,0.891,9.338L51.51,137.092L41.574,128.265z"/>
	<path fill="#9CD2DE" stroke="#221F1F" stroke-width="2" stroke-miterlimit="10" d="M68.204,107.394l19.176,18.052l19.177-18.052
		h3.141c8.859,0,16.108,7.249,16.108,16.107v21.265H113.59v70.609H61.171V107.394H68.204z"/>
	
		<line fill="none" stroke="#221F1F" stroke-width="2" stroke-linecap="round" stroke-miterlimit="10" x1="113.59" y1="144.766" x2="113.59" y2="133.091"/>
	
		<line fill="none" stroke="#221F1F" stroke-width="2" stroke-linecap="round" stroke-miterlimit="10" x1="87.292" y1="136.369" x2="87.292" y2="189.588"/>
	
		<line fill="none" stroke="#221F1F" stroke-width="2" stroke-linecap="round" stroke-miterlimit="10" x1="87.292" y1="194.097" x2="87.292" y2="202.367"/>
	
		<rect x="61.171" y="215.288" fill="#F27280" stroke="#221F1F" stroke-width="2" stroke-miterlimit="10" width="52.418" height="81.718"/>
	
		<line fill="none" stroke="#221F1F" stroke-width="2" stroke-linecap="round" stroke-linejoin="round" stroke-miterlimit="10" x1="77.768" y1="249.083" x2="96.992" y2="249.083"/>
	
		<line fill="none" stroke="#221F1F" stroke-width="2" stroke-linecap="round" stroke-linejoin="round" stroke-miterlimit="10" x1="105.21" y1="220.932" x2="69.551" y2="220.932"/>
	
		<line fill="none" stroke="#221F1F" stroke-width="2" stroke-linecap="round" stroke-linejoin="round" stroke-miterlimit="10" x1="87.292" y1="249.083" x2="87.292" y2="297.005"/>
	<g>
		<circle fill="#F3CDCB" stroke="#221F1F" stroke-width="2" stroke-miterlimit="10" cx="115.538" cy="70.331" r="6.3"/>
	</g>
	<circle fill="#F3CDCB" stroke="#221F1F" stroke-width="2" stroke-miterlimit="10" cx="87.886" cy="68.347" r="28.702"/>
	<g>
		<path fill="none" stroke="#221F1F" stroke-width="2" stroke-linecap="round" stroke-linejoin="round" stroke-miterlimit="10" d="
			M84.083,84.264L84.083,84.264c0,0.873,0.708,1.582,1.583,1.582h6.025"/>
		<g>
			
				<line fill="none" stroke="#221F1F" stroke-width="2" stroke-linecap="round" stroke-linejoin="round" stroke-miterlimit="10" x1="98.563" y1="73.596" x2="95.587" y2="73.596"/>
			
				<line fill="none" stroke="#221F1F" stroke-width="2" stroke-linecap="round" stroke-linejoin="round" stroke-miterlimit="10" x1="80.186" y1="73.596" x2="77.21" y2="73.596"/>
		</g>
	</g>
	
		<rect x="61.171" y="107.394" fill="#315778" stroke="#221F1F" stroke-width="2" stroke-miterlimit="10" width="14.957" height="107.894"/>
	
		<rect x="98.633" y="107.394" fill="#315778" stroke="#221F1F" stroke-width="2" stroke-miterlimit="10" width="14.957" height="107.614"/>
	<path fill="#D1937B" stroke="#221F1F" stroke-width="2" stroke-linecap="round" stroke-miterlimit="10" d="M69.693,41.47
		L44.399,66.766c12.339,12.339,30.774,14.093,40.969,3.899l25.294-25.294l0-0.001C98.323,33.031,79.887,31.277,69.693,41.47z"/>
	<path fill="none" stroke="#221F1F" stroke-width="2" stroke-linecap="round" stroke-miterlimit="10" d="M52.872,66.652
		c8.5,5.917,18.983,6.768,26.33,2.066"/>
</g>
<g>
	<g>
		<path fill="#FFFFFF" stroke="#221F1F" stroke-width="2" stroke-miterlimit="10" d="M364.479,151.849
			c2.332,2.826,1.934,7.005-0.891,9.338l0,0c-2.824,2.333-7.005,1.935-9.338-0.89l-33.182-42.921
			c-2.332-2.826-1.935-7.006,0.891-9.337l0,0c2.824-2.332,7.005-1.936,9.338,0.891L364.479,151.849z"/>
	</g>
	<g>
		<path fill="#FFFFFF" stroke="#221F1F" stroke-width="2" stroke-miterlimit="10" d="M258.956,108.604
			c2.592-2.589,6.771-2.605,9.358-0.012l0,0c2.589,2.59,2.606,6.809,0.014,9.398l-43.662,43.662
			c-2.592,2.591-6.804,2.574-9.392-0.019l0,0c-2.591-2.59-2.574-6.778,0.02-9.366L258.956,108.604z"/>
	</g>
	<path fill="#58595B" stroke="#221F1F" stroke-width="2" stroke-linecap="round" stroke-miterlimit="10" d="M327.857,67.818
		c0.018-0.433,0.033-0.865,0.033-1.302c0-18.348-14.874-33.221-33.221-33.221s-33.22,14.873-33.22,33.221
		c0,0.437,0.018,0.869,0.033,1.302H327.857z"/>
	<g>
		<circle fill="#F3CDCB" stroke="#221F1F" stroke-width="2" stroke-miterlimit="10" cx="322.751" cy="70.331" r="6.3"/>
	</g>
	<polygon fill="#F3CDCB" stroke="#221F1F" stroke-width="2" stroke-miterlimit="10" points="275.114,128.265 314.087,128.265 
		314.087,107.394 300.856,107.394 300.856,94.919 288.341,94.919 288.341,107.394 275.114,107.394 	"/>
	
		<line fill="none" stroke="#221F1F" stroke-width="2" stroke-linecap="round" stroke-miterlimit="10" x1="294.601" y1="136.369" x2="294.601" y2="189.588"/>
	
		<line fill="none" stroke="#221F1F" stroke-width="2" stroke-linecap="round" stroke-miterlimit="10" x1="294.601" y1="194.097" x2="294.601" y2="202.367"/>
	
		<rect x="268.302" y="215.288" fill="#FFFFFF" stroke="#221F1F" stroke-width="2" stroke-miterlimit="10" width="52.418" height="81.718"/>
	
		<line fill="none" stroke="#221F1F" stroke-width="2" stroke-linecap="round" stroke-linejoin="round" stroke-miterlimit="10" x1="304.123" y1="249.083" x2="284.899" y2="249.083"/>
	
		<line fill="none" stroke="#221F1F" stroke-width="2" stroke-linecap="round" stroke-linejoin="round" stroke-miterlimit="10" x1="276.682" y1="220.931" x2="312.341" y2="220.931"/>
	
		<line fill="none" stroke="#221F1F" stroke-width="2" stroke-linecap="round" stroke-linejoin="round" stroke-miterlimit="10" x1="294.601" y1="249.083" x2="294.601" y2="297.005"/>
	<g>
		<circle fill="#F3CDCB" stroke="#221F1F" stroke-width="2" stroke-miterlimit="10" cx="266.354" cy="70.331" r="6.3"/>
	</g>
	<circle fill="#F3CDCB" stroke="#221F1F" stroke-width="2" stroke-miterlimit="10" cx="294.005" cy="68.347" r="28.702"/>
	<g>
		
			<line fill="none" stroke="#221F1F" stroke-width="2" stroke-linecap="round" stroke-linejoin="round" stroke-miterlimit="10" x1="283.329" y1="73.596" x2="286.305" y2="73.596"/>
		
			<line fill="none" stroke="#221F1F" stroke-width="2" stroke-linecap="round" stroke-linejoin="round" stroke-miterlimit="10" x1="301.706" y1="73.596" x2="304.683" y2="73.596"/>
	</g>
	<polygon fill="#58595B" points="277.191,59.346 270.945,59.479 264.566,58.947 267.225,51.239 277.191,41.671 286.76,37.286 
		297.391,36.887 305.63,40.342 306.959,42.07 296.194,53.499 281.178,58.017 	"/>
	<path fill="#58595B" stroke="#221F1F" stroke-width="2" stroke-linecap="round" stroke-miterlimit="10" d="M265.685,59.629
		c3.978,2.085,8.502,3.267,13.303,3.267c12.926,0,23.848-8.546,27.443-20.294"/>
	
		<circle fill="none" stroke="#221F1F" stroke-width="2" stroke-linecap="round" stroke-linejoin="round" stroke-miterlimit="10" cx="284.5" cy="73.787" r="8.859"/>
	
		<circle fill="none" stroke="#221F1F" stroke-width="2" stroke-linecap="round" stroke-linejoin="round" stroke-miterlimit="10" cx="303.104" cy="73.787" r="8.859"/>
	
		<line fill="none" stroke="#221F1F" stroke-width="2" stroke-linecap="round" stroke-linejoin="round" stroke-miterlimit="10" x1="276.704" y1="69.18" x2="268.376" y2="69.18"/>
	
		<line fill="none" stroke="#221F1F" stroke-width="2" stroke-linecap="round" stroke-linejoin="round" stroke-miterlimit="10" x1="318.875" y1="69.18" x2="310.547" y2="69.18"/>
	<path fill="#9CD2DE" stroke="#221F1F" stroke-width="2" stroke-miterlimit="10" d="M313.7,107.394h-9.453
		c-0.157,5.244-4.447,9.449-9.73,9.449c-5.281,0-9.572-4.205-9.729-9.449h-9.438h-2.176h-4.871v32.619v75.275h52.432v-75.275
		v-32.619H313.7z"/>
	<g>
		
			<rect x="300.846" y="106.655" fill="#FFFFFF" stroke="#221F1F" stroke-width="2" stroke-miterlimit="10" width="26.578" height="135.018"/>
		
			<rect x="261.776" y="106.655" fill="#FFFFFF" stroke="#221F1F" stroke-width="2" stroke-miterlimit="10" width="26.578" height="135.018"/>
	</g>
	<g>
		<path fill="#FAB294" stroke="#221F1F" stroke-width="2" stroke-linecap="round" stroke-miterlimit="10" d="M303.548,139.967
			l-1.063-3.012h-30.389v34.552h0.034c0.177,2.935,2.589,5.265,5.567,5.265h34.729c-0.401,0-0.792-0.046-1.17-0.126h1.17v-34.906
			L303.548,139.967z"/>
		<path fill="#FFFFFF" stroke="#221F1F" stroke-width="2" stroke-miterlimit="10" d="M306.826,136.087
			c0-3.094,2.507-5.601,5.601-5.601h-34.729c-3.094,0-5.602,2.507-5.602,5.601s2.508,5.601,5.602,5.601h34.729
			C309.333,141.688,306.826,139.181,306.826,136.087z"/>
	</g>
	<g>
		<g>
			<path fill="#FFFFFF" stroke="#221F1F" stroke-width="2" stroke-miterlimit="10" d="M219.966,163.586
				c-3.663-0.002-6.63-2.945-6.626-6.609l0,0c0.001-3.66,2.973-6.656,6.636-6.654h61.748c3.664,0.001,6.632,2.991,6.627,6.654l0,0
				c0,3.664-2.973,6.613-6.637,6.609H219.966z"/>
		</g>
		<path fill="#F3CDCB" stroke="#221F1F" stroke-width="2" stroke-miterlimit="10" d="M288.351,156.977
			c0.005-3.663-2.963-6.653-6.627-6.654h-4.271v13.264h4.262C285.378,163.59,288.351,160.641,288.351,156.977z"/>
	</g>
	
		<path fill="#FFFFFF" stroke="#221F1F" stroke-width="2" stroke-linecap="round" stroke-linejoin="round" stroke-miterlimit="10" d="
		M289.418,86.743c0.984,2.07,2.651,3.432,4.543,3.432c1.839,0,3.467-1.459,4.46-3.432H289.418z"/>
	<g>
		
			<rect x="357.834" y="82.092" transform="matrix(0.7071 -0.7072 0.7072 0.7071 38.8282 282.3671)" fill="#9CD2DE" stroke="#221F1F" stroke-width="2" stroke-miterlimit="10" width="4.784" height="24.453"/>
		<path fill="#7B8287" stroke="#221F1F" stroke-width="2" stroke-miterlimit="10" d="M322.389,56.481
			c-8.097,8.096-8.097,21.222,0,29.317c8.096,8.097,21.222,8.097,29.318,0c8.096-8.096,8.096-21.222,0-29.317
			C343.61,48.385,330.484,48.385,322.389,56.481z M347.761,81.852c-5.917,5.917-15.509,5.917-21.426,0
			c-5.916-5.916-5.916-15.509,0-21.424c5.917-5.917,15.509-5.917,21.426,0C353.677,66.343,353.677,75.936,347.761,81.852z"/>
	</g>
	<g>
		<path fill="#FFFFFF" stroke="#221F1F" stroke-width="2" stroke-miterlimit="10" d="M366.04,156.081
			c-0.002,3.662-2.945,6.63-6.609,6.626l0,0c-3.66-0.001-6.656-2.974-6.654-6.637V94.322c0.001-3.664,2.99-6.631,6.654-6.627l0,0
			c3.664,0,6.613,2.973,6.609,6.638V156.081z"/>
	</g>
	<path fill="#F3CDCB" stroke="#221F1F" stroke-width="2" stroke-miterlimit="10" d="M359.431,87.695
		c-3.664-0.004-6.653,2.963-6.654,6.627v4.271h13.264v-4.261C366.044,90.667,363.095,87.695,359.431,87.695z"/>
	
		<line fill="none" stroke="#221F1F" stroke-width="2" stroke-miterlimit="10" x1="282.905" y1="169.379" x2="301.776" y2="169.379"/>
	<path fill="none" stroke="#221F1F" stroke-width="2" stroke-miterlimit="10" d="M336.593,59.966
		c6.165,0,11.163,4.997,11.163,11.163c-0.001,3.587-1.692,6.78-4.323,8.822"/>
</g>
<g>
	<path fill="none" stroke="#221F1F" stroke-width="2.25" stroke-miterlimit="10" d="M140.85,34.803v4.537
		c0,4.671,3.788,8.458,8.46,8.458"/>
	<g>
		<g>
			<path fill="#FFFFFF" stroke="#221F1F" stroke-width="2.25" stroke-linecap="round" stroke-miterlimit="10" d="M158.024,66.424
				L158.024,66.424c-2.734,0-4.972-2.237-4.972-4.972v-14.4c0-2.733,2.238-4.972,4.972-4.972l0,0c2.734,0,4.972,2.238,4.972,4.972
				v14.4C162.996,64.187,160.758,66.424,158.024,66.424z"/>
			<path fill="#F27280" stroke="#221F1F" stroke-width="2.25" stroke-linecap="round" stroke-miterlimit="10" d="M213.646,4.435
				c8.521-3.538,18.572-3.016,26.967,2.283c8.723,5.507,13.555,14.848,13.691,24.448l0.001,63.766c0,0-25.599,0.123-32.761-25.468"
				/>
			
				<line fill="none" stroke="#221F1F" stroke-width="2.25" stroke-linecap="round" stroke-linejoin="round" stroke-miterlimit="10" x1="245.766" y1="59.61" x2="245.766" y2="54.646"/>
			
				<line fill="none" stroke="#221F1F" stroke-width="2.25" stroke-linecap="round" stroke-linejoin="round" stroke-miterlimit="10" x1="245.766" y1="82.398" x2="245.766" y2="65.163"/>
			<path fill="#66BF6D" stroke="#221F1F" stroke-width="2.25" stroke-miterlimit="10" d="M225.331,21.157
				c1.803,0.17,3.634-0.652,4.668-2.288c1.461-2.317,0.77-5.381-1.549-6.845L212.399,1.891c-2.317-1.462-5.379-0.771-6.845,1.545
				c-0.765,1.212-0.94,2.63-0.602,3.915C213.3,9.381,220.479,14.377,225.331,21.157z"/>
			<g>
				<path fill="#F3CDCB" stroke="#221F1F" stroke-width="2.25" stroke-miterlimit="10" d="M267.23,168.891
					c1.765,3.915,0.021,8.52-3.894,10.283l0,0c-3.916,1.764-8.521,0.021-10.284-3.896l-27.827-68.286
					c-1.764-3.917-0.02-8.521,3.896-10.284l0,0c3.914-1.764,8.52-0.02,10.284,3.897L267.23,168.891z"/>
			</g>
			<path fill="#FAB294" stroke="#221F1F" stroke-width="2.25" stroke-miterlimit="10" d="M233.884,128.239l-8.658-21.246
				c-1.764-3.917-0.02-8.521,3.896-10.283c3.914-1.766,8.52-0.021,10.284,3.896l8.705,21.363L233.884,128.239z"/>
			<path fill="#F1F2F2" stroke="#221F1F" stroke-width="2.25" stroke-miterlimit="10" d="M143.055,98.897H125.38
				c-1.881,0-3.422-1.54-3.422-3.421V63.137c0-1.883,1.541-3.422,3.422-3.422h17.675c1.882,0,3.422,1.54,3.422,3.422v32.338
				C146.477,97.357,144.937,98.897,143.055,98.897z"/>
			<g>
				<path fill="#F3CDCB" stroke="#221F1F" stroke-width="2.25" stroke-miterlimit="10" d="M120.724,164.424
					c-2.202,3.688-0.997,8.461,2.69,10.662l0,0c3.687,2.201,8.462,0.997,10.662-2.691l35.472-64.646
					c2.201-3.688,0.996-8.461-2.69-10.662l0,0c-3.688-2.201-8.462-0.997-10.664,2.692L120.724,164.424z"/>
			</g>
			<g>
				<path fill="#F3CDCB" stroke="#221F1F" stroke-width="2.25" stroke-miterlimit="10" d="M119.468,168.263
					c0.001,4.295,3.454,7.772,7.749,7.768l0,0c4.293,0,7.805-3.485,7.803-7.78V90.923c-0.001-4.295-3.508-7.775-7.803-7.771l0,0
					c-4.294,0.002-7.751,3.487-7.749,7.783V168.263z"/>
			</g>
			<circle fill="#F1F2F2" stroke="#221F1F" stroke-width="2.25" stroke-miterlimit="10" cx="134.218" cy="71.688" r="5.547"/>
			<path fill="#FAB294" stroke="#221F1F" stroke-width="2.25" stroke-miterlimit="10" d="M158.511,127.864l11.037-20.114
				c2.201-3.688,0.996-8.461-2.69-10.662c-3.688-2.201-8.462-0.997-10.664,2.692l-11.097,20.224L158.511,127.864z"/>
			<path fill="#F3CDCB" stroke="#221F1F" stroke-width="2.25" stroke-linecap="round" stroke-miterlimit="10" d="M204.374,78.517
				h-13.025v17.498h-22.284c-0.006,0.271-0.021,0.541-0.021,0.813c0,15.704,12.732,28.437,28.437,28.437
				c15.705,0,28.438-12.732,28.438-28.437c0-0.271-0.015-0.542-0.021-0.813h-21.521V78.517z"/>
			<polygon fill="#FAB294" stroke="#221F1F" stroke-width="2.25" stroke-miterlimit="10" points="225.331,233.272 228.288,157.537 
				166.672,157.537 169.628,233.272 			"/>
			<polygon fill="#6E5D7D" stroke="#221F1F" stroke-width="2.25" stroke-miterlimit="10" points="225.331,233.272 237.618,297.005 
				157.342,297.005 169.628,233.272 			"/>
			
				<line fill="none" stroke="#221F1F" stroke-width="2.25" stroke-linecap="round" stroke-linejoin="round" stroke-miterlimit="10" x1="174.686" y1="240.788" x2="220.274" y2="240.788"/>
			<g>
				<path fill="#FAB294" stroke="#221F1F" stroke-width="2.25" stroke-linecap="round" stroke-miterlimit="10" d="M215.101,160.848
					h6.561c5.436,0,9.879-4.444,9.879-9.878v-54.95h-15.38c0,10.528-8.534,19.062-19.062,19.062s-19.062-8.534-19.062-19.062
					h-14.618v54.95c0,5.434,4.445,9.878,9.879,9.878h5.626"/>
			</g>
			
				<line fill="none" stroke="#221F1F" stroke-width="2.25" stroke-linecap="round" stroke-linejoin="round" stroke-miterlimit="10" x1="188.257" y1="96.021" x2="195.241" y2="96.021"/>
			<path fill="#F3CDCB" stroke="#221F1F" stroke-width="2.25" stroke-miterlimit="10" d="M260.461,179.862h-71.995
				c-4.102,0-7.458-3.355-7.458-7.458l0,0c0-4.101,3.356-7.458,7.458-7.458h71.995c4.103,0,7.458,3.357,7.458,7.458l0,0
				C267.919,176.506,264.563,179.862,260.461,179.862z"/>
			
				<circle fill="#F3CDCB" stroke="#221F1F" stroke-width="2.25" stroke-linecap="round" stroke-miterlimit="10" cx="197.217" cy="51.715" r="34.437"/>
			
				<path fill="none" stroke="#221F1F" stroke-width="2.25" stroke-linecap="round" stroke-linejoin="round" stroke-miterlimit="10" d="
				M181.474,58.453c1.078,2.105,3.269,3.544,5.794,3.544c2.249,0,4.226-1.138,5.396-2.87"/>
			
				<path fill="none" stroke="#221F1F" stroke-width="2.25" stroke-linecap="round" stroke-linejoin="round" stroke-miterlimit="10" d="
				M202.296,58.453c1.078,2.105,3.269,3.544,5.797,3.544c2.245,0,4.225-1.138,5.395-2.87"/>
			
				<path fill="#FFFFFF" stroke="#221F1F" stroke-width="2.25" stroke-linecap="round" stroke-linejoin="round" stroke-miterlimit="10" d="
				M191.87,71.764c1.169,2.46,3.149,4.077,5.396,4.077c2.185,0,4.118-1.732,5.298-4.077H191.87z"/>
			<path fill="#F27280" stroke="#221F1F" stroke-width="2.25" stroke-linecap="round" stroke-miterlimit="10" d="M197.217,6.258
				c-22.314,0-40.402,18.088-40.402,40.401c0,2.074,0.157,4.112,0.458,6.102c3.892,1.018,7.976,1.563,12.186,1.563
				c18.64,0,34.788-10.617,42.763-26.127c5.462,10.056,14.419,17.925,25.23,22.026c0.104-1.175,0.166-2.361,0.166-3.564
				C237.618,24.346,219.529,6.258,197.217,6.258z"/>
			<path fill="none" stroke="#221F1F" stroke-width="2.25" stroke-linecap="round" stroke-miterlimit="10" d="M204.868,27.95
				c-7.012,11.961-20,19.994-34.866,19.994"/>
			<path fill="#FFFFFF" stroke="#221F1F" stroke-width="2.25" stroke-linecap="round" stroke-miterlimit="10" d="M235.054,66.424
				L235.054,66.424c-2.734,0-4.972-2.237-4.972-4.972v-14.4c0-2.733,2.237-4.972,4.972-4.972l0,0c2.734,0,4.973,2.238,4.973,4.972
				v14.4C240.026,64.187,237.788,66.424,235.054,66.424z"/>
			<g>
				
					<line fill="none" stroke="#221F1F" stroke-width="2.25" stroke-miterlimit="10" x1="201.659" y1="176.696" x2="201.659" y2="179.243"/>
				
					<line fill="none" stroke="#221F1F" stroke-width="2.25" stroke-miterlimit="10" x1="201.66" y1="165.565" x2="201.659" y2="168.11"/>
				<path fill="none" stroke="#221F1F" stroke-width="2.25" stroke-miterlimit="10" d="M197.37,172.404
					c-0.001-2.37,1.919-4.291,4.289-4.291c2.37,0.001,4.292,1.919,4.293,4.29c0.001,2.373-1.922,4.291-4.293,4.291
					C199.29,176.696,197.368,174.774,197.37,172.404z"/>
			</g>
		</g>
		<path fill="#F27280" stroke="#221F1F" stroke-width="2.25" stroke-linecap="round" stroke-miterlimit="10" d="M153.052,250.334
			L153.052,250.334c-5.305,0-9.646-4.34-9.646-9.645v-35.64c0-5.306,4.341-9.646,9.646-9.646l0,0c5.305,0,9.646,4.34,9.646,9.646
			v35.64C162.697,245.995,158.357,250.334,153.052,250.334z"/>
		<g>
			<path fill="#F27280" stroke="#221F1F" stroke-width="2.25" stroke-linecap="round" stroke-miterlimit="10" d="M155.674,209.609
				c-0.522,0.027-1.057-0.064-1.566-0.29c-1.743-0.77-2.531-2.806-1.761-4.548l53.276-110.504c0.771-1.743,2.806-2.53,4.548-1.76
				c1.742,0.77,2.53,2.805,1.76,4.546l-53.276,110.506C158.11,208.79,156.933,209.544,155.674,209.609z"/>
		</g>
	</g>
	<path fill="none" stroke="#221F1F" stroke-width="2.25" stroke-miterlimit="10" d="M122.521,55.955V29.425
		c0-4.673,3.787-8.46,8.459-8.46h1.411c4.671,0,8.459,3.787,8.459,8.46v11.059"/>
</g>
<line fill="none" stroke="#221F1F" stroke-width="2.138" stroke-linecap="round" stroke-linejoin="round" stroke-miterlimit="10" x1="6.448" y1="297.005" x2="373.387" y2="297.005"/>
</svg>
