<?xml version="1.0" encoding="utf-8"?>
<!-- Generator: Adobe Illustrator 16.0.0, SVG Export Plug-In . SVG Version: 6.00 Build 0)  -->
<!DOCTYPE svg PUBLIC "-//W3C//DTD SVG 1.1//EN" "http://www.w3.org/Graphics/SVG/1.1/DTD/svg11.dtd">
<svg version="1.1" id="Layer_2" xmlns="http://www.w3.org/2000/svg" xmlns:xlink="http://www.w3.org/1999/xlink" x="0px" y="0px"
	 width="717.498px" height="298.131px" viewBox="0 0 717.498 298.131" enable-background="new 0 0 717.498 298.131"
	 xml:space="preserve">
<line fill="none" stroke="#221F1F" stroke-width="2.138" stroke-linecap="round" stroke-linejoin="round" stroke-miterlimit="10" x1="6.448" y1="297.006" x2="716.429" y2="297.006"/>
<g>
	
		<rect x="7.768" y="82.133" fill="#66BF6D" stroke="#221F1F" stroke-width="2" stroke-linecap="round" stroke-miterlimit="10" width="33.033" height="18.112"/>
	<path fill="#F8DAB4" stroke="#221F1F" stroke-width="2" stroke-linecap="round" stroke-miterlimit="10" d="M43.615,97.134
		c-1.365,4.285-5.39,7.413-10.112,7.413H15.065c-4.724,0-8.748-3.128-10.112-7.413H43.615z"/>
	<path fill="#F8DAB4" stroke="#221F1F" stroke-width="2" stroke-linecap="round" stroke-miterlimit="10" d="M43.615,84.712
		c-1.365-4.285-5.39-7.414-10.112-7.414H15.065c-4.724,0-8.748,3.128-10.112,7.414H43.615z"/>
	<path fill="#C16C86" stroke="#221F1F" stroke-width="2" stroke-linecap="round" stroke-miterlimit="10" d="M3.783,93.705h41.002
		c1.53,0,2.782-1.252,2.782-2.782l0,0c0-1.531-1.252-2.783-2.782-2.783H3.783C2.253,88.14,1,89.392,1,90.923l0,0
		C1,92.453,2.253,93.705,3.783,93.705z"/>
	
		<circle fill="#D1937B" stroke="#221F1F" stroke-width="2" stroke-linecap="round" stroke-miterlimit="10" cx="107.306" cy="60.628" r="15.65"/>
	<polygon fill="#F3CDCB" stroke="#221F1F" stroke-width="2" stroke-miterlimit="10" points="106.778,128.266 67.806,128.266 
		67.806,107.395 81.035,107.395 81.035,94.92 93.552,94.92 93.552,107.395 106.778,107.395 	"/>
	<path fill="#F3CDCB" stroke="#221F1F" stroke-width="2" stroke-miterlimit="10" d="M119.698,228.974L119.698,228.974
		c3.359,0,6.108-2.749,6.108-6.107v-84.603c0-3.36-2.749-6.109-6.108-6.109l0,0c-3.358,0-6.108,2.749-6.108,6.109v84.603
		C113.59,226.225,116.34,228.974,119.698,228.974z"/>
	<g>
		<path fill="#F3CDCB" stroke="#221F1F" stroke-width="2" stroke-miterlimit="10" d="M22.433,152.865
			c-2.333,2.825-1.935,7.005,0.891,9.337l0,0c2.824,2.334,7.005,1.935,9.337-0.889l33.183-42.921
			c2.331-2.826,1.934-7.005-0.892-9.338l0,0c-2.824-2.332-7.004-1.934-9.338,0.893L22.433,152.865z"/>
	</g>
	<g>
		<path fill="#F3CDCB" stroke="#221F1F" stroke-width="2" stroke-miterlimit="10" d="M20.872,157.096
			c0.001,3.663,2.945,6.631,6.608,6.626l0,0c3.661-0.001,6.657-2.972,6.655-6.636V95.338c-0.001-3.664-2.991-6.631-6.655-6.627l0,0
			c-3.663,0-6.612,2.973-6.608,6.637V157.096z"/>
	</g>
	<path fill="#9CD2DE" stroke="#221F1F" stroke-width="2" stroke-miterlimit="10" d="M41.574,128.266l14.039-18.319
		c2.333-2.827,6.514-3.224,9.338-0.893c2.825,2.333,3.223,6.512,0.892,9.338L51.51,137.093L41.574,128.266z"/>
	<path fill="#9CD2DE" stroke="#221F1F" stroke-width="2" stroke-miterlimit="10" d="M68.204,107.395l19.177,18.052l19.177-18.052
		h3.141c8.859,0,16.108,7.249,16.108,16.107v21.265H113.59v70.609H61.172V107.395H68.204z"/>
	
		<line fill="none" stroke="#221F1F" stroke-width="2" stroke-linecap="round" stroke-miterlimit="10" x1="113.59" y1="144.767" x2="113.59" y2="133.092"/>
	
		<line fill="none" stroke="#221F1F" stroke-width="2" stroke-linecap="round" stroke-miterlimit="10" x1="87.292" y1="136.369" x2="87.292" y2="189.588"/>
	
		<line fill="none" stroke="#221F1F" stroke-width="2" stroke-linecap="round" stroke-miterlimit="10" x1="87.292" y1="194.098" x2="87.292" y2="202.367"/>
	
		<rect x="61.172" y="215.288" fill="#F27280" stroke="#221F1F" stroke-width="2" stroke-miterlimit="10" width="52.418" height="81.718"/>
	
		<line fill="none" stroke="#221F1F" stroke-width="2" stroke-linecap="round" stroke-linejoin="round" stroke-miterlimit="10" x1="77.769" y1="249.084" x2="96.992" y2="249.084"/>
	
		<line fill="none" stroke="#221F1F" stroke-width="2" stroke-linecap="round" stroke-linejoin="round" stroke-miterlimit="10" x1="105.211" y1="220.933" x2="69.551" y2="220.933"/>
	
		<line fill="none" stroke="#221F1F" stroke-width="2" stroke-linecap="round" stroke-linejoin="round" stroke-miterlimit="10" x1="87.292" y1="249.084" x2="87.292" y2="297.006"/>
	<g>
		<circle fill="#F3CDCB" stroke="#221F1F" stroke-width="2" stroke-miterlimit="10" cx="115.538" cy="70.331" r="6.3"/>
	</g>
	<circle fill="#F3CDCB" stroke="#221F1F" stroke-width="2" stroke-miterlimit="10" cx="87.886" cy="68.348" r="28.702"/>
	<g>
		<path fill="none" stroke="#221F1F" stroke-width="2" stroke-linecap="round" stroke-linejoin="round" stroke-miterlimit="10" d="
			M84.083,84.264L84.083,84.264c0,0.873,0.708,1.582,1.582,1.582h6.025"/>
		<g>
			
				<line fill="none" stroke="#221F1F" stroke-width="2" stroke-linecap="round" stroke-linejoin="round" stroke-miterlimit="10" x1="98.563" y1="73.597" x2="95.588" y2="73.597"/>
			
				<line fill="none" stroke="#221F1F" stroke-width="2" stroke-linecap="round" stroke-linejoin="round" stroke-miterlimit="10" x1="80.187" y1="73.597" x2="77.21" y2="73.597"/>
		</g>
	</g>
	
		<rect x="61.172" y="107.395" fill="#315778" stroke="#221F1F" stroke-width="2" stroke-miterlimit="10" width="14.957" height="107.894"/>
	
		<rect x="98.633" y="107.395" fill="#315778" stroke="#221F1F" stroke-width="2" stroke-miterlimit="10" width="14.957" height="107.614"/>
	<path fill="#D1937B" stroke="#221F1F" stroke-width="2" stroke-linecap="round" stroke-miterlimit="10" d="M69.693,41.471
		L44.399,66.766c12.339,12.339,30.774,14.093,40.969,3.899l25.294-25.294V45.37C98.323,33.031,79.887,31.277,69.693,41.471z"/>
	<path fill="none" stroke="#221F1F" stroke-width="2" stroke-linecap="round" stroke-miterlimit="10" d="M52.872,66.653
		c8.501,5.917,18.983,6.768,26.33,2.066"/>
</g>
<g>
	<g>
		<path fill="#FFFFFF" stroke="#221F1F" stroke-width="2" stroke-miterlimit="10" d="M364.48,151.85
			c2.332,2.826,1.934,7.005-0.892,9.338l0,0c-2.824,2.333-7.005,1.935-9.337-0.89l-33.183-42.921
			c-2.331-2.826-1.935-7.006,0.892-9.337l0,0c2.824-2.332,7.004-1.936,9.337,0.891L364.48,151.85z"/>
	</g>
	<g>
		<path fill="#FFFFFF" stroke="#221F1F" stroke-width="2" stroke-miterlimit="10" d="M258.957,108.604
			c2.591-2.589,6.771-2.605,9.357-0.012l0,0c2.589,2.59,2.606,6.809,0.014,9.398l-43.662,43.662
			c-2.592,2.591-6.804,2.574-9.392-0.019l0,0c-2.591-2.589-2.574-6.778,0.02-9.366L258.957,108.604z"/>
	</g>
	<path fill="#58595B" stroke="#221F1F" stroke-width="2" stroke-linecap="round" stroke-miterlimit="10" d="M327.857,67.819
		c0.018-0.433,0.033-0.865,0.033-1.302c0-18.348-14.874-33.221-33.221-33.221s-33.219,14.873-33.219,33.221
		c0,0.437,0.017,0.869,0.032,1.302H327.857z"/>
	<g>
		<circle fill="#F3CDCB" stroke="#221F1F" stroke-width="2" stroke-miterlimit="10" cx="322.751" cy="70.331" r="6.3"/>
	</g>
	<polygon fill="#F3CDCB" stroke="#221F1F" stroke-width="2" stroke-miterlimit="10" points="275.114,128.266 314.087,128.266 
		314.087,107.395 300.857,107.395 300.857,94.92 288.341,94.92 288.341,107.395 275.114,107.395 	"/>
	
		<line fill="none" stroke="#221F1F" stroke-width="2" stroke-linecap="round" stroke-miterlimit="10" x1="294.601" y1="136.369" x2="294.601" y2="189.588"/>
	
		<line fill="none" stroke="#221F1F" stroke-width="2" stroke-linecap="round" stroke-miterlimit="10" x1="294.601" y1="194.098" x2="294.601" y2="202.367"/>
	
		<rect x="268.303" y="215.288" fill="#FFFFFF" stroke="#221F1F" stroke-width="2" stroke-miterlimit="10" width="52.418" height="81.718"/>
	
		<line fill="none" stroke="#221F1F" stroke-width="2" stroke-linecap="round" stroke-linejoin="round" stroke-miterlimit="10" x1="304.123" y1="249.084" x2="284.9" y2="249.084"/>
	
		<line fill="none" stroke="#221F1F" stroke-width="2" stroke-linecap="round" stroke-linejoin="round" stroke-miterlimit="10" x1="276.682" y1="220.932" x2="312.341" y2="220.932"/>
	
		<line fill="none" stroke="#221F1F" stroke-width="2" stroke-linecap="round" stroke-linejoin="round" stroke-miterlimit="10" x1="294.601" y1="249.084" x2="294.601" y2="297.006"/>
	<g>
		<circle fill="#F3CDCB" stroke="#221F1F" stroke-width="2" stroke-miterlimit="10" cx="266.354" cy="70.331" r="6.3"/>
	</g>
	<circle fill="#F3CDCB" stroke="#221F1F" stroke-width="2" stroke-miterlimit="10" cx="294.005" cy="68.348" r="28.702"/>
	<g>
		
			<line fill="none" stroke="#221F1F" stroke-width="2" stroke-linecap="round" stroke-linejoin="round" stroke-miterlimit="10" x1="283.329" y1="73.597" x2="286.305" y2="73.597"/>
		
			<line fill="none" stroke="#221F1F" stroke-width="2" stroke-linecap="round" stroke-linejoin="round" stroke-miterlimit="10" x1="301.706" y1="73.597" x2="304.683" y2="73.597"/>
	</g>
	<polygon fill="#58595B" points="277.191,59.346 270.945,59.479 264.566,58.947 267.225,51.24 277.191,41.671 286.76,37.286 
		297.391,36.888 305.63,40.343 306.959,42.07 296.194,53.499 281.178,58.018 	"/>
	<path fill="#58595B" stroke="#221F1F" stroke-width="2" stroke-linecap="round" stroke-miterlimit="10" d="M265.686,59.63
		c3.977,2.085,8.501,3.267,13.303,3.267c12.925,0,23.847-8.546,27.442-20.294"/>
	
		<circle fill="none" stroke="#221F1F" stroke-width="2" stroke-linecap="round" stroke-linejoin="round" stroke-miterlimit="10" cx="284.5" cy="73.787" r="8.859"/>
	
		<circle fill="none" stroke="#221F1F" stroke-width="2" stroke-linecap="round" stroke-linejoin="round" stroke-miterlimit="10" cx="303.105" cy="73.787" r="8.859"/>
	
		<line fill="none" stroke="#221F1F" stroke-width="2" stroke-linecap="round" stroke-linejoin="round" stroke-miterlimit="10" x1="276.705" y1="69.18" x2="268.376" y2="69.18"/>
	
		<line fill="none" stroke="#221F1F" stroke-width="2" stroke-linecap="round" stroke-linejoin="round" stroke-miterlimit="10" x1="318.875" y1="69.18" x2="310.547" y2="69.18"/>
	<path fill="#9CD2DE" stroke="#221F1F" stroke-width="2" stroke-miterlimit="10" d="M313.701,107.395h-9.453
		c-0.158,5.244-4.448,9.449-9.73,9.449s-9.572-4.205-9.73-9.449h-9.438h-2.175h-4.871v32.619v75.275h52.431v-75.275v-32.619H313.701
		z"/>
	<g>
		
			<rect x="300.846" y="106.655" fill="#FFFFFF" stroke="#221F1F" stroke-width="2" stroke-miterlimit="10" width="26.578" height="135.018"/>
		
			<rect x="261.776" y="106.655" fill="#FFFFFF" stroke="#221F1F" stroke-width="2" stroke-miterlimit="10" width="26.578" height="135.018"/>
	</g>
	<g>
		<path fill="#FAB294" stroke="#221F1F" stroke-width="2" stroke-linecap="round" stroke-miterlimit="10" d="M303.548,139.967
			l-1.063-3.012h-30.388v34.552h0.033c0.178,2.935,2.589,5.265,5.567,5.265h34.729c-0.402,0-0.793-0.046-1.171-0.126h1.171v-34.906
			L303.548,139.967z"/>
		<path fill="#FFFFFF" stroke="#221F1F" stroke-width="2" stroke-miterlimit="10" d="M306.826,136.088
			c0-3.094,2.508-5.601,5.602-5.601h-34.729c-3.093,0-5.601,2.507-5.601,5.601s2.508,5.601,5.601,5.601h34.729
			C309.334,141.688,306.826,139.182,306.826,136.088z"/>
	</g>
	<g>
		<g>
			<path fill="#FFFFFF" stroke="#221F1F" stroke-width="2" stroke-miterlimit="10" d="M219.966,163.587
				c-3.663-0.002-6.63-2.946-6.626-6.609l0,0c0.002-3.661,2.973-6.657,6.637-6.655h61.747c3.664,0.001,6.632,2.991,6.628,6.655l0,0
				c0,3.664-2.973,6.613-6.638,6.609H219.966z"/>
		</g>
		<path fill="#F3CDCB" stroke="#221F1F" stroke-width="2" stroke-miterlimit="10" d="M288.352,156.978
			c0.004-3.664-2.964-6.654-6.628-6.655h-4.271v13.264h4.261C285.379,163.591,288.352,160.642,288.352,156.978z"/>
	</g>
	
		<path fill="#FFFFFF" stroke="#221F1F" stroke-width="2" stroke-linecap="round" stroke-linejoin="round" stroke-miterlimit="10" d="
		M289.418,86.743c0.984,2.07,2.651,3.432,4.543,3.432c1.839,0,3.467-1.459,4.46-3.432H289.418z"/>
	<g>
		
			<rect x="357.835" y="82.093" transform="matrix(0.7071 -0.7072 0.7072 0.7071 38.828 282.3676)" fill="#9CD2DE" stroke="#221F1F" stroke-width="2" stroke-miterlimit="10" width="4.784" height="24.452"/>
		<path fill="#7B8287" stroke="#221F1F" stroke-width="2" stroke-miterlimit="10" d="M322.389,56.481
			c-8.096,8.096-8.096,21.222,0,29.317c8.096,8.097,21.223,8.097,29.318,0c8.096-8.096,8.096-21.222,0-29.317
			S330.484,48.386,322.389,56.481z M347.761,81.853c-5.917,5.917-15.509,5.917-21.425,0c-5.916-5.916-5.916-15.509,0-21.424
			c5.916-5.917,15.508-5.917,21.425,0C353.677,66.344,353.677,75.937,347.761,81.853z"/>
	</g>
	<g>
		<path fill="#FFFFFF" stroke="#221F1F" stroke-width="2" stroke-miterlimit="10" d="M366.04,156.081
			c-0.001,3.663-2.945,6.63-6.608,6.626l0,0c-3.661-0.001-6.657-2.973-6.655-6.637V94.322c0.001-3.664,2.991-6.631,6.655-6.627l0,0
			c3.663,0,6.612,2.973,6.608,6.638V156.081z"/>
	</g>
	<path fill="#F3CDCB" stroke="#221F1F" stroke-width="2" stroke-miterlimit="10" d="M359.432,87.695
		c-3.664-0.004-6.654,2.963-6.655,6.627v4.271h13.264v-4.261C366.044,90.668,363.095,87.695,359.432,87.695z"/>
	<line fill="none" stroke="#221F1F" stroke-width="2" stroke-miterlimit="10" x1="282.906" y1="169.38" x2="301.776" y2="169.38"/>
	<path fill="none" stroke="#221F1F" stroke-width="2" stroke-miterlimit="10" d="M336.594,59.967
		c6.164,0,11.162,4.997,11.162,11.163c0,3.587-1.692,6.78-4.322,8.822"/>
</g>
<g>
	<path fill="none" stroke="#221F1F" stroke-width="2.25" stroke-miterlimit="10" d="M140.851,34.804v4.537
		c0,4.671,3.787,8.458,8.46,8.458"/>
	<g>
		<g>
			<path fill="#FFFFFF" stroke="#221F1F" stroke-width="2.25" stroke-linecap="round" stroke-miterlimit="10" d="M158.024,66.425
				L158.024,66.425c-2.734,0-4.973-2.237-4.973-4.972v-14.4c0-2.733,2.238-4.972,4.973-4.972l0,0c2.733,0,4.972,2.238,4.972,4.972
				v14.4C162.996,64.188,160.758,66.425,158.024,66.425z"/>
			<path fill="#F27280" stroke="#221F1F" stroke-width="2.25" stroke-linecap="round" stroke-miterlimit="10" d="M213.646,4.436
				c8.521-3.538,18.572-3.016,26.967,2.283c8.724,5.507,13.556,14.848,13.691,24.448l0.001,63.766c0,0-25.599,0.123-32.761-25.468"
				/>
			
				<line fill="none" stroke="#221F1F" stroke-width="2.25" stroke-linecap="round" stroke-linejoin="round" stroke-miterlimit="10" x1="245.766" y1="59.611" x2="245.766" y2="54.646"/>
			
				<line fill="none" stroke="#221F1F" stroke-width="2.25" stroke-linecap="round" stroke-linejoin="round" stroke-miterlimit="10" x1="245.766" y1="82.398" x2="245.766" y2="65.164"/>
			<path fill="#66BF6D" stroke="#221F1F" stroke-width="2.25" stroke-miterlimit="10" d="M225.331,21.157
				c1.803,0.17,3.634-0.652,4.668-2.288c1.462-2.317,0.77-5.381-1.549-6.845L212.4,1.892c-2.318-1.462-5.38-0.771-6.846,1.545
				c-0.764,1.212-0.939,2.63-0.602,3.915C213.3,9.381,220.479,14.378,225.331,21.157z"/>
			<g>
				<path fill="#F3CDCB" stroke="#221F1F" stroke-width="2.25" stroke-miterlimit="10" d="M267.23,168.891
					c1.765,3.916,0.021,8.52-3.894,10.284l0,0c-3.916,1.764-8.521,0.021-10.284-3.896l-27.826-68.286
					c-1.764-3.917-0.02-8.521,3.896-10.284l0,0c3.915-1.764,8.521-0.02,10.284,3.897L267.23,168.891z"/>
			</g>
			<path fill="#FAB294" stroke="#221F1F" stroke-width="2.25" stroke-miterlimit="10" d="M233.884,128.239l-8.657-21.246
				c-1.764-3.917-0.02-8.521,3.896-10.283c3.915-1.766,8.521-0.021,10.284,3.896l8.705,21.363L233.884,128.239z"/>
			<path fill="#F1F2F2" stroke="#221F1F" stroke-width="2.25" stroke-miterlimit="10" d="M143.055,98.897H125.38
				c-1.881,0-3.422-1.54-3.422-3.421V63.138c0-1.883,1.541-3.422,3.422-3.422h17.675c1.882,0,3.423,1.54,3.423,3.422v32.338
				C146.478,97.357,144.937,98.897,143.055,98.897z"/>
			<g>
				<path fill="#F3CDCB" stroke="#221F1F" stroke-width="2.25" stroke-miterlimit="10" d="M120.724,164.424
					c-2.201,3.688-0.997,8.461,2.69,10.663l0,0c3.688,2.201,8.462,0.997,10.662-2.691l35.472-64.646
					c2.201-3.688,0.996-8.461-2.69-10.662l0,0c-3.688-2.201-8.462-0.997-10.663,2.692L120.724,164.424z"/>
			</g>
			<g>
				<path fill="#F3CDCB" stroke="#221F1F" stroke-width="2.25" stroke-miterlimit="10" d="M119.468,168.264
					c0.001,4.295,3.454,7.772,7.749,7.768l0,0c4.293,0,7.805-3.485,7.803-7.78V90.924c-0.002-4.295-3.508-7.775-7.803-7.771l0,0
					c-4.294,0.002-7.752,3.487-7.749,7.783V168.264z"/>
			</g>
			<circle fill="#F1F2F2" stroke="#221F1F" stroke-width="2.25" stroke-miterlimit="10" cx="134.218" cy="71.688" r="5.547"/>
			<path fill="#FAB294" stroke="#221F1F" stroke-width="2.25" stroke-miterlimit="10" d="M158.512,127.864l11.036-20.114
				c2.201-3.688,0.996-8.461-2.69-10.662c-3.688-2.201-8.462-0.997-10.663,2.692l-11.098,20.224L158.512,127.864z"/>
			<path fill="#F3CDCB" stroke="#221F1F" stroke-width="2.25" stroke-linecap="round" stroke-miterlimit="10" d="M204.375,78.517
				H191.35v17.498h-22.285c-0.006,0.271-0.021,0.541-0.021,0.813c0,15.704,12.732,28.437,28.438,28.437
				c15.704,0,28.437-12.732,28.437-28.437c0-0.271-0.015-0.542-0.021-0.813h-21.521V78.517z"/>
			<polygon fill="#FAB294" stroke="#221F1F" stroke-width="2.25" stroke-miterlimit="10" points="225.332,233.272 228.288,157.537 
				166.672,157.537 169.629,233.272 			"/>
			<polygon fill="#6E5D7D" stroke="#221F1F" stroke-width="2.25" stroke-miterlimit="10" points="225.332,233.272 237.618,297.006 
				157.342,297.006 169.629,233.272 			"/>
			
				<line fill="none" stroke="#221F1F" stroke-width="2.25" stroke-linecap="round" stroke-linejoin="round" stroke-miterlimit="10" x1="174.686" y1="240.788" x2="220.274" y2="240.788"/>
			<g>
				<path fill="#FAB294" stroke="#221F1F" stroke-width="2.25" stroke-linecap="round" stroke-miterlimit="10" d="M215.101,160.849
					h6.562c5.435,0,9.879-4.444,9.879-9.878v-54.95H216.16c0,10.528-8.534,19.062-19.062,19.062s-19.062-8.534-19.062-19.062
					h-14.618v54.95c0,5.434,4.445,9.878,9.879,9.878h5.627"/>
			</g>
			
				<line fill="none" stroke="#221F1F" stroke-width="2.25" stroke-linecap="round" stroke-linejoin="round" stroke-miterlimit="10" x1="188.257" y1="96.021" x2="195.241" y2="96.021"/>
			<path fill="#F3CDCB" stroke="#221F1F" stroke-width="2.25" stroke-miterlimit="10" d="M260.461,179.862h-71.994
				c-4.103,0-7.459-3.355-7.459-7.458l0,0c0-4.101,3.356-7.458,7.459-7.458h71.994c4.103,0,7.459,3.357,7.459,7.458l0,0
				C267.92,176.507,264.563,179.862,260.461,179.862z"/>
			
				<circle fill="#F3CDCB" stroke="#221F1F" stroke-width="2.25" stroke-linecap="round" stroke-miterlimit="10" cx="197.217" cy="51.716" r="34.437"/>
			
				<path fill="none" stroke="#221F1F" stroke-width="2.25" stroke-linecap="round" stroke-linejoin="round" stroke-miterlimit="10" d="
				M181.474,58.453c1.078,2.105,3.269,3.544,5.795,3.544c2.248,0,4.226-1.138,5.396-2.87"/>
			
				<path fill="none" stroke="#221F1F" stroke-width="2.25" stroke-linecap="round" stroke-linejoin="round" stroke-miterlimit="10" d="
				M202.297,58.453c1.078,2.105,3.268,3.544,5.796,3.544c2.245,0,4.226-1.138,5.396-2.87"/>
			
				<path fill="#FFFFFF" stroke="#221F1F" stroke-width="2.25" stroke-linecap="round" stroke-linejoin="round" stroke-miterlimit="10" d="
				M191.87,71.765c1.169,2.46,3.149,4.077,5.396,4.077c2.185,0,4.118-1.732,5.298-4.077H191.87z"/>
			<path fill="#F27280" stroke="#221F1F" stroke-width="2.25" stroke-linecap="round" stroke-miterlimit="10" d="M197.217,6.259
				c-22.313,0-40.401,18.088-40.401,40.401c0,2.074,0.157,4.112,0.458,6.102c3.892,1.018,7.976,1.563,12.186,1.563
				c18.64,0,34.789-10.617,42.763-26.127c5.462,10.056,14.419,17.925,25.23,22.026c0.104-1.175,0.166-2.361,0.166-3.564
				C237.618,24.347,219.529,6.259,197.217,6.259z"/>
			<path fill="none" stroke="#221F1F" stroke-width="2.25" stroke-linecap="round" stroke-miterlimit="10" d="M204.868,27.95
				c-7.012,11.961-20,19.994-34.865,19.994"/>
			<path fill="#FFFFFF" stroke="#221F1F" stroke-width="2.25" stroke-linecap="round" stroke-miterlimit="10" d="M235.054,66.425
				L235.054,66.425c-2.734,0-4.972-2.237-4.972-4.972v-14.4c0-2.733,2.237-4.972,4.972-4.972l0,0c2.734,0,4.973,2.238,4.973,4.972
				v14.4C240.026,64.188,237.788,66.425,235.054,66.425z"/>
			<g>
				
					<line fill="none" stroke="#221F1F" stroke-width="2.25" stroke-miterlimit="10" x1="201.66" y1="176.696" x2="201.66" y2="179.244"/>
				
					<line fill="none" stroke="#221F1F" stroke-width="2.25" stroke-miterlimit="10" x1="201.66" y1="165.565" x2="201.66" y2="168.11"/>
				<path fill="none" stroke="#221F1F" stroke-width="2.25" stroke-miterlimit="10" d="M197.37,172.404
					c-0.001-2.37,1.919-4.291,4.29-4.291c2.369,0,4.291,1.919,4.292,4.29c0.001,2.373-1.922,4.292-4.292,4.291
					C199.29,176.696,197.369,174.774,197.37,172.404z"/>
			</g>
		</g>
		<path fill="#F27280" stroke="#221F1F" stroke-width="2.25" stroke-linecap="round" stroke-miterlimit="10" d="M153.052,250.335
			L153.052,250.335c-5.305,0-9.646-4.339-9.646-9.644v-35.64c0-5.306,4.341-9.646,9.646-9.646l0,0c5.306,0,9.646,4.34,9.646,9.646
			v35.64C162.697,245.996,158.357,250.335,153.052,250.335z"/>
		<g>
			<path fill="#F27280" stroke="#221F1F" stroke-width="2.25" stroke-linecap="round" stroke-miterlimit="10" d="M155.675,209.609
				c-0.522,0.027-1.058-0.064-1.566-0.29c-1.743-0.771-2.531-2.806-1.761-4.548l53.275-110.504c0.771-1.743,2.807-2.53,4.548-1.76
				c1.742,0.77,2.53,2.805,1.76,4.546l-53.275,110.506C158.11,208.79,156.933,209.545,155.675,209.609z"/>
		</g>
	</g>
	<path fill="none" stroke="#221F1F" stroke-width="2.25" stroke-miterlimit="10" d="M122.521,55.955V29.426
		c0-4.673,3.787-8.46,8.459-8.46h1.411c4.671,0,8.459,3.787,8.459,8.46v11.059"/>
</g>
<g>
	<g>
		<circle fill="#F3CDCB" stroke="#221F1F" stroke-width="2" stroke-miterlimit="10" cx="445.995" cy="76.813" r="6.117"/>
	</g>
	<polygon fill="#F3CDCB" stroke="#221F1F" stroke-width="2" stroke-miterlimit="10" points="399.514,133.067 437.355,133.067 
		437.355,112.802 424.51,112.802 424.51,100.688 412.356,100.688 412.356,112.802 399.514,112.802 	"/>
	<g>
		<path fill="#F3CDCB" stroke="#221F1F" stroke-width="2" stroke-miterlimit="10" d="M481.6,156.828
			c2.266,2.743,1.878,6.801-0.864,9.065l0,0c-2.743,2.267-6.803,1.879-9.066-0.863l-32.221-41.676
			c-2.264-2.744-1.878-6.803,0.865-9.066l0,0c2.742-2.265,6.802-1.879,9.067,0.866L481.6,156.828z"/>
	</g>
	<path fill="#9CD2DE" stroke="#221F1F" stroke-width="2" stroke-miterlimit="10" d="M463.013,132.942l-13.632-17.788
		c-2.266-2.745-6.325-3.13-9.067-0.866c-2.743,2.264-3.129,6.322-0.865,9.066l13.917,18.158L463.013,132.942z"/>
	
		<rect x="392.899" y="217.565" fill="#FAB294" stroke="#221F1F" stroke-width="2" stroke-miterlimit="10" width="50.897" height="79.348"/>
	
		<line fill="none" stroke="#221F1F" stroke-width="2" stroke-linecap="round" stroke-linejoin="round" stroke-miterlimit="10" x1="427.682" y1="250.382" x2="409.016" y2="250.382"/>
	
		<line fill="none" stroke="#221F1F" stroke-width="2" stroke-linecap="round" stroke-linejoin="round" stroke-miterlimit="10" x1="401.035" y1="223.046" x2="435.661" y2="223.046"/>
	
		<line fill="none" stroke="#221F1F" stroke-width="2" stroke-linecap="round" stroke-linejoin="round" stroke-miterlimit="10" x1="418.435" y1="250.382" x2="418.435" y2="296.914"/>
	<g>
		<circle fill="#F3CDCB" stroke="#221F1F" stroke-width="2" stroke-miterlimit="10" cx="391.233" cy="76.813" r="6.117"/>
	</g>
	<circle fill="#F3CDCB" stroke="#221F1F" stroke-width="2" stroke-miterlimit="10" cx="418.083" cy="74.887" r="27.869"/>
	<g>
		
			<line fill="none" stroke="#221F1F" stroke-width="2" stroke-linecap="round" stroke-linejoin="round" stroke-miterlimit="10" x1="407.716" y1="79.983" x2="410.605" y2="79.983"/>
		
			<line fill="none" stroke="#221F1F" stroke-width="2" stroke-linecap="round" stroke-linejoin="round" stroke-miterlimit="10" x1="425.56" y1="79.983" x2="428.45" y2="79.983"/>
	</g>
	<polygon fill="#08AEC5" stroke="#221F1F" stroke-width="2" stroke-miterlimit="10" points="443.797,217.565 443.797,112.801 
		436.968,112.801 418.349,130.938 399.728,112.801 397.616,112.801 392.886,112.801 392.886,217.565 	"/>
	<path fill="#F27280" stroke="#221F1F" stroke-width="2" stroke-linecap="round" stroke-miterlimit="10" d="M445.469,64.33v-2.361
		c0-15.063-12.323-27.387-27.386-27.387l0,0c-15.063,0-27.387,12.324-27.387,27.387v5.458h41.023h13.749h23.934V64.33H445.469z"/>
	<path fill="#F3CDCB" stroke="#221F1F" stroke-width="2" stroke-miterlimit="10" d="M425.56,62.88v-5.015
		c0-4.113-3.364-7.478-7.477-7.478c-4.113,0-7.477,3.365-7.477,7.478v5.015H425.56z"/>
	
		<path fill="#FFFFFF" stroke="#221F1F" stroke-width="2" stroke-linecap="round" stroke-linejoin="round" stroke-miterlimit="10" d="
		M413.712,91.109c0.956,2.011,2.575,3.333,4.411,3.333c1.785,0,3.366-1.417,4.33-3.333H413.712z"/>
	<path fill="#D1D3D4" stroke="#221F1F" stroke-width="2" stroke-miterlimit="10" d="M425.243,165.267h-11.215
		c-0.969,0-1.762-0.793-1.762-1.762v-25.837c0-0.969,0.793-1.762,1.762-1.762h11.215c0.969,0,1.762,0.793,1.762,1.762v25.837
		C427.005,164.474,426.212,165.267,425.243,165.267z"/>
	<path fill="#F3CDCB" stroke="#221F1F" stroke-width="2" stroke-miterlimit="10" d="M476.835,167.37h-60.356
		c-3.432,0-6.24-2.808-6.24-6.24v-0.403c0-3.433,2.809-6.24,6.24-6.24h60.356c3.432,0,6.24,2.808,6.24,6.24v0.403
		C483.075,164.562,480.267,167.37,476.835,167.37z"/>
	<circle fill="#D1D3D4" stroke="#221F1F" stroke-width="2" stroke-miterlimit="10" cx="419.636" cy="141.472" r="1.812"/>
	
		<line fill="none" stroke="#221F1F" stroke-width="2" stroke-linecap="round" stroke-linejoin="round" stroke-miterlimit="10" x1="418.435" y1="178.056" x2="418.435" y2="203.923"/>
	<path fill="#F3CDCB" stroke="#221F1F" stroke-width="2" stroke-miterlimit="10" d="M386.646,119.73h-0.402
		c-3.433,0-6.24,2.808-6.24,6.24v104.974c0,3.432,2.808,6.24,6.24,6.24h0.402c3.433,0,6.24-2.809,6.24-6.24V125.971
		C392.886,122.539,390.078,119.73,386.646,119.73z"/>
	<path fill="#9CD2DE" stroke="#221F1F" stroke-width="2" stroke-miterlimit="10" d="M392.886,112.825h-2.417
		c-5.756,0-10.466,4.709-10.466,10.466v1.73v10.395v10.466h10.466h2.417V112.825z"/>
	<g>
		
			<line fill="none" stroke="#221F1F" stroke-width="2" stroke-miterlimit="10" x1="389.952" y1="219.609" x2="392.035" y2="219.61"/>
		
			<line fill="none" stroke="#221F1F" stroke-width="2" stroke-miterlimit="10" x1="380.854" y1="219.609" x2="382.934" y2="219.61"/>
		<circle fill="none" stroke="#221F1F" stroke-width="2" stroke-miterlimit="10" cx="386.444" cy="219.608" r="3.508"/>
	</g>
</g>
<g>
	<g>
		
			<path fill="#FFFFFF" stroke="#221F1F" stroke-width="2" stroke-linecap="round" stroke-linejoin="round" stroke-miterlimit="10" d="
			M698.452,165.147c1.867,3.126,0.846,7.174-2.28,9.04l0,0c-3.126,1.866-7.174,0.845-9.04-2.282L657.059,117.1
			c-1.865-3.128-0.844-7.174,2.282-9.04l0,0c3.125-1.866,7.174-0.846,9.04,2.283L698.452,165.147z"/>
	</g>
	<g>
		
			<path fill="#FFFFFF" stroke="#221F1F" stroke-width="2" stroke-linecap="round" stroke-linejoin="round" stroke-miterlimit="10" d="
			M579.259,168.917c-1.496,3.32-0.017,7.223,3.303,8.718l0,0c3.319,1.496,7.223,0.017,8.718-3.303l23.592-57.893
			c1.494-3.321,0.016-7.223-3.304-8.719l0,0c-3.318-1.495-7.223-0.017-8.719,3.305L579.259,168.917z"/>
	</g>
	
		<rect x="616.196" y="107.138" fill="#9CD2DE" stroke="#221F1F" stroke-width="2" stroke-linecap="round" stroke-linejoin="round" stroke-miterlimit="10" width="39.128" height="43.584"/>
	
		<rect x="609.621" y="268.036" fill="#6E5D7D" stroke="#221F1F" stroke-width="2" stroke-linecap="round" stroke-linejoin="round" stroke-miterlimit="10" width="52.786" height="28.97"/>
	
		<polygon fill="#FFFFFF" stroke="#221F1F" stroke-width="2" stroke-linecap="round" stroke-linejoin="round" stroke-miterlimit="10" points="
		609.621,268.293 609.621,107.138 616.703,107.138 636.013,147.378 655.324,107.138 657.514,107.138 662.42,107.138 662.42,268.293 
			"/>
	
		<line fill="none" stroke="#221F1F" stroke-width="2" stroke-linecap="round" stroke-linejoin="round" stroke-miterlimit="10" x1="635.924" y1="147.378" x2="635.924" y2="259.583"/>
	
		<path fill="#F3CDCB" stroke="#221F1F" stroke-width="2" stroke-linecap="round" stroke-linejoin="round" stroke-miterlimit="10" d="
		M631.014,107.138V96l10.013-0.067v11.205h8.032c-1.263,6.188-6.737,10.844-13.298,10.844c-6.562,0-12.035-4.656-13.299-10.844
		H631.014z"/>
	
		<path fill="#D1937B" stroke="#221F1F" stroke-width="2" stroke-linecap="round" stroke-linejoin="round" stroke-miterlimit="10" d="
		M632.964,21.378h6.113c4.354,0,7.917,3.563,7.917,7.917v1.993c0,4.354-3.563,7.917-7.917,7.917h-6.113
		c-4.354,0-7.917-3.563-7.917-7.917v-1.993C625.047,24.941,628.609,21.378,632.964,21.378z"/>
	
		<path fill="#9CD2DE" stroke="#221F1F" stroke-width="2" stroke-linecap="round" stroke-linejoin="round" stroke-miterlimit="10" d="
		M631.195,44.078h9.65c2.716,0,4.938-2.222,4.938-4.938v-1.243c0-2.715-2.222-4.937-4.938-4.937h-9.65
		c-2.716,0-4.938,2.222-4.938,4.937v1.243C626.257,41.856,628.479,44.078,631.195,44.078z"/>
	<g>
		
			<circle fill="#F3CDCB" stroke="#221F1F" stroke-width="2" stroke-linecap="round" stroke-linejoin="round" stroke-miterlimit="10" cx="636.02" cy="67.278" r="29.121"/>
		
			<path fill="#D1937B" stroke="#221F1F" stroke-width="2" stroke-linecap="round" stroke-linejoin="round" stroke-miterlimit="10" d="
			M636.021,38.157c13.408,0,24.691,9.064,28.076,21.396c-4.429,2.72-9.639,4.29-15.217,4.29c-10.566,0-19.818-5.627-24.922-14.049
			c-3.397,6.972-9.497,12.386-16.937,14.878C608.342,49.812,620.816,38.157,636.021,38.157z"/>
	</g>
	<path fill="none" stroke="#221F1F" stroke-width="2" stroke-linecap="round" stroke-linejoin="round" stroke-miterlimit="10" d="
		M654.899,58.032c-2.127,0.787-4.426,1.217-6.827,1.217c-7.144,0-13.399-3.805-16.851-9.5"/>
	<path fill="none" stroke="#221F1F" stroke-width="2" stroke-linecap="round" stroke-linejoin="round" stroke-miterlimit="10" d="
		M639.4,87.331c-0.67,0.945-1.931,1.584-3.381,1.584c-1.449,0-2.71-0.639-3.38-1.584"/>
	
		<line fill="none" stroke="#221F1F" stroke-width="2" stroke-linecap="round" stroke-linejoin="round" stroke-miterlimit="10" x1="647.567" y1="75.773" x2="646.217" y2="75.773"/>
	
		<line fill="none" stroke="#221F1F" stroke-width="2" stroke-linecap="round" stroke-linejoin="round" stroke-miterlimit="10" x1="625.459" y1="75.773" x2="624.109" y2="75.773"/>
	
		<circle fill="none" stroke="#221F1F" stroke-width="2" stroke-linecap="round" stroke-linejoin="round" stroke-miterlimit="10" cx="646.892" cy="75.773" r="8.588"/>
	
		<circle fill="none" stroke="#221F1F" stroke-width="2" stroke-linecap="round" stroke-linejoin="round" stroke-miterlimit="10" cx="624.784" cy="75.773" r="8.587"/>
	<path fill="none" stroke="#221F1F" stroke-width="2" stroke-linecap="round" stroke-linejoin="round" stroke-miterlimit="10" d="
		M639.378,71.63c-1.031-0.439-2.166-0.682-3.357-0.682c-1.302,0-2.535,0.29-3.641,0.808"/>
	
		<line fill="none" stroke="#221F1F" stroke-width="2" stroke-linecap="round" stroke-linejoin="round" stroke-miterlimit="10" x1="617.426" y1="71.353" x2="607.185" y2="71.353"/>
	
		<line fill="none" stroke="#221F1F" stroke-width="2" stroke-linecap="round" stroke-linejoin="round" stroke-miterlimit="10" x1="664.857" y1="71.353" x2="654.253" y2="71.353"/>
	
		<line fill="none" stroke="#221F1F" stroke-width="2" stroke-linecap="round" stroke-linejoin="round" stroke-miterlimit="10" x1="624.033" y1="213.762" x2="609.72" y2="213.762"/>
	
		<polyline fill="none" stroke="#221F1F" stroke-width="2" stroke-linecap="round" stroke-linejoin="round" stroke-miterlimit="10" points="
		609.621,233.443 624.181,233.443 624.181,207.739 609.72,207.739 	"/>
	
		<rect x="615.747" y="151.752" fill="#C16C86" stroke="#221F1F" stroke-width="2" stroke-linecap="round" stroke-linejoin="round" stroke-miterlimit="10" width="28.855" height="37.505"/>
	
		<path fill="#F3CDCB" stroke="#221F1F" stroke-width="2" stroke-linecap="round" stroke-linejoin="round" stroke-miterlimit="10" d="
		M584.999,178.219h61.037c3.477,0,6.322-2.846,6.322-6.323l0,0c0-3.478-2.846-6.323-6.322-6.323h-61.037
		c-3.479,0-6.323,2.846-6.323,6.323l0,0C578.676,175.373,581.521,178.219,584.999,178.219z"/>
	
		<path fill="#FFFFFF" stroke="#221F1F" stroke-width="2" stroke-linecap="round" stroke-linejoin="round" stroke-miterlimit="10" d="
		M584.999,165.572h54.764v12.646h-54.764c-3.479,0-6.323-2.846-6.323-6.323S581.521,165.572,584.999,165.572z"/>
	
		<line fill="none" stroke="#221F1F" stroke-width="2" stroke-linecap="round" stroke-linejoin="round" stroke-miterlimit="10" x1="638.397" y1="158.042" x2="621.307" y2="158.042"/>
	<g>
		
			<path fill="#FFFFFF" stroke="#221F1F" stroke-width="2" stroke-linecap="round" stroke-linejoin="round" stroke-miterlimit="10" d="
			M699.517,168.402c0,3.641-2.928,6.59-6.568,6.586l0,0c-3.64-0.001-6.617-2.955-6.615-6.596v-65.559
			c0.001-3.642,2.973-6.591,6.615-6.588l0,0c3.64,0.002,6.571,2.956,6.568,6.599V168.402z"/>
	</g>
	
		<path fill="#F3CDCB" stroke="#221F1F" stroke-width="2" stroke-linecap="round" stroke-linejoin="round" stroke-miterlimit="10" d="
		M699.517,110.024v-7.181c0.003-3.643-2.929-6.597-6.568-6.599c-3.643-0.003-6.614,2.947-6.615,6.588v7.191H699.517z"/>
	
		<path fill="#E6E7E8" stroke="#221F1F" stroke-width="2" stroke-linecap="round" stroke-linejoin="round" stroke-miterlimit="10" d="
		M691.253,91.042v4.197c0,5.638,4.613,10.25,10.251,10.25s10.251-4.613,10.251-10.25v-4.197H691.253z"/>
	<path fill="none" stroke="#221F1F" stroke-width="2" stroke-linecap="round" stroke-linejoin="round" stroke-miterlimit="10" d="
		M697.278,85.735c0-2.63,4.283-2.63,4.283-5.261c0-2.633-4.283-2.633-4.283-5.265s4.283-2.632,4.283-5.265"/>
	<path fill="none" stroke="#221F1F" stroke-width="2" stroke-linecap="round" stroke-linejoin="round" stroke-miterlimit="10" d="
		M704.277,85.735c0-2.63,4.282-2.63,4.282-5.261c0-2.633-4.282-2.633-4.282-5.265s4.282-2.632,4.282-5.265"/>
	
		<line fill="none" stroke="#221F1F" stroke-width="2" stroke-linecap="round" stroke-linejoin="round" stroke-miterlimit="10" x1="647.674" y1="213.762" x2="661.987" y2="213.762"/>
	
		<polyline fill="none" stroke="#221F1F" stroke-width="2" stroke-linecap="round" stroke-linejoin="round" stroke-miterlimit="10" points="
		662.087,233.443 647.526,233.443 647.526,207.739 661.987,207.739 	"/>
</g>
<line fill="none" stroke="#221F1F" stroke-width="2" stroke-linecap="round" stroke-linejoin="round" stroke-miterlimit="10" x1="640.108" y1="275.158" x2="640.108" y2="297.006"/>
<g>
	<path fill="#706773" stroke="#221F1F" stroke-width="2.25" stroke-linecap="round" stroke-miterlimit="10" d="M512.913,126.254
		L512.913,126.254c-20.429,0-37.143-16.715-37.143-37.143v-38.25c0-20.429,16.714-37.143,37.143-37.143l0,0
		c20.429,0,37.143,16.714,37.143,37.143v38.25C550.056,109.539,533.342,126.254,512.913,126.254z"/>
	<path fill="#F3CDCB" stroke="#221F1F" stroke-width="2.25" stroke-miterlimit="10" d="M479.371,251.996L479.371,251.996
		c-4.009,0-7.288-3.279-7.288-7.288V108.431c0-4.008,3.279-7.288,7.288-7.288l0,0c4.008,0,7.288,3.28,7.288,7.288v136.278
		C486.659,248.717,483.379,251.996,479.371,251.996z"/>
	
		<line fill="none" stroke="#221F1F" stroke-width="2.25" stroke-miterlimit="10" x1="602.166" y1="127.974" x2="588.718" y2="97.657"/>
	<g>
		<path fill="#F3CDCB" stroke="#221F1F" stroke-width="2.25" stroke-miterlimit="10" d="M587.494,167.964
			c2.144,3.592,0.972,8.242-2.62,10.386l0,0c-3.592,2.144-8.242,0.971-10.386-2.621l-34.55-62.967
			c-2.145-3.592-0.971-8.241,2.62-10.385l0,0c3.592-2.144,8.242-0.971,10.386,2.623L587.494,167.964z"/>
	</g>
	<g>
		<path fill="#F3CDCB" stroke="#221F1F" stroke-width="2.25" stroke-miterlimit="10" d="M588.718,171.703
			c-0.001,4.184-3.365,7.571-7.548,7.566l0,0c-4.182,0-7.603-3.396-7.601-7.578V96.373c0.002-4.184,3.417-7.574,7.601-7.569l0,0
			c4.183,0.002,7.55,3.396,7.548,7.58V171.703z"/>
	</g>
	<path fill="#F3CDCB" stroke="#221F1F" stroke-width="2.25" stroke-linecap="round" stroke-miterlimit="10" d="M519.885,84.1
		h-12.687v17.043h-21.706c-0.006,0.264-0.021,0.527-0.021,0.792c0,15.296,12.401,27.698,27.699,27.698
		c15.296,0,27.698-12.402,27.698-27.698c0-0.265-0.015-0.528-0.021-0.792h-20.962V84.1z"/>
	<polygon fill="#F27280" stroke="#221F1F" stroke-width="2.25" stroke-miterlimit="10" points="540.298,234.836 543.177,161.067 
		483.161,161.067 486.042,234.836 	"/>
	<polygon fill="#9CD2DE" stroke="#221F1F" stroke-width="2.25" stroke-miterlimit="10" points="540.298,234.836 552.265,296.914 
		474.074,296.914 486.042,234.836 	"/>
	
		<line fill="none" stroke="#221F1F" stroke-width="2.25" stroke-linecap="round" stroke-linejoin="round" stroke-miterlimit="10" x1="490.967" y1="242.156" x2="535.371" y2="242.156"/>
	<g>
		<path fill="#F27280" stroke="#221F1F" stroke-width="2.25" stroke-linecap="round" stroke-miterlimit="10" d="M530.332,164.293
			h6.392c5.293,0,9.622-4.329,9.622-9.621v-53.522h-14.981c0,10.254-8.313,18.566-18.566,18.566s-18.566-8.312-18.566-18.566
			h-14.238v53.522c0,5.292,4.33,9.621,9.622,9.621h5.48"/>
	</g>
	
		<path fill="#FFFFFF" stroke="#221F1F" stroke-width="2.25" stroke-linecap="round" stroke-linejoin="round" stroke-miterlimit="10" d="
		M507.705,77.523c1.139,2.396,3.067,3.971,5.255,3.971c2.128,0,4.012-1.688,5.16-3.971H507.705z"/>
	<path fill="#F3CDCB" stroke="#221F1F" stroke-width="2.25" stroke-linecap="round" stroke-miterlimit="10" d="M545.827,51.538
		h-20.439l-7.267-16.057v16.057h-38.123c-0.407,2.09-0.627,4.248-0.627,6.457c0,18.523,15.017,33.542,33.542,33.542
		c18.524,0,33.542-15.019,33.542-33.542C546.455,55.786,546.235,53.628,545.827,51.538z"/>
	
		<path fill="#FFFFFF" stroke="#221F1F" stroke-width="2.25" stroke-linecap="round" stroke-linejoin="round" stroke-miterlimit="10" d="
		M507.962,78.534c1.139,2.396,3.067,3.971,5.255,3.971c2.128,0,4.011-1.688,5.16-3.971H507.962z"/>
	<g>
		
			<line fill="none" stroke="#221F1F" stroke-width="2.25" stroke-linecap="round" stroke-linejoin="round" stroke-miterlimit="10" x1="523.564" y1="66.489" x2="520.666" y2="66.489"/>
		
			<line fill="none" stroke="#221F1F" stroke-width="2.25" stroke-linecap="round" stroke-linejoin="round" stroke-miterlimit="10" x1="505.665" y1="66.489" x2="502.766" y2="66.489"/>
	</g>
	
		<line fill="none" stroke="#221F1F" stroke-width="2.25" stroke-linecap="round" stroke-linejoin="round" stroke-miterlimit="10" x1="507.198" y1="101.143" x2="511.582" y2="101.143"/>
	
		<line fill="none" stroke="#221F1F" stroke-width="2.25" stroke-linecap="round" stroke-miterlimit="10" x1="512.913" y1="175.855" x2="512.913" y2="208.194"/>
	
		<line fill="none" stroke="#221F1F" stroke-width="2.25" stroke-linecap="round" stroke-miterlimit="10" x1="512.913" y1="212.586" x2="512.913" y2="220.641"/>
	
		<line fill="none" stroke="#221F1F" stroke-width="2.25" stroke-miterlimit="10" x1="588.718" y1="97.657" x2="593.117" y2="118.487"/>
	<g>
		<polygon fill="#98D098" stroke="#221F1F" stroke-width="2.25" stroke-miterlimit="10" points="575.781,128.46 589.72,131.405 
			580.368,197.952 557.419,193.104 		"/>
		
			<line fill="none" stroke="#221F1F" stroke-width="2.25" stroke-linecap="round" stroke-miterlimit="10" x1="578.194" y1="151.503" x2="571.81" y2="181.725"/>
		
			<line fill="none" stroke="#221F1F" stroke-width="2.25" stroke-linecap="round" stroke-miterlimit="10" x1="577.588" y1="193.359" x2="571.81" y2="181.725"/>
		
			<line fill="none" stroke="#221F1F" stroke-width="2.25" stroke-linecap="round" stroke-miterlimit="10" x1="568.306" y1="184.704" x2="561.978" y2="190.087"/>
	</g>
	<g>
		<polygon fill="#FAB294" stroke="#221F1F" stroke-width="2.25" stroke-miterlimit="10" points="609.432,126.322 595.493,129.267 
			604.845,195.813 627.795,190.965 		"/>
		
			<line fill="none" stroke="#221F1F" stroke-width="2.25" stroke-linecap="round" stroke-miterlimit="10" x1="607.02" y1="149.365" x2="613.403" y2="179.586"/>
		
			<line fill="none" stroke="#221F1F" stroke-width="2.25" stroke-linecap="round" stroke-miterlimit="10" x1="607.626" y1="191.221" x2="613.403" y2="179.586"/>
		
			<line fill="none" stroke="#221F1F" stroke-width="2.25" stroke-linecap="round" stroke-miterlimit="10" x1="616.907" y1="182.565" x2="623.235" y2="187.948"/>
	</g>
	<g>
		<polygon fill="#08AEC5" stroke="#221F1F" stroke-width="2.25" stroke-miterlimit="10" points="602.165,118.487 584.068,118.487 
			578.219,203.648 608.015,203.648 		"/>
		
			<line fill="none" stroke="#221F1F" stroke-width="2.25" stroke-linecap="round" stroke-miterlimit="10" x1="593.117" y1="130.123" x2="593.117" y2="185.728"/>
		
			<line fill="none" stroke="#221F1F" stroke-width="2.25" stroke-linecap="round" stroke-miterlimit="10" x1="582.881" y1="198.671" x2="593.117" y2="185.728"/>
		
			<line fill="none" stroke="#221F1F" stroke-width="2.25" stroke-linecap="round" stroke-miterlimit="10" x1="596.688" y1="190.351" x2="603.141" y2="198.702"/>
	</g>
</g>
<g>
	<path fill="none" stroke="#221F1F" stroke-width="2.25" stroke-miterlimit="10" d="M473.589,226.03c2.32,0,2.32,2,4.642,2
		c2.322,0,2.322-2,4.645-2s2.322,2,4.645,2"/>
</g>
<g>
	<path fill="none" stroke="#221F1F" stroke-width="2.25" stroke-miterlimit="10" d="M473.589,220.025c2.32,0,2.32,2,4.642,2
		c2.322,0,2.322-2,4.645-2s2.322,2,4.645,2"/>
</g>
</svg>
