<?xml version="1.0" encoding="UTF-8"?>
<svg xmlns="http://www.w3.org/2000/svg" xmlns:xlink="http://www.w3.org/1999/xlink" version="1.2" >
<font id="ClarendonURW">
<font-face  font-family="ClarendonURW" units-per-em="2048" ascent="1610" descent="-438" font-style="normal" font-weight="400" font-stretch="normal" cap-height="1365" x-height="961" underline-position="-204" underline-thickness="152" />
<missing-glyph  horiz-adv-x="512" d="M51 0 L51 1365 L461 1365 L461 0 L51 0 Z M410 51 L410 1314 L102 1314 L102 51 L410 51 Z " />
<glyph glyph-name="space" unicode="&#x20;" horiz-adv-x="512" d="" />
<glyph glyph-name="exclam" unicode="&#x21;" horiz-adv-x="651" d="M396 267 Q459 267 503 223 Q547 179 547 116 Q547 54 503 9.5 Q459 -35 397 -35 Q333 -35 288.5 9.5 Q244 54 244 119 Q244 180 289 223.5 Q334 267 396 267 Z M332 389 Q317 613 275 974 Q249 1201 249 1247 Q249 1406 400 1406 Q551 1406 551 1247 Q551 1199 522 974 Q479 641 459 389 L332 389 Z " />
<glyph glyph-name="quotedbl" unicode="&#x22;" horiz-adv-x="739" d="M278 817 L113 817 L73 1365 L318 1365 L278 817 Z M627 817 L461 817 L422 1365 L667 1365 L627 817 Z " />
<glyph glyph-name="numbersign" unicode="&#x23;" horiz-adv-x="1271" d="M1169 591 L1140 392 L925 392 L864 0 L630 0 L696 392 L483 392 L420 0 L198 0 L261 392 L46 392 L76 591 L291 591 L324 801 L111 801 L140 1000 L353 1000 L411 1365 L635 1365 L575 1000 L791 1000 L849 1365 L1077 1365 L1018 1000 L1230 1000 L1200 801 L988 801 L956 591 L1169 591 Z M760 801 L548 801 L516 591 L728 591 L760 801 Z " />
<glyph glyph-name="dollar" unicode="&#x24;" horiz-adv-x="1271" d="M550 -213 L550 -1 Q432 9 360.5 29.5 Q289 50 227 92 Q102 177 102 314 Q102 402 156 446 Q199 481 257 481 Q320 481 361.5 444.5 Q403 408 403 354 Q403 293 367.5 262.5 Q332 232 261 233 Q340 167 401 149 Q449 136 550 129 L550 508 Q424 544 368 565 Q312 586 265 615 Q201 654 163.5 722.5 Q126 791 126 870 Q126 1030 259 1134 Q315 1178 376 1200 Q437 1222 550 1238 L550 1394 L687 1394 L687 1238 Q805 1226 867.5 1206.5 Q930 1187 983 1145 Q1099 1055 1099 945 Q1099 880 1057.5 837 Q1016 794 954 794 Q894 794 853 828.5 Q812 863 812 914 Q812 1017 944 1027 Q879 1077 834 1091.5 Q789 1106 687 1111 L687 745 Q839 712 910.5 686.5 Q982 661 1039 619 Q1160 533 1160 371 Q1160 191 1011 91 Q949 50 881 30.5 Q813 11 687 -2 L687 -213 L550 -213 Z M687 133 Q932 146 932 304 Q932 379 881.5 415.5 Q831 452 687 481 L687 133 Z M550 1109 Q458 1094 414 1061 Q353 1016 353 937 Q353 870 395.5 834.5 Q438 799 550 774 L550 1109 Z " />
<glyph glyph-name="percent" unicode="&#x25;" horiz-adv-x="1963" d="M450 1274 Q614 1274 723 1171 Q840 1061 840 882 Q840 702 723 592 Q615 489 451 489 Q285 489 177 592 Q61 702 61 887 Q61 1064 177 1171 Q289 1274 450 1274 Z M452 1145 Q370 1145 330 1080 Q290 1015 290 881 Q290 744 331 679 Q369 619 452 619 Q534 619 572 679 Q612 742 612 876 Q612 1021 572 1084 Q533 1145 452 1145 Z M1442 1274 L679 -35 L514 -35 L1278 1274 L1442 1274 Z M1506 749 Q1670 749 1779 646 Q1896 537 1896 357 Q1896 178 1779 67 Q1671 -35 1507 -35 Q1341 -35 1233 67 Q1117 178 1117 363 Q1117 539 1233 646 Q1345 749 1506 749 Z M1507 619 Q1345 619 1345 356 Q1345 219 1386 154 Q1424 94 1507 94 Q1589 94 1627 154 Q1667 217 1667 351 Q1667 495 1627 558 Q1588 619 1507 619 Z " />
<glyph glyph-name="ampersand" unicode="&#x26;" horiz-adv-x="1719" d="M1476 470 L1633 470 Q1630 329 1614.5 253.5 Q1599 178 1561 117 Q1516 47 1439 6 Q1350 -41 1243 -41 Q1168 -41 1100 -16.5 Q1032 8 926 74 Q830 23 766 -2 Q666 -40 543 -40 Q329 -40 199 83 Q70 206 70 381 Q70 554 202 678 Q265 737 422 818 Q390 897 378.5 945 Q367 993 367 1048 Q367 1209 470 1310 Q567 1405 722 1405 Q863 1405 944 1326 Q1016 1256 1016 1143 Q1016 1030 955.5 944 Q895 858 753 767 Q870 572 1013 386 Q1168 544 1168 649 Q1168 675 1140.5 685 Q1113 695 1044 695 L983 695 L983 850 L1633 850 L1633 695 L1561 695 Q1459 695 1412 653 Q1391 635 1380 618 Q1369 601 1304 482 Q1261 405 1130 247 Q1177 205 1209 189.5 Q1241 174 1282 174 Q1404 174 1445 292 Q1465 348 1476 470 Z M504 646 Q422 596 390.5 550 Q359 504 359 435 Q359 314 433.5 236 Q508 158 623 158 Q689 158 795 208 Q690 337 639 414 Q588 491 504 646 Z M661 926 Q751 975 785 1012 Q834 1068 834 1131 Q834 1183 801 1215 Q768 1247 714 1247 Q657 1247 621.5 1211.5 Q586 1176 586 1120 Q586 1033 661 926 Z " />
<glyph glyph-name="quotesingle" unicode="&#x27;" horiz-adv-x="377" d="M271 817 L106 817 L66 1365 L311 1365 L271 817 Z " />
<glyph glyph-name="parenleft" unicode="&#x28;" horiz-adv-x="783" d="M721 -266 L721 -394 Q591 -352 516 -316 Q441 -280 382 -231 Q219 -96 143 120 Q81 294 81 506 Q81 866 254 1105 Q334 1217 433.5 1280.5 Q533 1344 721 1405 L721 1278 Q606 1220 549.5 1162 Q493 1104 447 998 Q367 811 367 505 Q367 177 461 -17 Q506 -110 559 -161 Q612 -212 721 -266 Z " />
<glyph glyph-name="parenright" unicode="&#x29;" horiz-adv-x="783" d="M71 -266 Q186 -208 243 -150.5 Q300 -93 345 13 Q425 201 425 506 Q425 834 331 1028 Q286 1121 233 1172 Q180 1223 71 1278 L71 1405 Q201 1363 276 1327 Q351 1291 410 1243 Q573 1108 649 892 Q711 716 711 505 Q711 145 538 -94 Q457 -206 358 -269.5 Q259 -333 71 -394 L71 -266 Z " />
<glyph glyph-name="asterisk" unicode="&#x2a;" horiz-adv-x="1017" d="M497 1002 Q485 1117 443 1193 Q414 1247 408.5 1262 Q403 1277 403 1301 Q403 1348 433 1376.5 Q463 1405 512 1405 Q565 1405 595 1375 Q624 1344 624 1306 Q624 1272 582 1190 Q557 1141 547 1107 Q537 1073 527 1003 Q577 1035 606 1064 Q635 1093 667 1143 Q709 1207 725 1220 Q757 1248 795 1248 Q843 1248 875 1207 Q904 1169 904 1128 Q904 1101 889 1076 Q874 1051 852 1041 Q833 1032 736 1023 Q633 1014 546 975 Q605 946 647 936.5 Q689 927 803 920 Q849 917 876.5 889 Q904 861 904 817 Q904 770 871 734.5 Q838 699 794 699 Q757 699 735 717.5 Q713 736 667 804 Q631 859 604.5 887 Q578 915 531 946 Q536 880 546 845 Q556 810 584 755 Q625 678 625 644 Q625 601 594 572.5 Q563 544 517 544 Q466 544 435 570.5 Q404 597 404 642 Q404 666 409 680.5 Q414 695 445 755 Q491 845 500 945 Q411 885 359 803 Q317 737 294.5 718.5 Q272 700 233 700 Q182 700 152 741 Q122 781 122 820 Q122 878 176 905 Q203 919 293 924 Q390 931 482 973 Q384 1018 288 1023 Q225 1026 208.5 1029 Q192 1032 172 1043 Q122 1069 122 1127 Q122 1176 155.5 1212 Q189 1248 235 1248 Q273 1248 291.5 1232 Q310 1216 359 1142 Q413 1062 497 1002 Z " />
<glyph glyph-name="plus" unicode="&#x2b;" horiz-adv-x="1161" d="M137 734 L480 734 L480 1068 L681 1068 L681 734 L1024 734 L1024 548 L681 548 L681 214 L480 214 L480 548 L137 548 L137 734 Z " />
<glyph glyph-name="comma" unicode="&#x2c;" horiz-adv-x="488" d="M67 -293 L67 -203 Q257 -152 260 28 Q211 -3 171 -3 Q118 -3 84 32.5 Q50 68 50 124 Q50 188 92.5 227.5 Q135 267 202 267 Q288 267 341.5 207 Q395 147 395 49 Q395 -84 306.5 -176.5 Q218 -269 67 -293 Z " />
<glyph glyph-name="hyphen" unicode="&#x2d;" horiz-adv-x="551" d="M0 378 L0 595 L551 595 L551 378 L0 378 Z " />
<glyph glyph-name="period" unicode="&#x2e;" horiz-adv-x="631" d="M315 267 Q378 267 422 223 Q466 179 466 116 Q466 54 422 9.5 Q378 -35 316 -35 Q252 -35 207.5 9.5 Q163 54 163 119 Q163 180 208 223.5 Q253 267 315 267 Z " />
<glyph glyph-name="slash" unicode="&#x2f;" horiz-adv-x="756" d="M174 -188 L23 -188 L524 1405 L675 1405 L174 -188 Z " />
<glyph glyph-name="zero" unicode="0" horiz-adv-x="1271" d="M634 1273 Q875 1273 1036 1102 Q1207 919 1207 619 Q1207 320 1036 137 Q876 -34 635 -34 Q392 -34 232 137 Q61 320 61 629 Q61 922 232 1102 Q395 1273 634 1273 Z M634 1115 Q545 1115 483 1057 Q376 957 376 615 Q376 361 441 237 Q501 124 634 124 Q768 124 827 237 Q892 363 892 619 Q892 880 827 1002 Q766 1115 634 1115 Z " />
<glyph glyph-name="one" unicode="1" horiz-adv-x="1271" d="M254 0 L254 146 L344 146 Q455 146 482 173 Q504 194 504 266 L504 918 L254 918 L254 1062 Q411 1077 477 1108 Q545 1140 607 1251 L772 1251 L772 263 Q772 184 795 165 Q818 146 913 146 L1019 146 L1019 0 L254 0 Z " />
<glyph glyph-name="two" unicode="2" horiz-adv-x="1271" d="M91 -9 Q91 136 109.5 211 Q128 286 182 355 Q241 432 328.5 490.5 Q416 549 582 622 Q712 680 753 740 Q801 808 801 890 Q801 1016 705 1080 Q628 1132 523 1132 Q417 1132 342 1074 Q306 1047 268 975 Q315 987 344 987 Q401 987 439 947.5 Q477 908 477 849 Q477 779 431 734 Q385 689 313 689 Q249 689 200 726 Q119 786 119 902 Q119 1046 246 1156 Q382 1274 593 1274 Q753 1274 886 1212 Q1026 1147 1079 1021 Q1109 949 1109 871 Q1109 734 1032 642 Q987 588 915.5 553.5 Q844 519 714 490 Q581 459 522.5 439 Q464 419 408 385 Q360 355 330 322 Q300 289 264 226 Q358 280 424 280 Q502 280 698 239 Q829 212 860 212 Q944 212 983 269 Q1010 307 1025 444 L1140 444 Q1139 280 1116 204 Q1077 76 988 12 Q919 -36 833 -36 Q732 -36 599 19 Q571 30 437 100 Q380 130 323 130 Q270 130 245.5 99.5 Q221 69 209 -9 L91 -9 Z " />
<glyph glyph-name="three" unicode="3" horiz-adv-x="1271" d="M278 203 Q343 149 401.5 128 Q460 107 545 107 Q683 107 765 173 Q844 235 844 345 Q844 415 814 471 Q784 527 734 551 Q662 586 505 587 L505 735 Q666 739 724 767 Q825 815 825 935 Q825 1029 756.5 1086.5 Q688 1144 576 1144 Q511 1144 464.5 1128.5 Q418 1113 349 1067 Q419 1054 444 1022 Q473 986 473 938 Q473 873 428.5 831 Q384 789 316 789 Q236 789 189 839 Q145 885 145 956 Q145 1084 282 1179 Q419 1274 638 1274 Q840 1274 970 1197 Q1038 1157 1077.5 1091 Q1117 1025 1117 951 Q1117 825 1020 750 Q961 704 812 668 Q909 646 959.5 625.5 Q1010 605 1052 570 Q1153 484 1153 346 Q1153 180 1009 74 Q861 -35 588 -35 Q360 -35 217 82 Q102 176 102 311 Q102 397 153.5 451.5 Q205 506 286 506 Q369 506 411 453 Q447 409 447 352 Q447 275 392 232 Q358 205 278 203 Z " />
<glyph glyph-name="four" unicode="4" horiz-adv-x="1271" d="M463 0 L463 146 L536 146 Q638 146 663 164.5 Q688 183 688 257 L688 344 L71 344 L71 500 L748 1250 L945 1250 L945 520 L1183 520 L1183 344 L945 344 L945 257 Q945 190 969 171 Q1000 146 1069 146 L1183 146 L1183 0 L463 0 Z M688 520 L695 965 L292 520 L688 520 Z " />
<glyph glyph-name="five" unicode="5" horiz-adv-x="1271" d="M278 192 Q347 144 403.5 125.5 Q460 107 537 107 Q680 107 760 187 Q842 268 842 424 Q842 575 761 654 Q679 734 549 734 Q471 734 414 706 Q357 678 289 605 L152 611 L213 1270 Q355 1230 439 1217.5 Q523 1205 648 1205 Q768 1205 851.5 1217 Q935 1229 1078 1268 Q1030 1138 970 1087 Q840 977 568 977 Q488 977 344 997 L329 810 Q432 854 496 869 Q560 884 641 884 Q829 884 963 788 Q1142 661 1142 435 Q1142 287 1061 169 Q922 -35 609 -35 Q350 -35 206 86 Q96 179 96 306 Q96 383 144 434 Q197 491 283 491 Q355 491 401.5 449.5 Q448 408 448 344 Q448 261 385 219 Q353 197 278 192 Z " />
<glyph glyph-name="six" unicode="6" horiz-adv-x="1271" d="M893 1098 Q807 1149 733 1149 Q600 1149 523 1060 Q479 1010 458 929 Q437 848 424 683 Q522 747 586 769 Q650 791 738 791 Q921 791 1043 682 Q1175 565 1175 386 Q1175 255 1096 147 Q962 -38 664 -38 Q371 -38 230 153 Q112 314 112 585 Q112 885 269 1084 Q419 1274 704 1274 Q902 1274 1022 1181 Q1117 1107 1117 1003 Q1117 935 1069 891 Q1021 847 947 847 Q880 847 838.5 884.5 Q797 922 797 982 Q797 1025 818.5 1051 Q840 1077 893 1098 Z M645 616 Q544 616 487.5 550.5 Q431 485 431 369 Q431 251 483 184 Q538 112 653 112 Q756 112 812.5 178.5 Q869 245 869 366 Q869 489 813 550 Q752 616 645 616 Z " />
<glyph glyph-name="seven" unicode="7" horiz-adv-x="1271" d="M504 -9 Q504 41 504 64 Q504 286 540 405 Q595 587 771 774 Q916 928 985 1009 Q875 967 804 967 Q746 967 617 993 Q547 1007 498 1007 Q451 1007 409.5 983 Q368 959 349 921 Q332 887 324.5 836.5 Q317 786 313 677 L173 677 L173 1242 L322 1242 L322 1099 Q391 1188 442 1217 Q505 1253 583 1253 Q681 1253 823 1200 Q945 1154 989 1154 Q1031 1154 1056.5 1172.5 Q1082 1191 1103 1238 L1232 1238 Q1211 1117 1186 1067 Q1161 1017 1010 796 Q820 517 792 272 Q784 199 783 -9 L504 -9 Z " />
<glyph glyph-name="eight" unicode="8" horiz-adv-x="1271" d="M339 597 Q238 664 200 713 Q132 801 132 909 Q132 1082 289 1184 Q427 1274 631 1274 Q856 1274 1003 1180 Q1128 1101 1128 964 Q1128 874 1080 815.5 Q1032 757 910 696 Q1063 624 1115 553 Q1177 468 1177 358 Q1177 243 1111 149 Q1046 56 905 9 Q775 -35 621 -35 Q414 -35 258 44 Q183 83 134 146 Q81 215 81 307 Q81 428 177 511 Q224 551 339 597 Z M489 536 Q406 505 359 449.5 Q312 394 312 328 Q312 229 394.5 177.5 Q477 126 636 126 Q923 126 923 290 Q923 346 886 383 Q849 420 765 447 L489 536 Z M767 751 Q844 793 872 834 Q908 887 908 951 Q908 1045 832 1087 Q752 1133 635 1133 Q519 1133 446 1088 Q380 1048 380 972 Q380 856 536 814 L767 751 Z " />
<glyph glyph-name="nine" unicode="9" horiz-adv-x="1271" d="M394 131 Q478 85 546 85 Q685 85 762 180 Q804 231 822.5 312 Q841 393 850 560 Q750 491 683.5 467 Q617 443 525 443 Q351 443 231 543 Q165 598 128 678 Q91 758 91 845 Q91 970 163 1076 Q233 1178 358 1228 Q471 1273 610 1273 Q887 1273 1028 1094 Q1089 1017 1124 895 Q1159 773 1159 639 Q1159 357 1016 163 Q867 -39 566 -39 Q382 -39 267 45 Q166 118 166 225 Q166 297 221 343 Q268 381 337 381 Q404 381 445 344 Q486 307 486 246 Q486 205 465.5 179 Q445 153 394 131 Z M614 1123 Q509 1123 453 1059 Q397 995 397 875 Q397 745 459 681 Q519 619 621 619 Q721 619 777.5 683.5 Q834 748 834 861 Q834 986 777 1056 Q722 1123 614 1123 Z " />
<glyph glyph-name="colon" unicode="&#x3a;" horiz-adv-x="651" d="M396 267 Q459 267 503 223 Q547 179 547 116 Q547 54 503 9.5 Q459 -35 397 -35 Q333 -35 288.5 9.5 Q244 54 244 119 Q244 180 289 223.5 Q334 267 396 267 Z M396 916 Q459 916 503 872 Q547 828 547 765 Q547 703 503 658.5 Q459 614 397 614 Q333 614 288.5 658.5 Q244 703 244 769 Q244 829 289 872.5 Q334 916 396 916 Z " />
<glyph glyph-name="semicolon" unicode="&#x3b;" horiz-adv-x="651" d="M420 916 Q483 916 527 872 Q571 828 571 765 Q571 703 527 658.5 Q483 614 421 614 Q357 614 312.5 659 Q268 704 268 769 Q268 829 313 872.5 Q358 916 420 916 Z M260 -293 L260 -203 Q449 -152 453 28 Q404 -3 364 -3 Q311 -3 277 32.5 Q243 68 243 124 Q243 188 285.5 227.5 Q328 267 395 267 Q482 267 535 207 Q588 147 588 50 Q588 -84 499.5 -176.5 Q411 -269 260 -293 Z " />
<glyph glyph-name="less" unicode="&#x3c;" horiz-adv-x="1024" d="M955 1236 L955 988 L332 683 L955 378 L955 130 L68 578 L68 788 L955 1236 Z " />
<glyph glyph-name="equal" unicode="&#x3d;" horiz-adv-x="1161" d="M137 905 L1024 905 L1024 728 L137 728 L137 905 Z M137 573 L1024 573 L1024 396 L137 396 L137 573 Z " />
<glyph glyph-name="greater" unicode="&#x3e;" horiz-adv-x="1024" d="M69 1236 L956 788 L956 578 L69 130 L69 378 L692 683 L69 988 L69 1236 Z " />
<glyph glyph-name="question" unicode="&#x3f;" horiz-adv-x="1078" d="M510 267 Q573 267 617 223 Q661 179 661 116 Q661 54 617.5 9.5 Q574 -35 512 -35 Q447 -35 402.5 9.5 Q358 54 358 119 Q358 180 403 223.5 Q448 267 510 267 Z M448 387 Q447 437 447 462 Q447 555 478 618 Q509 681 605 784 Q690 876 712 915 Q741 968 741 1029 Q741 1140 664 1199 Q590 1255 488 1255 Q386 1255 313 1192 Q276 1161 259.5 1124 Q243 1087 236 1019 Q299 1067 350 1067 Q405 1067 442 1029 Q479 991 479 934 Q479 857 415 811 Q368 776 309 776 Q220 776 160.5 848 Q101 920 101 1029 Q101 1143 171 1235 Q299 1405 563 1405 Q791 1405 925 1278 Q1033 1177 1033 1031 Q1033 903 933 803 Q882 753 715 634 Q641 580 612 528.5 Q583 477 578 387 L448 387 Z " />
<glyph glyph-name="at" unicode="&#x40;" horiz-adv-x="1520" d="M990 1010 L1154 1009 L1076 607 Q1063 539 1063 516 Q1063 443 1117 443 Q1171 443 1221 513 Q1303 629 1303 786 Q1303 994 1157 1124 Q1019 1246 805 1246 Q563 1246 401 1083 Q233 913 233 671 Q233 515 308 381 Q456 119 803 119 Q1017 119 1196 189 L1235 41 Q1044 -30 805 -30 Q485 -30 288 158 Q185 257 128 396 Q73 530 73 672 Q73 877 182 1056 Q287 1228 465 1317 Q618 1394 797 1394 Q1063 1394 1244 1238 Q1347 1149 1401 1022 Q1448 911 1448 787 Q1448 605 1354 465 Q1248 308 1108 308 Q1050 308 1007 340.5 Q964 373 951 426 Q909 364 841 328.5 Q773 293 695 293 Q572 293 489 385 Q405 479 405 619 Q405 790 522 919 Q625 1032 765 1032 Q835 1032 889 1002.5 Q943 973 973 918 L990 1010 Z M788 857 Q709 857 650.5 787.5 Q592 718 592 624 Q592 557 625 514 Q667 459 739 459 Q829 459 886 549 Q929 617 929 697 Q929 769 890 813 Q851 857 788 857 Z " />
<glyph glyph-name="A" unicode="A" horiz-adv-x="1464" d="M-30 0 L-30 155 L13 155 Q92 155 129.5 182 Q167 209 194 286 L575 1365 L861 1365 L1268 288 Q1291 225 1300.5 207.5 Q1310 190 1329 176 Q1357 155 1432 155 L1473 155 L1473 0 L768 0 L768 155 L878 155 Q945 155 968.5 165.5 Q992 176 992 206 Q992 225 974 275 L915 435 L466 435 L405 263 Q390 220 390 201 Q390 173 411.5 164 Q433 155 499 155 L606 155 L606 0 L-30 0 Z M859 596 L683 1069 L522 596 L859 596 Z " />
<glyph glyph-name="B" unicode="B" horiz-adv-x="1485" d="M51 0 L51 155 L130 155 Q222 155 244 178 Q265 199 265 281 L265 1084 Q265 1166 244 1187 Q222 1210 130 1210 L51 1210 L51 1365 L837 1365 Q1342 1365 1342 1030 Q1342 904 1281 836 Q1220 768 1067 724 Q1156 702 1202.5 682 Q1249 662 1289 628 Q1397 537 1397 369 Q1397 189 1280 99 Q1205 41 1114 24 Q980 0 799 0 L51 0 Z M552 153 L777 153 Q961 153 1028 208 Q1101 267 1101 393 Q1101 515 1026 573 Q986 605 927 617.5 Q868 630 758 630 L552 630 L552 153 Z M552 785 L747 785 Q854 785 907.5 798.5 Q961 812 999 848 Q1056 901 1056 998 Q1056 1107 992 1158 Q959 1185 908 1196.5 Q857 1208 768 1208 L552 1208 L552 785 Z " />
<glyph glyph-name="C" unicode="C" horiz-adv-x="1444" d="M1164 528 L1337 528 Q1319 380 1291 299.5 Q1263 219 1204 146 Q1052 -40 766 -40 Q477 -40 285 149 Q71 359 71 685 Q71 999 283 1209 Q480 1405 751 1405 Q891 1405 992 1359 Q1054 1331 1152 1264 L1191 1386 L1337 1386 L1337 828 L1181 828 Q1162 941 1139 1002 Q1116 1063 1071 1114 Q965 1238 794 1238 Q605 1238 498 1086 Q391 934 391 675 Q391 423 493 289 Q542 225 618 187 Q700 146 797 146 Q953 146 1049 251 Q1093 299 1117.5 358 Q1142 417 1164 528 Z " />
<glyph glyph-name="D" unicode="D" horiz-adv-x="1647" d="M51 0 L51 155 L130 155 Q222 155 244 177 Q265 199 265 281 L265 1084 Q265 1166 244 1187 Q222 1210 130 1210 L51 1210 L51 1365 L826 1365 Q1071 1365 1222 1290 Q1550 1129 1550 682 Q1550 341 1359 168 Q1252 71 1118 36 Q984 0 826 0 L51 0 Z M552 155 L729 155 Q933 155 1017 195 Q1132 251 1186 401 Q1230 524 1230 682 Q1230 962 1107 1101 Q1042 1175 945 1193 Q857 1210 729 1210 L552 1210 L552 155 Z " />
<glyph glyph-name="E" unicode="E" horiz-adv-x="1536" d="M51 0 L51 155 L130 155 Q222 155 244 178 Q265 199 265 281 L265 1085 Q265 1166 244 1187 Q222 1210 130 1210 L51 1210 L51 1365 L1393 1365 L1393 822 L1238 822 Q1231 1020 1180 1109 Q1144 1173 1061 1195 Q1001 1210 879 1210 L552 1210 L552 791 L629 791 Q708 791 750 804.5 Q792 818 810 849 Q829 882 845 1039 L1001 1039 L1001 356 L845 356 Q837 469 826.5 515.5 Q816 562 792 593 Q772 618 738.5 627 Q705 636 631 636 L552 636 L552 155 L909 155 Q1052 155 1114 198 Q1167 236 1194.5 320 Q1222 404 1238 579 L1393 579 L1393 0 L51 0 Z " />
<glyph glyph-name="F" unicode="F" horiz-adv-x="1413" d="M51 0 L51 155 L130 155 Q222 155 244 178 Q265 199 265 281 L265 1085 Q265 1166 244 1187 Q222 1210 130 1210 L51 1210 L51 1365 L1319 1365 L1319 799 L1163 799 Q1161 922 1148.5 989.5 Q1136 1057 1106 1109 Q1069 1173 986 1195 Q926 1210 805 1210 L552 1210 L552 791 L586 791 Q738 792 768 850 Q786 883 803 1039 L958 1039 L958 356 L803 356 Q795 468 784.5 515 Q774 562 750 593 Q730 617 696 626 Q662 635 589 635 L552 635 L552 281 Q552 199 573 178 Q595 155 687 155 L783 155 L783 0 L51 0 Z " />
<glyph glyph-name="G" unicode="G" horiz-adv-x="1607" d="M1240 -8 L1167 106 Q1058 30 997 4 Q895 -39 751 -39 Q466 -39 275 155 Q71 364 71 682 Q71 1005 282 1214 Q475 1405 751 1405 Q897 1405 996 1359 Q1052 1333 1153 1255 L1208 1373 L1353 1373 L1353 840 L1198 840 Q1170 947 1143 1004 Q1116 1061 1069 1112 Q952 1238 788 1238 Q596 1238 492 1078 Q391 924 391 680 Q391 434 490 293 Q538 224 619 184 Q704 141 803 141 Q946 141 1040 222 Q1077 254 1091.5 290 Q1106 326 1106 387 L1106 463 Q1106 537 1085 555 Q1070 568 1047 571.5 Q1024 575 951 575 L865 575 L865 730 L1587 730 L1587 575 L1501 575 Q1428 575 1408.5 553 Q1389 531 1389 447 L1389 -8 L1240 -8 Z " />
<glyph glyph-name="H" unicode="H" horiz-adv-x="1688" d="M48 0 L48 155 L127 155 Q219 155 241 177 Q262 199 262 281 L262 1084 Q262 1166 241 1187 Q219 1210 127 1210 L48 1210 L48 1365 L780 1365 L780 1210 L684 1210 Q592 1210 570 1187 Q549 1166 549 1084 L549 783 L1138 783 L1138 1084 Q1138 1166 1117 1187 Q1096 1210 1004 1210 L908 1210 L908 1365 L1639 1365 L1639 1210 L1560 1210 Q1468 1210 1446 1187 Q1425 1166 1425 1084 L1425 281 Q1425 199 1446 177 Q1468 155 1560 155 L1639 155 L1639 0 L908 0 L908 155 L1004 155 Q1096 155 1117 177 Q1138 199 1138 281 L1138 618 L549 618 L549 281 Q549 199 570 177 Q592 155 684 155 L780 155 L780 0 L48 0 Z " />
<glyph glyph-name="I" unicode="I" horiz-adv-x="844" d="M54 0 L54 155 L141 155 Q233 155 255 177 Q276 199 276 281 L276 1084 Q276 1166 255 1187 Q233 1210 141 1210 L54 1210 L54 1365 L790 1365 L790 1210 L703 1210 Q611 1210 589 1187 Q568 1166 568 1084 L568 281 Q568 199 589 177 Q611 155 703 155 L790 155 L790 0 L54 0 Z " />
<glyph glyph-name="J" unicode="J" horiz-adv-x="1180" d="M413 1210 L413 1365 L1131 1365 L1131 1210 L1070 1210 Q978 1210 957 1187 Q936 1166 936 1084 L936 436 Q936 248 898 169 Q843 55 710 1 Q610 -40 484 -40 Q281 -40 157 69 Q51 163 51 303 Q51 400 104 451 Q159 503 243 503 Q320 503 363 456 Q406 410 406 340 Q406 274 373.5 236 Q341 198 269 177 Q317 141 350.5 129 Q384 117 437 117 Q554 117 605 186 Q627 217 635.5 261 Q644 305 644 396 L644 1084 Q644 1166 623 1187 Q601 1210 509 1210 L413 1210 Z " />
<glyph glyph-name="K" unicode="K" horiz-adv-x="1576" d="M545 468 L545 281 Q545 199 566 177 Q588 155 679 155 L734 155 L734 0 L51 0 L51 155 L130 155 Q222 155 244 177 Q265 199 265 281 L265 1084 Q265 1165 244 1187 Q222 1210 130 1210 L51 1210 L51 1365 L745 1365 L745 1210 L679 1210 Q590 1210 567.5 1189 Q545 1168 545 1084 L545 700 L1005 1131 Q1039 1163 1039 1184 Q1039 1209 958 1209 L868 1209 L868 1365 L1556 1365 L1556 1209 L1509 1209 Q1426 1209 1350 1169.5 Q1274 1130 1163 1029 L963 847 L1378 258 Q1424 193 1460 174 Q1496 155 1574 155 L1642 155 L1642 0 L885 0 L885 155 L996 155 Q1047 155 1064.5 162 Q1082 169 1082 190 Q1082 214 1049 261 L768 662 L545 468 Z " />
<glyph glyph-name="L" unicode="L" horiz-adv-x="1413" d="M51 1365 L783 1365 L783 1210 L687 1210 Q595 1210 573 1187 Q552 1166 552 1084 L552 155 L805 155 Q968 155 1034 188 Q1103 223 1132.5 314.5 Q1162 406 1164 591 L1319 591 L1319 0 L51 0 L51 155 L130 155 Q222 155 244 178 Q265 199 265 281 L265 1084 Q265 1166 244 1187 Q222 1210 130 1210 L51 1210 L51 1365 Z " />
<glyph glyph-name="M" unicode="M" horiz-adv-x="1983" d="M1235 0 L1235 155 L1326 155 Q1418 155 1439 177 Q1460 199 1460 281 L1460 1164 L1022 0 L888 0 L474 1186 L474 281 Q474 199 495 177 Q517 155 608 155 L689 155 L689 0 L51 0 L51 155 L124 155 Q216 155 238 177 Q259 199 259 281 L259 1084 Q259 1166 238 1187 Q216 1210 124 1210 L51 1210 L51 1365 L688 1365 L990 479 L1327 1365 L1937 1365 L1937 1210 L1858 1210 Q1766 1210 1744 1187 Q1723 1166 1723 1084 L1723 281 Q1723 199 1744 177 Q1766 155 1858 155 L1937 155 L1937 0 L1235 0 Z " />
<glyph glyph-name="N" unicode="N" horiz-adv-x="1668" d="M1430 0 L1142 0 L465 1112 L465 281 Q465 199 486 177 Q507 155 599 155 L692 155 L692 0 L20 0 L20 155 L115 155 Q207 155 229 177 Q250 199 250 281 L250 1084 Q250 1166 229 1187 Q207 1210 115 1210 L28 1210 L28 1365 L610 1365 L1215 374 L1215 1084 Q1215 1166 1194 1187 Q1172 1210 1080 1210 L985 1210 L985 1365 L1631 1365 L1631 1210 L1565 1210 Q1473 1210 1451 1187 Q1430 1166 1430 1084 L1430 0 Z " />
<glyph glyph-name="O" unicode="O" horiz-adv-x="1647" d="M824 1403 Q1148 1403 1354 1216 Q1575 1015 1575 683 Q1575 351 1354 149 Q1149 -38 826 -38 Q499 -38 294 149 Q73 351 73 693 Q73 913 181 1082 Q289 1253 480 1337 Q629 1403 824 1403 Z M824 1241 Q615 1241 498 1082 Q393 938 393 691 Q393 552 418 456 Q443 360 498 283 Q614 124 825 124 Q1034 124 1150 283 Q1255 428 1255 682 Q1255 940 1150 1082 Q1031 1241 824 1241 Z " />
<glyph glyph-name="P" unicode="P" horiz-adv-x="1393" d="M783 155 L783 0 L51 0 L51 155 L130 155 Q222 155 244 178 Q265 199 265 281 L265 1084 Q265 1166 244 1187 Q222 1210 130 1210 L51 1210 L51 1365 L769 1365 Q913 1365 1012 1343 Q1111 1321 1182 1274 Q1326 1178 1326 984 Q1326 853 1255 761 Q1193 679 1081.5 648 Q970 617 741 617 L552 617 L552 281 Q552 199 573 178 Q595 155 687 155 L783 155 Z M552 772 L687 772 Q799 772 859.5 784 Q920 796 959 827 Q1027 881 1027 992 Q1027 1147 899 1190 Q839 1210 671 1210 L552 1210 L552 772 Z " />
<glyph glyph-name="Q" unicode="Q" horiz-adv-x="1698" d="M1356 163 Q1423 81 1484 81 Q1528 81 1547 132 Q1557 159 1566 267 L1698 267 Q1696 120 1676 54 Q1616 -141 1414 -141 Q1341 -141 1285 -110 Q1229 -79 1133 15 Q1029 -17 965.5 -28 Q902 -39 820 -39 Q498 -39 292 149 Q71 351 71 683 Q71 1014 292 1216 Q497 1403 822 1403 Q1147 1403 1352 1216 Q1573 1013 1573 685 Q1573 524 1519.5 396 Q1466 268 1356 163 Z M1013 176 Q960 271 918 311 Q852 374 773 374 Q721 374 687 339.5 Q653 305 653 251 Q653 191 697.5 152.5 Q742 114 810 114 Q924 114 1013 176 Z M1202 347 Q1240 430 1254 498.5 Q1268 567 1268 666 Q1268 926 1158 1082 Q1045 1241 827 1241 Q609 1241 497 1082 Q388 928 388 684 Q388 513 439 387 Q468 314 543 250 Q541 290 541 303 Q541 403 585 462 Q655 556 798 556 Q902 556 989.5 510.5 Q1077 465 1202 347 Z " />
<glyph glyph-name="R" unicode="R" horiz-adv-x="1576" d="M783 155 L783 0 L51 0 L51 155 L130 155 Q222 155 244 178 Q265 199 265 281 L265 1084 Q265 1166 244 1187 Q222 1210 130 1210 L51 1210 L51 1365 L867 1365 Q1129 1365 1251 1282 Q1371 1200 1371 1036 Q1371 865 1237 775 Q1190 742 1135.5 724.5 Q1081 707 980 692 Q1063 677 1105.5 660 Q1148 643 1183 610 Q1221 574 1234 534 Q1247 494 1253 397 L1261 275 Q1265 207 1278 183 Q1291 159 1323 159 Q1362 159 1373 198.5 Q1384 238 1385 389 L1515 389 Q1515 220 1501 158 Q1456 -40 1238 -40 Q1110 -40 1045 25 Q976 92 972 211 L966 370 Q961 532 897 588 Q832 644 648 644 L552 644 L552 281 Q552 199 573 178 Q595 155 687 155 L783 155 Z M552 799 L792 799 Q942 799 1006 849 Q1072 900 1072 1004 Q1072 1132 986 1178 Q926 1210 786 1210 L552 1210 L552 799 Z " />
<glyph glyph-name="S" unicode="S" horiz-adv-x="1312" d="M86 0 L86 564 L244 564 Q270 439 303 372 Q336 305 398 251 Q521 144 710 144 Q840 144 910.5 190.5 Q981 237 981 323 Q981 400 925.5 448.5 Q870 497 750 525 L529 576 Q342 620 233 689 Q81 785 81 983 Q81 1183 229 1300 Q364 1405 570 1405 Q686 1405 766.5 1377 Q847 1349 970 1266 L1042 1365 L1163 1365 L1163 848 L1009 848 Q966 1050 855 1144 Q805 1188 730.5 1213.5 Q656 1239 582 1239 Q467 1239 397 1197 Q364 1177 344 1140.5 Q324 1104 324 1064 Q324 995 371.5 953.5 Q419 912 525 887 L799 824 Q982 782 1094 698 Q1160 649 1197.5 568 Q1235 487 1235 395 Q1235 270 1169 168 Q1102 64 967 8 Q852 -40 724 -40 Q605 -40 505.5 -3 Q406 34 271 128 L226 0 L86 0 Z " />
<glyph glyph-name="T" unicode="T" horiz-adv-x="1383" d="M548 1214 Q419 1213 359 1183 Q281 1143 246 1057.5 Q211 972 205 800 L49 800 L49 1365 L1333 1365 L1333 800 L1178 800 Q1173 932 1156.5 1000 Q1140 1068 1102 1118 Q1060 1171 1002.5 1192 Q945 1213 835 1214 L835 281 Q835 199 856 177 Q878 155 970 155 L1087 155 L1087 0 L296 0 L296 155 L413 155 Q506 155 527 177 Q548 199 548 281 L548 1214 Z " />
<glyph glyph-name="U" unicode="U" horiz-adv-x="1556" d="M41 1210 L41 1365 L751 1365 L751 1210 L663 1210 Q571 1210 549 1187 Q528 1166 528 1084 L528 431 Q528 346 542 302 Q556 258 592 227 Q670 161 802 161 Q940 161 1025 234 Q1063 266 1076 309 Q1091 358 1091 431 L1091 1084 Q1091 1166 1070 1187 Q1049 1210 957 1210 L877 1210 L877 1365 L1510 1365 L1510 1210 L1448 1210 Q1356 1210 1334 1187 Q1313 1166 1313 1084 L1313 431 Q1313 209 1190 94 Q1122 30 1022 -2 Q904 -40 775 -40 Q535 -40 384 76 Q307 135 276 214 Q241 304 241 431 L241 1084 Q241 1166 220 1187 Q198 1210 106 1210 L41 1210 Z " />
<glyph glyph-name="V" unicode="V" horiz-adv-x="1454" d="M570 0 L187 1080 Q161 1154 127.5 1181.5 Q94 1209 30 1209 L-30 1209 L-30 1365 L686 1365 L686 1209 L580 1209 Q521 1209 497 1195 Q473 1181 473 1148 Q473 1114 497 1048 L749 339 L1019 1064 Q1040 1119 1040 1156 Q1040 1187 1013.5 1198 Q987 1209 912 1209 L822 1209 L822 1365 L1471 1365 L1471 1209 L1430 1209 Q1352 1209 1319.5 1184 Q1287 1159 1256 1076 L852 0 L570 0 Z " />
<glyph glyph-name="W" unicode="W" horiz-adv-x="1993" d="M500 0 L213 1027 Q181 1141 153 1172 Q119 1209 54 1209 L20 1209 L20 1365 L603 1365 L603 1209 L538 1209 Q453 1209 453 1152 Q453 1133 461 1103 L673 333 L917 1037 Q895 1139 858 1176 Q824 1209 763 1209 L713 1209 L713 1365 L1311 1365 L1311 1209 L1236 1209 Q1184 1209 1162 1197 Q1140 1185 1140 1156 Q1140 1137 1152 1098 L1380 353 L1585 1046 Q1603 1108 1603 1148 Q1603 1178 1585 1189 Q1552 1209 1489 1209 L1422 1209 L1422 1365 L1981 1365 L1981 1209 L1936 1209 Q1839 1213 1799 1072 L1488 0 L1218 0 L1006 730 L759 0 L500 0 Z " />
<glyph glyph-name="X" unicode="X" horiz-adv-x="1607" d="M711 155 L711 0 L0 0 L0 155 L69 155 Q133 155 167 173 Q201 191 256 253 L646 698 L325 1100 Q274 1164 232 1187 Q190 1210 125 1210 L55 1210 L55 1365 L777 1365 L777 1210 L683 1210 Q624 1210 624 1172 Q624 1147 658 1106 L836 890 L1054 1117 Q1087 1151 1087 1175 Q1087 1210 996 1210 L918 1210 L918 1365 L1559 1365 L1559 1210 L1485 1210 Q1435 1210 1396 1182.5 Q1357 1155 1269 1059 L968 730 L1313 299 Q1393 200 1431 177.5 Q1469 155 1559 155 L1619 155 L1619 0 L836 0 L836 155 L930 155 Q984 155 1004.5 163.5 Q1025 172 1025 195 Q1025 223 1001 253 L779 535 L585 311 Q522 239 522 198 Q522 173 542 164 Q562 155 616 155 L711 155 Z " />
<glyph glyph-name="Y" unicode="Y" horiz-adv-x="1495" d="M1144 155 L1144 0 L349 0 L349 155 L468 155 Q561 155 582 177 Q603 199 603 281 L603 571 L265 1070 Q212 1149 168.5 1179.5 Q125 1210 67 1210 L0 1210 L0 1365 L723 1365 L723 1210 L622 1210 Q574 1210 554.5 1200 Q535 1190 535 1166 Q535 1139 562 1101 L791 780 L1036 1112 Q1061 1146 1061 1171 Q1061 1210 989 1210 L869 1210 L869 1365 L1501 1365 L1501 1210 L1454 1210 Q1399 1210 1367 1192 Q1335 1174 1296 1120 L890 571 L890 281 Q890 199 911 177 Q933 155 1025 155 L1144 155 Z " />
<glyph glyph-name="Z" unicode="Z" horiz-adv-x="1342" d="M81 0 L81 164 L896 1210 L664 1210 Q481 1210 420 1177 Q346 1137 316 1054.5 Q286 972 279 793 L123 793 L123 1365 L1233 1365 L1233 1190 L426 155 L643 155 Q834 155 914 190 Q965 213 996 261 Q1027 309 1048 398 Q1064 468 1077 618 L1233 618 L1233 0 L81 0 Z " />
<glyph glyph-name="bracketleft" unicode="&#x5b;" horiz-adv-x="783" d="M183 -353 L183 1365 L691 1365 L691 1228 L446 1228 L446 -216 L691 -216 L691 -353 L183 -353 Z " />
<glyph glyph-name="backslash" unicode="&#x5c;" horiz-adv-x="756" d="M583 -188 L82 1405 L233 1405 L734 -188 L583 -188 Z " />
<glyph glyph-name="bracketright" unicode="&#x5d;" horiz-adv-x="783" d="M600 -353 L91 -353 L91 -216 L337 -216 L337 1228 L91 1228 L91 1365 L600 1365 L600 -353 Z " />
<glyph glyph-name="asciicircum" unicode="&#x5e;" horiz-adv-x="1024" d="M268 737 L44 737 L373 1371 L651 1371 L980 737 L755 737 L511 1202 L268 737 Z " />
<glyph glyph-name="underscore" unicode="&#x5f;" horiz-adv-x="1024" d="M0 -128 L1024 -128 L1024 -280 L0 -280 L0 -128 Z " />
<glyph glyph-name="grave" unicode="&#x60;" horiz-adv-x="1024" d="M671 1106 L559 1106 L234 1267 Q131 1319 131 1387 Q131 1433 162.5 1464 Q194 1495 241 1495 Q305 1495 395 1400 L671 1106 Z " />
<glyph glyph-name="a" unicode="a" horiz-adv-x="1159" d="M681 116 Q614 40 562 11 Q476 -36 353 -36 Q224 -36 146 33 Q60 110 60 226 Q60 391 213 467 Q304 513 504 561 Q618 589 652 630 Q682 667 682 724 Q682 886 468 886 Q407 886 364.5 872.5 Q322 859 279 825 Q349 822 376 799 Q413 769 413 712 Q413 655 373.5 619 Q334 583 270 583 Q199 583 154 627.5 Q109 672 109 743 Q109 864 225 931 Q337 996 504 996 Q720 996 820 923 Q881 878 900.5 821 Q920 764 920 631 L920 205 Q920 132 969 132 Q1014 132 1023 207 Q1029 249 1030 359 L1154 359 Q1151 161 1124 97 Q1068 -36 900 -36 Q810 -36 760.5 -1.5 Q711 33 681 116 Z M675 503 Q603 466 472 414 Q334 360 334 252 Q334 134 459 134 Q552 134 612 196 Q646 231 660.5 274.5 Q675 318 675 386 L675 503 Z " />
<glyph glyph-name="b" unicode="b" horiz-adv-x="1210" d="M374 124 L292 -11 L159 -11 L159 1108 Q159 1183 140 1204 Q118 1229 42 1229 L0 1229 L0 1365 L404 1365 L404 810 Q472 913 534 949 Q616 996 727 996 Q925 996 1038 855 Q1146 720 1146 483 Q1146 254 1039 114 Q924 -35 726 -35 Q618 -35 539.5 0.5 Q461 36 374 124 Z M644 820 Q529 820 466.5 731 Q404 642 404 478 Q404 315 466 227 Q530 136 645 136 Q753 136 808 218 Q868 307 868 473 Q868 820 644 820 Z " />
<glyph glyph-name="c" unicode="c" horiz-adv-x="1047" d="M826 399 L984 399 Q973 276 952 217 Q864 -36 554 -36 Q324 -36 190 110 Q61 253 61 474 Q61 720 222 864 Q369 996 592 996 Q778 996 893 902 Q993 820 993 699 Q993 622 948.5 574 Q904 526 833 526 Q768 526 726.5 564 Q685 602 685 661 Q685 767 802 789 Q743 832 704.5 847 Q666 862 613 862 Q474 862 406 759 Q338 657 338 482 Q338 147 589 147 Q697 147 750.5 204 Q804 261 826 399 Z " />
<glyph glyph-name="d" unicode="d" horiz-adv-x="1271" d="M610 1228 L610 1365 L1058 1365 L1058 258 Q1058 182 1077 162 Q1100 137 1175 137 L1232 137 L1232 0 L813 0 L813 167 Q748 55 684 17 Q604 -29 490 -29 Q286 -29 177 110 Q71 246 71 483 Q71 722 177 857 Q286 996 490 996 Q608 996 679 953 Q750 910 813 800 L813 1107 Q813 1184 794 1203 Q770 1228 696 1228 L610 1228 Z M572 820 Q465 820 409 737 Q349 649 349 483 Q349 135 572 135 Q688 135 750.5 224 Q813 313 813 477 Q813 642 751 729 Q686 820 572 820 Z " />
<glyph glyph-name="e" unicode="e" horiz-adv-x="1088" d="M847 343 L1018 343 Q998 232 966.5 171.5 Q935 111 871 61 Q748 -36 559 -36 Q354 -36 223 82 Q61 228 61 477 Q61 729 226 877 Q360 996 566 996 Q797 996 913 852 Q981 768 1001 669 Q1019 582 1024 460 L339 460 Q346 364 360 313 Q374 262 403 219 Q467 127 596 127 Q705 127 766 179 Q816 222 847 343 Z M754 603 Q745 685 733 728 Q721 771 697 802 Q653 861 568 861 Q477 861 424.5 800 Q372 739 347 603 L754 603 Z " />
<glyph glyph-name="f" unicode="f" horiz-adv-x="763" d="M234 816 L51 816 L51 957 L234 957 L234 989 Q234 1400 587 1400 Q717 1400 798 1341 Q879 1282 879 1187 Q879 1119 841.5 1078 Q804 1037 742 1037 Q685 1037 649 1070 Q613 1103 613 1155 Q613 1240 699 1267 Q661 1295 613 1295 Q539 1295 509 1250.5 Q479 1206 479 1095 L479 957 L687 957 L687 816 L479 816 L479 258 Q479 182 498 162 Q522 137 596 137 L687 137 L687 0 L51 0 L51 137 L110 137 Q189 137 211.5 159 Q234 181 234 258 L234 816 Z " />
<glyph glyph-name="g" unicode="g" horiz-adv-x="1352" d="M275 358 Q198 431 172 484 Q137 555 137 634 Q137 767 223 862 Q346 996 592 996 Q694 996 768.5 975.5 Q843 955 927 904 Q981 956 1024 976 Q1067 996 1128 996 Q1230 996 1289.5 941.5 Q1349 887 1349 794 Q1349 737 1320 700 Q1281 648 1215 648 Q1159 648 1121.5 683 Q1084 718 1084 770 Q1084 814 1107 841 Q1130 868 1181 884 Q1144 911 1114 911 Q1045 911 979 826 Q1011 763 1022.5 722.5 Q1034 682 1034 631 Q1034 517 970 426 Q860 271 586 271 Q493 271 363 307 Q312 268 312 236 Q312 199 343 183 Q374 167 444 167 L723 167 Q847 167 916 155.5 Q985 144 1040 115 Q1099 84 1134 23.5 Q1169 -37 1169 -108 Q1169 -214 1095 -297 Q1026 -373 872 -408 Q740 -438 578 -438 Q333 -438 189 -368 Q133 -341 102 -297 Q71 -253 71 -201 Q71 -135 112.5 -97 Q154 -59 260 -26 Q161 5 128 54 Q95 101 95 156 Q95 226 136.5 272.5 Q178 319 275 358 Z M584 877 Q406 877 406 645 Q406 516 448 458 Q490 400 584 400 Q678 400 721.5 456 Q765 512 765 633 Q765 762 721 819 Q678 877 584 877 Z M590 -50 Q354 -50 297 -91 Q247 -127 247 -181 Q247 -216 268.5 -245.5 Q290 -275 326 -288 Q414 -321 563 -321 Q900 -321 900 -171 Q900 -102 833.5 -76 Q767 -50 590 -50 Z " />
<glyph glyph-name="h" unicode="h" horiz-adv-x="1322" d="M51 1229 L51 1365 L466 1365 L466 792 Q559 902 622 939 Q712 992 812 992 Q879 992 941 969.5 Q1003 947 1041 908 Q1079 869 1095 807.5 Q1111 746 1111 637 L1111 258 Q1111 182 1130 162 Q1153 137 1228 137 L1284 137 L1284 0 L708 0 L708 137 L749 137 Q822 137 844 159.5 Q866 182 866 258 L866 637 Q866 701 860.5 729.5 Q855 758 837 781 Q796 835 714 835 Q600 835 524 735 Q492 691 479 639 Q466 587 466 498 L466 258 Q466 181 485 162 Q509 137 583 137 L623 137 L623 0 L51 0 L51 137 L104 137 Q178 137 199.5 159.5 Q221 182 221 258 L221 1108 Q221 1184 202 1204 Q179 1229 104 1229 L51 1229 Z " />
<glyph glyph-name="i" unicode="i" horiz-adv-x="712" d="M349 1380 Q411 1380 455 1336 Q499 1292 499 1229 Q499 1166 455.5 1122 Q412 1078 350 1078 Q285 1078 240.5 1122.5 Q196 1167 196 1232 Q196 1292 241 1336 Q286 1380 349 1380 Z M51 0 L51 137 L125 137 Q198 137 220 159.5 Q242 182 242 258 L242 703 Q242 779 223 799 Q200 824 125 824 L51 824 L51 961 L490 961 L490 258 Q490 182 509 162 Q532 137 607 137 L668 137 L668 0 L51 0 Z " />
<glyph glyph-name="j" unicode="j" horiz-adv-x="651" d="M34 824 L34 961 L481 961 L481 -52 Q481 -243 424 -319 Q334 -438 147 -438 Q33 -438 -47 -383 Q-132 -325 -132 -231 Q-132 -168 -92 -127.5 Q-52 -87 10 -87 Q67 -87 100 -118.5 Q133 -150 133 -205 Q133 -253 108 -278.5 Q83 -304 26 -314 Q84 -337 114 -337 Q179 -337 209 -281 Q223 -255 227.5 -223.5 Q232 -192 232 -118 L232 702 Q232 779 213 799 Q190 824 115 824 L34 824 Z M338 1380 Q401 1380 445 1336 Q489 1292 489 1229 Q489 1166 445.5 1122 Q402 1078 340 1078 Q275 1078 230.5 1122.5 Q186 1167 186 1232 Q186 1292 231 1336 Q276 1380 338 1380 Z " />
<glyph glyph-name="k" unicode="k" horiz-adv-x="1302" d="M466 494 L775 746 Q811 775 811 796 Q811 813 796.5 818.5 Q782 824 739 824 L629 824 L629 961 L1237 961 L1237 824 L1196 824 Q1143 824 1110 809.5 Q1077 795 1019 747 L830 592 L1071 252 Q1152 137 1259 137 L1306 137 L1306 0 L717 0 L717 137 L786 137 Q844 137 844 168 Q844 186 820 222 L658 458 L466 306 L466 259 Q466 182 485 162 Q508 137 583 137 L607 137 L607 0 L51 0 L51 137 L104 137 Q178 137 199.5 159.5 Q221 182 221 259 L221 1108 Q221 1184 202 1204 Q179 1229 104 1229 L51 1229 L51 1365 L466 1365 L466 494 Z " />
<glyph glyph-name="l" unicode="l" horiz-adv-x="692" d="M468 1365 L468 258 Q468 181 487 162 Q511 137 586 137 L648 137 L648 0 L41 0 L41 137 L103 137 Q177 137 198.5 159.5 Q220 182 220 258 L220 1107 Q220 1184 201 1204 Q178 1229 103 1229 L41 1229 L41 1365 L468 1365 Z " />
<glyph glyph-name="m" unicode="m" horiz-adv-x="1892" d="M1071 797 Q1175 908 1235 944 Q1314 992 1409 992 Q1544 992 1622 913 Q1661 873 1674 818.5 Q1687 764 1687 637 L1687 258 Q1687 182 1706 162 Q1729 137 1804 137 L1861 137 L1861 0 L1306 0 L1306 137 L1329 137 Q1403 137 1424.5 159.5 Q1446 182 1446 258 L1446 637 Q1446 707 1441.5 735.5 Q1437 764 1422 785 Q1388 835 1309 835 Q1213 835 1147 757.5 Q1081 680 1081 567 L1081 258 Q1081 182 1100 162 Q1124 137 1198 137 L1221 137 L1221 0 L700 0 L700 137 L723 137 Q797 137 818.5 159.5 Q840 182 840 258 L840 637 Q840 707 835.5 735.5 Q831 764 816 785 Q782 835 703 835 Q607 835 541 757.5 Q475 680 475 567 L475 258 Q475 181 494 162 Q518 137 593 137 L616 137 L616 0 L51 0 L51 137 L117 137 Q191 137 212.5 159.5 Q234 182 234 258 L234 703 Q234 780 215 799 Q191 824 117 824 L51 824 L51 961 L475 961 L475 798 Q568 908 629 944 Q709 992 807 992 Q908 992 967 948 Q1026 904 1071 797 Z " />
<glyph glyph-name="n" unicode="n" horiz-adv-x="1332" d="M51 0 L51 137 L117 137 Q191 137 212.5 159.5 Q234 182 234 258 L234 703 Q234 780 215 799 Q191 824 117 824 L51 824 L51 961 L479 961 L479 792 Q573 902 636 939 Q725 992 825 992 Q892 992 954 969.5 Q1016 947 1054 908 Q1092 869 1108 807.5 Q1124 746 1124 637 L1124 258 Q1124 181 1143 162 Q1167 137 1241 137 L1299 137 L1299 0 L721 0 L721 137 L762 137 Q835 137 857 159.5 Q879 182 879 258 L879 637 Q879 700 873 729.5 Q867 759 850 781 Q809 835 727 835 Q614 835 537 735 Q504 691 491.5 642 Q479 593 479 507 L479 258 Q479 182 498 162 Q522 137 596 137 L637 137 L637 0 L51 0 Z " />
<glyph glyph-name="o" unicode="o" horiz-adv-x="1200" d="M601 996 Q833 996 981 866 Q1143 722 1143 480 Q1143 240 981 95 Q834 -35 604 -35 Q367 -35 220 95 Q58 239 58 488 Q58 726 220 866 Q371 996 601 996 Z M600 852 Q336 852 336 486 Q336 290 405 196 Q469 109 601 109 Q865 109 865 480 Q865 852 600 852 Z " />
<glyph glyph-name="p" unicode="p" horiz-adv-x="1271" d="M29 824 L29 961 L443 961 L443 794 Q508 906 572 944 Q652 990 766 990 Q970 990 1079 851 Q1185 715 1185 477 Q1185 240 1079 104 Q970 -35 766 -35 Q648 -35 577 8 Q506 51 443 161 L443 -180 Q443 -256 462 -276 Q486 -301 560 -301 L651 -301 L651 -438 L20 -438 L20 -301 L80 -301 Q154 -301 176 -278.5 Q198 -256 198 -180 L198 703 Q198 780 179 799 Q155 824 80 824 L29 824 Z M683 826 Q568 826 505.5 737 Q443 648 443 483 Q443 321 505 233 Q569 141 684 141 Q792 141 847 224 Q907 312 907 478 Q907 826 683 826 Z " />
<glyph glyph-name="q" unicode="q" horiz-adv-x="1281" d="M1258 -301 L1258 -438 L625 -438 L625 -301 L716 -301 Q789 -301 811 -278.5 Q833 -256 833 -180 L833 161 Q769 49 704 11 Q624 -35 510 -35 Q306 -35 197 104 Q91 240 91 477 Q91 715 197 851 Q306 990 510 990 Q628 990 699 947 Q770 904 833 794 L833 961 L1247 961 L1247 824 L1195 824 Q1122 824 1100 801.5 Q1078 779 1078 703 L1078 -180 Q1078 -256 1097 -276 Q1120 -301 1195 -301 L1258 -301 Z M592 826 Q485 826 429 744 Q369 656 369 489 Q369 141 593 141 Q708 141 770.5 230 Q833 319 833 483 Q833 648 771 735 Q706 826 592 826 Z " />
<glyph glyph-name="r" unicode="r" horiz-adv-x="1007" d="M697 137 L697 0 L51 0 L51 137 L117 137 Q191 137 212.5 159.5 Q234 182 234 258 L234 703 Q234 780 215 800 Q191 825 117 825 L51 825 L51 961 L479 961 L479 817 Q540 914 594 947 Q660 988 738 988 Q858 988 927 911 Q980 851 980 767 Q980 691 934 643 Q888 595 815 595 Q753 595 714.5 629.5 Q676 664 676 720 Q676 773 704.5 805 Q733 837 800 859 Q742 879 709 879 Q668 879 622 849.5 Q576 820 545 773 Q479 675 479 517 L479 258 Q479 182 498 162 Q521 137 596 137 L697 137 Z " />
<glyph glyph-name="s" unicode="s" horiz-adv-x="1007" d="M61 -12 L61 381 L210 381 Q236 287 270.5 236.5 Q305 186 367 152 Q437 113 532 113 Q611 113 657.5 146.5 Q704 180 704 237 Q704 283 664.5 312 Q625 341 534 363 L384 398 Q71 472 71 695 Q71 844 185 922 Q292 996 445 996 Q527 996 591.5 974.5 Q656 953 735 899 L779 974 L896 974 L896 619 L758 619 Q736 686 713.5 721.5 Q691 757 655 786 Q618 815 563 833 Q508 851 458 851 Q388 851 346.5 820.5 Q305 790 305 739 Q305 662 420 635 L604 592 Q771 552 851 487 Q947 408 947 277 Q947 136 849 53 Q746 -35 558 -35 Q463 -35 400 -14 Q337 7 232 74 L196 -12 L61 -12 Z " />
<glyph glyph-name="t" unicode="t" horiz-adv-x="824" d="M188 820 L30 820 L30 953 Q128 975 178 1009 Q228 1043 260 1110 Q288 1167 308 1338 L437 1338 L437 961 L702 961 L702 820 L433 820 L433 273 Q433 205 448.5 179 Q464 153 505 153 Q573 153 588 226 Q597 275 599 453 L732 453 Q732 407 732 381 Q732 271 722 208.5 Q712 146 687 95 Q623 -35 443 -35 Q298 -35 235 65 Q208 107 198 158 Q188 209 188 301 L188 820 Z " />
<glyph glyph-name="u" unicode="u" horiz-adv-x="1322" d="M51 824 L51 961 L460 961 L460 323 Q460 259 465.5 230.5 Q471 202 489 180 Q529 126 611 126 Q725 126 801 226 Q834 269 847 319.5 Q860 370 860 453 L860 702 Q860 779 841 799 Q818 824 743 824 L648 824 L648 961 L1105 961 L1105 258 Q1105 182 1124 162 Q1147 137 1222 137 L1275 137 L1275 0 L860 0 L860 169 Q766 59 703 22 Q613 -31 513 -31 Q447 -31 385 -8.5 Q323 14 285 52 Q247 92 231 153 Q215 214 215 323 L215 702 Q215 779 196 799 Q173 824 98 824 L51 824 Z " />
<glyph glyph-name="v" unicode="v" horiz-adv-x="1129" d="M426 0 L178 721 Q149 817 68 824 L10 824 L10 961 L539 961 L539 824 L506 824 Q427 824 427 772 Q427 739 445 686 L595 242 L759 705 Q772 741 772 772 Q772 824 681 824 L632 824 L632 961 L1106 961 L1106 824 L1055 824 Q975 824 932 700 L685 0 L426 0 Z " />
<glyph glyph-name="w" unicode="w" horiz-adv-x="1678" d="M412 0 L183 706 Q160 777 136 800.5 Q112 824 63 824 L20 824 L20 961 L524 961 L524 824 L475 824 Q438 824 424 813.5 Q410 803 410 774 Q410 749 426 693 L565 223 L736 701 Q750 739 750 765 Q750 798 730 811 Q710 824 659 824 L620 824 L620 961 L1112 961 L1112 824 L1052 824 Q988 824 988 777 Q988 752 1000 714 L1162 212 L1312 673 Q1333 737 1333 773 Q1333 824 1268 824 L1217 824 L1217 961 L1640 961 L1640 824 L1597 824 Q1557 824 1532.5 795.5 Q1508 767 1482 691 L1252 0 L1013 0 L840 537 L656 0 L412 0 Z " />
<glyph glyph-name="x" unicode="x" horiz-adv-x="1312" d="M10 0 L10 137 L59 137 Q140 137 232 219 L515 473 L275 727 Q224 781 183 802.5 Q142 824 91 824 L50 824 L50 961 L638 961 L638 824 L594 824 Q537 824 537 795 Q537 781 567 748 L684 621 L807 735 Q851 776 851 794 Q851 824 784 824 L741 824 L741 961 L1256 961 L1256 824 L1215 824 Q1168 824 1125.5 801.5 Q1083 779 1019 720 L794 516 L1055 245 Q1112 187 1155.5 162 Q1199 137 1245 137 L1287 137 L1287 0 L684 0 L684 137 L727 137 Q804 137 804 166 Q804 183 774 214 L628 364 L459 212 Q423 180 423 165 Q423 137 480 137 L558 137 L558 0 L10 0 Z " />
<glyph glyph-name="y" unicode="y" horiz-adv-x="1190" d="M520 0 L207 701 Q177 769 143 796.5 Q109 824 56 824 L-5 824 L-5 961 L584 961 L584 824 L513 824 Q443 824 443 778 Q443 757 454 730 L644 286 L811 711 Q825 746 825 774 Q825 824 735 824 L680 824 L680 961 L1171 961 L1171 824 L1126 824 Q1078 824 1042.5 789.5 Q1007 755 976 678 L748 114 Q625 -190 541 -299 Q483 -372 422 -405 Q359 -438 275 -438 Q153 -438 73 -366 Q-10 -291 -10 -181 Q-10 -101 37 -51 Q84 0 158 0 Q219 0 258.5 -38 Q298 -76 298 -135 Q298 -255 148 -257 Q177 -286 198 -296 Q219 -306 251 -306 Q335 -306 391 -242 Q447 -178 520 0 Z " />
<glyph glyph-name="z" unicode="z" horiz-adv-x="1027" d="M41 0 L41 148 L660 824 L447 824 Q359 824 316.5 803.5 Q274 783 252 730 Q233 685 226 536 L83 536 L83 961 L942 961 L942 807 L332 137 L509 137 Q649 137 698 162 Q749 188 768 244 Q787 300 799 459 L942 459 L942 0 L41 0 Z " />
<glyph glyph-name="braceleft" unicode="&#x7b;" horiz-adv-x="783" d="M339 495 Q408 451 435 396 Q462 341 462 242 L462 -77 Q464 -165 470 -188.5 Q476 -212 502 -230 Q535 -252 650 -252 Q665 -252 701 -251 L701 -380 Q613 -384 544 -384 Q426 -384 364.5 -366.5 Q303 -349 262 -305 Q200 -237 200 -86 L200 248 Q200 336 174.5 377.5 Q149 419 86 433 L86 557 Q149 571 174.5 610 Q200 649 200 732 L200 1083 Q200 1241 275 1307 Q316 1344 376.5 1358 Q437 1372 551 1372 Q592 1372 701 1369 L701 1240 Q587 1239 562.5 1237 Q538 1235 516 1225 Q481 1208 472 1182.5 Q463 1157 462 1069 L462 746 Q462 644 436.5 592 Q411 540 339 495 Z " />
<glyph glyph-name="bar" unicode="&#x7c;" horiz-adv-x="1024" d="M387 1365 L637 1365 L637 -341 L387 -341 L387 1365 Z " />
<glyph glyph-name="braceright" unicode="&#x7d;" horiz-adv-x="783" d="M444 494 Q375 538 348 593 Q321 648 321 747 L321 1066 Q319 1156 311 1182.5 Q303 1209 271 1223 Q234 1240 82 1240 L82 1369 Q175 1372 239 1372 Q357 1372 418.5 1355 Q480 1338 521 1293 Q583 1225 583 1074 L583 740 Q583 652 608.5 611 Q634 570 697 556 L697 432 Q634 418 608.5 378.5 Q583 339 583 257 L583 -94 Q583 -252 508 -319 Q467 -355 406 -369.5 Q345 -384 232 -384 Q188 -384 82 -381 L82 -252 Q114 -252 133 -252 Q206 -252 234.5 -247 Q263 -242 285 -226 Q309 -208 314.5 -186 Q320 -164 321 -80 L321 243 Q321 344 346.5 396 Q372 448 444 494 Z " />
<glyph glyph-name="asciitilde" unicode="&#x7e;" horiz-adv-x="1365" d="M315 1153 L191 1255 Q248 1388 319.5 1451.5 Q391 1515 484 1515 Q557 1515 712 1443 Q798 1404 828.5 1393.5 Q859 1383 892 1383 Q977 1383 1053 1520 L1177 1418 Q1131 1315 1088 1261 Q1001 1156 884 1156 Q847 1156 807.5 1169 Q768 1182 666 1227 Q526 1290 476 1290 Q429 1290 394 1260 Q359 1230 315 1153 Z " />
<glyph glyph-name="Adieresis" unicode="&#xc4;" horiz-adv-x="1464" d="M-30 0 L-30 155 L13 155 Q92 155 129.5 182 Q167 209 194 286 L575 1365 L861 1365 L1268 288 Q1291 225 1300.5 207.5 Q1310 190 1329 176 Q1357 155 1432 155 L1473 155 L1473 0 L768 0 L768 155 L878 155 Q945 155 968.5 165.5 Q992 176 992 206 Q992 225 974 275 L915 435 L466 435 L405 263 Q390 220 390 201 Q390 173 411.5 164 Q433 155 499 155 L606 155 L606 0 L-30 0 Z M859 596 L683 1069 L522 596 L859 596 Z M536 1756 Q592 1756 633.5 1714 Q675 1672 675 1616 Q675 1560 634 1519 Q593 1478 537 1478 Q478 1478 437 1519 Q396 1560 396 1619 Q396 1673 438 1714.5 Q480 1756 536 1756 Z M917 1756 Q973 1756 1014.5 1714 Q1056 1672 1056 1616 Q1056 1560 1015 1519 Q974 1478 918 1478 Q859 1478 818 1519 Q777 1560 777 1619 Q777 1673 819 1714.5 Q861 1756 917 1756 Z " />
<glyph glyph-name="Aring" unicode="&#xc5;" horiz-adv-x="1464" d="M-30 0 L-30 155 L13 155 Q92 155 129.5 182 Q167 209 194 286 L575 1365 L861 1365 L1268 288 Q1291 225 1300.5 207.5 Q1310 190 1329 176 Q1357 155 1432 155 L1473 155 L1473 0 L768 0 L768 155 L878 155 Q945 155 968.5 165.5 Q992 176 992 206 Q992 225 974 275 L915 435 L466 435 L405 263 Q390 220 390 201 Q390 173 411.5 164 Q433 155 499 155 L606 155 L606 0 L-30 0 Z M859 596 L683 1069 L522 596 L859 596 Z M715 1910 Q807 1910 871 1847 Q936 1783 936 1692 Q936 1602 871 1535 Q805 1467 716 1467 Q624 1467 558 1535 Q493 1602 493 1697 Q493 1786 558 1847 Q625 1910 715 1910 Z M715 1788 Q675 1788 645 1758.5 Q615 1729 615 1690 Q615 1648 644.5 1618.5 Q674 1589 716 1589 Q757 1589 786 1618 Q815 1647 815 1688 Q815 1729 785.5 1758.5 Q756 1788 715 1788 Z " />
<glyph glyph-name="Ccedilla" unicode="&#xc7;" horiz-adv-x="1444" d="M751 -40 L751 -120 Q799 -113 836 -113 Q906 -113 954 -161.5 Q1002 -210 1002 -280 Q1002 -364 940.5 -414 Q879 -464 777 -464 Q645 -464 449 -372 L496 -271 Q624 -350 728 -350 Q817 -350 817 -278 Q817 -242 793 -221 Q769 -200 728 -200 Q705 -200 664 -208 L664 -34 Q497 -11 368 79 Q226 179 148 339 Q71 495 71 685 Q71 1000 282 1209 Q480 1405 752 1405 Q891 1405 992 1359 Q1054 1331 1152 1264 L1191 1386 L1337 1386 L1337 828 L1181 828 Q1162 941 1139 1002 Q1116 1063 1072 1114 Q965 1238 794 1238 Q604 1238 498 1086 Q391 934 391 675 Q391 423 493 289 Q542 225 618 187 Q700 146 797 146 Q953 146 1049 251 Q1093 299 1117.5 358 Q1142 417 1164 528 L1337 528 Q1319 380 1291 299 Q1263 218 1204 146 Q1051 -40 772 -40 Q766 -40 751 -40 Z " />
<glyph glyph-name="Eacute" unicode="&#xc9;" horiz-adv-x="1536" d="M51 0 L51 155 L130 155 Q222 155 244 178 Q265 199 265 281 L265 1085 Q265 1166 244 1187 Q222 1210 130 1210 L51 1210 L51 1365 L1393 1365 L1393 822 L1238 822 Q1231 1020 1180 1109 Q1144 1173 1061 1195 Q1001 1210 879 1210 L552 1210 L552 791 L629 791 Q708 791 750 804.5 Q792 818 810 849 Q829 882 845 1039 L1001 1039 L1001 356 L845 356 Q837 469 826.5 515.5 Q816 562 792 593 Q772 618 738.5 627 Q705 636 631 636 L552 636 L552 155 L909 155 Q1052 155 1114 198 Q1167 236 1194.5 320 Q1222 404 1238 579 L1393 579 L1393 0 L51 0 Z M694 1476 L584 1476 L865 1724 Q926 1778 971 1778 Q1009 1778 1037 1749.5 Q1065 1721 1065 1682 Q1065 1614 976 1581 L694 1476 Z " />
<glyph glyph-name="Ntilde" unicode="&#xd1;" horiz-adv-x="1668" d="M1430 0 L1142 0 L465 1112 L465 281 Q465 199 486 177 Q507 155 599 155 L692 155 L692 0 L20 0 L20 155 L115 155 Q207 155 229 177 Q250 199 250 281 L250 1084 Q250 1166 229 1187 Q207 1210 115 1210 L28 1210 L28 1365 L610 1365 L1215 374 L1215 1084 Q1215 1166 1194 1187 Q1172 1210 1080 1210 L985 1210 L985 1365 L1631 1365 L1631 1210 L1565 1210 Q1473 1210 1451 1187 Q1430 1166 1430 1084 L1430 0 Z M602 1476 L525 1476 Q543 1561 563 1604.5 Q583 1648 617 1678 Q667 1724 743 1724 Q778 1724 817 1713 L933 1683 Q954 1677 976 1677 Q1010 1677 1029.5 1694.5 Q1049 1712 1065 1758 L1142 1758 Q1127 1685 1110.5 1646.5 Q1094 1608 1066 1575 Q1009 1511 926 1511 Q895 1511 863 1520 L751 1550 Q713 1560 688 1560 Q626 1560 602 1476 Z " />
<glyph glyph-name="Odieresis" unicode="&#xd6;" horiz-adv-x="1647" d="M822 1403 Q1146 1403 1352 1216 Q1573 1015 1573 683 Q1573 351 1352 149 Q1147 -38 824 -38 Q497 -38 292 149 Q71 351 71 693 Q71 913 179 1082 Q287 1253 478 1337 Q627 1403 822 1403 Z M822 1241 Q613 1241 496 1082 Q391 938 391 691 Q391 552 416 456 Q441 360 496 283 Q612 124 823 124 Q1032 124 1148 283 Q1253 428 1253 682 Q1253 940 1148 1082 Q1029 1241 822 1241 Z M625 1756 Q681 1756 722.5 1714 Q764 1672 764 1616 Q764 1560 723 1519 Q682 1478 626 1478 Q567 1478 526 1519 Q485 1560 485 1619 Q485 1673 527 1714.5 Q569 1756 625 1756 Z M1007 1756 Q1063 1756 1104.5 1714 Q1146 1672 1146 1616 Q1146 1560 1105 1519 Q1064 1478 1008 1478 Q949 1478 908 1519 Q867 1560 867 1619 Q867 1673 909 1714.5 Q951 1756 1007 1756 Z " />
<glyph glyph-name="Udieresis" unicode="&#xdc;" horiz-adv-x="1556" d="M41 1210 L41 1365 L751 1365 L751 1210 L663 1210 Q571 1210 549 1187 Q528 1166 528 1084 L528 431 Q528 346 542 302 Q556 258 592 227 Q670 161 802 161 Q940 161 1025 234 Q1063 266 1076 309 Q1091 358 1091 431 L1091 1084 Q1091 1166 1070 1187 Q1049 1210 957 1210 L877 1210 L877 1365 L1510 1365 L1510 1210 L1448 1210 Q1356 1210 1334 1187 Q1313 1166 1313 1084 L1313 431 Q1313 209 1190 94 Q1122 30 1022 -2 Q904 -40 775 -40 Q535 -40 384 76 Q307 135 276 214 Q241 304 241 431 L241 1084 Q241 1166 220 1187 Q198 1210 106 1210 L41 1210 Z M586 1756 Q642 1756 683.5 1714 Q725 1672 725 1616 Q725 1560 684 1519 Q643 1478 587 1478 Q528 1478 487 1519 Q446 1560 446 1619 Q446 1673 488 1714.5 Q530 1756 586 1756 Z M967 1756 Q1023 1756 1064.5 1714 Q1106 1672 1106 1616 Q1106 1560 1065 1519 Q1024 1478 968 1478 Q909 1478 868 1519 Q827 1560 827 1619 Q827 1673 869 1714.5 Q911 1756 967 1756 Z " />
<glyph glyph-name="aacute" unicode="&#xe1;" horiz-adv-x="1159" d="M681 116 Q614 40 562 11 Q476 -36 353 -36 Q224 -36 146 33 Q60 110 60 226 Q60 391 213 467 Q304 513 504 561 Q618 589 652 630 Q682 667 682 724 Q682 886 468 886 Q407 886 364.5 872.5 Q322 859 279 825 Q349 822 376 799 Q413 769 413 712 Q413 655 373.5 619 Q334 583 270 583 Q199 583 154 627.5 Q109 672 109 743 Q109 864 225 931 Q337 996 504 996 Q720 996 820 923 Q881 878 900.5 821 Q920 764 920 631 L920 205 Q920 132 969 132 Q1014 132 1023 207 Q1029 249 1030 359 L1154 359 Q1151 161 1124 97 Q1068 -36 900 -36 Q810 -36 760.5 -1.5 Q711 33 681 116 Z M675 503 Q603 466 472 414 Q334 360 334 252 Q334 134 459 134 Q552 134 612 196 Q646 231 660.5 274.5 Q675 318 675 386 L675 503 Z M372 1106 L648 1400 Q698 1453 732 1474 Q766 1495 802 1495 Q848 1495 879.5 1463.5 Q911 1432 911 1386 Q911 1318 808 1267 L484 1106 L372 1106 Z " />
<glyph glyph-name="agrave" unicode="&#xe0;" horiz-adv-x="1159" d="M681 116 Q614 40 562 11 Q476 -36 353 -36 Q224 -36 146 33 Q60 110 60 226 Q60 391 213 467 Q304 513 504 561 Q618 589 652 630 Q682 667 682 724 Q682 886 468 886 Q407 886 364.5 872.5 Q322 859 279 825 Q349 822 376 799 Q413 769 413 712 Q413 655 373.5 619 Q334 583 270 583 Q199 583 154 627.5 Q109 672 109 743 Q109 864 225 931 Q337 996 504 996 Q720 996 820 923 Q881 878 900.5 821 Q920 764 920 631 L920 205 Q920 132 969 132 Q1014 132 1023 207 Q1029 249 1030 359 L1154 359 Q1151 161 1124 97 Q1068 -36 900 -36 Q810 -36 760.5 -1.5 Q711 33 681 116 Z M675 503 Q603 466 472 414 Q334 360 334 252 Q334 134 459 134 Q552 134 612 196 Q646 231 660.5 274.5 Q675 318 675 386 L675 503 Z M739 1106 L626 1106 L302 1267 Q199 1319 199 1387 Q199 1433 230.5 1464 Q262 1495 309 1495 Q373 1495 463 1400 L739 1106 Z " />
<glyph glyph-name="acircumflex" unicode="&#xe2;" horiz-adv-x="1159" d="M681 116 Q614 40 562 11 Q476 -36 353 -36 Q224 -36 146 33 Q60 110 60 226 Q60 391 213 467 Q304 513 504 561 Q618 589 652 630 Q682 667 682 724 Q682 886 468 886 Q407 886 364.5 872.5 Q322 859 279 825 Q349 822 376 799 Q413 769 413 712 Q413 655 373.5 619 Q334 583 270 583 Q199 583 154 627.5 Q109 672 109 743 Q109 864 225 931 Q337 996 504 996 Q720 996 820 923 Q881 878 900.5 821 Q920 764 920 631 L920 205 Q920 132 969 132 Q1014 132 1023 207 Q1029 249 1030 359 L1154 359 Q1151 161 1124 97 Q1068 -36 900 -36 Q810 -36 760.5 -1.5 Q711 33 681 116 Z M675 503 Q603 466 472 414 Q334 360 334 252 Q334 134 459 134 Q552 134 612 196 Q646 231 660.5 274.5 Q675 318 675 386 L675 503 Z M227 1106 L454 1474 L638 1474 L864 1106 L765 1106 L545 1276 L326 1106 L227 1106 Z " />
<glyph glyph-name="adieresis" unicode="&#xe4;" horiz-adv-x="1159" d="M681 116 Q614 40 562 11 Q476 -36 353 -36 Q224 -36 146 33 Q60 110 60 226 Q60 391 213 467 Q304 513 504 561 Q618 589 652 630 Q682 667 682 724 Q682 886 468 886 Q407 886 364.5 872.5 Q322 859 279 825 Q349 822 376 799 Q413 769 413 712 Q413 655 373.5 619 Q334 583 270 583 Q199 583 154 627.5 Q109 672 109 743 Q109 864 225 931 Q337 996 504 996 Q720 996 820 923 Q881 878 900.5 821 Q920 764 920 631 L920 205 Q920 132 969 132 Q1014 132 1023 207 Q1029 249 1030 359 L1154 359 Q1151 161 1124 97 Q1068 -36 900 -36 Q810 -36 760.5 -1.5 Q711 33 681 116 Z M675 503 Q603 466 472 414 Q334 360 334 252 Q334 134 459 134 Q552 134 612 196 Q646 231 660.5 274.5 Q675 318 675 386 L675 503 Z M338 1432 Q396 1432 437 1390 Q478 1348 478 1288 Q478 1229 437.5 1188 Q397 1147 339 1147 Q277 1147 235 1189 Q193 1231 193 1291 Q193 1347 236.5 1389.5 Q280 1432 338 1432 Z M725 1432 Q783 1432 824 1390 Q865 1348 865 1288 Q865 1229 824.5 1188 Q784 1147 726 1147 Q664 1147 622 1189 Q580 1231 580 1291 Q580 1347 623.5 1389.5 Q667 1432 725 1432 Z " />
<glyph glyph-name="atilde" unicode="&#xe3;" horiz-adv-x="1159" d="M681 116 Q614 40 562 11 Q476 -36 353 -36 Q224 -36 146 33 Q60 110 60 226 Q60 391 213 467 Q304 513 504 561 Q618 589 652 630 Q682 667 682 724 Q682 886 468 886 Q407 886 364.5 872.5 Q322 859 279 825 Q349 822 376 799 Q413 769 413 712 Q413 655 373.5 619 Q334 583 270 583 Q199 583 154 627.5 Q109 672 109 743 Q109 864 225 931 Q337 996 504 996 Q720 996 820 923 Q881 878 900.5 821 Q920 764 920 631 L920 205 Q920 132 969 132 Q1014 132 1023 207 Q1029 249 1030 359 L1154 359 Q1151 161 1124 97 Q1068 -36 900 -36 Q810 -36 760.5 -1.5 Q711 33 681 116 Z M675 503 Q603 466 472 414 Q334 360 334 252 Q334 134 459 134 Q552 134 612 196 Q646 231 660.5 274.5 Q675 318 675 386 L675 503 Z M300 1136 L217 1136 Q238 1226 259.5 1273 Q281 1320 317 1352 Q369 1400 447 1400 Q484 1400 526 1389 L646 1358 Q671 1351 693 1351 Q728 1351 747.5 1370 Q767 1389 785 1442 L867 1442 Q847 1360 830 1319 Q813 1278 785 1244 Q730 1179 639 1179 Q604 1179 572 1188 L456 1219 Q421 1229 392 1229 Q324 1229 300 1136 Z " />
<glyph glyph-name="aring" unicode="&#xe5;" horiz-adv-x="1159" d="M681 116 Q614 40 562 11 Q476 -36 353 -36 Q224 -36 146 33 Q60 110 60 226 Q60 391 213 467 Q304 513 504 561 Q618 589 652 630 Q682 667 682 724 Q682 886 468 886 Q407 886 364.5 872.5 Q322 859 279 825 Q349 822 376 799 Q413 769 413 712 Q413 655 373.5 619 Q334 583 270 583 Q199 583 154 627.5 Q109 672 109 743 Q109 864 225 931 Q337 996 504 996 Q720 996 820 923 Q881 878 900.5 821 Q920 764 920 631 L920 205 Q920 165 931 148.5 Q942 132 967 132 Q1014 132 1023 207 Q1029 249 1030 359 L1154 359 Q1151 161 1124 97 Q1068 -36 900 -36 Q810 -36 760.5 -1.5 Q711 33 681 116 Z M675 503 Q603 466 472 414 Q334 360 334 252 Q334 134 459 134 Q552 134 612 196 Q646 231 660.5 274.5 Q675 318 675 386 L675 503 Z M564 1592 Q672 1592 750 1515 Q828 1438 828 1328 Q828 1219 750 1141 Q674 1064 565 1064 Q453 1064 377 1141 Q300 1218 300 1334 Q300 1441 377 1515 Q458 1592 564 1592 Z M563 1461 Q509 1461 469.5 1422.5 Q430 1384 430 1330 Q430 1272 468.5 1233.5 Q507 1195 564 1195 Q619 1195 658 1233.5 Q697 1272 697 1328 Q697 1382 657.5 1421.5 Q618 1461 563 1461 Z " />
<glyph glyph-name="ccedilla" unicode="&#xe7;" horiz-adv-x="1047" d="M553 -36 L553 -115 Q601 -108 637 -108 Q708 -108 754.5 -156.5 Q801 -205 801 -278 Q801 -363 741 -413.5 Q681 -464 580 -464 Q448 -464 251 -372 L298 -271 Q426 -350 530 -350 Q619 -350 619 -277 Q619 -195 530 -195 Q507 -195 466 -203 L466 -30 Q332 -9 245 59 Q61 205 61 474 Q61 720 221 864 Q369 996 592 996 Q778 996 893 902 Q993 820 993 699 Q993 622 948.5 574 Q904 526 833 526 Q768 526 726.5 564 Q685 602 685 661 Q685 767 802 789 Q744 832 705 847 Q666 862 613 862 Q475 862 406 759 Q338 657 338 482 Q338 148 590 148 Q697 148 750.5 205 Q804 262 827 399 L984 399 Q961 -32 553 -36 Z " />
<glyph glyph-name="eacute" unicode="&#xe9;" horiz-adv-x="1088" d="M847 343 L1018 343 Q998 232 966.5 171.5 Q935 111 871 61 Q748 -36 559 -36 Q354 -36 223 82 Q61 228 61 477 Q61 729 226 877 Q360 996 566 996 Q797 996 913 852 Q981 768 1001 669 Q1019 582 1024 460 L339 460 Q346 364 360 313 Q374 262 403 219 Q467 127 596 127 Q705 127 766 179 Q816 222 847 343 Z M754 603 Q745 685 733 728 Q721 771 697 802 Q653 861 568 861 Q477 861 424.5 800 Q372 739 347 603 L754 603 Z M336 1106 L612 1400 Q702 1495 767 1495 Q813 1495 844.5 1463.5 Q876 1432 876 1386 Q876 1319 773 1267 L449 1106 L336 1106 Z " />
<glyph glyph-name="egrave" unicode="&#xe8;" horiz-adv-x="1088" d="M847 343 L1018 343 Q998 232 966.5 171.5 Q935 111 871 61 Q748 -36 559 -36 Q354 -36 223 82 Q61 228 61 477 Q61 729 226 877 Q360 996 566 996 Q797 996 913 852 Q981 768 1001 669 Q1019 582 1024 460 L339 460 Q346 364 360 313 Q374 262 403 219 Q467 127 596 127 Q705 127 766 179 Q816 222 847 343 Z M754 603 Q745 685 733 728 Q721 771 697 802 Q653 861 568 861 Q477 861 424.5 800 Q372 739 347 603 L754 603 Z M767 1106 L655 1106 L330 1267 Q227 1319 227 1387 Q227 1433 258.5 1464 Q290 1495 337 1495 Q401 1495 491 1400 L767 1106 Z " />
<glyph glyph-name="ecircumflex" unicode="&#xea;" horiz-adv-x="1088" d="M847 343 L1018 343 Q998 232 966.5 171.5 Q935 111 871 61 Q748 -36 559 -36 Q354 -36 223 82 Q61 228 61 477 Q61 729 226 877 Q360 996 566 996 Q797 996 913 852 Q981 768 1001 669 Q1019 582 1024 460 L339 460 Q346 364 360 313 Q374 262 403 219 Q467 127 596 127 Q705 127 766 179 Q816 222 847 343 Z M754 603 Q745 685 733 728 Q721 771 697 802 Q653 861 568 861 Q477 861 424.5 800 Q372 739 347 603 L754 603 Z M246 1106 L474 1474 L657 1474 L884 1106 L784 1106 L565 1276 L346 1106 L246 1106 Z " />
<glyph glyph-name="edieresis" unicode="&#xeb;" horiz-adv-x="1088" d="M847 343 L1018 343 Q998 232 966.5 171.5 Q935 111 871 61 Q748 -36 559 -36 Q354 -36 223 82 Q61 228 61 477 Q61 729 226 877 Q360 996 566 996 Q797 996 913 852 Q981 768 1001 669 Q1019 582 1024 460 L339 460 Q346 364 360 313 Q374 262 403 219 Q467 127 596 127 Q705 127 766 179 Q816 222 847 343 Z M754 603 Q745 685 733 728 Q721 771 697 802 Q653 861 568 861 Q477 861 424.5 800 Q372 739 347 603 L754 603 Z M353 1432 Q411 1432 452 1390 Q493 1348 493 1288 Q493 1229 452.5 1188 Q412 1147 354 1147 Q292 1147 250 1189 Q208 1231 208 1291 Q208 1347 251.5 1389.5 Q295 1432 353 1432 Z M740 1432 Q798 1432 839 1390 Q880 1348 880 1288 Q880 1229 839.5 1188 Q799 1147 741 1147 Q679 1147 637 1189 Q595 1231 595 1291 Q595 1347 638.5 1389.5 Q682 1432 740 1432 Z " />
<glyph glyph-name="iacute" unicode="&#xed;" horiz-adv-x="712" d="M182 1102 L348 1389 Q401 1481 472 1481 Q516 1481 543.5 1454.5 Q571 1428 571 1387 Q571 1327 478 1259 L263 1102 L182 1102 Z M51 0 L51 137 L125 137 Q198 137 220 159.5 Q242 182 242 258 L242 703 Q242 779 223 799 Q200 824 125 824 L51 824 L51 961 L490 961 L490 258 Q490 182 509 162 Q532 137 607 137 L668 137 L668 0 L51 0 Z " />
<glyph glyph-name="igrave" unicode="&#xec;" horiz-adv-x="712" d="M51 0 L51 137 L125 137 Q198 137 220 159.5 Q242 182 242 258 L242 703 Q242 779 223 799 Q200 824 125 824 L51 824 L51 961 L490 961 L490 258 Q490 182 509 162 Q532 137 607 137 L668 137 L668 0 L51 0 Z M458 1102 L377 1102 L162 1259 Q69 1327 69 1386 Q69 1426 97 1453 Q125 1480 167 1480 Q240 1480 293 1389 L458 1102 Z " />
<glyph glyph-name="icircumflex" unicode="&#xee;" horiz-adv-x="712" d="M48 1101 L240 1464 L424 1464 L616 1101 L520 1101 L332 1290 L143 1101 L48 1101 Z M50 0 L50 137 L124 137 Q197 137 219 159.5 Q241 182 241 258 L241 703 Q241 779 222 799 Q198 824 124 824 L50 824 L50 961 L489 961 L489 258 Q489 182 508 162 Q532 137 607 137 L668 137 L668 0 L50 0 Z " />
<glyph glyph-name="idieresis" unicode="&#xef;" horiz-adv-x="712" d="M51 0 L51 137 L125 137 Q198 137 220 159.5 Q242 182 242 258 L242 703 Q242 779 223 799 Q200 824 125 824 L51 824 L51 961 L490 961 L490 258 Q490 182 509 162 Q533 137 607 137 L668 137 L668 0 L51 0 Z M155 1432 Q213 1432 254 1390 Q295 1348 295 1288 Q295 1229 254.5 1188 Q214 1147 156 1147 Q94 1147 52 1189 Q10 1231 10 1291 Q10 1347 53.5 1389.5 Q97 1432 155 1432 Z M522 1432 Q580 1432 621 1390 Q662 1348 662 1288 Q662 1229 621.5 1188 Q581 1147 523 1147 Q461 1147 419 1189 Q377 1231 377 1291 Q377 1347 420.5 1389.5 Q464 1432 522 1432 Z " />
<glyph glyph-name="ntilde" unicode="&#xf1;" horiz-adv-x="1332" d="M51 0 L51 137 L117 137 Q191 137 212.5 159.5 Q234 182 234 258 L234 703 Q234 780 215 799 Q191 824 117 824 L51 824 L51 961 L479 961 L479 792 Q573 902 636 939 Q725 992 825 992 Q892 992 954 969.5 Q1016 947 1054 908 Q1092 869 1108 807.5 Q1124 746 1124 637 L1124 258 Q1124 181 1143 162 Q1167 137 1241 137 L1299 137 L1299 0 L721 0 L721 137 L762 137 Q835 137 857 159.5 Q879 182 879 258 L879 637 Q879 700 873 729.5 Q867 759 850 781 Q809 835 727 835 Q614 835 537 735 Q504 691 491.5 642 Q479 593 479 507 L479 258 Q479 182 498 162 Q522 137 596 137 L637 137 L637 0 L51 0 Z M424 1136 L342 1136 Q362 1226 384 1273 Q406 1320 441 1352 Q494 1400 571 1400 Q608 1400 650 1389 L770 1358 Q795 1351 817 1351 Q852 1351 871.5 1370 Q891 1389 909 1442 L991 1442 Q972 1360 955 1319 Q938 1278 909 1244 Q854 1179 763 1179 Q729 1179 697 1188 L580 1219 Q545 1229 516 1229 Q449 1229 424 1136 Z " />
<glyph glyph-name="oacute" unicode="&#xf3;" horiz-adv-x="1200" d="M601 996 Q833 996 981 866 Q1143 722 1143 480 Q1143 240 981 95 Q834 -35 604 -35 Q367 -35 220 95 Q58 239 58 488 Q58 726 220 866 Q371 996 601 996 Z M600 852 Q336 852 336 486 Q336 290 405 196 Q469 109 601 109 Q865 109 865 480 Q865 852 600 852 Z M392 1106 L669 1400 Q758 1495 823 1495 Q869 1495 900.5 1463.5 Q932 1432 932 1386 Q932 1319 829 1267 L505 1106 L392 1106 Z " />
<glyph glyph-name="ograve" unicode="&#xf2;" horiz-adv-x="1200" d="M601 996 Q833 996 981 866 Q1143 722 1143 480 Q1143 240 981 95 Q834 -35 604 -35 Q367 -35 220 95 Q58 239 58 488 Q58 726 220 866 Q371 996 601 996 Z M600 852 Q336 852 336 486 Q336 290 405 196 Q469 109 601 109 Q865 109 865 480 Q865 852 600 852 Z M823 1106 L711 1106 L386 1267 Q284 1318 284 1387 Q284 1433 315.5 1464 Q347 1495 393 1495 Q457 1495 547 1400 L823 1106 Z " />
<glyph glyph-name="ocircumflex" unicode="&#xf4;" horiz-adv-x="1200" d="M601 996 Q833 996 981 866 Q1143 722 1143 480 Q1143 240 981 95 Q834 -35 604 -35 Q367 -35 220 95 Q58 239 58 488 Q58 726 220 866 Q371 996 601 996 Z M600 852 Q336 852 336 486 Q336 290 405 196 Q469 109 601 109 Q865 109 865 480 Q865 852 600 852 Z M303 1106 L530 1474 L714 1474 L941 1106 L841 1106 L621 1276 L402 1106 L303 1106 Z " />
<glyph glyph-name="odieresis" unicode="&#xf6;" horiz-adv-x="1200" d="M604 996 Q836 996 984 866 Q1146 722 1146 480 Q1146 240 984 95 Q837 -35 607 -35 Q370 -35 223 95 Q61 239 61 488 Q61 726 223 866 Q374 996 604 996 Z M603 852 Q339 852 339 486 Q339 290 408 196 Q472 109 604 109 Q868 109 868 480 Q868 852 603 852 Z M424 1432 Q482 1432 523 1390 Q564 1348 564 1288 Q564 1229 523.5 1188 Q483 1147 425 1147 Q363 1147 321 1189 Q279 1231 279 1291 Q279 1347 322.5 1389.5 Q366 1432 424 1432 Z M811 1432 Q869 1432 910 1390 Q951 1348 951 1288 Q951 1229 910.5 1188 Q870 1147 812 1147 Q750 1147 708 1188.5 Q666 1230 666 1291 Q666 1347 709.5 1389.5 Q753 1432 811 1432 Z " />
<glyph glyph-name="otilde" unicode="&#xf5;" horiz-adv-x="1200" d="M601 996 Q833 996 981 866 Q1143 722 1143 480 Q1143 240 981 95 Q834 -35 604 -35 Q367 -35 220 95 Q58 239 58 488 Q58 726 220 866 Q371 996 601 996 Z M600 852 Q336 852 336 486 Q336 290 405 196 Q469 109 601 109 Q865 109 865 480 Q865 852 600 852 Z M359 1136 L276 1136 Q296 1226 318 1273 Q340 1320 375 1352 Q428 1400 505 1400 Q543 1400 584 1389 L704 1358 Q729 1351 751 1351 Q787 1351 806 1370 Q825 1389 843 1442 L925 1442 Q906 1360 889 1319 Q872 1278 843 1244 Q788 1179 698 1179 Q663 1179 631 1188 L514 1219 Q479 1229 450 1229 Q383 1229 359 1136 Z " />
<glyph glyph-name="uacute" unicode="&#xfa;" horiz-adv-x="1322" d="M51 824 L51 961 L460 961 L460 323 Q460 259 465.5 230.5 Q471 202 489 180 Q529 126 611 126 Q725 126 801 226 Q834 269 847 319.5 Q860 370 860 453 L860 702 Q860 779 841 799 Q818 824 743 824 L648 824 L648 961 L1105 961 L1105 258 Q1105 182 1124 162 Q1147 137 1222 137 L1275 137 L1275 0 L860 0 L860 169 Q766 59 703 22 Q613 -31 513 -31 Q447 -31 385 -8.5 Q323 14 285 52 Q247 92 231 153 Q215 214 215 323 L215 702 Q215 779 196 799 Q173 824 98 824 L51 824 Z M453 1106 L730 1400 Q819 1495 884 1495 Q930 1495 961.5 1463.5 Q993 1432 993 1386 Q993 1319 890 1267 L566 1106 L453 1106 Z " />
<glyph glyph-name="ugrave" unicode="&#xf9;" horiz-adv-x="1322" d="M51 824 L51 961 L460 961 L460 323 Q460 259 465.5 230.5 Q471 202 489 180 Q529 126 611 126 Q725 126 801 226 Q834 269 847 319.5 Q860 370 860 453 L860 702 Q860 779 841 799 Q818 824 743 824 L648 824 L648 961 L1105 961 L1105 258 Q1105 182 1124 162 Q1147 137 1222 137 L1275 137 L1275 0 L860 0 L860 169 Q766 59 703 22 Q613 -31 513 -31 Q447 -31 385 -8.5 Q323 14 285 52 Q247 92 231 153 Q215 214 215 323 L215 702 Q215 779 196 799 Q173 824 98 824 L51 824 Z M821 1106 L708 1106 L384 1267 Q281 1319 281 1387 Q281 1433 312.5 1464 Q344 1495 390 1495 Q455 1495 544 1400 L821 1106 Z " />
<glyph glyph-name="ucircumflex" unicode="&#xfb;" horiz-adv-x="1322" d="M51 824 L51 961 L460 961 L460 323 Q460 259 465.5 230.5 Q471 202 489 180 Q529 126 611 126 Q725 126 801 226 Q834 269 847 319.5 Q860 370 860 453 L860 702 Q860 779 841 799 Q818 824 743 824 L648 824 L648 961 L1105 961 L1105 258 Q1105 182 1124 162 Q1147 137 1222 137 L1275 137 L1275 0 L860 0 L860 169 Q766 59 703 22 Q613 -31 513 -31 Q447 -31 385 -8.5 Q323 14 285 52 Q247 92 231 153 Q215 214 215 323 L215 702 Q215 779 196 799 Q173 824 98 824 L51 824 Z M342 1106 L570 1474 L753 1474 L980 1106 L880 1106 L661 1276 L442 1106 L342 1106 Z " />
<glyph glyph-name="udieresis" unicode="&#xfc;" horiz-adv-x="1322" d="M51 824 L51 961 L460 961 L460 323 Q460 259 465.5 230.5 Q471 202 489 180 Q529 126 611 126 Q725 126 801 226 Q834 269 847 319.5 Q860 370 860 453 L860 702 Q860 779 841 799 Q818 824 743 824 L648 824 L648 961 L1105 961 L1105 258 Q1105 182 1124 162 Q1147 137 1222 137 L1275 137 L1275 0 L860 0 L860 169 Q766 59 703 22 Q613 -31 513 -31 Q447 -31 385 -8.5 Q323 14 285 52 Q247 92 231 153 Q215 214 215 323 L215 702 Q215 779 196 799 Q173 824 98 824 L51 824 Z M470 1432 Q528 1432 569 1390 Q610 1348 610 1288 Q610 1229 569.5 1188 Q529 1147 471 1147 Q409 1147 367 1189 Q325 1231 325 1291 Q325 1347 368.5 1389.5 Q412 1432 470 1432 Z M857 1432 Q915 1432 956 1390 Q997 1348 997 1288 Q997 1229 956.5 1188 Q916 1147 858 1147 Q796 1147 754 1189 Q712 1231 712 1291 Q712 1347 755.5 1389.5 Q799 1432 857 1432 Z " />
<glyph glyph-name="dagger" unicode="&#x2020;" horiz-adv-x="1210" d="M662 826 Q745 837 820 861 Q927 894 987 894 Q1046 894 1076 867 Q1109 837 1109 788 Q1109 737 1077 709 Q1045 681 987 681 Q926 681 820 714 Q744 738 662 749 Q662 507 673.5 329.5 Q685 152 722 -178 Q728 -231 728 -280 Q728 -438 604 -438 Q479 -438 479 -280 Q479 -233 501 -38 Q542 335 549 749 Q467 738 391 714 Q285 681 224 681 Q165 681 135 708 Q102 738 102 788 Q102 838 134 866 Q166 894 224 894 Q284 894 391 861 Q466 837 549 826 Q544 938 535 998 Q526 1058 495 1191 Q481 1250 481 1287 Q481 1341 514.5 1373 Q548 1405 606 1405 Q663 1405 696.5 1373.5 Q730 1342 730 1287 Q730 1250 716 1191 Q685 1060 676 999 Q667 938 662 826 Z " />
<glyph glyph-name="degree" unicode="&#xb0;" horiz-adv-x="819" d="M416 1405 Q548 1405 636 1308 Q716 1221 716 1092 Q716 961 630 872 Q540 779 408 779 Q266 779 175 887 Q102 974 102 1094 Q102 1236 206 1325 Q298 1405 416 1405 Z M413 1288 Q333 1288 277 1234 Q217 1175 217 1091 Q217 1011 273.5 953.5 Q330 896 409 896 Q488 896 541 949 Q599 1008 599 1092 Q599 1170 548 1227 Q492 1288 413 1288 Z " />
<glyph glyph-name="cent" unicode="&#xa2;" horiz-adv-x="1271" d="M296 -203 L421 44 Q334 96 291 136.5 Q248 177 218 234 Q153 356 153 511 Q153 707 258 839 Q411 1032 690 1032 Q749 1032 792.5 1022.5 Q836 1013 907 985 L1000 1164 L1119 1164 L997 926 Q1049 866 1067 827.5 Q1085 789 1085 739 Q1085 659 1040 610 Q995 561 921 561 Q875 561 824 594 L616 190 Q665 183 696 183 Q806 183 864 268 Q900 321 919 435 L1078 435 Q1066 320 1046.5 258 Q1027 196 986 144 Q933 75 846 37 Q759 -1 656 -1 Q612 -1 525 10 L415 -203 L296 -203 Z M522 238 L796 767 Q823 797 839 806.5 Q855 816 894 824 Q835 867 796.5 882 Q758 897 705 897 Q566 897 498 794 Q430 693 430 520 Q430 414 449 355 Q468 296 522 238 Z " />
<glyph glyph-name="sterling" unicode="&#xa3;" horiz-adv-x="1271" d="M167 -29 L91 135 Q218 233 259 308 Q300 383 300 519 L300 555 L99 555 L99 675 L262 675 Q216 769 199 823.5 Q182 878 182 930 Q182 1030 250 1114 Q378 1274 670 1274 Q889 1274 1034 1174 Q1155 1091 1155 967 Q1155 880 1095 830 Q1047 791 983 791 Q918 791 874.5 830 Q831 869 831 929 Q831 974 854.5 1002.5 Q878 1031 936 1056 Q871 1109 826.5 1127.5 Q782 1146 716 1146 Q610 1146 546 1091 Q482 1034 482 954 Q482 897 521 798 L569 675 L826 675 L826 555 L583 555 Q575 368 408 264 L416 249 Q535 302 595 302 Q683 302 799 251 Q879 216 903 207.5 Q927 199 950 199 Q1009 199 1035.5 244 Q1062 289 1069 399 L1180 399 Q1181 375 1181 372 Q1181 275 1171.5 221 Q1162 167 1136 114 Q1062 -36 891 -36 Q841 -36 793.5 -22 Q746 -8 652 34 Q515 95 426 95 Q356 95 300 68 Q244 41 167 -29 Z " />
<glyph glyph-name="section" unicode="&#xa7;" horiz-adv-x="1210" d="M344 -266 Q412 -299 454 -310.5 Q496 -322 548 -322 Q680 -322 757.5 -264 Q835 -206 835 -106 Q835 -35 791 8 Q747 51 635 91 L471 148 Q285 213 204 272 Q91 354 91 501 Q91 608 151.5 681.5 Q212 755 347 811 Q260 873 228 916 Q174 989 174 1076 Q174 1145 209.5 1211.5 Q245 1278 305 1319 Q428 1405 625 1405 Q820 1405 933 1317 Q1010 1256 1010 1169 Q1010 1104 970.5 1061.5 Q931 1019 870 1019 Q812 1019 773 1057 Q733 1095 733 1144 Q733 1207 802 1261 Q700 1297 620 1297 Q511 1297 441 1251 Q368 1202 368 1122 Q368 1077 382.5 1050 Q397 1023 434 999 Q478 969 564 938 L817 844 Q961 790 1036 703 Q1108 620 1108 519 Q1108 399 1015 313 Q966 268 855 212 Q975 137 1010 71 Q1041 13 1041 -60 Q1041 -207 939 -306 Q804 -438 570 -438 Q386 -438 258 -353 Q145 -278 145 -170 Q145 -103 189 -57.5 Q233 -12 297 -12 Q358 -12 398 -48 Q438 -84 438 -139 Q438 -187 419 -212.5 Q400 -238 344 -266 Z M712 284 Q817 305 862 347 Q912 393 912 458 Q912 523 873.5 566 Q835 609 748 641 L489 737 Q389 724 340 681 Q283 632 283 561 Q283 504 314 468 Q345 432 422 401 L712 284 Z " />
<glyph glyph-name="bullet" unicode="&#x2022;" horiz-adv-x="1365" d="M686 983 Q799 983 881 900 Q964 816 964 697 Q964 578 881 494 Q799 411 683 411 Q566 411 484 494 Q401 578 401 696 Q401 818 484 900 Q568 983 686 983 Z " />
<glyph glyph-name="paragraph" unicode="&#xb6;" horiz-adv-x="1234" d="M455 -193 L455 653 Q435 652 429 652 Q284 652 182 732 Q61 826 61 1002 Q61 1122 121 1211 Q174 1289 273.5 1327 Q373 1365 526 1365 L1170 1365 L1170 1188 L1028 1188 L1028 -193 L833 -193 L833 1188 L649 1188 L649 -193 L455 -193 Z " />
<glyph glyph-name="germandbls" unicode="&#xdf;" horiz-adv-x="1281" d="M41 0 L41 136 L94 136 Q167 136 189 158.5 Q211 181 211 258 L211 961 Q211 1133 269 1223 Q383 1400 656 1400 Q841 1400 963 1328 Q1104 1244 1104 1099 Q1104 1008 1047 950.5 Q990 893 852 843 Q934 820 977.5 797.5 Q1021 775 1061 736 Q1172 626 1172 424 Q1172 215 1066 80 Q975 -35 815 -35 Q634 -35 581 109 Q558 171 558 314 Q558 320 558 347 L708 347 Q712 208 728.5 165.5 Q745 123 795 123 Q850 123 872 185 Q894 247 894 399 Q894 535 875 602 Q856 669 807 705 Q770 732 720 742 Q670 752 573 753 L573 898 Q722 904 770 937 Q837 982 837 1084 Q837 1175 777 1221 Q731 1256 659 1256 Q543 1256 494 1179 Q456 1120 456 991 L456 0 L41 0 Z " />
<glyph glyph-name="registered" unicode="&#xae;" horiz-adv-x="1620" d="M837 394 L837 294 L407 294 L407 394 L459 394 Q508 394 518.5 404 Q529 414 529 458 L529 908 Q529 952 518.5 961.5 Q508 971 459 971 L407 971 L407 1072 L878 1072 Q1172 1072 1172 881 Q1172 725 980 687 Q1048 671 1074 636.5 Q1100 602 1105 523 L1109 455 Q1112 420 1117.5 408.5 Q1123 397 1138 397 Q1156 397 1161 419 Q1166 441 1167 525 L1254 525 Q1255 502 1255 497 Q1255 401 1235 353 Q1202 272 1089 272 Q1014 272 975 310 Q934 350 931 419 L928 507 Q925 596 890 625 Q855 654 754 654 L706 654 L706 458 Q706 414 716.5 404 Q727 394 776 394 L837 394 Z M706 755 L835 755 Q916 755 952 780.5 Q988 806 988 863 Q988 923 953.5 947 Q919 971 832 971 L706 971 L706 755 Z M822 1394 Q1020 1394 1196 1289 Q1373 1184 1467 1006 Q1548 853 1548 682 Q1548 481 1440 311 Q1331 140 1148 49 Q990 -29 812 -29 Q606 -29 429 74 Q250 178 155 358 Q73 511 73 681 Q73 884 182 1057 Q289 1225 479 1318 Q636 1394 822 1394 Z M820 1278 Q563 1278 385 1105 Q206 932 206 681 Q206 513 296 369 Q386 226 539 150 Q668 86 811 86 Q981 86 1127 174 Q1271 262 1349 412 Q1414 539 1414 682 Q1414 850 1325 994 Q1238 1135 1086 1213 Q959 1278 820 1278 Z " />
<glyph glyph-name="copyright" unicode="&#xa9;" horiz-adv-x="1620" d="M1039 603 L1151 603 Q1141 515 1124.5 467.5 Q1108 420 1073 378 Q984 271 818 271 Q650 271 539 379 Q415 498 415 684 Q415 864 538 983 Q652 1095 811 1095 Q875 1095 921 1079.5 Q967 1064 1034 1019 L1055 1084 L1150 1084 L1150 758 L1049 758 Q1030 871 987 921 Q928 988 834 988 Q730 988 670 906 Q611 823 611 679 Q611 540 668 466 Q728 389 836 389 Q921 389 969 439.5 Q1017 490 1039 603 Z M822 1394 Q1020 1394 1196 1289 Q1373 1184 1467 1006 Q1548 853 1548 682 Q1548 481 1440 311 Q1331 140 1148 49 Q990 -29 812 -29 Q606 -29 429 74 Q250 178 155 358 Q73 511 73 681 Q73 884 182 1057 Q289 1225 479 1318 Q636 1394 822 1394 Z M820 1278 Q563 1278 385 1105 Q206 932 206 681 Q206 513 296 369 Q386 226 539 150 Q668 86 811 86 Q981 86 1127 174 Q1271 262 1349 412 Q1414 539 1414 682 Q1414 850 1325 994 Q1238 1135 1086 1213 Q959 1278 820 1278 Z " />
<glyph glyph-name="trademark" unicode="&#x2122;" horiz-adv-x="2047" d="M329 1267 Q264 1266 230 1252 Q196 1238 173 1204 Q141 1156 137 1035 L30 1035 L30 1365 L814 1365 L814 1035 L707 1035 Q702 1168 663 1216 Q640 1243 608 1254.5 Q576 1266 515 1267 L515 752 Q515 707 526 697.5 Q537 688 589 688 L666 688 L666 587 L178 587 L178 688 L255 688 Q307 688 318 697.5 Q329 707 329 752 L329 1267 Z M1585 587 L1585 688 L1646 688 Q1698 688 1709 697.5 Q1720 707 1720 751 L1720 1211 L1469 587 L1379 587 L1141 1220 L1141 751 Q1141 707 1152.5 697.5 Q1164 688 1215 688 L1271 688 L1271 587 L874 587 L874 688 L925 688 Q976 688 987.5 697.5 Q999 707 999 751 L999 1201 Q999 1245 988 1254.5 Q977 1264 925 1264 L874 1264 L874 1365 L1268 1365 L1445 881 L1642 1365 L2020 1365 L2020 1264 L1965 1264 Q1913 1264 1902 1254.5 Q1891 1245 1891 1201 L1891 751 Q1891 707 1902.5 697.5 Q1914 688 1965 688 L2020 688 L2020 587 L1585 587 Z " />
<glyph glyph-name="acute" unicode="&#xb4;" horiz-adv-x="1024" d="M304 1106 L580 1400 Q670 1495 735 1495 Q781 1495 812.5 1463.5 Q844 1432 844 1386 Q844 1319 741 1267 L417 1106 L304 1106 Z " />
<glyph glyph-name="dieresis" unicode="&#xa8;" horiz-adv-x="1024" d="M708 1432 Q765 1432 806.5 1390 Q848 1348 848 1290 Q848 1231 806.5 1189 Q765 1147 706 1147 Q646 1147 604.5 1189 Q563 1231 563 1291 Q563 1349 605.5 1390.5 Q648 1432 708 1432 Z M321 1432 Q378 1432 419.5 1390 Q461 1348 461 1290 Q461 1231 419.5 1189 Q378 1147 318 1147 Q259 1147 217.5 1189 Q176 1231 176 1291 Q176 1350 218 1391 Q260 1432 321 1432 Z " />
<glyph glyph-name="notequal" unicode="&#x2260;" horiz-adv-x="1124" d="M384 291 L31 291 L31 404 L440 404 L583 688 L31 688 L31 801 L640 801 L802 1125 L899 1075 L761 801 L1106 801 L1106 688 L704 688 L560 404 L1106 404 L1106 291 L503 291 L330 -51 L236 -2 L384 291 Z " />
<glyph glyph-name="AE" unicode="&#xc6;" horiz-adv-x="2247" d="M548 480 L448 289 Q406 209 406 190 Q406 155 494 155 L591 155 L591 0 L-30 0 L-30 155 L2 155 Q126 154 207 286 L638 1085 Q670 1144 670 1162 Q670 1190 644 1200 Q618 1210 547 1210 L451 1210 L451 1365 L2091 1365 L2091 823 L1936 823 Q1929 1021 1878 1109 Q1842 1173 1759 1195 Q1699 1210 1577 1210 L1251 1210 L1251 791 L1328 791 Q1479 792 1508 850 Q1527 883 1544 1039 L1699 1039 L1699 356 L1544 356 Q1536 467 1525 514.5 Q1514 562 1490 593 Q1471 617 1437 626 Q1403 635 1330 635 L1251 635 L1251 155 L1607 155 Q1750 155 1812 198 Q1866 236 1893.5 320 Q1921 404 1936 579 L2091 579 L2091 0 L739 0 L739 155 L835 155 Q927 155 949 178 Q970 200 970 281 L970 480 L548 480 Z M969 635 L969 1210 L928 1210 L631 635 L969 635 Z " />
<glyph glyph-name="Oslash" unicode="&#xd8;" horiz-adv-x="1647" d="M215 -65 L118 32 L259 186 Q184 288 151 357 Q71 522 71 701 Q71 912 180 1082 Q385 1403 824 1403 Q959 1403 1050 1377 Q1141 1351 1272 1274 L1420 1433 L1518 1336 L1380 1187 Q1461 1087 1493 1027 Q1573 876 1573 680 Q1573 351 1352 149 Q1147 -38 817 -38 Q677 -38 585 -10.5 Q493 17 364 97 L215 -65 Z M517 259 Q586 190 640 164 Q723 124 823 124 Q1032 124 1148 283 Q1253 428 1253 677 Q1253 768 1242 831 Q1231 894 1199 994 L517 259 Z M1121 1111 Q1034 1188 971.5 1214.5 Q909 1241 816 1241 Q611 1241 496 1082 Q391 935 391 703 Q391 567 441 382 L1121 1111 Z " />
<glyph glyph-name="infinity" unicode="&#x221e;" horiz-adv-x="1460" d="M731 620 Q903 848 1112 848 Q1255 848 1340 751 Q1409 671 1409 544 Q1409 414 1336 327 Q1258 235 1123 235 Q1026 235 923 295.5 Q820 356 731 466 Q687 412 668 393 Q524 236 342 236 Q212 236 129 325 Q53 406 53 539 Q53 686 147 771 Q233 848 350 848 Q550 848 731 620 Z M801 541 Q861 475 902 438 Q1006 342 1124 342 Q1224 342 1271 415 Q1307 470 1307 541 Q1307 639 1244 695 Q1192 742 1119 742 Q1037 742 952 688.5 Q867 635 801 541 Z M664 545 Q561 655 490 698.5 Q419 742 341 742 Q258 742 206.5 687.5 Q155 633 155 546 Q155 433 223 380 Q272 342 333 342 Q467 342 608 482 Q639 512 664 545 Z " />
<glyph glyph-name="plusminus" unicode="&#xb1;" horiz-adv-x="1124" d="M22 113 L1095 113 L1095 0 L22 0 L22 113 Z M618 1356 L618 866 L1103 866 L1103 753 L618 753 L618 264 L505 264 L505 753 L20 753 L20 866 L505 866 L505 1356 L618 1356 Z " />
<glyph glyph-name="lessequal" unicode="&#x2264;" horiz-adv-x="1124" d="M1077 113 L1077 0 L59 0 L59 113 L1077 113 Z M1077 1309 L1077 1181 L220 774 L1077 366 L1077 240 L59 716 L59 829 L1077 1309 Z " />
<glyph glyph-name="greaterequal" unicode="&#x2265;" horiz-adv-x="1124" d="M1077 113 L1077 0 L59 0 L59 113 L1077 113 Z M59 1309 L1077 829 L1077 716 L59 240 L59 366 L916 774 L59 1181 L59 1309 Z " />
<glyph glyph-name="yen" unicode="&#xa5;" horiz-adv-x="1481" d="M610 416 L250 416 L250 535 L599 535 L522 648 L236 648 L236 767 L441 767 L303 970 Q256 1041 216 1069 Q176 1097 124 1097 L63 1097 L63 1238 L719 1238 L719 1097 L628 1097 Q583 1097 565.5 1088 Q548 1079 548 1057 Q548 1033 573 998 L780 708 L1002 1008 Q1025 1039 1025 1062 Q1025 1097 960 1097 L851 1097 L851 1238 L1425 1238 L1425 1097 L1383 1097 Q1332 1097 1303 1080.5 Q1274 1064 1238 1015 L1054 767 L1243 767 L1243 648 L966 648 L882 535 L1230 535 L1230 416 L870 416 L870 255 Q870 181 889 161 Q908 141 992 141 L1100 141 L1100 0 L379 0 L379 141 L487 141 Q570 141 590 159.5 Q610 178 610 255 L610 416 Z " />
<glyph glyph-name="mu" unicode="&#xb5;" horiz-adv-x="1180" d="M905 1024 L904 268 Q904 153 950 109 Q978 83 1007 83 Q1043 83 1071.5 124 Q1100 165 1106 224 L1161 222 Q1142 118 1093 57 Q1025 -27 918 -27 Q822 -27 772 43 Q745 81 725 165 Q562 -27 409 -27 Q356 -27 313.5 -7 Q271 13 207 67 Q207 50 207 43 Q207 -24 230 -108 Q269 -246 269 -298 Q269 -370 239 -410 Q209 -449 170 -449 Q125 -449 96.5 -408 Q68 -367 68 -302 Q68 -250 103 -115 Q127 -25 127 42 L127 1024 L307 1024 L307 346 Q307 245 346 190 Q369 159 410 139 Q451 119 495 119 Q560 119 614.5 154 Q669 189 724 267 L722 1024 L905 1024 Z " />
<glyph glyph-name="partialdiff" unicode="&#x2202;" horiz-adv-x="1012" d="M134 1484 Q290 1542 398 1542 Q592 1542 737 1394 Q946 1180 946 825 Q946 645 900 461 Q854 277 784 173 Q652 -20 437 -20 Q285 -20 174 88 Q53 204 53 378 Q53 578 195 728 Q304 844 452 844 Q531 844 597 815 Q663 786 762 708 Q776 837 776 916 Q776 1052 746 1167 Q716 1282 663 1347 Q584 1445 449 1445 Q348 1445 219 1380 L134 1484 Z M749 639 Q685 703 638.5 727.5 Q592 752 534 752 Q396 752 307 605 Q231 479 231 326 Q231 214 268 137 Q314 43 412 43 Q501 43 579 126 Q645 195 681.5 306.5 Q718 418 749 639 Z " />
<glyph glyph-name="summation" unicode="&#x2211;" horiz-adv-x="1460" d="M361 1456 L746 698 L334 -23 L1007 -23 Q1168 -23 1239 9 Q1283 29 1312.5 66.5 Q1342 104 1371 178 L1424 178 L1313 -252 L29 -252 L524 583 L47 1540 L1274 1540 L1295 1202 L1241 1202 Q1226 1290 1205.5 1336 Q1185 1382 1149 1408 Q1082 1456 909 1456 L361 1456 Z " />
<glyph glyph-name="product" unicode="&#x220f;" horiz-adv-x="1686" d="M51 -254 L51 -200 L56 -200 Q164 -200 207 -137 Q226 -110 231.5 -77 Q237 -44 237 36 L237 1248 Q237 1328 231.5 1361 Q226 1394 207 1421 Q164 1484 56 1484 L51 1484 L51 1538 L1644 1538 L1644 1484 L1639 1484 Q1531 1484 1487 1421 Q1469 1394 1463.5 1361 Q1458 1328 1458 1248 L1458 36 Q1458 -44 1463.5 -77 Q1469 -110 1487 -137 Q1531 -200 1639 -200 L1644 -200 L1644 -254 L1050 -254 L1050 -200 L1056 -200 Q1164 -200 1207 -137 Q1226 -110 1231.5 -77 Q1237 -44 1237 36 L1237 1216 Q1237 1311 1229 1352.5 Q1221 1394 1199 1414 Q1171 1439 1118 1444.5 Q1065 1450 846 1450 Q629 1450 576 1444.5 Q523 1439 496 1414 Q474 1394 466 1353 Q458 1312 458 1216 L458 36 Q458 -44 463.5 -77 Q469 -110 487 -137 Q531 -200 639 -200 L645 -200 L645 -254 L51 -254 Z " />
<glyph glyph-name="pi" unicode="&#x3c0;" horiz-adv-x="1387" d="M1337 961 L1337 824 L1263 824 Q1190 824 1168 801.5 Q1146 779 1146 703 L1146 258 Q1146 182 1165 162 Q1188 137 1263 137 L1337 137 L1337 0 L748 0 L748 137 L780 137 Q854 137 876 159.5 Q898 182 898 258 L898 703 Q898 779 879 799 Q855 824 780 824 L608 824 Q534 824 512 801.5 Q490 779 490 703 L490 258 Q490 182 509 162 Q533 137 608 137 L640 137 L640 0 L51 0 L51 137 L125 137 Q198 137 220 159.5 Q242 182 242 258 L242 703 Q242 779 223 799 Q199 824 125 824 L51 824 L51 961 L1337 961 Z " />
<glyph glyph-name="integral" unicode="&#x222b;" horiz-adv-x="561" d="M368 1180 L368 476 Q368 121 317 -59 Q271 -219 126 -219 Q72 -219 38 -194.5 Q4 -170 4 -130 Q4 -101 25 -81.5 Q46 -62 76 -62 Q115 -62 139 -106 Q158 -142 182 -142 Q211 -142 228.5 -110 Q246 -78 246 -23 Q246 30 240 129 Q231 288 231 476 L231 1181 Q231 1537 282 1716 Q304 1792 354 1834 Q404 1876 473 1876 Q528 1876 561.5 1851 Q595 1826 595 1784 Q595 1756 574.5 1737 Q554 1718 523 1718 Q497 1718 481 1731 Q465 1744 439 1786 Q431 1799 413 1799 Q353 1799 353 1671 Q353 1623 359 1528 Q368 1382 368 1180 Z " />
<glyph glyph-name="ordfeminine" unicode="&#xaa;" horiz-adv-x="744" d="M433 735 Q389 688 343.5 669 Q298 650 230 650 Q146 650 95 692 Q38 740 38 811 Q38 892 99 936 Q160 980 323 1016 Q384 1029 407 1048.5 Q430 1068 430 1106 Q430 1194 302 1194 Q241 1194 202 1171 Q274 1161 274 1099 Q274 1062 247 1039 Q220 1016 177 1016 Q129 1016 98.5 1044 Q68 1072 68 1117 Q68 1187 138.5 1230 Q209 1273 324 1273 Q463 1273 527 1229 Q567 1201 580 1166 Q593 1131 593 1050 L593 799 Q593 764 617 764 Q635 764 642 788 Q649 812 649 873 Q649 879 649 897 L741 897 Q739 772 721 733 Q684 651 574 651 Q518 651 485.5 670 Q453 689 433 735 Z M425 964 Q386 946 307 916 Q225 885 225 826 Q225 764 297 764 Q358 764 391.5 801.5 Q425 839 425 906 L425 964 Z " />
<glyph glyph-name="ordmasculine" unicode="&#xba;" horiz-adv-x="769" d="M385 1273 Q534 1273 629 1195 Q733 1108 733 962 Q733 817 629 729 Q535 651 386 651 Q235 651 140 729 Q36 816 36 967 Q36 1110 140 1195 Q237 1273 385 1273 Z M384 1175 Q225 1175 225 965 Q225 749 385 749 Q544 749 544 962 Q544 1175 384 1175 Z " />
<glyph glyph-name="Omega" unicode="&#x2126;" horiz-adv-x="1573" d="M668 0 L70 0 L70 313 L119 313 Q131 246 164.5 215 Q198 184 261 184 L560 184 L553 262 Q454 297 389 339 Q272 415 206 531 Q139 649 139 782 Q139 922 215 1063 Q307 1236 476 1328 Q618 1405 789 1405 Q1089 1405 1281 1183 Q1355 1098 1397 991 Q1439 884 1439 782 Q1439 591 1310 444 Q1207 327 1025 262 L1018 184 L1317 184 Q1380 184 1413.5 215 Q1447 246 1459 313 L1508 313 L1508 0 L910 0 L946 316 Q1077 391 1150 536 Q1209 654 1209 782 Q1209 953 1124 1106 Q1071 1202 986 1258 Q899 1315 789 1315 Q637 1315 528 1206 Q457 1134 413 1017 Q369 900 369 782 Q369 638 440 511.5 Q511 385 632 316 L668 0 Z " />
<glyph glyph-name="ae" unicode="&#xe6;" horiz-adv-x="1729" d="M786 181 Q729 106 689 70 Q649 34 593 8 Q494 -39 378 -39 Q241 -39 152 29 Q58 99 58 224 Q58 372 183 449 Q278 506 541 562 Q642 583 683 618 Q724 653 724 719 Q724 800 664 843.5 Q604 887 493 887 Q435 887 390 874.5 Q345 862 274 825 Q344 822 371 799 Q408 769 408 712 Q408 655 368.5 619 Q329 583 265 583 Q194 583 149 627.5 Q104 672 104 743 Q104 867 224 933 Q340 996 507 996 Q621 996 704 970 Q787 944 884 877 Q979 947 1043.5 971.5 Q1108 996 1198 996 Q1411 996 1528 852 Q1596 768 1616 669 Q1633 581 1639 460 L953 460 Q957 366 969 315.5 Q981 265 1009 223 Q1072 127 1212 127 Q1316 127 1378 178 Q1431 222 1462 343 L1633 343 Q1615 245 1591 192 Q1567 139 1516 87 Q1452 21 1381 -5 Q1303 -35 1198 -35 Q1061 -35 973.5 11 Q886 57 786 181 Z M717 503 Q636 465 501 416 Q406 381 368 344.5 Q330 308 330 252 Q330 193 367 159.5 Q404 126 470 126 Q586 126 654 196 Q717 261 717 386 L717 503 Z M1369 603 Q1360 685 1347.5 728 Q1335 771 1312 803 Q1268 861 1176 861 Q1078 861 1029.5 802.5 Q981 744 962 603 L1369 603 Z " />
<glyph glyph-name="oslash" unicode="&#xf8;" horiz-adv-x="1200" d="M51 17 L175 142 Q106 246 82 314.5 Q58 383 58 481 Q58 722 220 866 Q367 996 599 996 Q694 996 761.5 977.5 Q829 959 934 904 L1062 1033 L1150 948 L1023 822 Q1095 721 1119 653 Q1143 585 1143 480 Q1143 240 981 95 Q835 -35 603 -35 Q500 -35 433 -16.5 Q366 2 265 59 L135 -72 L51 17 Z M403 197 Q462 145 503.5 127 Q545 109 606 109 Q866 109 866 486 Q866 557 849 645 L403 197 Z M796 766 Q737 817 695 835 Q653 853 594 853 Q466 853 400.5 759 Q335 665 335 480 Q335 409 351 319 L796 766 Z " />
<glyph glyph-name="questiondown" unicode="&#xbf;" horiz-adv-x="1017" d="M562 990 Q627 990 671.5 945.5 Q716 901 716 836 Q716 776 671 732 Q626 688 564 688 Q501 688 457 732 Q413 776 413 839 Q413 901 457 945.5 Q501 990 562 990 Z M625 568 Q627 518 627 491 Q627 400 595.5 336.5 Q564 273 469 171 Q382 78 362 40 Q332 -14 332 -75 Q332 -186 410 -245 Q484 -301 586 -301 Q687 -301 761 -238 Q798 -206 814.5 -169.5 Q831 -133 838 -64 Q775 -112 724 -112 Q669 -112 632 -74 Q595 -36 595 21 Q595 98 659 144 Q706 179 765 179 Q854 179 913.5 107 Q973 35 973 -73 Q973 -189 904 -281 Q775 -451 511 -451 Q283 -451 149 -324 Q41 -223 41 -77 Q41 53 141 152 Q191 201 358 321 Q433 375 461.5 426.5 Q490 478 495 568 L625 568 Z " />
<glyph glyph-name="exclamdown" unicode="&#xa1;" horiz-adv-x="631" d="M316 991 Q381 991 425.5 946.5 Q470 902 470 837 Q470 777 425 733 Q380 689 318 689 Q255 689 211 733 Q167 777 167 840 Q167 902 210.5 946.5 Q254 991 316 991 Z M381 566 Q397 337 438 -19 Q464 -246 464 -291 Q464 -451 314 -451 Q163 -451 163 -292 Q163 -243 192 -19 Q234 303 255 566 L381 566 Z " />
<glyph glyph-name="logicalnot" unicode="&#xac;" horiz-adv-x="1024" d="M713 0 L713 366 L68 366 L68 584 L955 584 L955 0 L713 0 Z " />
<glyph glyph-name="radical" unicode="&#x221a;" horiz-adv-x="1124" d="M743 -72 L247 944 L53 849 L20 919 L320 1065 L722 251 L983 1870 L1054 1859 L743 -72 Z " />
<glyph glyph-name="florin" unicode="&#x192;" horiz-adv-x="1244" d="M794 816 L677 76 Q612 -336 259 -336 Q142 -336 70 -286.5 Q-2 -237 -2 -156 Q-2 -78 44.5 -25.5 Q91 27 160 27 Q212 27 242.5 0.5 Q273 -26 273 -71 Q273 -170 167 -202 Q201 -231 249 -231 Q324 -231 360.5 -186.5 Q397 -142 415 -30 L549 816 L366 816 L388 957 L571 957 L576 989 Q641 1400 994 1400 Q1112 1400 1183.5 1350.5 Q1255 1301 1255 1220 Q1255 1142 1208.5 1089.5 Q1162 1037 1093 1037 Q1041 1037 1010.5 1063.5 Q980 1090 980 1136 Q980 1235 1086 1267 Q1052 1295 1004 1295 Q929 1295 892.5 1250.5 Q856 1206 838 1095 L816 957 L1024 957 L1002 816 L794 816 Z " />
<glyph glyph-name="approxequal" unicode="&#x2248;" horiz-adv-x="1124" d="M1003 514 L1080 445 Q986 270 789 270 Q740 270 709 277 Q678 284 555 322 Q417 363 388 370 Q359 377 326 377 Q265 377 227 353 Q189 329 118 248 L29 317 Q150 490 328 490 Q399 490 583 433 Q744 383 787 383 Q847 383 890 409 Q933 435 1003 514 Z M1003 836 L1080 767 Q986 592 789 592 Q740 592 708.5 599 Q677 606 555 644 Q416 685 387 692 Q358 699 326 699 Q265 699 227 675 Q189 651 118 570 L29 639 Q150 812 328 812 Q400 812 583 755 Q743 705 787 705 Q848 705 890 730.5 Q932 756 1003 836 Z " />
<glyph glyph-name="increment" unicode="&#x2206;" horiz-adv-x="1253" d="M12 0 L669 1408 L1245 0 L12 0 Z M157 105 L981 104 L593 1043 L157 105 Z " />
<glyph glyph-name="guillemotleft" unicode="&#xab;" horiz-adv-x="986" d="M311 147 L230 264 Q122 421 122 487 Q122 552 230 709 L311 826 L458 826 L400 689 Q340 547 340 486 Q340 426 400 285 L458 147 L311 147 Z M710 147 L629 264 Q521 421 521 487 Q521 552 629 709 L710 826 L857 826 L799 689 Q739 547 739 486 Q739 427 799 285 L857 147 L710 147 Z " />
<glyph glyph-name="guillemotright" unicode="&#xbb;" horiz-adv-x="986" d="M269 147 L122 147 L180 285 Q239 425 239 486 Q239 548 180 689 L122 826 L269 826 L349 709 Q458 552 458 487 Q458 421 349 264 L269 147 Z M668 147 L521 147 L579 285 Q639 427 639 486 Q639 546 579 689 L521 826 L668 826 L749 709 Q857 552 857 487 Q857 421 749 264 L668 147 Z " />
<glyph glyph-name="ellipsis" unicode="&#x2026;" horiz-adv-x="1892" d="M315 267 Q378 267 422 223 Q466 179 466 116 Q466 54 422 9.5 Q378 -35 316 -35 Q252 -35 207.5 9.5 Q163 54 163 119 Q163 180 208 223.5 Q253 267 315 267 Z M946 267 Q1009 267 1053 223 Q1097 179 1097 116 Q1097 54 1053 9.5 Q1009 -35 948 -35 Q883 -35 838.5 9.5 Q794 54 794 119 Q794 180 839 223.5 Q884 267 946 267 Z M1576 267 Q1639 267 1683 223 Q1727 179 1727 116 Q1727 54 1683 9.5 Q1639 -35 1577 -35 Q1513 -35 1468.5 9.5 Q1424 54 1424 119 Q1424 180 1469 223.5 Q1514 267 1576 267 Z " />
<glyph glyph-name="Agrave" unicode="&#xc0;" horiz-adv-x="1464" d="M-30 0 L-30 155 L13 155 Q92 155 129.5 182 Q167 209 194 286 L575 1365 L861 1365 L1268 288 Q1291 225 1300.5 207.5 Q1310 190 1329 176 Q1357 155 1432 155 L1473 155 L1473 0 L768 0 L768 155 L878 155 Q945 155 968.5 165.5 Q992 176 992 206 Q992 225 974 275 L915 435 L466 435 L405 263 Q390 220 390 201 Q390 173 411.5 164 Q433 155 499 155 L606 155 L606 0 L-30 0 Z M859 596 L683 1069 L522 596 L859 596 Z M809 1476 L527 1581 Q439 1614 439 1682 Q439 1721 467 1749.5 Q495 1778 533 1778 Q577 1778 638 1724 L920 1476 L809 1476 Z " />
<glyph glyph-name="Atilde" unicode="&#xc3;" horiz-adv-x="1464" d="M-30 0 L-30 155 L13 155 Q92 155 129.5 182 Q167 209 194 286 L575 1365 L861 1365 L1268 288 Q1291 225 1300.5 207.5 Q1310 190 1329 176 Q1357 155 1432 155 L1473 155 L1473 0 L768 0 L768 155 L878 155 Q945 155 968.5 165.5 Q992 176 992 206 Q992 225 974 275 L915 435 L466 435 L405 263 Q390 220 390 201 Q390 173 411.5 164 Q433 155 499 155 L606 155 L606 0 L-30 0 Z M859 596 L683 1069 L522 596 L859 596 Z M501 1476 L424 1476 Q442 1561 462 1604.5 Q482 1648 516 1678 Q566 1724 642 1724 Q677 1724 717 1713 L832 1683 Q854 1677 875 1677 Q910 1677 929 1694.5 Q948 1712 964 1758 L1042 1758 Q1026 1685 1010 1646.5 Q994 1608 965 1575 Q908 1511 826 1511 Q795 1511 762 1520 L650 1550 Q612 1560 588 1560 Q525 1560 501 1476 Z " />
<glyph glyph-name="Otilde" unicode="&#xd5;" horiz-adv-x="1647" d="M824 1403 Q1148 1403 1354 1216 Q1575 1015 1575 683 Q1575 351 1354 149 Q1149 -38 826 -38 Q499 -38 294 149 Q73 351 73 693 Q73 913 181 1082 Q289 1253 480 1337 Q629 1403 824 1403 Z M824 1241 Q615 1241 498 1082 Q393 938 393 691 Q393 552 418 456 Q443 360 498 283 Q614 124 825 124 Q1034 124 1150 283 Q1255 428 1255 682 Q1255 940 1150 1082 Q1031 1241 824 1241 Z M592 1476 L515 1476 Q534 1561 553.5 1604.5 Q573 1648 607 1678 Q657 1724 733 1724 Q768 1724 808 1713 L923 1683 Q945 1677 967 1677 Q1001 1677 1020 1694.5 Q1039 1712 1056 1758 L1133 1758 Q1117 1685 1101 1646.5 Q1085 1608 1056 1575 Q999 1511 917 1511 Q886 1511 853 1520 L741 1550 Q703 1560 679 1560 Q617 1560 592 1476 Z " />
<glyph glyph-name="OE" unicode="&#x152;" horiz-adv-x="2532" d="M2381 1365 L2381 822 L2226 822 Q2219 1020 2168 1109 Q2132 1173 2049 1195 Q1989 1210 1867 1210 L1540 1210 L1540 791 L1617 791 Q1696 791 1738 804.5 Q1780 818 1798 849 Q1817 882 1834 1039 L1989 1039 L1989 356 L1834 356 Q1826 467 1815 514.5 Q1804 562 1780 593 Q1760 618 1726.5 627 Q1693 636 1619 636 L1540 636 L1540 155 L1897 155 Q2040 155 2102 198 Q2155 236 2182.5 320.5 Q2210 405 2226 579 L2381 579 L2381 0 L1478 0 Q1371 0 1162 -20 Q964 -38 831 -38 Q501 -38 292 151 Q71 351 71 683 Q71 1014 292 1214 Q501 1403 832 1403 L1478 1365 L2381 1365 Z M1253 281 L1253 1085 Q1253 1149 1243.5 1170.5 Q1234 1192 1202 1206 Q1159 1224 1073.5 1236 Q988 1248 908 1248 Q672 1248 549 1138 Q391 996 391 683 Q391 117 905 117 Q994 117 1083.5 130.5 Q1173 144 1213 164 Q1237 176 1245 198.5 Q1253 221 1253 281 Z " />
<glyph glyph-name="oe" unicode="&#x153;" horiz-adv-x="1871" d="M996 137 Q921 56 857 23 Q744 -35 594 -35 Q370 -35 223 95 Q61 239 61 480 Q61 722 223 865 Q370 996 590 996 Q706 996 798 963 Q890 930 996 850 Q1081 923 1140 951 Q1238 996 1361 996 Q1584 996 1700 852 Q1769 768 1788 669 Q1806 582 1811 460 L1126 460 Q1129 367 1141 317 Q1153 267 1182 225 Q1249 125 1378 125 Q1484 125 1550 178 Q1603 221 1634 343 L1805 343 Q1787 245 1763 192 Q1739 139 1688 87 Q1570 -35 1379 -35 Q1225 -35 1114 32 Q1063 62 996 137 Z M603 852 Q339 852 339 486 Q339 290 408 196 Q472 109 604 109 Q868 109 868 480 Q868 852 603 852 Z M1542 603 Q1532 685 1520 728 Q1508 771 1484 803 Q1441 861 1346 861 Q1247 861 1201 804.5 Q1155 748 1134 603 L1542 603 Z " />
<glyph glyph-name="endash" unicode="&#x2013;" horiz-adv-x="1140" d="M61 402 L61 571 L1078 571 L1078 402 L61 402 Z " />
<glyph glyph-name="emdash" unicode="&#x2014;" horiz-adv-x="1453" d="M0 402 L0 571 L1453 571 L1453 402 L0 402 Z " />
<glyph glyph-name="quotedblleft" unicode="&#x201c;" horiz-adv-x="976" d="M912 1405 L912 1315 Q723 1264 719 1084 Q768 1115 808 1115 Q861 1115 895 1079.5 Q929 1044 929 988 Q929 925 886.5 885 Q844 845 777 845 Q691 845 637.5 905 Q584 965 584 1062 Q584 1196 673 1289 Q762 1382 912 1405 Z M430 1405 L430 1315 Q241 1264 237 1084 Q286 1115 326 1115 Q379 1115 413 1079.5 Q447 1044 447 988 Q447 924 404.5 884.5 Q362 845 295 845 Q209 845 155.5 905 Q102 965 102 1063 Q102 1196 191 1289 Q280 1382 430 1405 Z " />
<glyph glyph-name="quotedblright" unicode="&#x201d;" horiz-adv-x="976" d="M548 845 L548 935 Q737 986 741 1166 Q692 1135 652 1135 Q600 1135 566 1170.5 Q532 1206 532 1262 Q532 1326 574.5 1365.5 Q617 1405 684 1405 Q770 1405 823 1345 Q876 1285 876 1188 Q876 1054 787.5 961 Q699 868 548 845 Z M67 845 L67 935 Q256 986 260 1166 Q211 1135 171 1135 Q118 1135 84.5 1170.5 Q51 1206 51 1262 Q51 1326 93 1365.5 Q135 1405 203 1405 Q289 1405 342 1345 Q395 1285 395 1188 Q395 1054 306 961 Q217 868 67 845 Z " />
<glyph glyph-name="quoteleft" unicode="&#x2018;" horiz-adv-x="488" d="M430 1405 L430 1315 Q241 1264 237 1084 Q286 1115 326 1115 Q379 1115 413 1079.5 Q447 1044 447 988 Q447 924 404.5 884.5 Q362 845 295 845 Q209 845 155.5 905 Q102 965 102 1063 Q102 1196 191 1289 Q280 1382 430 1405 Z " />
<glyph glyph-name="quoteright" unicode="&#x2019;" horiz-adv-x="488" d="M67 845 L67 935 Q256 986 260 1166 Q211 1135 171 1135 Q118 1135 84.5 1170.5 Q51 1206 51 1262 Q51 1326 93 1365.5 Q135 1405 203 1405 Q289 1405 342 1345 Q395 1285 395 1188 Q395 1054 306 961 Q217 868 67 845 Z " />
<glyph glyph-name="divide" unicode="&#xf7;" horiz-adv-x="1124" d="M561 256 Q611 256 648 218.5 Q685 181 685 129 Q685 77 648 40 Q611 3 558 3 Q506 3 469 40 Q432 77 432 130 Q432 183 469.5 219.5 Q507 256 561 256 Z M561 1075 Q611 1075 648 1037.5 Q685 1000 685 949 Q685 896 648 859 Q611 822 558 822 Q506 822 469 859 Q432 896 432 949 Q432 1002 469.5 1038.5 Q507 1075 561 1075 Z M20 602 L1097 602 L1097 489 L20 489 L20 602 Z " />
<glyph glyph-name="lozenge" unicode="&#x25ca;" horiz-adv-x="1012" d="M427 -1 L37 771 L438 1515 L567 1515 L955 765 L551 -1 L427 -1 Z M491 118 L824 765 L503 1398 L165 770 L491 118 Z " />
<glyph glyph-name="ydieresis" unicode="&#xff;" horiz-adv-x="1190" d="M520 0 L207 701 Q177 769 143 796.5 Q109 824 56 824 L-5 824 L-5 961 L584 961 L584 824 L513 824 Q443 824 443 778 Q443 757 454 730 L644 286 L811 711 Q825 746 825 774 Q825 824 735 824 L680 824 L680 961 L1171 961 L1171 824 L1126 824 Q1078 824 1042.5 789.5 Q1007 755 976 678 L748 114 Q625 -190 541 -299 Q483 -372 422 -405 Q359 -438 275 -438 Q153 -438 73 -366 Q-10 -291 -10 -181 Q-10 -101 37 -51 Q84 0 158 0 Q219 0 258.5 -38 Q298 -76 298 -135 Q298 -255 148 -257 Q177 -286 198 -296 Q219 -306 251 -306 Q335 -306 391 -242 Q447 -178 520 0 Z M404 1432 Q462 1432 503 1390 Q544 1348 544 1288 Q544 1229 503.5 1188 Q463 1147 405 1147 Q343 1147 301 1189 Q259 1231 259 1291 Q259 1347 302.5 1389.5 Q346 1432 404 1432 Z M791 1432 Q849 1432 890 1390 Q931 1348 931 1288 Q931 1229 890.5 1188 Q850 1147 792 1147 Q730 1147 688 1189 Q646 1231 646 1291 Q646 1347 689.5 1389.5 Q733 1432 791 1432 Z " />
<glyph glyph-name="Ydieresis" unicode="&#x178;" horiz-adv-x="1495" d="M1144 155 L1144 0 L349 0 L349 155 L468 155 Q561 155 582 177 Q603 199 603 281 L603 571 L265 1070 Q212 1149 168.5 1179.5 Q125 1210 67 1210 L0 1210 L0 1365 L723 1365 L723 1210 L622 1210 Q574 1210 554.5 1200 Q535 1190 535 1166 Q535 1139 562 1101 L791 780 L1036 1112 Q1061 1146 1061 1171 Q1061 1210 989 1210 L869 1210 L869 1365 L1501 1365 L1501 1210 L1454 1210 Q1399 1210 1367 1192 Q1335 1174 1296 1120 L890 571 L890 281 Q890 199 911 177 Q933 155 1025 155 L1144 155 Z M603 1756 Q659 1756 700.5 1714 Q742 1672 742 1616 Q742 1560 701 1519 Q660 1478 604 1478 Q545 1478 504 1519 Q463 1560 463 1619 Q463 1673 505 1714.5 Q547 1756 603 1756 Z M985 1756 Q1041 1756 1082.5 1714 Q1124 1672 1124 1616 Q1124 1560 1083 1519 Q1042 1478 986 1478 Q927 1478 886 1519 Q845 1560 845 1619 Q845 1673 887.5 1714.5 Q930 1756 985 1756 Z " />
<glyph glyph-name="fraction" unicode="&#x2044;" horiz-adv-x="336" d="M-336 -35 L520 1274 L681 1274 L-181 -35 L-336 -35 Z " />
<glyph glyph-name="Euro" unicode="&#x20ac;" horiz-adv-x="1540" d="M212 727 L61 727 L112 848 L226 848 Q252 993 348 1123 Q452 1266 602 1339 Q736 1405 891 1405 Q1031 1405 1131 1359 Q1193 1331 1291 1264 L1330 1386 L1476 1386 L1476 828 L1320 828 Q1301 941 1278 1002 Q1255 1063 1210 1114 Q1104 1238 933 1238 Q687 1238 582 986 Q557 924 544 848 L1109 848 L1058 727 L532 727 Q530 699 530 673 Q530 656 531 637 L1019 637 L968 516 L543 516 Q558 421 593 353 Q641 257 729 203 Q821 146 936 146 Q1092 146 1188 251 Q1232 299 1256.5 358 Q1281 417 1303 528 L1476 528 Q1458 380 1430 299.5 Q1402 219 1343 146 Q1191 -40 906 -40 Q676 -40 508 79 Q284 237 227 516 L61 516 L112 637 L212 637 Q210 660 210 687 Q210 712 212 727 Z " />
<glyph glyph-name="guilsinglleft" unicode="&#x2039;" horiz-adv-x="590" d="M311 147 L230 264 Q122 421 122 487 Q122 552 230 709 L311 826 L458 826 L400 689 Q340 547 340 486 Q340 426 400 285 L458 147 L311 147 Z " />
<glyph glyph-name="guilsinglright" unicode="&#x203a;" horiz-adv-x="590" d="M269 147 L122 147 L180 285 Q240 427 240 486 Q240 546 180 689 L122 826 L269 826 L349 709 Q458 552 458 487 Q458 421 349 264 L269 147 Z " />
<glyph glyph-name="fi" unicode="&#xfb01;" horiz-adv-x="1332" d="M473 957 L1118 957 L1118 258 Q1118 182 1137 162 Q1161 137 1235 137 L1315 137 L1315 0 L715 0 L715 137 L756 137 Q829 137 851 159.5 Q873 182 873 258 L873 695 Q873 771 854 791 Q830 816 756 816 L473 816 L473 258 Q473 182 492 162 Q516 137 590 137 L630 137 L630 0 L30 0 L30 137 L111 137 Q184 137 206 159.5 Q228 182 228 258 L228 816 L30 816 L30 957 L228 957 L228 989 Q228 1117 255 1189 Q282 1261 348 1311 Q467 1401 697 1401 Q892 1401 1000 1339 Q1103 1280 1103 1172 Q1103 1110 1065.5 1075 Q1028 1040 962 1040 Q896 1040 857.5 1072 Q819 1104 819 1157 Q819 1201 858 1244 Q784 1276 716 1276 Q585 1276 529 1215.5 Q473 1155 473 1013 L473 957 Z " />
<glyph glyph-name="fl" unicode="&#xfb02;" horiz-adv-x="1332" d="M51 0 L51 137 L117 137 Q191 137 212.5 159.5 Q234 182 234 258 L234 816 L51 816 L51 957 L234 957 L234 989 Q234 1117 261.5 1189.5 Q289 1262 355 1311 Q476 1401 693 1401 Q810 1401 976 1365 L1124 1365 L1124 258 Q1124 181 1143 162 Q1167 137 1241 137 L1298 137 L1298 0 L721 0 L721 137 L762 137 Q836 137 857.5 159.5 Q879 182 879 258 L879 1060 Q848 1086 836.5 1106.5 Q825 1127 825 1158 Q825 1200 864 1244 Q793 1276 719 1276 Q590 1276 534.5 1215 Q479 1154 479 1013 L479 957 L754 957 L754 816 L479 816 L479 258 Q479 182 498 162 Q522 137 596 137 L637 137 L637 0 L51 0 Z " />
<glyph glyph-name="daggerdbl" unicode="&#x2021;" horiz-adv-x="1210" d="M477 484 Q547 659 549 815 Q466 804 391 781 Q285 748 224 748 Q164 748 135 774 Q102 805 102 854 Q102 905 134 932.5 Q166 960 224 960 Q284 960 391 927 Q465 904 549 893 Q544 982 537 1021 Q530 1060 495 1191 Q481 1243 481 1285 Q481 1341 514 1373 Q547 1405 605 1405 Q664 1405 697 1373 Q730 1341 730 1285 Q730 1243 691 1097 Q669 1015 662 893 Q746 904 820 927 Q927 960 987 960 Q1046 960 1076 933 Q1109 903 1109 854 Q1109 803 1077.5 775.5 Q1046 748 987 748 Q927 748 820 781 Q745 804 662 815 Q668 706 681 647 Q694 588 735 484 Q663 306 662 152 Q745 163 820 187 Q927 220 987 220 Q1046 220 1076 193 Q1109 163 1109 113 Q1109 62 1077 34.5 Q1045 7 987 7 Q927 7 820 40 Q746 64 662 75 Q667 -15 674.5 -54 Q682 -93 716 -224 Q730 -276 730 -318 Q730 -374 697 -406 Q664 -438 606 -438 Q547 -438 514 -406 Q481 -374 481 -318 Q481 -276 520 -130 Q542 -46 549 75 Q466 64 391 40 Q284 7 224 7 Q165 7 135 34 Q102 64 102 113 Q102 164 134 192 Q166 220 224 220 Q284 220 391 187 Q467 163 549 152 Q546 250 532 315 Q518 380 477 484 Z " />
<glyph glyph-name="periodcentered" unicode="&#xb7;" horiz-adv-x="631" d="M315 631 Q378 631 422 587 Q466 543 466 480 Q466 418 422 373.5 Q378 329 316 329 Q252 329 207.5 373.5 Q163 418 163 483 Q163 544 208 587.5 Q253 631 315 631 Z " />
<glyph glyph-name="quotesinglbase" unicode="&#x201a;" horiz-adv-x="488" d="M67 -293 L67 -203 Q256 -152 260 28 Q211 -3 171 -3 Q118 -3 84.5 32.5 Q51 68 51 124 Q51 188 93 227.5 Q135 267 203 267 Q289 267 342 207 Q395 147 395 50 Q395 -84 306 -177 Q217 -270 67 -293 Z " />
<glyph glyph-name="quotedblbase" unicode="&#x201e;" horiz-adv-x="976" d="M548 -293 L548 -203 Q737 -152 741 28 Q692 -3 652 -3 Q599 -3 565 32.5 Q531 68 531 124 Q531 187 573.5 227 Q616 267 683 267 Q769 267 822.5 207 Q876 147 876 50 Q876 -84 787.5 -176.5 Q699 -269 548 -293 Z M67 -293 L67 -203 Q257 -152 260 28 Q211 -3 171 -3 Q118 -3 84 32.5 Q50 68 50 124 Q50 188 92.5 227.5 Q135 267 202 267 Q288 267 341.5 207 Q395 147 395 49 Q395 -84 306.5 -176.5 Q218 -269 67 -293 Z " />
<glyph glyph-name="perthousand" unicode="&#x2030;" horiz-adv-x="2836" d="M450 1274 Q614 1274 723 1171 Q840 1061 840 882 Q840 702 723 592 Q615 489 451 489 Q285 489 177 592 Q61 702 61 887 Q61 1064 177 1171 Q289 1274 450 1274 Z M452 1145 Q370 1145 330 1080 Q290 1015 290 881 Q290 744 331 679 Q369 619 452 619 Q534 619 572 679 Q612 742 612 876 Q612 1021 572 1084 Q533 1145 452 1145 Z M1442 1274 L679 -35 L514 -35 L1278 1274 L1442 1274 Z M1506 749 Q1670 749 1779 646 Q1896 537 1896 357 Q1896 178 1779 67 Q1671 -35 1507 -35 Q1341 -35 1233 67 Q1117 178 1117 363 Q1117 539 1233 646 Q1345 749 1506 749 Z M1507 619 Q1345 619 1345 356 Q1345 219 1386 154 Q1424 94 1507 94 Q1589 94 1627 154 Q1667 217 1667 351 Q1667 495 1627 558 Q1588 619 1507 619 Z M2379 749 Q2543 749 2652 646 Q2769 537 2769 357 Q2769 178 2652 67 Q2544 -35 2380 -35 Q2214 -35 2106 67 Q1990 178 1990 363 Q1990 539 2106 646 Q2217 749 2379 749 Z M2380 619 Q2218 619 2218 356 Q2218 219 2259 154 Q2297 94 2380 94 Q2461 94 2500 154 Q2540 217 2540 351 Q2540 495 2500 558 Q2461 619 2380 619 Z " />
<glyph glyph-name="Acircumflex" unicode="&#xc2;" horiz-adv-x="1464" d="M-30 0 L-30 155 L13 155 Q92 155 129.5 182 Q167 209 194 286 L575 1365 L861 1365 L1268 288 Q1291 225 1300.5 207.5 Q1310 190 1329 176 Q1357 155 1432 155 L1473 155 L1473 0 L768 0 L768 155 L878 155 Q945 155 968.5 165.5 Q992 176 992 206 Q992 225 974 275 L915 435 L466 435 L405 263 Q390 220 390 201 Q390 173 411.5 164 Q433 155 499 155 L606 155 L606 0 L-30 0 Z M859 596 L683 1069 L522 596 L859 596 Z M417 1476 L614 1758 L851 1758 L1048 1476 L953 1476 L732 1589 L512 1476 L417 1476 Z " />
<glyph glyph-name="Ecircumflex" unicode="&#xca;" horiz-adv-x="1536" d="M51 0 L51 155 L130 155 Q222 155 244 178 Q265 199 265 281 L265 1085 Q265 1166 244 1187 Q222 1210 130 1210 L51 1210 L51 1365 L1393 1365 L1393 822 L1238 822 Q1231 1020 1180 1109 Q1144 1173 1061 1195 Q1001 1210 879 1210 L552 1210 L552 791 L629 791 Q708 791 750 804.5 Q792 818 810 849 Q829 882 845 1039 L1001 1039 L1001 356 L845 356 Q837 469 826.5 515.5 Q816 562 792 593 Q772 618 738.5 627 Q705 636 631 636 L552 636 L552 155 L909 155 Q1052 155 1114 198 Q1167 236 1194.5 320 Q1222 404 1238 579 L1393 579 L1393 0 L51 0 Z M452 1476 L649 1758 L886 1758 L1084 1476 L988 1476 L768 1589 L548 1476 L452 1476 Z " />
<glyph glyph-name="Aacute" unicode="&#xc1;" horiz-adv-x="1464" d="M-30 0 L-30 155 L13 155 Q92 155 129.5 182 Q167 209 194 286 L575 1365 L861 1365 L1268 288 Q1291 225 1300.5 207.5 Q1310 190 1329 176 Q1357 155 1432 155 L1473 155 L1473 0 L768 0 L768 155 L878 155 Q945 155 968.5 165.5 Q992 176 992 206 Q992 225 974 275 L915 435 L466 435 L405 263 Q390 220 390 201 Q390 173 411.5 164 Q433 155 499 155 L606 155 L606 0 L-30 0 Z M859 596 L683 1069 L522 596 L859 596 Z M659 1476 L548 1476 L830 1724 Q891 1778 935 1778 Q973 1778 1001 1749.5 Q1029 1721 1029 1682 Q1029 1614 941 1581 L659 1476 Z " />
<glyph glyph-name="Edieresis" unicode="&#xcb;" horiz-adv-x="1536" d="M51 0 L51 155 L130 155 Q222 155 244 178 Q265 199 265 281 L265 1085 Q265 1166 244 1187 Q222 1210 130 1210 L51 1210 L51 1365 L1393 1365 L1393 822 L1238 822 Q1231 1020 1180 1109 Q1144 1173 1061 1195 Q1001 1210 879 1210 L552 1210 L552 791 L629 791 Q708 791 750 804.5 Q792 818 810 849 Q829 882 845 1039 L1001 1039 L1001 356 L845 356 Q837 469 826.5 515.5 Q816 562 792 593 Q772 618 738.5 627 Q705 636 631 636 L552 636 L552 155 L909 155 Q1052 155 1114 198 Q1167 236 1194.5 320 Q1222 404 1238 579 L1393 579 L1393 0 L51 0 Z M578 1756 Q634 1756 675.5 1714 Q717 1672 717 1616 Q717 1560 676 1519 Q635 1478 579 1478 Q519 1478 478.5 1519 Q438 1560 438 1619 Q438 1673 480 1714.5 Q522 1756 578 1756 Z M959 1756 Q1015 1756 1056.5 1714 Q1098 1672 1098 1616 Q1098 1560 1057 1519 Q1016 1478 960 1478 Q901 1478 860 1519 Q819 1560 819 1619 Q819 1673 861.5 1714.5 Q904 1756 959 1756 Z " />
<glyph glyph-name="Egrave" unicode="&#xc8;" horiz-adv-x="1536" d="M51 0 L51 155 L130 155 Q222 155 244 178 Q265 199 265 281 L265 1085 Q265 1166 244 1187 Q222 1210 130 1210 L51 1210 L51 1365 L1393 1365 L1393 822 L1238 822 Q1231 1020 1180 1109 Q1144 1173 1061 1195 Q1001 1210 879 1210 L552 1210 L552 791 L629 791 Q708 791 750 804.5 Q792 818 810 849 Q829 882 845 1039 L1001 1039 L1001 356 L845 356 Q837 469 826.5 515.5 Q816 562 792 593 Q772 618 738.5 627 Q705 636 631 636 L552 636 L552 155 L909 155 Q1052 155 1114 198 Q1167 236 1194.5 320 Q1222 404 1238 579 L1393 579 L1393 0 L51 0 Z M844 1476 L562 1581 Q474 1614 474 1682 Q474 1721 502 1749.5 Q530 1778 568 1778 Q613 1778 674 1724 L955 1476 L844 1476 Z " />
<glyph glyph-name="Iacute" unicode="&#xcd;" horiz-adv-x="844" d="M54 0 L54 155 L141 155 Q233 155 255 177 Q276 199 276 281 L276 1084 Q276 1166 255 1187 Q233 1210 141 1210 L54 1210 L54 1365 L790 1365 L790 1210 L703 1210 Q611 1210 589 1187 Q568 1166 568 1084 L568 281 Q568 199 589 177 Q611 155 703 155 L790 155 L790 0 L54 0 Z M348 1476 L237 1476 L519 1724 Q580 1778 624 1778 Q662 1778 690 1749.5 Q718 1721 718 1682 Q718 1614 630 1581 L348 1476 Z " />
<glyph glyph-name="Icircumflex" unicode="&#xce;" horiz-adv-x="844" d="M54 0 L54 155 L141 155 Q233 155 255 177 Q276 199 276 281 L276 1084 Q276 1166 255 1187 Q233 1210 141 1210 L54 1210 L54 1365 L790 1365 L790 1210 L703 1210 Q611 1210 589 1187 Q568 1166 568 1084 L568 281 Q568 199 589 177 Q611 155 703 155 L790 155 L790 0 L54 0 Z M106 1476 L303 1758 L540 1758 L737 1476 L642 1476 L422 1589 L201 1476 L106 1476 Z " />
<glyph glyph-name="Idieresis" unicode="&#xcf;" horiz-adv-x="844" d="M54 0 L54 155 L141 155 Q233 155 255 177 Q276 199 276 281 L276 1084 Q276 1166 255 1187 Q233 1210 141 1210 L54 1210 L54 1365 L790 1365 L790 1210 L703 1210 Q611 1210 589 1187 Q568 1166 568 1084 L568 281 Q568 199 589 177 Q611 155 703 155 L790 155 L790 0 L54 0 Z M238 1756 Q294 1756 335.5 1714 Q377 1672 377 1616 Q377 1560 336 1519 Q295 1478 239 1478 Q180 1478 139 1519 Q98 1560 98 1619 Q98 1673 140 1714.5 Q182 1756 238 1756 Z M606 1756 Q662 1756 703.5 1714 Q745 1672 745 1616 Q745 1560 704 1519 Q663 1478 607 1478 Q548 1478 507 1519 Q466 1560 466 1619 Q466 1673 508.5 1714.5 Q551 1756 606 1756 Z " />
<glyph glyph-name="Igrave" unicode="&#xcc;" horiz-adv-x="844" d="M54 0 L54 155 L141 155 Q233 155 255 177 Q276 199 276 281 L276 1084 Q276 1166 255 1187 Q233 1210 141 1210 L54 1210 L54 1365 L790 1365 L790 1210 L703 1210 Q611 1210 589 1187 Q568 1166 568 1084 L568 281 Q568 199 589 177 Q611 155 703 155 L790 155 L790 0 L54 0 Z M498 1476 L216 1581 Q128 1614 128 1682 Q128 1721 156 1749.5 Q184 1778 222 1778 Q266 1778 327 1724 L609 1476 L498 1476 Z " />
<glyph glyph-name="Oacute" unicode="&#xd3;" horiz-adv-x="1647" d="M824 1403 Q1148 1403 1354 1216 Q1575 1015 1575 683 Q1575 351 1354 149 Q1149 -38 826 -38 Q499 -38 294 149 Q73 351 73 693 Q73 913 181 1082 Q289 1253 480 1337 Q629 1403 824 1403 Z M824 1241 Q615 1241 498 1082 Q393 938 393 691 Q393 552 418 456 Q443 360 498 283 Q614 124 825 124 Q1034 124 1150 283 Q1255 428 1255 682 Q1255 940 1150 1082 Q1031 1241 824 1241 Z M750 1476 L639 1476 L921 1724 Q982 1778 1026 1778 Q1064 1778 1092 1749.5 Q1120 1721 1120 1682 Q1120 1614 1032 1581 L750 1476 Z " />
<glyph glyph-name="Ocircumflex" unicode="&#xd4;" horiz-adv-x="1647" d="M824 1403 Q1148 1403 1354 1216 Q1575 1015 1575 683 Q1575 351 1354 149 Q1149 -38 826 -38 Q499 -38 294 149 Q73 351 73 693 Q73 913 181 1082 Q289 1253 480 1337 Q629 1403 824 1403 Z M824 1241 Q615 1241 498 1082 Q393 938 393 691 Q393 552 418 456 Q443 360 498 283 Q614 124 825 124 Q1034 124 1150 283 Q1255 428 1255 682 Q1255 940 1150 1082 Q1031 1241 824 1241 Z M508 1476 L705 1758 L942 1758 L1140 1476 L1044 1476 L824 1589 L603 1476 L508 1476 Z " />
<glyph glyph-name="Ograve" unicode="&#xd2;" horiz-adv-x="1647" d="M824 1403 Q1148 1403 1354 1216 Q1575 1015 1575 683 Q1575 351 1354 149 Q1149 -38 826 -38 Q499 -38 294 149 Q73 351 73 693 Q73 913 181 1082 Q289 1253 480 1337 Q629 1403 824 1403 Z M824 1241 Q615 1241 498 1082 Q393 938 393 691 Q393 552 418 456 Q443 360 498 283 Q614 124 825 124 Q1034 124 1150 283 Q1255 428 1255 682 Q1255 940 1150 1082 Q1031 1241 824 1241 Z M900 1476 L618 1581 Q530 1614 530 1682 Q530 1721 558 1749.5 Q586 1778 624 1778 Q668 1778 729 1724 L1011 1476 L900 1476 Z " />
<glyph glyph-name="Uacute" unicode="&#xda;" horiz-adv-x="1556" d="M41 1210 L41 1365 L751 1365 L751 1210 L663 1210 Q571 1210 549 1187 Q528 1166 528 1084 L528 431 Q528 346 542 302 Q556 258 592 227 Q670 161 802 161 Q940 161 1025 234 Q1063 266 1076 309 Q1091 358 1091 431 L1091 1084 Q1091 1166 1070 1187 Q1049 1210 957 1210 L877 1210 L877 1365 L1510 1365 L1510 1210 L1448 1210 Q1356 1210 1334 1187 Q1313 1166 1313 1084 L1313 431 Q1313 209 1190 94 Q1122 30 1022 -2 Q904 -40 775 -40 Q535 -40 384 76 Q307 135 276 214 Q241 304 241 431 L241 1084 Q241 1166 220 1187 Q198 1210 106 1210 L41 1210 Z M705 1476 L594 1476 L875 1724 Q936 1778 981 1778 Q1019 1778 1047 1749.5 Q1075 1721 1075 1682 Q1075 1614 986 1581 L705 1476 Z " />
<glyph glyph-name="Ucircumflex" unicode="&#xdb;" horiz-adv-x="1556" d="M41 1210 L41 1365 L751 1365 L751 1210 L663 1210 Q571 1210 549 1187 Q528 1166 528 1084 L528 431 Q528 346 542 302 Q556 258 592 227 Q670 161 802 161 Q940 161 1025 234 Q1063 266 1076 309 Q1091 358 1091 431 L1091 1084 Q1091 1166 1070 1187 Q1049 1210 957 1210 L877 1210 L877 1365 L1510 1365 L1510 1210 L1448 1210 Q1356 1210 1334 1187 Q1313 1166 1313 1084 L1313 431 Q1313 209 1190 94 Q1122 30 1022 -2 Q904 -40 775 -40 Q535 -40 384 76 Q307 135 276 214 Q241 304 241 431 L241 1084 Q241 1166 220 1187 Q198 1210 106 1210 L41 1210 Z M463 1476 L659 1758 L897 1758 L1094 1476 L998 1476 L778 1589 L558 1476 L463 1476 Z " />
<glyph glyph-name="Ugrave" unicode="&#xd9;" horiz-adv-x="1556" d="M41 1210 L41 1365 L751 1365 L751 1210 L663 1210 Q571 1210 549 1187 Q528 1166 528 1084 L528 431 Q528 346 542 302 Q556 258 592 227 Q670 161 802 161 Q940 161 1025 234 Q1063 266 1076 309 Q1091 358 1091 431 L1091 1084 Q1091 1166 1070 1187 Q1049 1210 957 1210 L877 1210 L877 1365 L1510 1365 L1510 1210 L1448 1210 Q1356 1210 1334 1187 Q1313 1166 1313 1084 L1313 431 Q1313 209 1190 94 Q1122 30 1022 -2 Q904 -40 775 -40 Q535 -40 384 76 Q307 135 276 214 Q241 304 241 431 L241 1084 Q241 1166 220 1187 Q198 1210 106 1210 L41 1210 Z M855 1476 L573 1581 Q484 1614 484 1682 Q484 1721 512 1749.5 Q540 1778 578 1778 Q623 1778 684 1724 L965 1476 L855 1476 Z " />
<glyph glyph-name="dotlessi" unicode="&#x131;" horiz-adv-x="712" d="M51 0 L51 137 L125 137 Q198 137 220 159.5 Q242 182 242 258 L242 703 Q242 779 223 799 Q200 824 125 824 L51 824 L51 961 L490 961 L490 258 Q490 182 509 162 Q532 137 607 137 L668 137 L668 0 L51 0 Z " />
<glyph glyph-name="circumflex" unicode="&#x2c6;" horiz-adv-x="1024" d="M193 1106 L420 1474 L604 1474 L831 1106 L731 1106 L512 1276 L293 1106 L193 1106 Z " />
<glyph glyph-name="tilde" unicode="&#x2dc;" horiz-adv-x="1024" d="M270 1136 L187 1136 Q208 1226 229.5 1273 Q251 1320 286 1352 Q339 1400 417 1400 Q454 1400 495 1389 L615 1358 Q640 1351 662 1351 Q698 1351 717 1370 Q736 1389 754 1442 L837 1442 Q817 1360 800 1319 Q783 1278 755 1244 Q700 1179 609 1179 Q574 1179 542 1188 L426 1219 Q391 1229 362 1229 Q294 1229 270 1136 Z " />
<glyph glyph-name="overscore" unicode="&#xaf;" horiz-adv-x="1024" d="M207 1205 L207 1373 L816 1373 L816 1205 L207 1205 Z " />
<glyph glyph-name="breve" unicode="&#x2d8;" horiz-adv-x="1024" d="M188 1442 L280 1442 Q309 1369 352 1347 Q410 1319 512 1319 Q613 1319 672 1347 Q717 1369 743 1442 L836 1442 Q819 1357 799.5 1311 Q780 1265 746 1229 Q657 1136 511 1136 Q368 1136 279 1229 Q244 1265 224.5 1311 Q205 1357 188 1442 Z " />
<glyph glyph-name="dotaccent" unicode="&#x2d9;" horiz-adv-x="1024" d="M514 1438 Q574 1438 617 1394.5 Q660 1351 660 1290 Q660 1229 616.5 1185.5 Q573 1142 512 1142 Q450 1142 407 1185.5 Q364 1229 364 1291 Q364 1352 408 1395 Q452 1438 514 1438 Z " />
<glyph glyph-name="ring" unicode="&#x2da;" horiz-adv-x="1024" d="M460 1462 Q403 1462 363.5 1423.5 Q324 1385 324 1330 Q324 1273 363 1234 Q402 1195 458 1195 Q513 1195 552 1234 Q591 1273 591 1329 Q591 1383 552 1422.5 Q513 1462 460 1462 Z M462 1592 Q575 1592 654 1505 Q722 1430 722 1328 Q722 1210 635 1132 Q559 1064 458 1064 Q340 1064 262 1151 Q194 1226 194 1330 Q194 1444 282 1524 Q356 1592 462 1592 Z " />
<glyph glyph-name="cedilla" unicode="&#xb8;" horiz-adv-x="1023" d="M284 -271 Q412 -350 516 -350 Q605 -350 605 -277 Q605 -195 516 -195 Q493 -195 452 -203 L452 0 L539 0 L539 -115 Q587 -108 623 -108 Q694 -108 740.5 -156.5 Q787 -205 787 -278 Q787 -363 727 -413.5 Q667 -464 566 -464 Q432 -464 237 -372 L284 -271 Z " />
<glyph glyph-name="hungarumlaut" unicode="&#x2dd;" horiz-adv-x="1024" d="M267 1106 L412 1375 Q449 1445 478 1470.5 Q507 1496 548 1496 Q586 1496 612.5 1469.5 Q639 1443 639 1406 Q639 1358 578 1304 L357 1106 L267 1106 Z M537 1106 L759 1392 Q807 1454 834.5 1474 Q862 1494 899 1494 Q939 1494 966.5 1466 Q994 1438 994 1398 Q994 1344 914 1293 L626 1106 L537 1106 Z " />
<glyph glyph-name="ogonek" unicode="&#x2db;" horiz-adv-x="1024" d="M650 30 Q587 -25 560 -56 Q486 -139 486 -233 Q486 -335 573 -335 Q606 -335 625.5 -322.5 Q645 -310 680 -266 L714 -287 Q627 -464 479 -464 Q400 -464 354.5 -423 Q309 -382 309 -311 Q309 -142 593 30 L650 30 Z " />
<glyph glyph-name="caron" unicode="&#x2c7;" horiz-adv-x="1024" d="M193 1473 L293 1473 L512 1303 L731 1473 L831 1473 L604 1106 L420 1106 L193 1473 Z " />
<glyph glyph-name="nbspace" unicode="&#xa0;" horiz-adv-x="512" d="" />
<glyph glyph-name="currency" unicode="&#xa4;" horiz-adv-x="1365" d="M65 272 L269 477 Q175 610 175 762 Q175 908 270 1045 L62 1252 L187 1378 L394 1171 Q536 1265 684 1265 Q832 1265 969 1173 L1174 1377 L1299 1252 L1095 1048 Q1192 903 1192 761 Q1192 617 1098 478 L1304 272 L1180 147 L975 352 Q835 256 685 256 Q542 256 394 351 L189 147 L65 272 Z M687 1060 Q559 1060 471 972 Q384 884 384 760 Q384 637 472 549 Q560 461 683 461 Q807 461 895 549 Q982 636 982 760 Q982 887 895 972 Q805 1060 687 1060 Z " />
<glyph glyph-name="brokenbar" unicode="&#xa6;" horiz-adv-x="1024" d="M387 1365 L637 1365 L637 659 L387 659 L387 1365 Z M387 314 L637 314 L637 -341 L387 -341 L387 314 Z " />
<glyph glyph-name="uni00AD" unicode="&#xad;" horiz-adv-x="551" d="M0 378 L0 595 L551 595 L551 378 L0 378 Z " />
<glyph glyph-name="twosuperior" unicode="&#xb2;" horiz-adv-x="803" d="M61 541 Q61 623 73 664.5 Q85 706 119 745 Q185 822 370 895 Q445 924 476.5 958.5 Q508 993 508 1045 Q508 1105 459.5 1142.5 Q411 1180 333 1180 Q276 1180 238.5 1159.5 Q201 1139 172 1092 Q202 1099 220 1099 Q256 1099 280 1077 Q304 1055 304 1022 Q304 982 275 957 Q246 932 201 932 Q148 932 113.5 966 Q79 1000 79 1051 Q79 1138 166 1199 Q253 1260 377 1260 Q535 1260 630 1186 Q702 1130 702 1034 Q702 946 644.5 897 Q587 848 453 821 Q320 793 265.5 764.5 Q211 736 170 673 Q229 703 271 703 Q319 703 444 680 Q526 665 546 665 Q597 665 618.5 691.5 Q640 718 649 795 L722 795 Q722 721 712.5 680.5 Q703 640 678 603 Q625 526 529 526 Q476 526 428 540.5 Q380 555 279 602 Q243 619 207 619 Q174 619 158.5 602 Q143 585 135 541 L61 541 Z " />
<glyph glyph-name="threesuperior" unicode="&#xb3;" horiz-adv-x="803" d="M172 661 Q213 630 249.5 618 Q286 606 339 606 Q425 606 476.5 642 Q528 678 528 739 Q528 779 509 810.5 Q490 842 458 855 Q413 875 315 875 L315 958 Q417 961 453 976 Q517 1003 517 1070 Q517 1123 474 1155 Q431 1187 359 1187 Q291 1187 217 1144 Q295 1132 295 1072 Q295 1036 267 1012.5 Q239 989 196 989 Q148 989 118 1015 Q88 1041 88 1082 Q88 1158 177 1209 Q266 1260 399 1260 Q526 1260 608 1217 Q701 1168 701 1079 Q701 1008 640 967 Q602 941 508 921 Q613 900 659 866 Q723 819 723 740 Q723 643 626.5 585 Q530 527 368 527 Q225 527 134 592 Q61 645 61 721 Q61 769 93.5 799.5 Q126 830 176 830 Q222 830 250 806 Q278 782 278 743 Q278 662 172 661 Z " />
<glyph glyph-name="onesuperior" unicode="&#xb9;" horiz-adv-x="803" d="M183 546 L183 628 L240 628 Q306 628 323.5 639.5 Q341 651 341 695 L341 1060 L183 1060 L183 1141 Q290 1150 329 1168.5 Q368 1187 406 1247 L510 1247 L510 693 Q510 649 524.5 638.5 Q539 628 599 628 L665 628 L665 546 L183 546 Z " />
<glyph glyph-name="onequarter" unicode="&#xbc;" horiz-adv-x="1942" d="M183 546 L183 628 L240 628 Q306 628 323.5 639.5 Q341 651 341 695 L341 1060 L183 1060 L183 1141 Q290 1150 329 1168.5 Q368 1187 406 1247 L510 1247 L510 693 Q510 649 524.5 638.5 Q539 628 599 628 L665 628 L665 546 L183 546 Z M468 -35 L1323 1274 L1485 1274 L623 -35 L468 -35 Z M1427 0 L1427 82 L1473 82 Q1537 82 1553 92.5 Q1569 103 1569 144 L1569 193 L1180 193 L1180 280 L1606 700 L1730 700 L1730 291 L1880 291 L1880 193 L1730 193 L1730 144 Q1730 108 1746.5 95 Q1763 82 1808 82 L1880 82 L1880 0 L1427 0 Z M1569 291 L1573 540 L1319 291 L1569 291 Z " />
<glyph glyph-name="onehalf" unicode="&#xbd;" horiz-adv-x="1942" d="M183 546 L183 628 L240 628 Q306 628 323.5 639.5 Q341 651 341 695 L341 1060 L183 1060 L183 1141 Q290 1150 329 1168.5 Q368 1187 406 1247 L510 1247 L510 693 Q510 649 524.5 638.5 Q539 628 599 628 L665 628 L665 546 L183 546 Z M468 -35 L1323 1274 L1485 1274 L623 -35 L468 -35 Z M1200 -5 Q1200 76 1211.5 118 Q1223 160 1257 199 Q1324 276 1509 348 Q1584 378 1615.5 412 Q1647 446 1647 498 Q1647 558 1598.5 595.5 Q1550 633 1472 633 Q1415 633 1377.5 613 Q1340 593 1311 546 Q1342 553 1360 553 Q1395 553 1419 531 Q1443 509 1443 476 Q1443 436 1414 411 Q1385 386 1340 386 Q1287 386 1252.5 419.5 Q1218 453 1218 505 Q1218 592 1305 652.5 Q1392 713 1517 713 Q1674 713 1769 639 Q1841 583 1841 487 Q1841 400 1784 351 Q1727 302 1592 274 Q1459 247 1404 218.5 Q1349 190 1309 127 Q1368 157 1410 157 Q1458 157 1582 134 Q1665 119 1685 119 Q1736 119 1757.5 145.5 Q1779 172 1788 249 L1861 249 Q1861 175 1851.5 134.5 Q1842 94 1817 57 Q1764 -20 1668 -20 Q1615 -20 1567.5 -5.5 Q1520 9 1418 56 Q1382 73 1346 73 Q1313 73 1297.5 56 Q1282 39 1274 -5 L1200 -5 Z " />
<glyph glyph-name="threequarters" unicode="&#xbe;" horiz-adv-x="1942" d="M172 661 Q213 630 249.5 618 Q286 606 339 606 Q425 606 476.5 642 Q528 678 528 739 Q528 779 509 810.5 Q490 842 458 855 Q413 875 315 875 L315 958 Q417 961 453 976 Q517 1003 517 1070 Q517 1123 474 1155 Q431 1187 359 1187 Q291 1187 217 1144 Q295 1132 295 1072 Q295 1036 267 1012.5 Q239 989 196 989 Q148 989 118 1015 Q88 1041 88 1082 Q88 1158 177 1209 Q266 1260 399 1260 Q526 1260 608 1217 Q701 1168 701 1079 Q701 1008 640 967 Q602 941 508 921 Q613 900 659 866 Q723 819 723 740 Q723 643 626.5 585 Q530 527 368 527 Q225 527 134 592 Q61 645 61 721 Q61 769 93.5 799.5 Q126 830 176 830 Q222 830 250 806 Q278 782 278 743 Q278 662 172 661 Z M468 -35 L1323 1274 L1485 1274 L623 -35 L468 -35 Z M1427 0 L1427 82 L1473 82 Q1537 82 1553 92.5 Q1569 103 1569 144 L1569 193 L1180 193 L1180 280 L1607 700 L1730 700 L1730 291 L1880 291 L1880 193 L1730 193 L1730 144 Q1730 108 1746 95 Q1762 82 1808 82 L1880 82 L1880 0 L1427 0 Z M1569 291 L1573 540 L1319 291 L1569 291 Z " />
<glyph glyph-name="Eth" unicode="&#xd0;" horiz-adv-x="1658" d="M54 0 L54 155 L133 155 Q225 155 247 178 Q268 199 268 281 L268 631 L0 631 L0 772 L268 772 L268 1084 Q268 1166 247 1187 Q225 1210 133 1210 L54 1210 L54 1365 L829 1365 Q1074 1365 1225 1290 Q1553 1128 1553 683 Q1553 341 1362 168 Q1255 71 1121 36 Q986 0 829 0 L54 0 Z M555 155 L732 155 Q936 155 1020 195 Q1135 251 1189 402 Q1233 524 1233 683 Q1233 962 1110 1101 Q1045 1175 948 1193 Q860 1210 732 1210 L555 1210 L555 772 L898 772 L898 631 L555 631 L555 155 Z " />
<glyph glyph-name="multiply" unicode="&#xd7;" horiz-adv-x="1161" d="M155 347 L448 641 L155 934 L287 1066 L580 773 L874 1066 L1005 934 L712 641 L1005 347 L874 216 L580 509 L287 216 L155 347 Z " />
<glyph glyph-name="Yacute" unicode="&#xdd;" horiz-adv-x="1495" d="M1144 155 L1144 0 L349 0 L349 155 L468 155 Q561 155 582 177 Q603 199 603 281 L603 571 L265 1070 Q212 1149 168.5 1179.5 Q125 1210 67 1210 L0 1210 L0 1365 L723 1365 L723 1210 L622 1210 Q574 1210 554.5 1200 Q535 1190 535 1166 Q535 1139 562 1101 L791 780 L1036 1112 Q1061 1146 1061 1171 Q1061 1210 989 1210 L869 1210 L869 1365 L1501 1365 L1501 1210 L1454 1210 Q1399 1210 1367 1192 Q1335 1174 1296 1120 L890 571 L890 281 Q890 199 911 177 Q933 155 1025 155 L1144 155 Z M674 1476 L563 1476 L845 1724 Q906 1778 950 1778 Q988 1778 1016 1749.5 Q1044 1721 1044 1682 Q1044 1614 956 1581 L674 1476 Z " />
<glyph glyph-name="Thorn" unicode="&#xde;" horiz-adv-x="1393" d="M51 0 L51 155 L130 155 Q222 155 244 178 Q265 199 265 281 L265 1084 Q265 1166 244 1187 Q222 1210 130 1210 L51 1210 L51 1365 L783 1365 L783 1210 L687 1210 Q595 1210 573 1187 Q552 1166 552 1084 L552 1071 L769 1071 Q913 1071 1012 1049 Q1111 1027 1182 980 Q1326 884 1326 690 Q1326 558 1255 466 Q1193 384 1081.5 353 Q970 322 741 322 L552 322 L552 281 Q552 199 573 178 Q595 155 687 155 L783 155 L783 0 L51 0 Z M552 477 L687 477 Q799 477 859.5 489 Q920 501 959 532 Q1027 586 1027 698 Q1027 852 899 896 Q839 916 671 916 L552 916 L552 477 Z " />
<glyph glyph-name="eth" unicode="&#xf0;" horiz-adv-x="1204" d="M453 1365 L614 1365 L648 1333 L681 1302 L867 1373 L917 1265 L762 1205 Q892 1055 968 949 Q1064 817 1106 706 Q1148 595 1148 475 Q1148 244 993 100 Q846 -35 608 -35 Q368 -35 218 101 Q63 243 63 481 Q63 718 218 860 Q364 994 584 994 Q648 994 709 978 Q688 1015 608 1136 L448 1070 L398 1178 L547 1237 Q490 1317 453 1365 Z M605 853 Q341 853 341 486 Q341 290 410 196 Q474 109 606 109 Q870 109 870 481 Q870 853 605 853 Z " />
<glyph glyph-name="yacute" unicode="&#xfd;" horiz-adv-x="1190" d="M520 0 L207 701 Q177 769 143 796.5 Q109 824 56 824 L-5 824 L-5 961 L584 961 L584 824 L513 824 Q443 824 443 778 Q443 757 454 730 L644 286 L811 711 Q825 746 825 774 Q825 824 735 824 L680 824 L680 961 L1171 961 L1171 824 L1126 824 Q1078 824 1042.5 789.5 Q1007 755 976 678 L748 114 Q625 -190 541 -299 Q483 -372 422 -405 Q359 -438 275 -438 Q153 -438 73 -366 Q-10 -291 -10 -181 Q-10 -101 37 -51 Q84 0 158 0 Q219 0 258.5 -38 Q298 -76 298 -135 Q298 -255 148 -257 Q177 -286 198 -296 Q219 -306 251 -306 Q335 -306 391 -242 Q447 -178 520 0 Z M444 1106 L720 1400 Q810 1495 874 1495 Q920 1495 951.5 1463.5 Q983 1432 983 1386 Q983 1318 880 1267 L556 1106 L444 1106 Z " />
<glyph glyph-name="thorn" unicode="&#xfe;" horiz-adv-x="1271" d="M29 1229 L29 1365 L443 1365 L443 794 Q508 906 572 944 Q652 990 766 990 Q970 990 1079 851 Q1185 715 1185 477 Q1185 240 1079 104 Q970 -35 766 -35 Q648 -35 577 8 Q506 51 443 161 L443 -180 Q443 -256 462 -276 Q486 -301 560 -301 L651 -301 L651 -438 L20 -438 L20 -301 L80 -301 Q154 -301 176 -278.5 Q198 -256 198 -180 L198 1108 Q198 1184 179 1204 Q155 1229 80 1229 L29 1229 Z M683 826 Q568 826 505.5 737 Q443 648 443 483 Q443 321 505 233 Q569 141 684 141 Q792 141 847 224 Q907 312 907 478 Q907 826 683 826 Z " />
<glyph glyph-name="Amacron" unicode="&#x100;" horiz-adv-x="1464" d="M-30 0 L-30 155 L13 155 Q92 155 129.5 182 Q167 209 194 286 L575 1365 L861 1365 L1268 288 Q1291 225 1300.5 207.5 Q1310 190 1329 176 Q1357 155 1432 155 L1473 155 L1473 0 L768 0 L768 155 L878 155 Q945 155 968.5 165.5 Q992 176 992 206 Q992 225 974 275 L915 435 L466 435 L405 263 Q390 220 390 201 Q390 173 411.5 164 Q433 155 499 155 L606 155 L606 0 L-30 0 Z M859 596 L683 1069 L522 596 L859 596 Z M426 1536 L426 1697 L1018 1697 L1018 1536 L426 1536 Z " />
<glyph glyph-name="amacron" unicode="&#x101;" horiz-adv-x="1159" d="M681 116 Q614 40 562 11 Q476 -36 353 -36 Q224 -36 146 33 Q60 110 60 226 Q60 391 213 467 Q304 513 504 561 Q618 589 652 630 Q682 667 682 724 Q682 886 468 886 Q407 886 364.5 872.5 Q322 859 279 825 Q349 822 376 799 Q413 769 413 712 Q413 655 373.5 619 Q334 583 270 583 Q199 583 154 627.5 Q109 672 109 743 Q109 864 225 931 Q337 996 504 996 Q720 996 820 923 Q881 878 900.5 821 Q920 764 920 631 L920 205 Q920 132 969 132 Q1014 132 1023 207 Q1029 249 1030 359 L1154 359 Q1151 161 1124 97 Q1068 -36 900 -36 Q810 -36 760.5 -1.5 Q711 33 681 116 Z M675 503 Q603 466 472 414 Q334 360 334 252 Q334 134 459 134 Q552 134 612 196 Q646 231 660.5 274.5 Q675 318 675 386 L675 503 Z M267 1205 L267 1373 L877 1373 L877 1205 L267 1205 Z " />
<glyph glyph-name="Abreve" unicode="&#x102;" horiz-adv-x="1464" d="M-30 0 L-30 155 L13 155 Q92 155 129.5 182 Q167 209 194 286 L575 1365 L861 1365 L1268 288 Q1291 225 1300.5 207.5 Q1310 190 1329 176 Q1357 155 1432 155 L1473 155 L1473 0 L768 0 L768 155 L878 155 Q945 155 968.5 165.5 Q992 176 992 206 Q992 225 974 275 L915 435 L466 435 L405 263 Q390 220 390 201 Q390 173 411.5 164 Q433 155 499 155 L606 155 L606 0 L-30 0 Z M859 596 L683 1069 L522 596 L859 596 Z M401 1758 L493 1758 Q520 1698 562 1679 Q622 1652 722 1652 Q824 1652 875 1675.5 Q926 1699 950 1758 L1043 1758 Q1027 1681 1008.5 1640 Q990 1599 956 1565 Q866 1476 721 1476 Q578 1476 489 1565 Q455 1599 436.5 1640.5 Q418 1682 401 1758 Z " />
<glyph glyph-name="abreve" unicode="&#x103;" horiz-adv-x="1159" d="M681 116 Q614 40 562 11 Q476 -36 353 -36 Q224 -36 146 33 Q60 110 60 226 Q60 391 213 467 Q304 513 504 561 Q618 589 652 630 Q682 667 682 724 Q682 886 468 886 Q407 886 364.5 872.5 Q322 859 279 825 Q349 822 376 799 Q413 769 413 712 Q413 655 373.5 619 Q334 583 270 583 Q199 583 154 627.5 Q109 672 109 743 Q109 864 225 931 Q337 996 504 996 Q720 996 820 923 Q881 878 900.5 821 Q920 764 920 631 L920 205 Q920 132 969 132 Q1014 132 1023 207 Q1029 249 1030 359 L1154 359 Q1151 161 1124 97 Q1068 -36 900 -36 Q810 -36 760.5 -1.5 Q711 33 681 116 Z M675 503 Q603 466 472 414 Q334 360 334 252 Q334 134 459 134 Q552 134 612 196 Q646 231 660.5 274.5 Q675 318 675 386 L675 503 Z M241 1442 L333 1442 Q362 1369 405 1347 Q463 1319 565 1319 Q666 1319 725 1347 Q770 1369 796 1442 L889 1442 Q872 1357 852.5 1311 Q833 1265 799 1229 Q710 1136 564 1136 Q421 1136 332 1229 Q298 1265 278 1311 Q258 1357 241 1442 Z " />
<glyph glyph-name="Aogonek" unicode="&#x104;" horiz-adv-x="1464" d="M1356 0 Q1285 -65 1255 -118 Q1225 -171 1225 -233 Q1225 -335 1312 -335 Q1345 -335 1365 -322 Q1385 -309 1419 -266 L1453 -287 Q1366 -464 1217 -464 Q1137 -464 1091 -422.5 Q1045 -381 1045 -310 Q1045 -194 1182 -75 Q1233 -31 1284 0 L768 0 L768 155 L878 155 Q945 155 968.5 165.5 Q992 176 992 206 Q992 225 974 275 L915 435 L466 435 L405 263 Q390 220 390 201 Q390 173 411.5 164 Q433 155 499 155 L606 155 L606 0 L-30 0 L-30 155 L13 155 Q92 155 129.5 182 Q167 209 194 286 L575 1365 L861 1365 L1268 288 Q1291 225 1300.5 207.5 Q1310 190 1329 176 Q1357 155 1432 155 L1473 155 L1473 0 L1356 0 Z M859 596 L683 1069 L522 596 L859 596 Z " />
<glyph glyph-name="aogonek" unicode="&#x105;" horiz-adv-x="1159" d="M1024 -12 Q993 -42 981 -56 Q906 -138 906 -233 Q906 -335 993 -335 Q1026 -335 1046.5 -322 Q1067 -309 1100 -266 L1135 -287 Q1048 -464 898 -464 Q819 -464 772.5 -423 Q726 -382 726 -310 Q726 -175 913 -35 Q900 -36 897 -36 Q809 -36 760 -1.5 Q711 33 681 116 Q614 40 562 11 Q476 -36 353 -36 Q224 -36 146 33 Q60 110 60 226 Q60 391 213 467 Q304 513 504 561 Q618 589 652 630 Q682 667 682 724 Q682 886 468 886 Q407 886 364.5 872.5 Q322 859 279 825 Q349 822 376 799 Q413 769 413 712 Q413 655 373.5 619 Q334 583 270 583 Q199 583 154 627.5 Q109 672 109 743 Q109 864 225 931 Q337 996 504 996 Q720 996 820 923 Q881 878 900.5 821 Q920 764 920 631 L920 205 Q920 132 969 132 Q1014 132 1023 207 Q1029 249 1030 359 L1154 359 Q1151 162 1124 97 Q1090 17 1024 -12 Z M675 503 Q603 466 472 414 Q334 360 334 252 Q334 134 459 134 Q552 134 612 196 Q646 231 660.5 274.5 Q675 318 675 386 L675 503 Z " />
<glyph glyph-name="Cacute" unicode="&#x106;" horiz-adv-x="1444" d="M1164 528 L1337 528 Q1319 380 1291 299.5 Q1263 219 1204 146 Q1052 -40 766 -40 Q477 -40 285 149 Q71 359 71 685 Q71 999 283 1209 Q480 1405 751 1405 Q891 1405 992 1359 Q1054 1331 1152 1264 L1191 1386 L1337 1386 L1337 828 L1181 828 Q1162 941 1139 1002 Q1116 1063 1071 1114 Q965 1238 794 1238 Q605 1238 498 1086 Q391 934 391 675 Q391 423 493 289 Q542 225 618 187 Q700 146 797 146 Q953 146 1049 251 Q1093 299 1117.5 358 Q1142 417 1164 528 Z M708 1476 L597 1476 L879 1724 Q940 1778 984 1778 Q1022 1778 1050 1749.5 Q1078 1721 1078 1682 Q1078 1614 990 1581 L708 1476 Z " />
<glyph glyph-name="cacute" unicode="&#x107;" horiz-adv-x="1047" d="M826 399 L984 399 Q973 276 952 217 Q864 -36 554 -36 Q324 -36 190 110 Q61 253 61 474 Q61 720 222 864 Q369 996 592 996 Q778 996 893 902 Q993 820 993 699 Q993 622 948.5 574 Q904 526 833 526 Q768 526 726.5 564 Q685 602 685 661 Q685 767 802 789 Q743 832 704.5 847 Q666 862 613 862 Q474 862 406 759 Q338 657 338 482 Q338 147 589 147 Q697 147 750.5 204 Q804 261 826 399 Z M347 1106 L623 1400 Q713 1495 778 1495 Q824 1495 855.5 1463.5 Q887 1432 887 1386 Q887 1319 784 1267 L460 1106 L347 1106 Z " />
<glyph glyph-name="Ccircumflex" unicode="&#x108;" horiz-adv-x="1444" d="M1164 528 L1337 528 Q1319 380 1291 299.5 Q1263 219 1204 146 Q1052 -40 766 -40 Q477 -40 285 149 Q71 359 71 685 Q71 999 283 1209 Q480 1405 751 1405 Q891 1405 992 1359 Q1054 1331 1152 1264 L1191 1386 L1337 1386 L1337 828 L1181 828 Q1162 941 1139 1002 Q1116 1063 1071 1114 Q965 1238 794 1238 Q605 1238 498 1086 Q391 934 391 675 Q391 423 493 289 Q542 225 618 187 Q700 146 797 146 Q953 146 1049 251 Q1093 299 1117.5 358 Q1142 417 1164 528 Z M420 1476 L617 1758 L854 1758 L1051 1476 L956 1476 L735 1589 L515 1476 L420 1476 Z " />
<glyph glyph-name="ccircumflex" unicode="&#x109;" horiz-adv-x="1047" d="M826 399 L984 399 Q973 276 952 217 Q864 -36 554 -36 Q324 -36 190 110 Q61 253 61 474 Q61 720 222 864 Q369 996 592 996 Q778 996 893 902 Q993 820 993 699 Q993 622 948.5 574 Q904 526 833 526 Q768 526 726.5 564 Q685 602 685 661 Q685 767 802 789 Q743 832 704.5 847 Q666 862 613 862 Q474 862 406 759 Q338 657 338 482 Q338 147 589 147 Q697 147 750.5 204 Q804 261 826 399 Z M255 1106 L482 1474 L666 1474 L892 1106 L793 1106 L573 1276 L354 1106 L255 1106 Z " />
<glyph glyph-name="Cdotaccent" unicode="&#x10a;" horiz-adv-x="1444" d="M1164 528 L1337 528 Q1319 380 1291 299.5 Q1263 219 1204 146 Q1052 -40 766 -40 Q477 -40 285 149 Q71 359 71 685 Q71 999 283 1209 Q480 1405 751 1405 Q891 1405 992 1359 Q1054 1331 1152 1264 L1191 1386 L1337 1386 L1337 828 L1181 828 Q1162 941 1139 1002 Q1116 1063 1071 1114 Q965 1238 794 1238 Q605 1238 498 1086 Q391 934 391 675 Q391 423 493 289 Q542 225 618 187 Q700 146 797 146 Q953 146 1049 251 Q1093 299 1117.5 358 Q1142 417 1164 528 Z M763 1765 Q821 1765 863 1722 Q905 1679 905 1621 Q905 1561 862.5 1518.5 Q820 1476 761 1476 Q700 1476 658 1518.5 Q616 1561 616 1622 Q616 1681 659 1723 Q702 1765 763 1765 Z " />
<glyph glyph-name="cdotaccent" unicode="&#x10b;" horiz-adv-x="1047" d="M826 399 L984 399 Q973 276 952 217 Q864 -36 554 -36 Q324 -36 190 110 Q61 253 61 474 Q61 720 222 864 Q369 996 592 996 Q778 996 893 902 Q993 820 993 699 Q993 622 948.5 574 Q904 526 833 526 Q768 526 726.5 564 Q685 602 685 661 Q685 767 802 789 Q743 832 704.5 847 Q666 862 613 862 Q474 862 406 759 Q338 657 338 482 Q338 147 589 147 Q697 147 750.5 204 Q804 261 826 399 Z M578 1438 Q638 1438 681 1394.5 Q724 1351 724 1290 Q724 1229 680.5 1185.5 Q637 1142 576 1142 Q514 1142 471 1185.5 Q428 1229 428 1291 Q428 1352 472 1395 Q516 1438 578 1438 Z " />
<glyph glyph-name="Ccaron" unicode="&#x10c;" horiz-adv-x="1444" d="M1164 528 L1337 528 Q1319 380 1291 299.5 Q1263 219 1204 146 Q1052 -40 766 -40 Q477 -40 285 149 Q71 359 71 685 Q71 999 283 1209 Q480 1405 751 1405 Q891 1405 992 1359 Q1054 1331 1152 1264 L1191 1386 L1337 1386 L1337 828 L1181 828 Q1162 941 1139 1002 Q1116 1063 1071 1114 Q965 1238 794 1238 Q605 1238 498 1086 Q391 934 391 675 Q391 423 493 289 Q542 225 618 187 Q700 146 797 146 Q953 146 1049 251 Q1093 299 1117.5 358 Q1142 417 1164 528 Z M455 1758 L551 1758 L771 1645 L991 1758 L1087 1758 L889 1476 L652 1476 L455 1758 Z " />
<glyph glyph-name="ccaron" unicode="&#x10d;" horiz-adv-x="1047" d="M826 399 L984 399 Q973 276 952 217 Q864 -36 554 -36 Q324 -36 190 110 Q61 253 61 474 Q61 720 222 864 Q369 996 592 996 Q778 996 893 902 Q993 820 993 699 Q993 622 948.5 574 Q904 526 833 526 Q768 526 726.5 564 Q685 602 685 661 Q685 767 802 789 Q743 832 704.5 847 Q666 862 613 862 Q474 862 406 759 Q338 657 338 482 Q338 147 589 147 Q697 147 750.5 204 Q804 261 826 399 Z M240 1473 L339 1473 L558 1303 L778 1473 L877 1473 L651 1106 L467 1106 L240 1473 Z " />
<glyph glyph-name="Dcaron" unicode="&#x10e;" horiz-adv-x="1647" d="M51 0 L51 155 L130 155 Q222 155 244 177 Q265 199 265 281 L265 1084 Q265 1166 244 1187 Q222 1210 130 1210 L51 1210 L51 1365 L826 1365 Q1071 1365 1222 1290 Q1550 1129 1550 682 Q1550 341 1359 168 Q1252 71 1118 36 Q984 0 826 0 L51 0 Z M552 155 L729 155 Q933 155 1017 195 Q1132 251 1186 401 Q1230 524 1230 682 Q1230 962 1107 1101 Q1042 1175 945 1193 Q857 1210 729 1210 L552 1210 L552 155 Z M407 1758 L502 1758 L722 1645 L943 1758 L1038 1758 L841 1476 L604 1476 L407 1758 Z " />
<glyph glyph-name="dcaron" unicode="&#x10f;" horiz-adv-x="1428" d="M610 1228 L610 1365 L1058 1365 L1058 258 Q1058 182 1077 162 Q1100 137 1175 137 L1232 137 L1232 0 L813 0 L813 167 Q748 55 684 17 Q604 -29 490 -29 Q286 -29 177 110 Q71 246 71 483 Q71 722 177 857 Q286 996 490 996 Q608 996 679 953 Q750 910 813 800 L813 1107 Q813 1184 794 1203 Q770 1228 696 1228 L610 1228 Z M572 820 Q465 820 409 737 Q349 649 349 483 Q349 135 572 135 Q688 135 750.5 224 Q813 313 813 477 Q813 642 751 729 Q686 820 572 820 Z M1173 907 L1173 988 Q1244 1003 1272 1038.5 Q1300 1074 1309 1160 Q1265 1136 1232 1136 Q1188 1136 1158 1166.5 Q1128 1197 1128 1243 Q1128 1296 1165.5 1330.5 Q1203 1365 1262 1365 Q1337 1365 1382.5 1315 Q1428 1265 1428 1182 Q1428 1058 1350 980 Q1290 920 1173 907 Z " />
<glyph glyph-name="Dcroat" unicode="&#x110;" horiz-adv-x="1658" d="M54 0 L54 155 L133 155 Q225 155 247 178 Q268 199 268 281 L268 631 L0 631 L0 772 L268 772 L268 1084 Q268 1166 247 1187 Q225 1210 133 1210 L54 1210 L54 1365 L829 1365 Q1074 1365 1225 1290 Q1553 1128 1553 683 Q1553 341 1362 168 Q1255 71 1121 36 Q986 0 829 0 L54 0 Z M555 155 L732 155 Q936 155 1020 195 Q1135 251 1189 402 Q1233 524 1233 683 Q1233 962 1110 1101 Q1045 1175 948 1193 Q860 1210 732 1210 L555 1210 L555 772 L898 772 L898 631 L555 631 L555 155 Z " />
<glyph glyph-name="dcroat" unicode="&#x111;" horiz-adv-x="1271" d="M1058 1154 L1219 1154 L1219 1025 L1058 1025 L1058 258 Q1058 182 1077 162 Q1100 137 1175 137 L1232 137 L1232 0 L813 0 L813 167 Q748 55 684 17 Q604 -29 490 -29 Q286 -29 177 110 Q71 246 71 484 Q71 722 177 857 Q286 996 490 996 Q608 996 679 953 Q750 910 813 800 L813 1025 L610 1025 L610 1154 L811 1154 Q808 1190 794 1204 Q770 1228 696 1228 L610 1228 L610 1365 L1058 1365 L1058 1154 Z M572 820 Q465 820 409 737 Q349 649 349 483 Q349 135 572 135 Q688 135 750.5 224 Q813 313 813 477 Q813 642 751 729 Q686 820 572 820 Z " />
<glyph glyph-name="Emacron" unicode="&#x112;" horiz-adv-x="1536" d="M51 0 L51 155 L130 155 Q222 155 244 178 Q265 199 265 281 L265 1085 Q265 1166 244 1187 Q222 1210 130 1210 L51 1210 L51 1365 L1393 1365 L1393 822 L1238 822 Q1231 1020 1180 1109 Q1144 1173 1061 1195 Q1001 1210 879 1210 L552 1210 L552 791 L629 791 Q708 791 750 804.5 Q792 818 810 849 Q829 882 845 1039 L1001 1039 L1001 356 L845 356 Q837 469 826.5 515.5 Q816 562 792 593 Q772 618 738.5 627 Q705 636 631 636 L552 636 L552 155 L909 155 Q1052 155 1114 198 Q1167 236 1194.5 320 Q1222 404 1238 579 L1393 579 L1393 0 L51 0 Z M461 1536 L461 1697 L1054 1697 L1054 1536 L461 1536 Z " />
<glyph glyph-name="emacron" unicode="&#x113;" horiz-adv-x="1088" d="M847 343 L1018 343 Q998 232 966.5 171.5 Q935 111 871 61 Q748 -36 559 -36 Q354 -36 223 82 Q61 228 61 477 Q61 729 226 877 Q360 996 566 996 Q797 996 913 852 Q981 768 1001 669 Q1019 582 1024 460 L339 460 Q346 364 360 313 Q374 262 403 219 Q467 127 596 127 Q705 127 766 179 Q816 222 847 343 Z M754 603 Q745 685 733 728 Q721 771 697 802 Q653 861 568 861 Q477 861 424.5 800 Q372 739 347 603 L754 603 Z M259 1205 L259 1373 L868 1373 L868 1205 L259 1205 Z " />
<glyph glyph-name="Ebreve" unicode="&#x114;" horiz-adv-x="1536" d="M51 0 L51 155 L130 155 Q222 155 244 178 Q265 199 265 281 L265 1085 Q265 1166 244 1187 Q222 1210 130 1210 L51 1210 L51 1365 L1393 1365 L1393 822 L1238 822 Q1231 1020 1180 1109 Q1144 1173 1061 1195 Q1001 1210 879 1210 L552 1210 L552 791 L629 791 Q708 791 750 804.5 Q792 818 810 849 Q829 882 845 1039 L1001 1039 L1001 356 L845 356 Q837 469 826.5 515.5 Q816 562 792 593 Q772 618 738.5 627 Q705 636 631 636 L552 636 L552 155 L909 155 Q1052 155 1114 198 Q1167 236 1194.5 320 Q1222 404 1238 579 L1393 579 L1393 0 L51 0 Z M461 1758 L554 1758 Q580 1698 622 1679 Q682 1652 783 1652 Q885 1652 936 1675.5 Q987 1699 1011 1758 L1103 1758 Q1087 1681 1068.5 1640 Q1050 1599 1017 1565 Q927 1476 782 1476 Q638 1476 549 1565 Q516 1599 497 1640.5 Q478 1682 461 1758 Z " />
<glyph glyph-name="ebreve" unicode="&#x115;" horiz-adv-x="1088" d="M847 343 L1018 343 Q998 232 966.5 171.5 Q935 111 871 61 Q748 -36 559 -36 Q354 -36 223 82 Q61 228 61 477 Q61 729 226 877 Q360 996 566 996 Q797 996 913 852 Q981 768 1001 669 Q1019 582 1024 460 L339 460 Q346 364 360 313 Q374 262 403 219 Q467 127 596 127 Q705 127 766 179 Q816 222 847 343 Z M754 603 Q745 685 733 728 Q721 771 697 802 Q653 861 568 861 Q477 861 424.5 800 Q372 739 347 603 L754 603 Z M236 1442 L329 1442 Q357 1369 400 1347 Q458 1319 561 1319 Q662 1319 721 1347 Q766 1369 791 1442 L884 1442 Q867 1357 848 1311 Q829 1265 795 1229 Q705 1136 560 1136 Q416 1136 327 1229 Q293 1265 273.5 1311 Q254 1357 236 1442 Z " />
<glyph glyph-name="Edotaccent" unicode="&#x116;" horiz-adv-x="1536" d="M51 0 L51 155 L130 155 Q222 155 244 178 Q265 199 265 281 L265 1085 Q265 1166 244 1187 Q222 1210 130 1210 L51 1210 L51 1365 L1393 1365 L1393 822 L1238 822 Q1231 1020 1180 1109 Q1144 1173 1061 1195 Q1001 1210 879 1210 L552 1210 L552 791 L629 791 Q708 791 750 804.5 Q792 818 810 849 Q829 882 845 1039 L1001 1039 L1001 356 L845 356 Q837 469 826.5 515.5 Q816 562 792 593 Q772 618 738.5 627 Q705 636 631 636 L552 636 L552 155 L909 155 Q1052 155 1114 198 Q1167 236 1194.5 320 Q1222 404 1238 579 L1393 579 L1393 0 L51 0 Z M767 1765 Q825 1765 867 1722.5 Q909 1680 909 1621 Q909 1561 866.5 1518.5 Q824 1476 765 1476 Q704 1476 662 1518.5 Q620 1561 620 1622 Q620 1681 663 1723 Q706 1765 767 1765 Z " />
<glyph glyph-name="edotaccent" unicode="&#x117;" horiz-adv-x="1088" d="M847 343 L1018 343 Q998 232 966.5 171.5 Q935 111 871 61 Q748 -36 559 -36 Q354 -36 223 82 Q61 228 61 477 Q61 729 226 877 Q360 996 566 996 Q797 996 913 852 Q981 768 1001 669 Q1019 582 1024 460 L339 460 Q346 364 360 313 Q374 262 403 219 Q467 127 596 127 Q705 127 766 179 Q816 222 847 343 Z M754 603 Q745 685 733 728 Q721 771 697 802 Q653 861 568 861 Q477 861 424.5 800 Q372 739 347 603 L754 603 Z M569 1438 Q629 1438 672 1394.5 Q715 1351 715 1290 Q715 1229 671.5 1185.5 Q628 1142 567 1142 Q505 1142 462 1185.5 Q419 1229 419 1291 Q419 1352 463 1395 Q507 1438 569 1438 Z " />
<glyph glyph-name="Eogonek" unicode="&#x118;" horiz-adv-x="1536" d="M1190 0 Q1120 -65 1090 -118 Q1060 -171 1060 -233 Q1060 -335 1147 -335 Q1180 -335 1200 -322 Q1220 -309 1254 -266 L1288 -287 Q1202 -464 1052 -464 Q972 -464 926 -423 Q880 -382 880 -310 Q880 -194 1017 -75 Q1068 -31 1119 0 L51 0 L51 155 L130 155 Q222 155 244 178 Q265 199 265 281 L265 1085 Q265 1166 244 1187 Q222 1210 130 1210 L51 1210 L51 1365 L1393 1365 L1393 822 L1238 822 Q1231 1020 1180 1109 Q1144 1173 1061 1195 Q1001 1210 879 1210 L552 1210 L552 791 L629 791 Q709 791 750.5 804.5 Q792 818 810 849 Q829 884 845 1039 L1001 1039 L1001 356 L845 356 Q837 469 826.5 515.5 Q816 562 792 593 Q772 618 738.5 627 Q705 636 631 636 L552 636 L552 155 L909 155 Q1052 155 1114 198 Q1167 236 1194.5 320 Q1222 404 1238 579 L1393 579 L1393 0 L1190 0 Z " />
<glyph glyph-name="eogonek" unicode="&#x119;" horiz-adv-x="1088" d="M762 -1 Q633 -119 633 -233 Q633 -335 720 -335 Q753 -335 773 -322 Q793 -309 827 -266 L861 -287 Q774 -464 625 -464 Q545 -464 499 -422.5 Q453 -381 453 -310 Q453 -170 646 -31 Q602 -36 558 -36 Q354 -36 223 82 Q61 228 61 477 Q61 729 226 877 Q360 996 566 996 Q797 996 913 852 Q981 768 1001 669 Q1019 582 1024 460 L339 460 Q346 364 360 313 Q374 262 403 219 Q467 127 596 127 Q705 127 766 179 Q816 222 847 343 L1018 343 Q997 231 966 171.5 Q935 112 871 61 Q822 22 762 -1 Z M754 603 Q745 685 733 728 Q721 771 697 802 Q653 861 568 861 Q477 861 424.5 800 Q372 739 347 603 L754 603 Z " />
<glyph glyph-name="Ecaron" unicode="&#x11a;" horiz-adv-x="1536" d="M51 0 L51 155 L130 155 Q222 155 244 178 Q265 199 265 281 L265 1085 Q265 1166 244 1187 Q222 1210 130 1210 L51 1210 L51 1365 L1393 1365 L1393 822 L1238 822 Q1231 1020 1180 1109 Q1144 1173 1061 1195 Q1001 1210 879 1210 L552 1210 L552 791 L629 791 Q708 791 750 804.5 Q792 818 810 849 Q829 882 845 1039 L1001 1039 L1001 356 L845 356 Q837 469 826.5 515.5 Q816 562 792 593 Q772 618 738.5 627 Q705 636 631 636 L552 636 L552 155 L909 155 Q1052 155 1114 198 Q1167 236 1194.5 320 Q1222 404 1238 579 L1393 579 L1393 0 L51 0 Z M445 1758 L541 1758 L761 1645 L981 1758 L1077 1758 L879 1476 L642 1476 L445 1758 Z " />
<glyph glyph-name="ecaron" unicode="&#x11b;" horiz-adv-x="1088" d="M847 343 L1018 343 Q998 232 966.5 171.5 Q935 111 871 61 Q748 -36 559 -36 Q354 -36 223 82 Q61 228 61 477 Q61 729 226 877 Q360 996 566 996 Q797 996 913 852 Q981 768 1001 669 Q1019 582 1024 460 L339 460 Q346 364 360 313 Q374 262 403 219 Q467 127 596 127 Q705 127 766 179 Q816 222 847 343 Z M754 603 Q745 685 733 728 Q721 771 697 802 Q653 861 568 861 Q477 861 424.5 800 Q372 739 347 603 L754 603 Z M248 1473 L348 1473 L567 1303 L787 1473 L886 1473 L659 1106 L476 1106 L248 1473 Z " />
<glyph glyph-name="Gcircumflex" unicode="&#x11c;" horiz-adv-x="1607" d="M1240 -8 L1167 106 Q1058 30 997 4 Q895 -39 751 -39 Q466 -39 275 155 Q71 364 71 682 Q71 1005 282 1214 Q475 1405 751 1405 Q897 1405 996 1359 Q1052 1333 1153 1255 L1208 1373 L1353 1373 L1353 840 L1198 840 Q1170 947 1143 1004 Q1116 1061 1069 1112 Q952 1238 788 1238 Q596 1238 492 1078 Q391 924 391 680 Q391 434 490 293 Q538 224 619 184 Q704 141 803 141 Q946 141 1040 222 Q1077 254 1091.5 290 Q1106 326 1106 387 L1106 463 Q1106 537 1085 555 Q1070 568 1047 571.5 Q1024 575 951 575 L865 575 L865 730 L1587 730 L1587 575 L1501 575 Q1428 575 1408.5 553 Q1389 531 1389 447 L1389 -8 L1240 -8 Z M513 1476 L710 1758 L947 1758 L1145 1476 L1049 1476 L829 1589 L609 1476 L513 1476 Z " />
<glyph glyph-name="gcircumflex" unicode="&#x11d;" horiz-adv-x="1352" d="M275 358 Q198 431 172 484 Q137 555 137 634 Q137 767 223 862 Q346 996 592 996 Q694 996 768.5 975.5 Q843 955 927 904 Q981 956 1024 976 Q1067 996 1128 996 Q1230 996 1289.5 941.5 Q1349 887 1349 794 Q1349 737 1320 700 Q1281 648 1215 648 Q1159 648 1121.5 683 Q1084 718 1084 770 Q1084 814 1107 841 Q1130 868 1181 884 Q1144 911 1114 911 Q1045 911 979 826 Q1011 763 1022.5 722.5 Q1034 682 1034 631 Q1034 517 970 426 Q860 271 586 271 Q493 271 363 307 Q312 268 312 236 Q312 199 343 183 Q374 167 444 167 L723 167 Q847 167 916 155.5 Q985 144 1040 115 Q1099 84 1134 23.5 Q1169 -37 1169 -108 Q1169 -214 1095 -297 Q1026 -373 872 -408 Q740 -438 578 -438 Q333 -438 189 -368 Q133 -341 102 -297 Q71 -253 71 -201 Q71 -135 112.5 -97 Q154 -59 260 -26 Q161 5 128 54 Q95 101 95 156 Q95 226 136.5 272.5 Q178 319 275 358 Z M584 877 Q406 877 406 645 Q406 516 448 458 Q490 400 584 400 Q678 400 721.5 456 Q765 512 765 633 Q765 762 721 819 Q678 877 584 877 Z M590 -50 Q354 -50 297 -91 Q247 -127 247 -181 Q247 -216 268.5 -245.5 Q290 -275 326 -288 Q414 -321 563 -321 Q900 -321 900 -171 Q900 -102 833.5 -76 Q767 -50 590 -50 Z M305 1106 L532 1474 L716 1474 L943 1106 L843 1106 L624 1276 L405 1106 L305 1106 Z " />
<glyph glyph-name="Gbreve" unicode="&#x11e;" horiz-adv-x="1607" d="M1240 -8 L1167 106 Q1058 30 997 4 Q895 -39 751 -39 Q466 -39 275 155 Q71 364 71 682 Q71 1005 282 1214 Q475 1405 751 1405 Q897 1405 996 1359 Q1052 1333 1153 1255 L1208 1373 L1353 1373 L1353 840 L1198 840 Q1170 947 1143 1004 Q1116 1061 1069 1112 Q952 1238 788 1238 Q596 1238 492 1078 Q391 924 391 680 Q391 434 490 293 Q538 224 619 184 Q704 141 803 141 Q946 141 1040 222 Q1077 254 1091.5 290 Q1106 326 1106 387 L1106 463 Q1106 537 1085 555 Q1070 568 1047 571.5 Q1024 575 951 575 L865 575 L865 730 L1587 730 L1587 575 L1501 575 Q1428 575 1408.5 553 Q1389 531 1389 447 L1389 -8 L1240 -8 Z M462 1758 L554 1758 Q581 1698 623 1679 Q683 1652 784 1652 Q886 1652 937 1675.5 Q988 1699 1011 1758 L1104 1758 Q1088 1681 1069.5 1640 Q1051 1599 1017 1565 Q928 1476 783 1476 Q639 1476 550 1565 Q517 1599 498 1640.5 Q479 1682 462 1758 Z " />
<glyph glyph-name="gbreve" unicode="&#x11f;" horiz-adv-x="1352" d="M275 358 Q198 431 172 484 Q137 555 137 634 Q137 767 223 862 Q346 996 592 996 Q694 996 768.5 975.5 Q843 955 927 904 Q981 956 1024 976 Q1067 996 1128 996 Q1230 996 1289.5 941.5 Q1349 887 1349 794 Q1349 737 1320 700 Q1281 648 1215 648 Q1159 648 1121.5 683 Q1084 718 1084 770 Q1084 814 1107 841 Q1130 868 1181 884 Q1144 911 1114 911 Q1045 911 979 826 Q1011 763 1022.5 722.5 Q1034 682 1034 631 Q1034 517 970 426 Q860 271 586 271 Q493 271 363 307 Q312 268 312 236 Q312 199 343 183 Q374 167 444 167 L723 167 Q847 167 916 155.5 Q985 144 1040 115 Q1099 84 1134 23.5 Q1169 -37 1169 -108 Q1169 -214 1095 -297 Q1026 -373 872 -408 Q740 -438 578 -438 Q333 -438 189 -368 Q133 -341 102 -297 Q71 -253 71 -201 Q71 -135 112.5 -97 Q154 -59 260 -26 Q161 5 128 54 Q95 101 95 156 Q95 226 136.5 272.5 Q178 319 275 358 Z M584 877 Q406 877 406 645 Q406 516 448 458 Q490 400 584 400 Q678 400 721.5 456 Q765 512 765 633 Q765 762 721 819 Q678 877 584 877 Z M590 -50 Q354 -50 297 -91 Q247 -127 247 -181 Q247 -216 268.5 -245.5 Q290 -275 326 -288 Q414 -321 563 -321 Q900 -321 900 -171 Q900 -102 833.5 -76 Q767 -50 590 -50 Z M289 1442 L382 1442 Q410 1369 453 1347 Q511 1319 614 1319 Q715 1319 774 1347 Q819 1369 844 1442 L937 1442 Q920 1357 901 1311 Q882 1265 848 1229 Q758 1136 613 1136 Q469 1136 380 1229 Q346 1265 326.5 1311 Q307 1357 289 1442 Z " />
<glyph glyph-name="Gdotaccent" unicode="&#x120;" horiz-adv-x="1607" d="M1240 -8 L1167 106 Q1058 30 997 4 Q895 -39 751 -39 Q466 -39 275 155 Q71 364 71 682 Q71 1005 282 1214 Q475 1405 751 1405 Q897 1405 996 1359 Q1052 1333 1153 1255 L1208 1373 L1353 1373 L1353 840 L1198 840 Q1170 947 1143 1004 Q1116 1061 1069 1112 Q952 1238 788 1238 Q596 1238 492 1078 Q391 924 391 680 Q391 434 490 293 Q538 224 619 184 Q704 141 803 141 Q946 141 1040 222 Q1077 254 1091.5 290 Q1106 326 1106 387 L1106 463 Q1106 537 1085 555 Q1070 568 1047 571.5 Q1024 575 951 575 L865 575 L865 730 L1587 730 L1587 575 L1501 575 Q1428 575 1408.5 553 Q1389 531 1389 447 L1389 -8 L1240 -8 Z M771 1765 Q829 1765 871 1722.5 Q913 1680 913 1621 Q913 1561 870.5 1518.5 Q828 1476 769 1476 Q708 1476 666 1518.5 Q624 1561 624 1622 Q624 1681 667 1723 Q710 1765 771 1765 Z " />
<glyph glyph-name="gdotaccent" unicode="&#x121;" horiz-adv-x="1352" d="M275 358 Q198 431 172 484 Q137 555 137 634 Q137 767 223 862 Q346 996 592 996 Q694 996 768.5 975.5 Q843 955 927 904 Q981 956 1024 976 Q1067 996 1128 996 Q1230 996 1289.5 941.5 Q1349 887 1349 794 Q1349 737 1320 700 Q1281 648 1215 648 Q1159 648 1121.5 683 Q1084 718 1084 770 Q1084 814 1107 841 Q1130 868 1181 884 Q1144 911 1114 911 Q1045 911 979 826 Q1011 763 1022.5 722.5 Q1034 682 1034 631 Q1034 517 970 426 Q860 271 586 271 Q493 271 363 307 Q312 268 312 236 Q312 199 343 183 Q374 167 444 167 L723 167 Q847 167 916 155.5 Q985 144 1040 115 Q1099 84 1134 23.5 Q1169 -37 1169 -108 Q1169 -214 1095 -297 Q1026 -373 872 -408 Q740 -438 578 -438 Q333 -438 189 -368 Q133 -341 102 -297 Q71 -253 71 -201 Q71 -135 112.5 -97 Q154 -59 260 -26 Q161 5 128 54 Q95 101 95 156 Q95 226 136.5 272.5 Q178 319 275 358 Z M584 877 Q406 877 406 645 Q406 516 448 458 Q490 400 584 400 Q678 400 721.5 456 Q765 512 765 633 Q765 762 721 819 Q678 877 584 877 Z M590 -50 Q354 -50 297 -91 Q247 -127 247 -181 Q247 -216 268.5 -245.5 Q290 -275 326 -288 Q414 -321 563 -321 Q900 -321 900 -171 Q900 -102 833.5 -76 Q767 -50 590 -50 Z M597 1438 Q657 1438 700 1394.5 Q743 1351 743 1290 Q743 1229 699.5 1185.5 Q656 1142 595 1142 Q533 1142 490 1185.5 Q447 1229 447 1291 Q447 1352 491 1395 Q535 1438 597 1438 Z " />
<glyph glyph-name="Gcommaaccent" unicode="&#x122;" horiz-adv-x="1607" d="M1240 -8 L1167 106 Q1058 30 997 4 Q895 -39 751 -39 Q466 -39 275 155 Q71 364 71 682 Q71 1005 282 1214 Q475 1405 751 1405 Q897 1405 996 1359 Q1052 1333 1153 1255 L1208 1373 L1353 1373 L1353 840 L1198 840 Q1170 947 1143 1004 Q1116 1061 1069 1112 Q952 1238 788 1238 Q596 1238 492 1078 Q391 924 391 680 Q391 434 490 293 Q538 224 619 184 Q704 141 803 141 Q946 141 1040 222 Q1077 254 1091.5 290 Q1106 326 1106 387 L1106 463 Q1106 537 1085 555 Q1070 568 1047 571.5 Q1024 575 951 575 L865 575 L865 730 L1587 730 L1587 575 L1501 575 Q1428 575 1408.5 553 Q1389 531 1389 447 L1389 -8 L1240 -8 Z M665 -574 L665 -492 Q735 -478 763.5 -442 Q792 -406 802 -321 Q757 -345 724 -345 Q680 -345 650 -314.5 Q620 -284 620 -238 Q620 -185 657.5 -150.5 Q695 -116 754 -116 Q829 -116 874.5 -166 Q920 -216 920 -299 Q920 -423 842 -501 Q782 -561 665 -574 Z " />
<glyph glyph-name="gcommaaccent" unicode="&#x123;" horiz-adv-x="1352" d="M275 358 Q198 431 172 484 Q137 555 137 634 Q137 767 223 862 Q346 996 592 996 Q694 996 768.5 975.5 Q843 955 927 904 Q981 956 1024 976 Q1067 996 1128 996 Q1230 996 1289.5 941.5 Q1349 887 1349 794 Q1349 737 1320 700 Q1281 648 1215 648 Q1159 648 1121.5 683 Q1084 718 1084 770 Q1084 814 1107 841 Q1130 868 1181 884 Q1144 911 1114 911 Q1045 911 979 826 Q1011 763 1022.5 722.5 Q1034 682 1034 631 Q1034 517 970 426 Q860 271 586 271 Q493 271 363 307 Q312 268 312 236 Q312 199 343 183 Q374 167 444 167 L723 167 Q847 167 916 155.5 Q985 144 1040 115 Q1099 84 1134 23.5 Q1169 -37 1169 -108 Q1169 -214 1095 -297 Q1026 -373 872 -408 Q740 -438 578 -438 Q333 -438 189 -368 Q133 -341 102 -297 Q71 -253 71 -201 Q71 -135 112.5 -97 Q154 -59 260 -26 Q161 5 128 54 Q95 101 95 156 Q95 226 136.5 272.5 Q178 319 275 358 Z M584 877 Q406 877 406 645 Q406 516 448 458 Q490 400 584 400 Q678 400 721.5 456 Q765 512 765 633 Q765 762 721 819 Q678 877 584 877 Z M590 -50 Q354 -50 297 -91 Q247 -127 247 -181 Q247 -216 268.5 -245.5 Q290 -275 326 -288 Q414 -321 563 -321 Q900 -321 900 -171 Q900 -102 833.5 -76 Q767 -50 590 -50 Z M709 1546 L709 1464 Q638 1450 610 1414 Q582 1378 572 1292 Q617 1316 650 1316 Q694 1316 724 1285.5 Q754 1255 754 1209 Q754 1156 716.5 1122 Q679 1088 620 1088 Q545 1088 499.5 1138 Q454 1188 454 1271 Q454 1395 532 1473 Q592 1533 709 1546 Z " />
<glyph glyph-name="Hcircumflex" unicode="&#x124;" horiz-adv-x="1688" d="M48 0 L48 155 L127 155 Q219 155 241 177 Q262 199 262 281 L262 1084 Q262 1166 241 1187 Q219 1210 127 1210 L48 1210 L48 1365 L780 1365 L780 1210 L684 1210 Q592 1210 570 1187 Q549 1166 549 1084 L549 783 L1138 783 L1138 1084 Q1138 1166 1117 1187 Q1096 1210 1004 1210 L908 1210 L908 1365 L1639 1365 L1639 1210 L1560 1210 Q1468 1210 1446 1187 Q1425 1166 1425 1084 L1425 281 Q1425 199 1446 177 Q1468 155 1560 155 L1639 155 L1639 0 L908 0 L908 155 L1004 155 Q1096 155 1117 177 Q1138 199 1138 281 L1138 618 L549 618 L549 281 Q549 199 570 177 Q592 155 684 155 L780 155 L780 0 L48 0 Z M528 1476 L725 1758 L962 1758 L1159 1476 L1064 1476 L843 1589 L623 1476 L528 1476 Z " />
<glyph glyph-name="hcircumflex" unicode="&#x125;" horiz-adv-x="1322" d="M51 1229 L51 1365 L466 1365 L466 792 Q560 902 623 939 Q712 992 812 992 Q879 992 941 969.5 Q1003 947 1041 908 Q1079 869 1095 807.5 Q1111 746 1111 637 L1111 258 Q1111 182 1130 162 Q1153 137 1228 137 L1285 137 L1285 0 L708 0 L708 137 L749 137 Q822 137 844 159.5 Q866 182 866 258 L866 637 Q866 701 860 730 Q854 759 837 781 Q796 835 714 835 Q601 835 525 735 Q492 691 479 639 Q466 587 466 498 L466 258 Q466 182 485 162 Q509 137 583 137 L624 137 L624 0 L51 0 L51 137 L104 137 Q178 137 199.5 159.5 Q221 182 221 258 L221 1108 Q221 1184 202 1204 Q179 1229 104 1229 L51 1229 Z M-57 1476 L140 1758 L377 1758 L574 1476 L479 1476 L258 1589 L38 1476 L-57 1476 Z " />
<glyph glyph-name="Hbar" unicode="&#x126;" horiz-adv-x="1688" d="M48 0 L48 155 L127 155 Q219 155 241 177 Q262 199 262 281 L262 1084 Q262 1166 241 1187 Q219 1210 127 1210 L48 1210 L48 1365 L780 1365 L780 1210 L684 1210 Q592 1210 570 1187 Q549 1166 549 1084 L549 783 L1138 783 L1138 1084 Q1138 1166 1117 1187 Q1096 1210 1004 1210 L908 1210 L908 1365 L1639 1365 L1639 1210 L1560 1210 Q1468 1210 1446 1187 Q1425 1166 1425 1084 L1425 281 Q1425 199 1446 177 Q1468 155 1560 155 L1639 155 L1639 0 L908 0 L908 155 L1004 155 Q1096 155 1117 177 Q1138 199 1138 281 L1138 618 L549 618 L549 281 Q549 199 570 177 Q592 155 684 155 L780 155 L780 0 L48 0 Z M548 1536 L548 1697 L1140 1697 L1140 1536 L548 1536 Z " />
<glyph glyph-name="hbar" unicode="&#x127;" horiz-adv-x="1302" d="M456 1153 L766 1153 L766 1027 L456 1027 L456 792 Q550 902 612 939 Q701 991 803 991 Q869 991 931 968.5 Q993 946 1031 908 Q1069 869 1085 807.5 Q1101 746 1101 637 L1101 258 Q1101 182 1120 162 Q1143 137 1218 137 L1274 137 L1274 0 L698 0 L698 137 L739 137 Q812 137 834 159.5 Q856 182 856 258 L856 637 Q856 701 850.5 729.5 Q845 758 827 780 Q787 834 704 834 Q590 834 514 734 Q482 690 469 638.5 Q456 587 456 498 L456 258 Q456 181 475 162 Q499 137 573 137 L613 137 L613 0 L41 0 L41 137 L94 137 Q168 137 189.5 159.5 Q211 182 211 258 L211 1027 L41 1027 L41 1153 L209 1153 Q206 1190 192 1204 Q168 1229 94 1229 L41 1229 L41 1365 L456 1365 L456 1153 Z " />
<glyph glyph-name="Itilde" unicode="&#x128;" horiz-adv-x="1322" d="M50 1229 L50 1365 L465 1365 L465 792 Q559 902 622 939 Q711 992 811 992 Q878 992 940 969.5 Q1002 947 1040 908 Q1078 869 1094 807.5 Q1110 746 1110 637 L1110 258 Q1110 182 1129 162 Q1153 137 1228 137 L1284 137 L1284 0 L707 0 L707 137 L748 137 Q821 137 843 159.5 Q865 182 865 258 L865 637 Q865 701 859.5 730 Q854 759 836 781 Q795 835 713 835 Q600 835 524 735 Q491 691 478 639 Q465 587 465 498 L465 258 Q465 182 484 162 Q508 137 582 137 L623 137 L623 0 L50 0 L50 137 L103 137 Q177 137 198.5 159.5 Q220 182 220 258 L220 1108 Q220 1184 201 1204 Q178 1229 103 1229 L50 1229 Z M45 1476 L-32 1476 Q-13 1561 6.5 1604.5 Q26 1648 60 1678 Q110 1724 186 1724 Q221 1724 261 1713 L376 1683 Q398 1677 420 1677 Q454 1677 473 1694.5 Q492 1712 509 1758 L586 1758 Q570 1685 554 1646.5 Q538 1608 509 1575 Q452 1511 370 1511 Q339 1511 306 1520 L194 1550 Q156 1560 132 1560 Q70 1560 45 1476 Z " />
<glyph glyph-name="itilde" unicode="&#x129;" horiz-adv-x="712" d="M51 0 L51 137 L125 137 Q198 137 220 159.5 Q242 182 242 258 L242 703 Q242 779 223 799 Q200 824 125 824 L51 824 L51 961 L490 961 L490 258 Q490 182 509 162 Q532 137 607 137 L668 137 L668 0 L51 0 Z M54 1136 L-29 1136 Q-8 1226 13.5 1273 Q35 1320 70 1352 Q123 1400 201 1400 Q238 1400 279 1389 L399 1358 Q424 1351 446 1351 Q482 1351 501 1370 Q520 1389 538 1442 L621 1442 Q601 1360 584 1319 Q567 1278 539 1244 Q484 1179 393 1179 Q358 1179 326 1188 L210 1219 Q175 1229 146 1229 Q78 1229 54 1136 Z " />
<glyph glyph-name="Imacron" unicode="&#x12a;" horiz-adv-x="844" d="M54 0 L54 155 L141 155 Q233 155 255 177 Q276 199 276 281 L276 1084 Q276 1166 255 1187 Q233 1210 141 1210 L54 1210 L54 1365 L790 1365 L790 1210 L703 1210 Q611 1210 589 1187 Q568 1166 568 1084 L568 281 Q568 199 589 177 Q611 155 703 155 L790 155 L790 0 L54 0 Z M126 1536 L126 1697 L718 1697 L718 1536 L126 1536 Z " />
<glyph glyph-name="imacron" unicode="&#x12b;" horiz-adv-x="712" d="M51 0 L51 137 L124 137 Q198 137 219.5 159.5 Q241 182 241 258 L241 703 Q241 779 222 799 Q199 824 124 824 L51 824 L51 961 L489 961 L489 258 Q489 182 508 162 Q532 137 607 137 L668 137 L668 0 L51 0 Z M12 1205 L12 1373 L621 1373 L621 1205 L12 1205 Z " />
<glyph glyph-name="Ibreve" unicode="&#x12c;" horiz-adv-x="844" d="M54 0 L54 155 L141 155 Q233 155 255 177 Q276 199 276 281 L276 1084 Q276 1166 255 1187 Q233 1210 141 1210 L54 1210 L54 1365 L790 1365 L790 1210 L703 1210 Q611 1210 589 1187 Q568 1166 568 1084 L568 281 Q568 199 589 177 Q611 155 703 155 L790 155 L790 0 L54 0 Z M79 1758 L171 1758 Q198 1698 240 1679 Q300 1652 401 1652 Q503 1652 553.5 1675.5 Q604 1699 628 1758 L721 1758 Q705 1681 686.5 1640 Q668 1599 634 1565 Q545 1476 400 1476 Q256 1476 167 1565 Q134 1599 115 1640.5 Q96 1682 79 1758 Z " />
<glyph glyph-name="ibreve" unicode="&#x12d;" horiz-adv-x="712" d="M51 0 L51 137 L124 137 Q198 137 219.5 159.5 Q241 182 241 258 L241 703 Q241 779 222 799 Q199 824 124 824 L51 824 L51 961 L489 961 L489 258 Q489 182 508 162 Q532 137 607 137 L668 137 L668 0 L51 0 Z M7 1442 L99 1442 Q128 1369 171 1347 Q229 1319 331 1319 Q432 1319 491 1347 Q536 1369 562 1442 L655 1442 Q638 1357 618.5 1311 Q599 1265 565 1229 Q476 1136 330 1136 Q187 1136 98 1229 Q63 1265 43.5 1311 Q24 1357 7 1442 Z " />
<glyph glyph-name="Iogonek" unicode="&#x12e;" horiz-adv-x="844" d="M604 0 Q532 -65 502.5 -118 Q473 -171 473 -233 Q473 -335 560 -335 Q593 -335 613 -322 Q633 -309 667 -266 L702 -287 Q615 -464 465 -464 Q386 -464 339.5 -422.5 Q293 -381 293 -310 Q293 -194 430 -75 Q481 -31 532 0 L54 0 L54 155 L141 155 Q233 155 255 177 Q276 199 276 281 L276 1084 Q276 1166 255 1187 Q233 1210 141 1210 L54 1210 L54 1365 L790 1365 L790 1210 L703 1210 Q611 1210 589 1187 Q568 1166 568 1084 L568 281 Q568 199 589 177 Q611 155 703 155 L790 155 L790 0 L604 0 Z " />
<glyph glyph-name="iogonek" unicode="&#x12f;" horiz-adv-x="712" d="M545 0 Q473 -65 443.5 -118 Q414 -171 414 -233 Q414 -335 501 -335 Q534 -335 554 -322 Q574 -309 608 -266 L642 -287 Q555 -464 406 -464 Q326 -464 280 -423 Q234 -382 234 -310 Q234 -194 371 -75 Q422 -31 473 0 L51 0 L51 137 L125 137 Q198 137 220 159.5 Q242 182 242 258 L242 703 Q242 779 223 799 Q200 824 125 824 L51 824 L51 961 L490 961 L490 258 Q490 182 509 162 Q532 137 607 137 L668 137 L668 0 L545 0 Z M349 1380 Q411 1380 455 1336 Q499 1292 499 1229 Q499 1166 455.5 1122 Q412 1078 350 1078 Q285 1078 240.5 1122.5 Q196 1167 196 1232 Q196 1292 241 1336 Q286 1380 349 1380 Z " />
<glyph glyph-name="Idot" unicode="&#x130;" horiz-adv-x="844" d="M54 0 L54 155 L141 155 Q233 155 255 177 Q276 199 276 281 L276 1084 Q276 1166 255 1187 Q233 1210 141 1210 L54 1210 L54 1365 L790 1365 L790 1210 L703 1210 Q611 1210 589 1187 Q568 1166 568 1084 L568 281 Q568 199 589 177 Q611 155 703 155 L790 155 L790 0 L54 0 Z M424 1765 Q482 1765 524 1722.5 Q566 1680 566 1621 Q566 1561 523.5 1518.5 Q481 1476 422 1476 Q361 1476 319 1518.5 Q277 1561 277 1622 Q277 1681 320 1723 Q363 1765 424 1765 Z " />
<glyph glyph-name="IJ" unicode="&#x132;" horiz-adv-x="1889" d="M54 0 L54 155 L141 155 Q233 155 255 177 Q276 199 276 281 L276 1084 Q276 1166 255 1187 Q233 1210 141 1210 L54 1210 L54 1365 L790 1365 L790 1210 L703 1210 Q611 1210 589 1187 Q568 1166 568 1084 L568 281 Q568 199 589 177 Q611 155 703 155 L790 155 L790 0 L54 0 Z M1170 1210 L1170 1365 L1888 1365 L1888 1210 L1827 1210 Q1735 1210 1714 1187 Q1693 1166 1693 1084 L1693 436 Q1693 248 1655 169 Q1600 55 1467 1 Q1367 -40 1241 -40 Q1038 -40 914 69 Q808 163 808 303 Q808 400 861 451 Q916 503 1000 503 Q1077 503 1120 456 Q1163 410 1163 340 Q1163 275 1130.5 236.5 Q1098 198 1026 177 Q1074 141 1107.5 129 Q1141 117 1194 117 Q1311 117 1361 186 Q1384 217 1392.5 261 Q1401 305 1401 396 L1401 1084 Q1401 1166 1380 1187 Q1358 1210 1266 1210 L1170 1210 Z " />
<glyph glyph-name="ij" unicode="&#x133;" horiz-adv-x="1320" d="M349 1380 Q411 1380 455 1336 Q499 1292 499 1229 Q499 1166 455.5 1122 Q412 1078 350 1078 Q285 1078 240.5 1122.5 Q196 1167 196 1232 Q196 1292 241 1336 Q286 1380 349 1380 Z M51 0 L51 137 L125 137 Q198 137 220 159.5 Q242 182 242 258 L242 703 Q242 779 223 799 Q200 824 125 824 L51 824 L51 961 L490 961 L490 258 Q490 182 509 162 Q532 137 607 137 L668 137 L668 0 L51 0 Z M702 824 L702 961 L1149 961 L1149 -52 Q1149 -243 1092 -319 Q1002 -438 815 -438 Q701 -438 621 -383 Q536 -325 536 -231 Q536 -168 576 -127.5 Q616 -87 679 -87 Q735 -87 768 -118.5 Q801 -150 801 -205 Q801 -253 776 -278.5 Q751 -304 694 -314 Q752 -337 782 -337 Q847 -337 877 -281 Q891 -255 895.5 -223.5 Q900 -192 900 -118 L900 702 Q900 779 881 799 Q858 824 783 824 L702 824 Z M1006 1380 Q1069 1380 1113 1336 Q1157 1292 1157 1229 Q1157 1166 1113.5 1122 Q1070 1078 1008 1078 Q943 1078 898.5 1122.5 Q854 1167 854 1232 Q854 1292 899 1336 Q944 1380 1006 1380 Z " />
<glyph glyph-name="Jcircumflex" unicode="&#x134;" horiz-adv-x="1180" d="M413 1210 L413 1365 L1131 1365 L1131 1210 L1070 1210 Q978 1210 957 1187 Q936 1166 936 1084 L936 436 Q936 248 898 169 Q843 55 710 1 Q610 -40 484 -40 Q281 -40 157 69 Q51 163 51 303 Q51 400 104 451 Q159 503 243 503 Q320 503 363 456 Q406 410 406 340 Q406 274 373.5 236 Q341 198 269 177 Q317 141 350.5 129 Q384 117 437 117 Q554 117 605 186 Q627 217 635.5 261 Q644 305 644 396 L644 1084 Q644 1166 623 1187 Q601 1210 509 1210 L413 1210 Z M451 1476 L648 1758 L885 1758 L1082 1476 L986 1476 L766 1589 L546 1476 L451 1476 Z " />
<glyph glyph-name="jcircumflex" unicode="&#x135;" horiz-adv-x="651" d="M34 824 L34 961 L481 961 L481 -52 Q481 -243 424 -319 Q334 -438 147 -438 Q33 -438 -47 -383 Q-132 -325 -132 -231 Q-132 -168 -92 -127.5 Q-52 -87 10 -87 Q67 -87 100 -118.5 Q133 -150 133 -205 Q133 -253 108 -278.5 Q83 -304 26 -314 Q84 -337 114 -337 Q179 -337 209 -281 Q223 -255 227.5 -223.5 Q232 -192 232 -118 L232 702 Q232 779 213 799 Q190 824 115 824 L34 824 Z M-65 1106 L163 1474 L346 1474 L573 1106 L473 1106 L254 1276 L35 1106 L-65 1106 Z " />
<glyph glyph-name="Kcommaaccent" unicode="&#x136;" horiz-adv-x="1576" d="M545 468 L545 281 Q545 199 566 177 Q588 155 679 155 L734 155 L734 0 L51 0 L51 155 L130 155 Q222 155 244 177 Q265 199 265 281 L265 1084 Q265 1165 244 1187 Q222 1210 130 1210 L51 1210 L51 1365 L745 1365 L745 1210 L679 1210 Q590 1210 567.5 1189 Q545 1168 545 1084 L545 700 L1005 1131 Q1039 1163 1039 1184 Q1039 1209 958 1209 L868 1209 L868 1365 L1556 1365 L1556 1209 L1509 1209 Q1426 1209 1350 1169.5 Q1274 1130 1163 1029 L963 847 L1378 258 Q1424 193 1460 174 Q1496 155 1574 155 L1642 155 L1642 0 L885 0 L885 155 L996 155 Q1047 155 1064.5 162 Q1082 169 1082 190 Q1082 214 1049 261 L768 662 L545 468 Z M739 -574 L739 -492 Q809 -478 837.5 -442 Q866 -406 876 -321 Q831 -345 798 -345 Q754 -345 724 -314.5 Q694 -284 694 -238 Q694 -185 731.5 -150.5 Q769 -116 827 -116 Q903 -116 948.5 -166 Q994 -216 994 -299 Q994 -423 916 -501 Q856 -561 739 -574 Z " />
<glyph glyph-name="kcommaaccent" unicode="&#x137;" horiz-adv-x="1302" d="M466 494 L775 746 Q811 775 811 796 Q811 813 796.5 818.5 Q782 824 739 824 L629 824 L629 961 L1237 961 L1237 824 L1196 824 Q1143 824 1110 809.5 Q1077 795 1019 747 L830 592 L1071 252 Q1152 137 1259 137 L1306 137 L1306 0 L717 0 L717 137 L786 137 Q844 137 844 168 Q844 186 820 222 L658 458 L466 306 L466 259 Q466 182 485 162 Q508 137 583 137 L607 137 L607 0 L51 0 L51 137 L104 137 Q178 137 199.5 159.5 Q221 182 221 259 L221 1108 Q221 1184 202 1204 Q179 1229 104 1229 L51 1229 L51 1365 L466 1365 L466 494 Z M567 -574 L567 -492 Q637 -478 665.5 -442 Q694 -406 703 -321 Q659 -345 626 -345 Q582 -345 552 -314.5 Q522 -284 522 -238 Q522 -184 559.5 -150 Q597 -116 656 -116 Q731 -116 776.5 -166 Q822 -216 822 -299 Q822 -423 744 -501 Q684 -561 567 -574 Z " />
<glyph glyph-name="kgreenlandic" unicode="&#x138;" horiz-adv-x="1305" d="M466 494 L775 746 Q811 775 811 796 Q811 813 796.5 818.5 Q782 824 739 824 L629 824 L629 961 L1237 961 L1237 824 L1196 824 Q1143 824 1110 809.5 Q1077 795 1019 747 L830 592 L1071 252 Q1152 137 1259 137 L1306 137 L1306 0 L717 0 L717 137 L786 137 Q844 137 844 168 Q844 186 820 222 L658 458 L466 306 L466 259 Q466 182 485 162 Q508 137 583 137 L607 137 L607 0 L51 0 L51 137 L104 137 Q178 137 199.5 159.5 Q221 182 221 259 L221 703 Q221 780 202 800 Q179 825 104 825 L51 825 L51 961 L466 961 L466 494 Z " />
<glyph glyph-name="Lacute" unicode="&#x139;" horiz-adv-x="1413" d="M51 1365 L783 1365 L783 1210 L687 1210 Q595 1210 573 1187 Q552 1166 552 1084 L552 155 L805 155 Q968 155 1034 188 Q1103 223 1132.5 314.5 Q1162 406 1164 591 L1319 591 L1319 0 L51 0 L51 155 L130 155 Q222 155 244 178 Q265 199 265 281 L265 1084 Q265 1166 244 1187 Q222 1210 130 1210 L51 1210 L51 1365 Z M420 1476 L309 1476 L591 1724 Q652 1778 696 1778 Q734 1778 762 1749.5 Q790 1721 790 1682 Q790 1614 702 1581 L420 1476 Z " />
<glyph glyph-name="lacute" unicode="&#x13a;" horiz-adv-x="692" d="M468 1365 L468 258 Q468 181 487 162 Q511 137 586 137 L648 137 L648 0 L41 0 L41 137 L103 137 Q177 137 198.5 159.5 Q220 182 220 258 L220 1107 Q220 1184 201 1204 Q178 1229 103 1229 L41 1229 L41 1365 L468 1365 Z M271 1476 L160 1476 L442 1724 Q503 1778 547 1778 Q585 1778 613 1749.5 Q641 1721 641 1682 Q641 1614 553 1581 L271 1476 Z " />
<glyph glyph-name="Lcommaaccent" unicode="&#x13b;" horiz-adv-x="1413" d="M51 1365 L783 1365 L783 1210 L687 1210 Q595 1210 573 1187 Q552 1166 552 1084 L552 155 L805 155 Q968 155 1034 188 Q1103 223 1132.5 314.5 Q1162 406 1164 591 L1319 591 L1319 0 L51 0 L51 155 L130 155 Q222 155 244 178 Q265 199 265 281 L265 1084 Q265 1166 244 1187 Q222 1210 130 1210 L51 1210 L51 1365 Z M478 -574 L478 -492 Q548 -478 576.5 -442 Q605 -406 614 -321 Q570 -345 537 -345 Q493 -345 463 -314.5 Q433 -284 433 -238 Q433 -184 470.5 -150 Q508 -116 567 -116 Q642 -116 687.5 -166 Q733 -216 733 -299 Q733 -423 655 -501 Q595 -561 478 -574 Z " />
<glyph glyph-name="lcommaaccent" unicode="&#x13c;" horiz-adv-x="692" d="M468 1365 L468 258 Q468 181 487 162 Q511 137 586 137 L648 137 L648 0 L41 0 L41 137 L103 137 Q177 137 198.5 159.5 Q220 182 220 258 L220 1107 Q220 1184 201 1204 Q178 1229 103 1229 L41 1229 L41 1365 L468 1365 Z M237 -574 L237 -492 Q307 -478 335.5 -442 Q364 -406 374 -321 Q329 -345 296 -345 Q252 -345 222 -314.5 Q192 -284 192 -238 Q192 -185 229.5 -150.5 Q267 -116 326 -116 Q401 -116 446.5 -166 Q492 -216 492 -299 Q492 -423 414 -501 Q354 -561 237 -574 Z " />
<glyph glyph-name="Lcaron" unicode="&#x13d;" horiz-adv-x="1413" d="M51 1365 L783 1365 L783 1210 L687 1210 Q595 1210 573 1187 Q552 1166 552 1084 L552 155 L805 155 Q968 155 1034 188 Q1103 223 1132.5 314.5 Q1162 406 1164 591 L1319 591 L1319 0 L51 0 L51 155 L130 155 Q222 155 244 178 Q265 199 265 281 L265 1084 Q265 1166 244 1187 Q222 1210 130 1210 L51 1210 L51 1365 Z M912 935 L912 1016 Q983 1031 1011 1066.5 Q1039 1102 1049 1188 Q1004 1164 971 1164 Q927 1164 897 1194.5 Q867 1225 867 1271 Q867 1324 904.5 1358 Q942 1392 1001 1392 Q1076 1392 1121.5 1342 Q1167 1292 1167 1210 Q1167 1086 1089 1008 Q1029 948 912 935 Z " />
<glyph glyph-name="lcaron" unicode="&#x13e;" horiz-adv-x="838" d="M468 1365 L468 258 Q468 181 487 162 Q511 137 586 137 L648 137 L648 0 L41 0 L41 137 L103 137 Q177 137 198.5 159.5 Q220 182 220 258 L220 1107 Q220 1184 201 1204 Q178 1229 103 1229 L41 1229 L41 1365 L468 1365 Z M583 907 L583 988 Q654 1003 682.5 1038.5 Q711 1074 720 1160 Q675 1136 642 1136 Q598 1136 568 1166.5 Q538 1197 538 1243 Q538 1296 575.5 1330.5 Q613 1365 672 1365 Q747 1365 792.5 1315 Q838 1265 838 1182 Q838 1057 760 980 Q700 920 583 907 Z " />
<glyph glyph-name="Ldot" unicode="&#x13f;" horiz-adv-x="1413" d="M51 1365 L783 1365 L783 1210 L687 1210 Q595 1210 573 1187 Q552 1166 552 1084 L552 155 L805 155 Q968 155 1034 188 Q1103 223 1132.5 314.5 Q1162 406 1164 591 L1319 591 L1319 0 L51 0 L51 155 L130 155 Q222 155 244 178 Q265 199 265 281 L265 1084 Q265 1166 244 1187 Q222 1210 130 1210 L51 1210 L51 1365 Z M878 886 Q938 886 981 842.5 Q1024 799 1024 738 Q1024 677 981 633.5 Q938 590 876 590 Q814 590 771 633.5 Q728 677 728 739 Q728 800 772 843 Q816 886 878 886 Z " />
<glyph glyph-name="ldot" unicode="&#x140;" horiz-adv-x="813" d="M468 1365 L468 258 Q468 181 487 162 Q511 137 586 137 L648 137 L648 0 L41 0 L41 137 L103 137 Q177 137 198.5 159.5 Q220 182 220 258 L220 1107 Q220 1184 201 1204 Q178 1229 103 1229 L41 1229 L41 1365 L468 1365 Z M736 886 Q796 886 839 842.5 Q882 799 882 738 Q882 677 838.5 633.5 Q795 590 734 590 Q672 590 629 633.5 Q586 677 586 739 Q586 800 630 843 Q674 886 736 886 Z " />
<glyph glyph-name="Lslash" unicode="&#x141;" horiz-adv-x="1424" d="M57 1365 L789 1365 L789 1210 L693 1210 Q601 1210 579 1187 Q558 1166 558 1084 L558 775 L911 1022 L911 857 L558 610 L558 155 L811 155 Q974 155 1040 188 Q1109 223 1138.5 315 Q1168 407 1170 591 L1325 591 L1325 0 L57 0 L57 155 L136 155 Q228 155 250 178 Q271 199 271 281 L271 484 L10 300 L10 466 L271 649 L271 1084 Q271 1166 250 1187 Q228 1210 136 1210 L57 1210 L57 1365 Z " />
<glyph glyph-name="lslash" unicode="&#x142;" horiz-adv-x="712" d="M232 578 L10 428 L10 559 L232 708 L232 1107 Q232 1184 213 1204 Q190 1229 114 1229 L52 1229 L52 1365 L480 1365 L480 815 L715 973 L715 843 L480 685 L480 258 Q480 181 499 162 Q523 137 598 137 L660 137 L660 0 L52 0 L52 137 L114 137 Q188 137 210 159.5 Q232 182 232 258 L232 578 Z " />
<glyph glyph-name="Nacute" unicode="&#x143;" horiz-adv-x="1668" d="M1430 0 L1142 0 L465 1112 L465 281 Q465 199 486 177 Q507 155 599 155 L692 155 L692 0 L20 0 L20 155 L115 155 Q207 155 229 177 Q250 199 250 281 L250 1084 Q250 1166 229 1187 Q207 1210 115 1210 L28 1210 L28 1365 L610 1365 L1215 374 L1215 1084 Q1215 1166 1194 1187 Q1172 1210 1080 1210 L985 1210 L985 1365 L1631 1365 L1631 1210 L1565 1210 Q1473 1210 1451 1187 Q1430 1166 1430 1084 L1430 0 Z M805 1476 L694 1476 L975 1724 Q1036 1778 1081 1778 Q1119 1778 1147 1749.5 Q1175 1721 1175 1682 Q1175 1614 1086 1581 L805 1476 Z " />
<glyph glyph-name="nacute" unicode="&#x144;" horiz-adv-x="1332" d="M51 0 L51 137 L117 137 Q191 137 212.5 159.5 Q234 182 234 258 L234 703 Q234 780 215 799 Q191 824 117 824 L51 824 L51 961 L479 961 L479 792 Q573 902 636 939 Q725 992 825 992 Q892 992 954 969.5 Q1016 947 1054 908 Q1092 869 1108 807.5 Q1124 746 1124 637 L1124 258 Q1124 181 1143 162 Q1167 137 1241 137 L1299 137 L1299 0 L721 0 L721 137 L762 137 Q835 137 857 159.5 Q879 182 879 258 L879 637 Q879 700 873 729.5 Q867 759 850 781 Q809 835 727 835 Q614 835 537 735 Q504 691 491.5 642 Q479 593 479 507 L479 258 Q479 182 498 162 Q522 137 596 137 L637 137 L637 0 L51 0 Z M467 1106 L743 1400 Q833 1495 898 1495 Q944 1495 975.5 1463.5 Q1007 1432 1007 1386 Q1007 1319 904 1267 L580 1106 L467 1106 Z " />
<glyph glyph-name="Ncommaaccent" unicode="&#x145;" horiz-adv-x="1668" d="M1430 0 L1142 0 L465 1112 L465 281 Q465 199 486 177 Q507 155 599 155 L692 155 L692 0 L20 0 L20 155 L115 155 Q207 155 229 177 Q250 199 250 281 L250 1084 Q250 1166 229 1187 Q207 1210 115 1210 L28 1210 L28 1365 L610 1365 L1215 374 L1215 1084 Q1215 1166 1194 1187 Q1172 1210 1080 1210 L985 1210 L985 1365 L1631 1365 L1631 1210 L1565 1210 Q1473 1210 1451 1187 Q1430 1166 1430 1084 L1430 0 Z M718 -574 L718 -492 Q788 -478 816.5 -442 Q845 -406 854 -321 Q810 -345 777 -345 Q733 -345 703 -314.5 Q673 -284 673 -238 Q673 -184 710.5 -150 Q748 -116 807 -116 Q882 -116 927.5 -166 Q973 -216 973 -299 Q973 -423 895 -501 Q835 -561 718 -574 Z " />
<glyph glyph-name="ncommaaccent" unicode="&#x146;" horiz-adv-x="1332" d="M51 0 L51 137 L117 137 Q191 137 212.5 159.5 Q234 182 234 258 L234 703 Q234 780 215 799 Q191 824 117 824 L51 824 L51 961 L479 961 L479 792 Q573 902 636 939 Q725 992 825 992 Q892 992 954 969.5 Q1016 947 1054 908 Q1092 869 1108 807.5 Q1124 746 1124 637 L1124 258 Q1124 181 1143 162 Q1167 137 1241 137 L1299 137 L1299 0 L721 0 L721 137 L762 137 Q835 137 857 159.5 Q879 182 879 258 L879 637 Q879 700 873 729.5 Q867 759 850 781 Q809 835 727 835 Q614 835 537 735 Q504 691 491.5 642 Q479 593 479 507 L479 258 Q479 182 498 162 Q522 137 596 137 L637 137 L637 0 L51 0 Z M567 -574 L567 -492 Q637 -478 665.5 -442 Q694 -406 703 -321 Q659 -345 626 -345 Q582 -345 552 -314.5 Q522 -284 522 -238 Q522 -184 559.5 -150 Q597 -116 656 -116 Q731 -116 776.5 -166 Q822 -216 822 -299 Q822 -423 744 -501 Q684 -561 567 -574 Z " />
<glyph glyph-name="Ncaron" unicode="&#x147;" horiz-adv-x="1668" d="M1430 0 L1142 0 L465 1112 L465 281 Q465 199 486 177 Q507 155 599 155 L692 155 L692 0 L20 0 L20 155 L115 155 Q207 155 229 177 Q250 199 250 281 L250 1084 Q250 1166 229 1187 Q207 1210 115 1210 L28 1210 L28 1365 L610 1365 L1215 374 L1215 1084 Q1215 1166 1194 1187 Q1172 1210 1080 1210 L985 1210 L985 1365 L1631 1365 L1631 1210 L1565 1210 Q1473 1210 1451 1187 Q1430 1166 1430 1084 L1430 0 Z M534 1758 L629 1758 L850 1645 L1070 1758 L1166 1758 L968 1476 L731 1476 L534 1758 Z " />
<glyph glyph-name="ncaron" unicode="&#x148;" horiz-adv-x="1332" d="M51 0 L51 137 L117 137 Q191 137 212.5 159.5 Q234 182 234 258 L234 703 Q234 780 215 799 Q191 824 117 824 L51 824 L51 961 L479 961 L479 792 Q573 902 636 939 Q725 992 825 992 Q892 992 954 969.5 Q1016 947 1054 908 Q1092 869 1108 807.5 Q1124 746 1124 637 L1124 258 Q1124 181 1143 162 Q1167 137 1241 137 L1299 137 L1299 0 L721 0 L721 137 L762 137 Q835 137 857 159.5 Q879 182 879 258 L879 637 Q879 700 873 729.5 Q867 759 850 781 Q809 835 727 835 Q614 835 537 735 Q504 691 491.5 642 Q479 593 479 507 L479 258 Q479 182 498 162 Q522 137 596 137 L637 137 L637 0 L51 0 Z M356 1473 L456 1473 L675 1303 L894 1473 L994 1473 L767 1106 L583 1106 L356 1473 Z " />
<glyph glyph-name="napostrophe" unicode="&#x149;" horiz-adv-x="1589" d="M307 0 L307 137 L373 137 Q447 137 468.5 159.5 Q490 182 490 258 L490 703 Q490 780 471 799 Q447 824 373 824 L307 824 L307 961 L735 961 L735 792 Q829 902 892 939 Q982 992 1082 992 Q1148 992 1210 969 Q1272 946 1310 908 Q1348 869 1364 807.5 Q1380 746 1380 637 L1380 258 Q1380 181 1399 162 Q1423 137 1497 137 L1555 137 L1555 0 L978 0 L978 137 L1018 137 Q1092 137 1113.5 159.5 Q1135 182 1135 258 L1135 637 Q1135 700 1129 729 Q1123 758 1106 781 Q1066 835 984 835 Q870 835 793 735 Q760 690 747.5 641.5 Q735 593 735 507 L735 258 Q735 182 754 162 Q777 137 852 137 L893 137 L893 0 L307 0 Z M86 968 L86 1050 Q157 1064 185.5 1100 Q214 1136 223 1222 Q178 1197 145 1197 Q100 1197 70.5 1227.5 Q41 1258 41 1304 Q41 1357 78.5 1391.5 Q116 1426 175 1426 Q250 1426 295.5 1376 Q341 1326 341 1243 Q341 1119 263 1041 Q203 982 86 968 Z " />
<glyph glyph-name="Eng" unicode="&#x14a;" horiz-adv-x="1479" d="M51 0 L51 137 L117 137 Q191 137 212.5 159.5 Q234 182 234 258 L234 1107 Q234 1184 215 1204 Q191 1229 117 1229 L51 1229 L51 1365 L479 1365 L479 1169 Q604 1294 688 1336 Q807 1396 938 1396 Q1028 1396 1111.5 1369 Q1195 1342 1247 1296 Q1299 1251 1320.5 1177.5 Q1342 1104 1342 973 L1342 -144 Q1342 -335 1285 -411 Q1196 -531 1009 -531 Q895 -531 815 -476 Q730 -418 730 -324 Q730 -261 770 -220.5 Q810 -180 873 -180 Q929 -180 962 -211.5 Q995 -243 995 -297 Q995 -346 970 -371.5 Q945 -397 888 -406 Q946 -430 976 -430 Q1041 -430 1071 -374 Q1085 -348 1089 -317 Q1093 -286 1094 -210 L1097 905 Q1098 1010 1087.5 1060.5 Q1077 1111 1048 1148 Q976 1239 839 1239 Q672 1239 563 1097 Q515 1034 497 965.5 Q479 897 479 775 L479 258 Q479 182 498 162 Q522 137 596 137 L637 137 L637 0 L51 0 Z " />
<glyph glyph-name="eng" unicode="&#x14b;" horiz-adv-x="1298" d="M51 0 L51 137 L117 137 Q191 137 212.5 159.5 Q234 182 234 258 L234 703 Q234 780 215 799 Q191 824 117 824 L51 824 L51 961 L479 961 L479 792 Q573 902 636 939 Q725 992 825 992 Q892 992 954 969.5 Q1016 947 1054 908 Q1092 869 1108 807.5 Q1124 746 1124 637 L1124 -180 Q1124 -257 1143 -276 Q1167 -301 1241 -301 L1299 -301 L1299 -438 L721 -438 L721 -301 L762 -301 Q835 -301 857 -278.5 Q879 -256 879 -180 L879 637 Q879 700 873 729.5 Q867 759 850 781 Q809 835 727 835 Q614 835 537 735 Q504 691 491.5 642 Q479 593 479 507 L479 258 Q479 182 498 162 Q522 137 596 137 L637 137 L637 0 L51 0 Z " />
<glyph glyph-name="Omacron" unicode="&#x14c;" horiz-adv-x="1647" d="M824 1403 Q1148 1403 1354 1216 Q1575 1015 1575 683 Q1575 351 1354 149 Q1149 -38 826 -38 Q499 -38 294 149 Q73 351 73 693 Q73 913 181 1082 Q289 1253 480 1337 Q629 1403 824 1403 Z M824 1241 Q615 1241 498 1082 Q393 938 393 691 Q393 552 418 456 Q443 360 498 283 Q614 124 825 124 Q1034 124 1150 283 Q1255 428 1255 682 Q1255 940 1150 1082 Q1031 1241 824 1241 Z M528 1536 L528 1697 L1120 1697 L1120 1536 L528 1536 Z " />
<glyph glyph-name="omacron" unicode="&#x14d;" horiz-adv-x="1200" d="M601 996 Q833 996 981 866 Q1143 722 1143 480 Q1143 240 981 95 Q834 -35 604 -35 Q367 -35 220 95 Q58 239 58 488 Q58 726 220 866 Q371 996 601 996 Z M600 852 Q336 852 336 486 Q336 290 405 196 Q469 109 601 109 Q865 109 865 480 Q865 852 600 852 Z M296 1205 L296 1373 L905 1373 L905 1205 L296 1205 Z " />
<glyph glyph-name="Obreve" unicode="&#x14e;" horiz-adv-x="1647" d="M824 1403 Q1148 1403 1354 1216 Q1575 1015 1575 683 Q1575 351 1354 149 Q1149 -38 826 -38 Q499 -38 294 149 Q73 351 73 693 Q73 913 181 1082 Q289 1253 480 1337 Q629 1403 824 1403 Z M824 1241 Q615 1241 498 1082 Q393 938 393 691 Q393 552 418 456 Q443 360 498 283 Q614 124 825 124 Q1034 124 1150 283 Q1255 428 1255 682 Q1255 940 1150 1082 Q1031 1241 824 1241 Z M500 1758 L593 1758 Q619 1698 661 1679 Q721 1652 822 1652 Q924 1652 975 1675.5 Q1026 1699 1050 1758 L1142 1758 Q1126 1681 1107.5 1640 Q1089 1599 1056 1565 Q966 1476 821 1476 Q678 1476 588 1565 Q555 1599 536 1640.5 Q517 1682 500 1758 Z " />
<glyph glyph-name="obreve" unicode="&#x14f;" horiz-adv-x="1176" d="M601 996 Q833 996 981 866 Q1143 722 1143 480 Q1143 240 981 95 Q834 -35 604 -35 Q367 -35 220 95 Q58 239 58 488 Q58 726 220 866 Q371 996 601 996 Z M600 852 Q336 852 336 486 Q336 290 405 196 Q469 109 601 109 Q865 109 865 480 Q865 852 600 852 Z M271 1442 L363 1442 Q391 1369 435 1347 Q493 1319 595 1319 Q696 1319 755 1347 Q800 1369 826 1442 L919 1442 Q902 1357 882.5 1311 Q863 1265 829 1229 Q740 1136 594 1136 Q451 1136 362 1229 Q327 1265 307.5 1311 Q288 1357 271 1442 Z " />
<glyph glyph-name="Ohungarumlaut" unicode="&#x150;" horiz-adv-x="1647" d="M824 1403 Q1148 1403 1354 1216 Q1575 1015 1575 683 Q1575 351 1354 149 Q1149 -38 826 -38 Q499 -38 294 149 Q73 351 73 693 Q73 913 181 1082 Q289 1253 480 1337 Q629 1403 824 1403 Z M824 1241 Q615 1241 498 1082 Q393 938 393 691 Q393 552 418 456 Q443 360 498 283 Q614 124 825 124 Q1034 124 1150 283 Q1255 428 1255 682 Q1255 940 1150 1082 Q1031 1241 824 1241 Z M648 1476 L570 1476 L711 1702 Q758 1778 811 1778 Q846 1778 872 1753 Q898 1728 898 1695 Q898 1647 842 1608 L648 1476 Z M921 1476 L842 1476 L1053 1716 Q1108 1778 1154 1778 Q1187 1778 1213.5 1751.5 Q1240 1725 1240 1692 Q1240 1639 1169 1603 L921 1476 Z " />
<glyph glyph-name="ohungarumlaut" unicode="&#x151;" horiz-adv-x="1200" d="M601 996 Q833 996 981 866 Q1143 722 1143 480 Q1143 240 981 95 Q834 -35 604 -35 Q367 -35 220 95 Q58 239 58 488 Q58 726 220 866 Q371 996 601 996 Z M600 852 Q336 852 336 486 Q336 290 405 196 Q469 109 601 109 Q865 109 865 480 Q865 852 600 852 Z M355 1106 L500 1375 Q538 1445 567 1470.5 Q596 1496 636 1496 Q674 1496 701 1469.5 Q728 1443 728 1406 Q728 1359 667 1304 L445 1106 L355 1106 Z M625 1106 L847 1392 Q895 1454 922.5 1474 Q950 1494 987 1494 Q1027 1494 1054.5 1466 Q1082 1438 1082 1398 Q1082 1344 1003 1293 L715 1106 L625 1106 Z " />
<glyph glyph-name="Racute" unicode="&#x154;" horiz-adv-x="1576" d="M783 155 L783 0 L51 0 L51 155 L130 155 Q222 155 244 178 Q265 199 265 281 L265 1084 Q265 1166 244 1187 Q222 1210 130 1210 L51 1210 L51 1365 L867 1365 Q1129 1365 1251 1282 Q1371 1200 1371 1036 Q1371 865 1237 775 Q1190 742 1135.5 724.5 Q1081 707 980 692 Q1063 677 1105.5 660 Q1148 643 1183 610 Q1221 574 1234 534 Q1247 494 1253 397 L1261 275 Q1265 207 1278 183 Q1291 159 1323 159 Q1362 159 1373 198.5 Q1384 238 1385 389 L1515 389 Q1515 220 1501 158 Q1456 -40 1238 -40 Q1110 -40 1045 25 Q976 92 972 211 L966 370 Q961 532 897 588 Q832 644 648 644 L552 644 L552 281 Q552 199 573 178 Q595 155 687 155 L783 155 Z M552 799 L792 799 Q942 799 1006 849 Q1072 900 1072 1004 Q1072 1132 986 1178 Q926 1210 786 1210 L552 1210 L552 799 Z M660 1476 L549 1476 L831 1724 Q892 1778 936 1778 Q974 1778 1002 1749.5 Q1030 1721 1030 1682 Q1030 1614 942 1581 L660 1476 Z " />
<glyph glyph-name="racute" unicode="&#x155;" horiz-adv-x="1007" d="M697 137 L697 0 L51 0 L51 137 L117 137 Q191 137 212.5 159.5 Q234 182 234 258 L234 703 Q234 780 215 800 Q191 825 117 825 L51 825 L51 961 L479 961 L479 817 Q540 914 594 947 Q660 988 738 988 Q858 988 927 911 Q980 851 980 767 Q980 691 934 643 Q888 595 815 595 Q753 595 714.5 629.5 Q676 664 676 720 Q676 773 704.5 805 Q733 837 800 859 Q742 879 709 879 Q668 879 622 849.5 Q576 820 545 773 Q479 675 479 517 L479 258 Q479 182 498 162 Q521 137 596 137 L697 137 Z M307 1106 L583 1400 Q633 1453 667 1474 Q701 1495 737 1495 Q783 1495 814.5 1463.5 Q846 1432 846 1386 Q846 1318 744 1267 L419 1106 L307 1106 Z " />
<glyph glyph-name="Rcommaaccent" unicode="&#x156;" horiz-adv-x="1576" d="M783 155 L783 0 L51 0 L51 155 L130 155 Q222 155 244 178 Q265 199 265 281 L265 1084 Q265 1166 244 1187 Q222 1210 130 1210 L51 1210 L51 1365 L867 1365 Q1129 1365 1251 1282 Q1371 1200 1371 1036 Q1371 865 1237 775 Q1190 742 1135.5 724.5 Q1081 707 980 692 Q1063 677 1105.5 660 Q1148 643 1183 610 Q1221 574 1234 534 Q1247 494 1253 397 L1261 275 Q1265 207 1278 183 Q1291 159 1323 159 Q1362 159 1373 198.5 Q1384 238 1385 389 L1515 389 Q1515 220 1501 158 Q1456 -40 1238 -40 Q1110 -40 1045 25 Q976 92 972 211 L966 370 Q961 532 897 588 Q832 644 648 644 L552 644 L552 281 Q552 199 573 178 Q595 155 687 155 L783 155 Z M552 799 L792 799 Q942 799 1006 849 Q1072 900 1072 1004 Q1072 1132 986 1178 Q926 1210 786 1210 L552 1210 L552 799 Z M622 -574 L622 -492 Q692 -478 720.5 -442 Q749 -406 759 -321 Q714 -345 681 -345 Q637 -345 607 -314.5 Q577 -284 577 -238 Q577 -184 614.5 -150 Q652 -116 710 -116 Q786 -116 831.5 -166 Q877 -216 877 -299 Q877 -423 799 -501 Q739 -561 622 -574 Z " />
<glyph glyph-name="rcommaaccent" unicode="&#x157;" horiz-adv-x="1007" d="M697 137 L697 0 L51 0 L51 137 L117 137 Q191 137 212.5 159.5 Q234 182 234 258 L234 703 Q234 780 215 800 Q191 825 117 825 L51 825 L51 961 L479 961 L479 817 Q540 914 594 947 Q660 988 738 988 Q858 988 927 911 Q980 851 980 767 Q980 691 934 643 Q888 595 815 595 Q753 595 714.5 629.5 Q676 664 676 720 Q676 773 704.5 805 Q733 837 800 859 Q742 879 709 879 Q668 879 622 849.5 Q576 820 545 773 Q479 675 479 517 L479 258 Q479 182 498 162 Q521 137 596 137 L697 137 Z M283 -574 L283 -492 Q353 -478 381.5 -442 Q410 -406 420 -321 Q375 -345 342 -345 Q298 -345 268 -314.5 Q238 -284 238 -238 Q238 -184 275.5 -150 Q313 -116 372 -116 Q447 -116 492.5 -166 Q538 -216 538 -299 Q538 -423 460 -501 Q400 -561 283 -574 Z " />
<glyph glyph-name="Rcaron" unicode="&#x158;" horiz-adv-x="1576" d="M783 155 L783 0 L51 0 L51 155 L130 155 Q222 155 244 178 Q265 199 265 281 L265 1084 Q265 1166 244 1187 Q222 1210 130 1210 L51 1210 L51 1365 L867 1365 Q1129 1365 1251 1282 Q1371 1200 1371 1036 Q1371 865 1237 775 Q1190 742 1135.5 724.5 Q1081 707 980 692 Q1063 677 1105.5 660 Q1148 643 1183 610 Q1221 574 1234 534 Q1247 494 1253 397 L1261 275 Q1265 207 1278 183 Q1291 159 1323 159 Q1362 159 1373 198.5 Q1384 238 1385 389 L1515 389 Q1515 220 1501 158 Q1456 -40 1238 -40 Q1110 -40 1045 25 Q976 92 972 211 L966 370 Q961 532 897 588 Q832 644 648 644 L552 644 L552 281 Q552 199 573 178 Q595 155 687 155 L783 155 Z M552 799 L792 799 Q942 799 1006 849 Q1072 900 1072 1004 Q1072 1132 986 1178 Q926 1210 786 1210 L552 1210 L552 799 Z M425 1758 L520 1758 L740 1645 L961 1758 L1056 1758 L859 1476 L622 1476 L425 1758 Z " />
<glyph glyph-name="rcaron" unicode="&#x159;" horiz-adv-x="1007" d="M697 137 L697 0 L51 0 L51 137 L117 137 Q191 137 212.5 159.5 Q234 182 234 258 L234 703 Q234 780 215 800 Q191 825 117 825 L51 825 L51 961 L479 961 L479 817 Q540 914 594 947 Q660 988 738 988 Q858 988 927 911 Q980 851 980 767 Q980 691 934 643 Q888 595 815 595 Q753 595 714.5 629.5 Q676 664 676 720 Q676 773 704.5 805 Q733 837 800 859 Q742 879 709 879 Q668 879 622 849.5 Q576 820 545 773 Q479 675 479 517 L479 258 Q479 182 498 162 Q521 137 596 137 L697 137 Z M178 1473 L278 1473 L497 1303 L716 1473 L816 1473 L589 1106 L406 1106 L178 1473 Z " />
<glyph glyph-name="Sacute" unicode="&#x15a;" horiz-adv-x="1312" d="M86 0 L86 564 L244 564 Q270 439 303 372 Q336 305 398 251 Q521 144 710 144 Q840 144 910.5 190.5 Q981 237 981 323 Q981 400 925.5 448.5 Q870 497 750 525 L529 576 Q342 620 233 689 Q81 785 81 983 Q81 1183 229 1300 Q364 1405 570 1405 Q686 1405 766.5 1377 Q847 1349 970 1266 L1042 1365 L1163 1365 L1163 848 L1009 848 Q966 1050 855 1144 Q805 1188 730.5 1213.5 Q656 1239 582 1239 Q467 1239 397 1197 Q364 1177 344 1140.5 Q324 1104 324 1064 Q324 995 371.5 953.5 Q419 912 525 887 L799 824 Q982 782 1094 698 Q1160 649 1197.5 568 Q1235 487 1235 395 Q1235 270 1169 168 Q1102 64 967 8 Q852 -40 724 -40 Q605 -40 505.5 -3 Q406 34 271 128 L226 0 L86 0 Z M599 1476 L488 1476 L770 1724 Q831 1778 875 1778 Q913 1778 941 1749.5 Q969 1721 969 1682 Q969 1614 881 1581 L599 1476 Z " />
<glyph glyph-name="sacute" unicode="&#x15b;" horiz-adv-x="1007" d="M61 -12 L61 381 L210 381 Q236 287 270.5 236.5 Q305 186 367 152 Q437 113 532 113 Q611 113 657.5 146.5 Q704 180 704 237 Q704 283 664.5 312 Q625 341 534 363 L384 398 Q71 472 71 695 Q71 844 185 922 Q292 996 445 996 Q527 996 591.5 974.5 Q656 953 735 899 L779 974 L896 974 L896 619 L758 619 Q736 686 713.5 721.5 Q691 757 655 786 Q618 815 563 833 Q508 851 458 851 Q388 851 346.5 820.5 Q305 790 305 739 Q305 662 420 635 L604 592 Q771 552 851 487 Q947 408 947 277 Q947 136 849 53 Q746 -35 558 -35 Q463 -35 400 -14 Q337 7 232 74 L196 -12 L61 -12 Z M296 1106 L572 1400 Q662 1495 727 1495 Q773 1495 804.5 1463.5 Q836 1432 836 1386 Q836 1319 733 1267 L408 1106 L296 1106 Z " />
<glyph glyph-name="Scircumflex" unicode="&#x15c;" horiz-adv-x="1312" d="M86 0 L86 564 L244 564 Q270 439 303 372 Q336 305 398 251 Q521 144 710 144 Q840 144 910.5 190.5 Q981 237 981 323 Q981 400 925.5 448.5 Q870 497 750 525 L529 576 Q342 620 233 689 Q81 785 81 983 Q81 1183 229 1300 Q364 1405 570 1405 Q686 1405 766.5 1377 Q847 1349 970 1266 L1042 1365 L1163 1365 L1163 848 L1009 848 Q966 1050 855 1144 Q805 1188 730.5 1213.5 Q656 1239 582 1239 Q467 1239 397 1197 Q364 1177 344 1140.5 Q324 1104 324 1064 Q324 995 371.5 953.5 Q419 912 525 887 L799 824 Q982 782 1094 698 Q1160 649 1197.5 568 Q1235 487 1235 395 Q1235 270 1169 168 Q1102 64 967 8 Q852 -40 724 -40 Q605 -40 505.5 -3 Q406 34 271 128 L226 0 L86 0 Z M325 1476 L522 1758 L759 1758 L957 1476 L861 1476 L641 1589 L420 1476 L325 1476 Z " />
<glyph glyph-name="scircumflex" unicode="&#x15d;" horiz-adv-x="1007" d="M61 -12 L61 381 L210 381 Q236 287 270.5 236.5 Q305 186 367 152 Q437 113 532 113 Q611 113 657.5 146.5 Q704 180 704 237 Q704 283 664.5 312 Q625 341 534 363 L384 398 Q71 472 71 695 Q71 844 185 922 Q292 996 445 996 Q527 996 591.5 974.5 Q656 953 735 899 L779 974 L896 974 L896 619 L758 619 Q736 686 713.5 721.5 Q691 757 655 786 Q618 815 563 833 Q508 851 458 851 Q388 851 346.5 820.5 Q305 790 305 739 Q305 662 420 635 L604 592 Q771 552 851 487 Q947 408 947 277 Q947 136 849 53 Q746 -35 558 -35 Q463 -35 400 -14 Q337 7 232 74 L196 -12 L61 -12 Z M185 1106 L412 1474 L596 1474 L823 1106 L723 1106 L504 1276 L285 1106 L185 1106 Z " />
<glyph glyph-name="Scedilla" unicode="&#x15e;" horiz-adv-x="1312" d="M687 -39 L687 -120 Q735 -113 772 -113 Q842 -113 890 -161.5 Q938 -210 938 -280 Q938 -364 876.5 -414 Q815 -464 713 -464 Q581 -464 385 -372 L432 -271 Q561 -350 664 -350 Q753 -350 753 -278 Q753 -242 729 -221 Q705 -200 664 -200 Q641 -200 600 -208 L600 -28 Q513 -10 445 22 Q377 54 272 128 L226 0 L86 0 L86 564 L244 564 Q270 439 303 372 Q336 305 399 251 Q522 144 711 144 Q841 144 911.5 190.5 Q982 237 982 323 Q982 400 927 448.5 Q872 497 751 525 L529 576 Q342 619 233 689 Q81 785 81 983 Q81 1184 229 1300 Q364 1405 571 1405 Q687 1405 767.5 1377 Q848 1349 970 1266 L1042 1365 L1163 1365 L1163 848 L1009 848 Q966 1049 856 1144 Q806 1188 731.5 1213.5 Q657 1239 582 1239 Q467 1239 397 1197 Q364 1177 344 1140.5 Q324 1104 324 1064 Q324 995 371.5 953.5 Q419 912 526 887 L800 824 Q981 782 1094 698 Q1160 649 1197.5 568 Q1235 487 1235 395 Q1235 270 1169 168 Q1102 64 967 8 Q853 -40 730 -40 Q713 -40 687 -39 Z " />
<glyph glyph-name="scedilla" unicode="&#x15f;" horiz-adv-x="1007" d="M550 -35 L550 -115 Q598 -108 634 -108 Q704 -108 750.5 -156.5 Q797 -205 797 -278 Q797 -363 737.5 -413.5 Q678 -464 577 -464 Q444 -464 248 -372 L295 -271 Q422 -350 526 -350 Q615 -350 615 -277 Q615 -195 526 -195 Q504 -195 463 -203 L463 -28 Q407 -19 360.5 1.5 Q314 22 232 74 L196 -12 L61 -12 L61 381 L210 381 Q236 287 270.5 236.5 Q305 186 367 152 Q437 113 533 113 Q612 113 658.5 146.5 Q705 180 705 237 Q705 283 665.5 312 Q626 341 534 363 L384 398 Q71 472 71 695 Q71 844 185 922 Q292 996 445 996 Q528 996 592 974.5 Q656 953 736 899 L779 974 L896 974 L896 619 L758 619 Q736 686 714 721.5 Q692 757 655 786 Q618 815 564 833 Q510 851 459 851 Q389 851 347.5 820.5 Q306 790 306 739 Q306 662 420 635 L604 592 Q770 553 851 487 Q947 408 947 277 Q947 129 843 47.5 Q739 -34 550 -35 Z " />
<glyph glyph-name="Scaron" unicode="&#x160;" horiz-adv-x="1312" d="M86 0 L86 564 L244 564 Q270 439 303 372 Q336 305 398 251 Q521 144 710 144 Q840 144 910.5 190.5 Q981 237 981 323 Q981 400 925.5 448.5 Q870 497 750 525 L529 576 Q342 620 233 689 Q81 785 81 983 Q81 1183 229 1300 Q364 1405 570 1405 Q686 1405 766.5 1377 Q847 1349 970 1266 L1042 1365 L1163 1365 L1163 848 L1009 848 Q966 1050 855 1144 Q805 1188 730.5 1213.5 Q656 1239 582 1239 Q467 1239 397 1197 Q364 1177 344 1140.5 Q324 1104 324 1064 Q324 995 371.5 953.5 Q419 912 525 887 L799 824 Q982 782 1094 698 Q1160 649 1197.5 568 Q1235 487 1235 395 Q1235 270 1169 168 Q1102 64 967 8 Q852 -40 724 -40 Q605 -40 505.5 -3 Q406 34 271 128 L226 0 L86 0 Z M340 1758 L435 1758 L655 1645 L876 1758 L971 1758 L774 1476 L537 1476 L340 1758 Z " />
<glyph glyph-name="scaron" unicode="&#x161;" horiz-adv-x="1007" d="M61 -12 L61 381 L210 381 Q236 287 270.5 236.5 Q305 186 367 152 Q437 113 532 113 Q611 113 657.5 146.5 Q704 180 704 237 Q704 283 664.5 312 Q625 341 534 363 L384 398 Q71 472 71 695 Q71 844 185 922 Q292 996 445 996 Q527 996 591.5 974.5 Q656 953 735 899 L779 974 L896 974 L896 619 L758 619 Q736 686 713.5 721.5 Q691 757 655 786 Q618 815 563 833 Q508 851 458 851 Q388 851 346.5 820.5 Q305 790 305 739 Q305 662 420 635 L604 592 Q771 552 851 487 Q947 408 947 277 Q947 136 849 53 Q746 -35 558 -35 Q463 -35 400 -14 Q337 7 232 74 L196 -12 L61 -12 Z M184 1473 L284 1473 L503 1303 L723 1473 L822 1473 L595 1106 L412 1106 L184 1473 Z " />
<glyph glyph-name="Tcommaaccent" unicode="&#x162;" horiz-adv-x="1383" d="M548 1214 Q419 1213 359 1183 Q281 1143 246 1057.5 Q211 972 205 800 L49 800 L49 1365 L1333 1365 L1333 800 L1178 800 Q1173 932 1156.5 1000 Q1140 1068 1102 1118 Q1060 1171 1002.5 1192 Q945 1213 835 1214 L835 281 Q835 199 856 177 Q878 155 970 155 L1087 155 L1087 0 L296 0 L296 155 L413 155 Q506 155 527 177 Q548 199 548 281 L548 1214 Z M583 -574 L583 -492 Q653 -478 681.5 -442 Q710 -406 720 -321 Q675 -345 642 -345 Q598 -345 568 -314.5 Q538 -284 538 -238 Q538 -184 575.5 -150 Q613 -116 671 -116 Q747 -116 792.5 -166 Q838 -216 838 -299 Q838 -423 760 -501 Q700 -561 583 -574 Z " />
<glyph glyph-name="tcommaaccent" unicode="&#x163;" horiz-adv-x="824" d="M188 820 L30 820 L30 953 Q128 975 178 1009 Q228 1043 260 1110 Q288 1167 308 1338 L437 1338 L437 961 L702 961 L702 820 L433 820 L433 273 Q433 205 448.5 179 Q464 153 505 153 Q573 153 588 226 Q597 275 599 453 L732 453 Q732 407 732 381 Q732 271 722 208.5 Q712 146 687 95 Q623 -35 443 -35 Q298 -35 235 65 Q208 107 198 158 Q188 209 188 301 L188 820 Z M308 -574 L308 -492 Q378 -478 406.5 -442 Q435 -406 445 -321 Q400 -345 367 -345 Q323 -345 293 -314.5 Q263 -284 263 -238 Q263 -184 300.5 -150 Q338 -116 396 -116 Q472 -116 517.5 -166 Q563 -216 563 -299 Q563 -423 485 -501 Q425 -561 308 -574 Z " />
<glyph glyph-name="Tcaron" unicode="&#x164;" horiz-adv-x="1383" d="M548 1214 Q419 1213 359 1183 Q281 1143 246 1057.5 Q211 972 205 800 L49 800 L49 1365 L1333 1365 L1333 800 L1178 800 Q1173 932 1156.5 1000 Q1140 1068 1102 1118 Q1060 1171 1002.5 1192 Q945 1213 835 1214 L835 281 Q835 199 856 177 Q878 155 970 155 L1087 155 L1087 0 L296 0 L296 155 L413 155 Q506 155 527 177 Q548 199 548 281 L548 1214 Z M375 1758 L471 1758 L691 1645 L911 1758 L1007 1758 L809 1476 L572 1476 L375 1758 Z " />
<glyph glyph-name="tcaron" unicode="&#x165;" horiz-adv-x="830" d="M188 820 L30 820 L30 953 Q128 975 178 1009 Q228 1043 260 1110 Q288 1167 308 1338 L437 1338 L437 961 L702 961 L702 820 L433 820 L433 273 Q433 205 448.5 179 Q464 153 505 153 Q573 153 588 226 Q597 275 599 453 L732 453 Q732 407 732 381 Q732 271 722 208.5 Q712 146 687 95 Q623 -35 443 -35 Q298 -35 235 65 Q208 107 198 158 Q188 209 188 301 L188 820 Z M534 1047 L534 1129 Q605 1144 633 1179.5 Q661 1215 670 1301 Q626 1277 593 1277 Q548 1277 518.5 1307.5 Q489 1338 489 1384 Q489 1438 526.5 1472 Q564 1506 623 1506 Q698 1506 743.5 1456 Q789 1406 789 1323 Q789 1198 711 1121 Q651 1061 534 1047 Z " />
<glyph glyph-name="Tbar" unicode="&#x166;" horiz-adv-x="1383" d="M835 747 L1078 747 L1078 623 L835 623 L835 281 Q835 199 856 177 Q877 155 969 155 L1087 155 L1087 0 L296 0 L296 155 L413 155 Q506 155 527 177 Q548 199 548 281 L548 623 L304 623 L304 747 L548 747 L548 1214 Q419 1213 359 1183 Q281 1144 246 1058 Q211 972 205 800 L49 800 L49 1365 L1333 1365 L1333 800 L1178 800 Q1172 932 1156 1000 Q1140 1068 1101 1118 Q1060 1172 1002.5 1192.5 Q945 1213 835 1214 L835 747 Z " />
<glyph glyph-name="tbar" unicode="&#x167;" horiz-adv-x="824" d="M188 553 L30 553 L30 694 L188 694 L188 820 L30 820 L30 953 Q128 975 178 1009 Q228 1043 260 1110 Q288 1167 308 1338 L437 1338 L437 961 L702 961 L702 820 L433 820 L433 694 L630 694 L630 553 L429 553 L433 273 Q434 206 444 186 Q460 153 506 153 Q573 153 587 226 Q597 275 599 453 L732 453 Q732 407 732 381 Q732 271 722 208.5 Q712 146 687 95 Q622 -35 443 -35 Q298 -35 235 65 Q208 107 198 158 Q188 209 188 301 L188 553 Z " />
<glyph glyph-name="Utilde" unicode="&#x168;" horiz-adv-x="1556" d="M41 1210 L41 1365 L751 1365 L751 1210 L663 1210 Q571 1210 549 1187 Q528 1166 528 1084 L528 431 Q528 346 542 302 Q556 258 592 227 Q670 161 802 161 Q940 161 1025 234 Q1063 266 1076 309 Q1091 358 1091 431 L1091 1084 Q1091 1166 1070 1187 Q1049 1210 957 1210 L877 1210 L877 1365 L1510 1365 L1510 1210 L1448 1210 Q1356 1210 1334 1187 Q1313 1166 1313 1084 L1313 431 Q1313 209 1190 94 Q1122 30 1022 -2 Q904 -40 775 -40 Q535 -40 384 76 Q307 135 276 214 Q241 304 241 431 L241 1084 Q241 1166 220 1187 Q198 1210 106 1210 L41 1210 Z M588 1476 L511 1476 Q530 1561 549.5 1604.5 Q569 1648 603 1678 Q653 1724 729 1724 Q764 1724 804 1713 L919 1683 Q941 1677 963 1677 Q997 1677 1016 1694.5 Q1035 1712 1052 1758 L1129 1758 Q1113 1685 1097 1646.5 Q1081 1608 1052 1575 Q995 1511 913 1511 Q882 1511 849 1520 L737 1550 Q699 1560 675 1560 Q613 1560 588 1476 Z " />
<glyph glyph-name="utilde" unicode="&#x169;" horiz-adv-x="1322" d="M51 824 L51 961 L460 961 L460 323 Q460 259 465.5 230.5 Q471 202 489 180 Q529 126 611 126 Q725 126 801 226 Q834 269 847 319.5 Q860 370 860 453 L860 702 Q860 779 841 799 Q818 824 743 824 L648 824 L648 961 L1105 961 L1105 258 Q1105 182 1124 162 Q1147 137 1222 137 L1275 137 L1275 0 L860 0 L860 169 Q766 59 703 22 Q613 -31 513 -31 Q447 -31 385 -8.5 Q323 14 285 52 Q247 92 231 153 Q215 214 215 323 L215 702 Q215 779 196 799 Q173 824 98 824 L51 824 Z M432 1136 L349 1136 Q370 1226 391.5 1273 Q413 1320 448 1352 Q501 1400 578 1400 Q616 1400 657 1389 L777 1358 Q802 1351 824 1351 Q860 1351 879 1370 Q898 1389 916 1442 L999 1442 Q979 1360 962 1319 Q945 1278 917 1244 Q862 1179 771 1179 Q736 1179 704 1188 L588 1219 Q552 1229 524 1229 Q456 1229 432 1136 Z " />
<glyph glyph-name="Umacron" unicode="&#x16a;" horiz-adv-x="1556" d="M41 1210 L41 1365 L751 1365 L751 1210 L663 1210 Q571 1210 549 1187 Q528 1166 528 1084 L528 431 Q528 346 542 302 Q556 258 592 227 Q670 161 802 161 Q940 161 1025 234 Q1063 266 1076 309 Q1091 358 1091 431 L1091 1084 Q1091 1166 1070 1187 Q1049 1210 957 1210 L877 1210 L877 1365 L1510 1365 L1510 1210 L1448 1210 Q1356 1210 1334 1187 Q1313 1166 1313 1084 L1313 431 Q1313 209 1190 94 Q1122 30 1022 -2 Q904 -40 775 -40 Q535 -40 384 76 Q307 135 276 214 Q241 304 241 431 L241 1084 Q241 1166 220 1187 Q198 1210 106 1210 L41 1210 Z M515 1536 L515 1697 L1107 1697 L1107 1536 L515 1536 Z " />
<glyph glyph-name="umacron" unicode="&#x16b;" horiz-adv-x="1322" d="M51 824 L51 961 L460 961 L460 323 Q460 259 465.5 230.5 Q471 202 489 180 Q529 126 611 126 Q725 126 801 226 Q834 269 847 319.5 Q860 370 860 453 L860 702 Q860 779 841 799 Q818 824 743 824 L648 824 L648 961 L1105 961 L1105 258 Q1105 182 1124 162 Q1147 137 1222 137 L1275 137 L1275 0 L860 0 L860 169 Q766 59 703 22 Q613 -31 513 -31 Q447 -31 385 -8.5 Q323 14 285 52 Q247 92 231 153 Q215 214 215 323 L215 702 Q215 779 196 799 Q173 824 98 824 L51 824 Z M358 1205 L358 1373 L968 1373 L968 1205 L358 1205 Z " />
<glyph glyph-name="Ubreve" unicode="&#x16c;" horiz-adv-x="1556" d="M41 1210 L41 1365 L751 1365 L751 1210 L663 1210 Q571 1210 549 1187 Q528 1166 528 1084 L528 431 Q528 346 542 302 Q556 258 592 227 Q670 161 802 161 Q940 161 1025 234 Q1063 266 1076 309 Q1091 358 1091 431 L1091 1084 Q1091 1166 1070 1187 Q1049 1210 957 1210 L877 1210 L877 1365 L1510 1365 L1510 1210 L1448 1210 Q1356 1210 1334 1187 Q1313 1166 1313 1084 L1313 431 Q1313 209 1190 94 Q1122 30 1022 -2 Q904 -40 775 -40 Q535 -40 384 76 Q307 135 276 214 Q241 304 241 431 L241 1084 Q241 1166 220 1187 Q198 1210 106 1210 L41 1210 Z M477 1758 L569 1758 Q596 1698 638 1679 Q698 1652 798 1652 Q901 1652 951.5 1675.5 Q1002 1699 1026 1758 L1119 1758 Q1103 1681 1084.5 1640 Q1066 1599 1032 1565 Q942 1476 797 1476 Q654 1476 565 1565 Q531 1599 512.5 1640.5 Q494 1682 477 1758 Z " />
</font>
</svg>
